#N canvas 65 0 655 680 10;
#X obj 41 64 osc~ 440;
#X obj 41 146 *~;
#X obj 42 183 dac~;
#X obj 57 116 / 100;
#X floatatom 57 91 5 0 0 0 - - -;
#X text 116 64 <-- 440 Hz. sine wave at full blast;
#X text 118 88 Audio signals are represented by numbers between -1
and 1 Since the [osc~] is already full gain \, we want to multiply
those numbers by something less than 1 \, so our number box is divided
by 100 to give us a better range.;
#X obj 41 274 osc~ 440;
#X obj 41 356 *~;
#X obj 42 393 dac~;
#X obj 57 326 / 100;
#X floatatom 57 301 5 0 0 0 - - -;
#X obj 44 228 hsl 128 15 0 127 0 0 empty empty MIDI-slider_(0-127)
-2 -6 0 8 -262144 -1 -1 0 1;
#X obj 41 251 mtof;
#X floatatom 41 40 5 0 0 0 - - -;
#X text 117 38 Change the frequency in Hz here.;
#X obj 174 328 hsl 128 15 0 127 0 0 empty empty MIDI-slider_(0-127)
-2 -6 0 8 -262144 -1 -1 0 1;
#X obj 171 351 mtof;
#X floatatom 248 374 5 0 0 3 MIDI_note - -;
#X floatatom 171 374 5 0 0 3 Freq_(Hz) - -;
#X obj 41 494 osc~ 440;
#X obj 41 576 *~;
#X obj 42 613 dac~;
#X obj 44 448 hsl 128 15 0 127 0 0 empty empty empty -2 -6 0 8 -262144
-1 -1 0 1;
#X obj 41 471 mtof;
#X floatatom 69 576 0 0 0 0 - - -;
#X obj 57 548 dbtorms;
#X floatatom 57 516 0 0 80 0 - - -;
#X text 83 516 <--amplitude in dB;
#X text 92 575 <--linear gain;
#X text 129 253 Since pitch preception is logarithmic and not linear
\, we need a more "musical" way to set the pitch. [mtof] means "MIDI
to Frequency" \, and it converts numbers between 0-127 into standard
musical notes:;
#X text 227 472 Similarly \, volume preception is logarithmic rather
than linear. The dB scale is logarithmic \, and sounds "right" to our
ears. [dbtorms] converts the dB amplitude into a linear RootMeansSquare
measurement which we can use to multiply our signal with.;
#X text 39 7 FREQUENCY AND AMPLITUDE;
#X msg 402 600 \; pd dsp \$1;
#X obj 402 577 tgl 20 0 empty empty on/off 25 8 0 8 -258699 -1 -1 0
1;
#X connect 0 0 1 0;
#X connect 1 0 2 0;
#X connect 1 0 2 1;
#X connect 3 0 1 1;
#X connect 4 0 3 0;
#X connect 7 0 8 0;
#X connect 8 0 9 0;
#X connect 8 0 9 1;
#X connect 10 0 8 1;
#X connect 11 0 10 0;
#X connect 12 0 13 0;
#X connect 13 0 7 0;
#X connect 14 0 0 0;
#X connect 16 0 17 0;
#X connect 16 0 18 0;
#X connect 17 0 19 0;
#X connect 20 0 21 0;
#X connect 21 0 22 0;
#X connect 21 0 22 1;
#X connect 23 0 24 0;
#X connect 24 0 20 0;
#X connect 26 0 25 0;
#X connect 26 0 21 1;
#X connect 27 0 26 0;
#X connect 34 0 33 0;
