#N canvas 414 342 679 418 10;
#X text 40 25 STEREO-OUT ABSTRACTION;
#X obj 217 307 stereo-out~;
#X text 40 56 This is a stereo output abstraction \, which we will
reuse in all the following patches \, so that we don't have to program
all the boring stuff again and again ...;
#X text 40 102 It also shows how to use a GUI-object (e.g. a slider)
in an abstraction:;
#X obj 217 177 noise~;
#X obj 319 263 phasor~;
#X floatatom 319 239 5 0 0 0 - - -;
#X text 270 176 <- some white noise;
#X text 380 264 <- sawtooth wave;
#X connect 4 0 1 0;
#X connect 5 0 1 1;
#X connect 6 0 5 0;
