#N canvas 31 42 726 410 10;
#X obj 75 222 *~;
#X floatatom 75 122 0 0 0 1 modulation_frequency - -;
#X obj 60 245 +~;
#X floatatom 91 197 0 0 0 1 modulation_index - -;
#X obj 59 279 osc~;
#X obj 75 172 osc~;
#X obj 60 56 mtof;
#X obj 63 32 hsl 128 15 0 127 0 0 empty empty carrier_frequency -2
-6 0 8 -262144 -1 -1 0 1;
#X text 100 277 <---"carrier" oscillator;
#X text 516 335 <-- click to graph;
#X obj 444 357 tabwrite~ fm-output;
#N canvas 0 0 450 300 (subpatch) 0;
#X array fm-output 1000 float 0;
#X coords 0 1.02 999 -1.02 200 130 1;
#X restore 438 166 graph;
#X obj 444 334 metro 100;
#X obj 444 312 tgl 15 0 empty empty empty 0 -6 0 8 -262144 -1 -1 0
1;
#X text 99 246 <---add modulator to carrier frequency;
#X text 211 5 FREQUENCY MODULATION SYNTHESIS;
#X text 212 28 "Classic" FM synthesis involves a carrier frequency
(base pitch in Hz) \, a modulation frequency (how fast it changes in
Hz) and a modulation index (how far it goes in Hz above and below the
base pitch). More complex sounds \, such as those made by the Yamaha
DX-7 \, can be made by adding further modulators in different configurations.
;
#X obj 60 344 stereo-out~;
#X connect 0 0 2 1;
#X connect 1 0 5 0;
#X connect 2 0 4 0;
#X connect 3 0 0 1;
#X connect 4 0 10 0;
#X connect 4 0 17 0;
#X connect 4 0 17 1;
#X connect 5 0 0 0;
#X connect 6 0 2 0;
#X connect 7 0 6 0;
#X connect 12 0 10 0;
#X connect 13 0 12 0;
