#N canvas 254 194 770 406 10;
#X declare -lib zexy;
#X text 394 229 1st argument: name of delay line;
#X text 394 245 2nd argument: (initial) delay time in ms;
#X text 395 137 1st argument: name of delay line;
#X text 418 167 (= max. delay time);
#X text 395 153 2nd argument: length of delay line in msec;
#X obj 102 130 delwrite~ delay_one 3000;
#X text 393 210 [delread~];
#X obj 104 193 hsl 128 15 0 3000 0 0 empty empty delay_time -2 -6 0
8 -24198 -1 -1 0 1;
#X text 315 57 [delwrite~] allocates memory for a delay line and writes
an audio signal into it. [delread~] objects by hte same name read from
the delay line.;
#X text 342 13 USING DELAYS;
#X obj 61 288 stereo-out~;
#X obj 155 22 ssampler~;
#X obj 101 217 delread~ delay_one;
#X obj 40 46 bng 15 250 50 0 empty empty empty 17 7 0 10 -262144 -1
-1;
#X floatatom 144 240 5 0 0 0 - - -;
#X obj 44 11 import zexy;
#X obj 36 86 zexy/dirac~;
#X connect 7 0 12 0;
#X connect 7 0 14 0;
#X connect 12 0 10 1;
#X connect 13 0 16 0;
#X connect 16 0 10 0;
#X connect 16 0 5 0;
