#N canvas 82 202 490 530 10;
#X text 31 25 FEEDBACK DELAY;
#X text 29 61 Here we have a feedback path in the delay: the signal
read from the delay line \, will be put back again into the delayline
!;
#X text 29 111 You can specify the feedback gain and a low pass filter
in the feedback path.;
#X obj 74 189 ssampler~;
#X obj 190 225 adc~;
#N canvas 74 378 702 544 feedback-delay 0;
#X obj 89 441 +~;
#X obj 338 310 *~;
#X obj 338 177 line~;
#X obj 338 155 pack 0 50;
#X obj 89 71 inlet~;
#X obj 263 255 outlet~;
#X obj 338 200 vd~ \$0-mydel;
#X text 550 49 lop_fr;
#X obj 387 293 line~;
#X msg 387 271 \$1 50;
#X obj 387 249 dbtorms;
#X text 386 54 loop gain (dB);
#X obj 387 72 inlet loop-gain;
#X obj 560 69 inlet lop;
#X obj 203 70 inlet delay-time;
#X text 202 49 delay-time (ms);
#X obj 339 357 lop~ 1000;
#X obj 89 469 delwrite~ \$0-mydel 5000;
#X connect 0 0 17 0;
#X connect 1 0 16 0;
#X connect 2 0 6 0;
#X connect 3 0 2 0;
#X connect 4 0 0 0;
#X connect 6 0 1 0;
#X connect 6 0 5 0;
#X connect 8 0 1 1;
#X connect 9 0 8 0;
#X connect 10 0 9 0;
#X connect 12 0 10 0;
#X connect 13 0 16 1;
#X connect 14 0 3 0;
#X connect 16 0 0 1;
#X restore 118 367 pd feedback-delay;
#X floatatom 156 283 5 0 0 1 delaytime_(ms) - -;
#X floatatom 194 307 5 0 100 1 loopgain_(dB) - -;
#X floatatom 232 335 7 0 0 1 lowpass_freq_(Hz) - -;
#X obj 114 414 stereo-out~;
#X connect 3 0 5 0;
#X connect 5 0 9 0;
#X connect 5 0 9 1;
#X connect 6 0 5 1;
#X connect 7 0 5 2;
#X connect 8 0 5 3;
