#N canvas 42 66 814 405 10;
#X obj 571 122 adc~;
#X obj 622 120 hsl 128 15 0 1 0 1 empty empty feedback_(0-.99) -2 -6
0 8 -24198 -1 -1 12700 1;
#X obj 36 156 cnv 15 150 120 empty empty TAP_ONE 80 110 0 14 -233017
-66577 0;
#X obj 48 165 hsl 128 15 0 1000 0 1 empty empty delay_time -2 -6 0
8 -24198 -1 -1 3200 1;
#X obj 45 189 vd~ delay_two;
#X obj 74 220 hsl 100 15 0 1 0 1 empty empty panner -2 -6 0 8 -24198
-1 -1 1800 1;
#X obj 191 156 cnv 15 150 120 empty empty TAP_TWO 80 110 0 14 -233017
-66577 0;
#X obj 202 165 hsl 128 15 0 1000 0 1 empty empty delay_time -2 -6 0
8 -24198 -1 -1 1800 1;
#X obj 199 189 vd~ delay_two;
#X obj 228 220 hsl 100 15 0 1 0 1 empty empty panner -2 -6 0 8 -24198
-1 -1 4900 1;
#X obj 346 156 cnv 15 150 120 empty empty TAP_THREE 60 110 0 14 -233017
-66577 0;
#X obj 356 165 hsl 128 15 0 1000 0 1 empty empty delay_time -2 -6 0
8 -24198 -1 -1 6900 1;
#X obj 353 189 vd~ delay_two;
#X obj 381 220 hsl 100 15 0 1 0 1 empty empty panner -2 -6 0 8 -24198
-1 -1 8500 1;
#X obj 619 140 pack 0 50;
#X obj 619 161 line~;
#N canvas 0 0 327 195 feedback 0;
#X obj 14 16 inlet~;
#X obj 66 95 *~;
#X text 179 161 derek@umatic.nl;
#X obj 83 16 inlet~ fader;
#X obj 15 123 delwrite~ delay_two 1000;
#X obj 67 59 delread~ delay_two 1000;
#X connect 0 0 4 0;
#X connect 1 0 4 0;
#X connect 3 0 1 1;
#X connect 5 0 1 0;
#X restore 548 183 pd feedback;
#X obj 45 241 panner~;
#X obj 199 241 panner~;
#X obj 352 241 panner~;
#X obj 221 339 stereo-out~;
#X text 38 81 Here we have a multi-tap delay with feedback \, each
tap has been set to a different length in ms \, and has also been panned
to different locations in the setreo field. Jah Rastafari!!!;
#X obj 547 39 ssampler~;
#X text 166 36 MULTITAP DELAY;
#X connect 1 0 14 0;
#X connect 3 0 4 0;
#X connect 4 0 17 0;
#X connect 5 0 17 1;
#X connect 7 0 8 0;
#X connect 8 0 18 0;
#X connect 9 0 18 1;
#X connect 11 0 12 0;
#X connect 12 0 19 0;
#X connect 13 0 19 1;
#X connect 14 0 15 0;
#X connect 15 0 16 1;
#X connect 17 0 20 0;
#X connect 17 1 20 1;
#X connect 18 0 20 0;
#X connect 18 1 20 1;
#X connect 19 0 20 0;
#X connect 19 1 20 1;
#X connect 22 0 16 0;
