#N canvas 377 60 764 583 10;
#X text 14 6 FIDDLE - pitch estimator and sinusoidal peak finder;
#X obj 278 426 unpack;
#X floatatom 278 476 0 0 0 0 - - -;
#X floatatom 315 453 0 0 0 0 - - -;
#X obj 278 386 route 1 2 3 4;
#X obj 361 426 unpack;
#X floatatom 361 476 0 0 0 0 - - -;
#X floatatom 398 453 0 0 0 0 - - -;
#X obj 445 426 unpack;
#X floatatom 445 476 0 0 0 0 - - -;
#X floatatom 482 453 0 0 0 0 - - -;
#X obj 214 231 unpack;
#X floatatom 214 281 0 0 0 0 - - -;
#X floatatom 251 258 0 0 0 0 - - -;
#X floatatom 291 281 0 0 0 0 - - -;
#X obj 182 385 print attack;
#X obj 8 262 print pitch;
#X text 409 181 number of pitch outlets (1-3 \, default 1);
#X text 409 203 number of peaks to find (1-100 \, default 20);
#X text 409 225 number of peaks to output (default 0.);
#X obj 150 191 fiddle~ 1024 1 20 3;
#X text 285 500 individual sinusoidal components;
#X text 291 303 amplitude;
#X text 301 318 (dB);
#X text 214 303 raw pitch;
#X text 201 327 and amplitude;
#X text 188 405 bang on;
#X text 188 427 attack;
#X text 3 282 cooked pitch;
#X text 20 299 output;
#X text 285 191 ------ arguments:;
#X text 409 159 window size (128-2048 \, default 1024);
#X text 12 50 The Fiddle object estimates the pitch and amplitude of
an incoming sound \, both continuously and as a stream of discrete
"note" events. Fiddle optionally outputs a list of detected sinusoidal
peaks used to make the pitch determination.;
#X floatatom 91 262 5 0 0 1 MIDI_note - -;
#X obj 150 156 adc~;
#X text 22 531 See the "help" file for full usage information.;
#X obj 200 156 phasor~;
#X floatatom 200 135 5 0 0 0 - - -;
#X obj 184 214 bng 15 250 50 0 empty empty empty 17 7 0 10 -262144
-1 -1;
#X text 562 278 control it:;
#X obj 547 373 stereo-out~;
#X obj 546 325 mtof;
#X floatatom 546 302 5 0 0 0 - - -;
#X obj 546 347 phasor~;
#X connect 1 0 2 0;
#X connect 1 1 3 0;
#X connect 4 0 1 0;
#X connect 4 1 5 0;
#X connect 4 2 8 0;
#X connect 5 0 6 0;
#X connect 5 1 7 0;
#X connect 8 0 9 0;
#X connect 8 1 10 0;
#X connect 11 0 12 0;
#X connect 11 1 13 0;
#X connect 20 0 16 0;
#X connect 20 0 33 0;
#X connect 20 1 15 0;
#X connect 20 1 38 0;
#X connect 20 2 11 0;
#X connect 20 3 14 0;
#X connect 20 4 4 0;
#X connect 34 0 20 0;
#X connect 37 0 36 0;
#X connect 41 0 43 0;
#X connect 42 0 41 0;
#X connect 43 0 40 0;
#X connect 43 0 40 1;
