#N canvas 330 126 501 415 10;
#X obj 13 69 adc~;
#X obj 10 115 cnv 15 150 250 empty empty BASS 100 240 0 14 -44926 -66577
0;
#X obj 14 175 lop~ 60;
#X obj 15 196 env~ 64;
#X obj 15 286 threshold~;
#X msg 20 266 set \$1 5 \$1 5;
#X floatatom 59 249 5 0 0 0 - - -;
#X floatatom 20 249 5 0 0 0 - - -;
#X obj 15 318 bng 25 100 50 0 empty empty beat! 0 -6 0 8 -258699 -1
-1;
#X obj 20 152 mtof;
#X floatatom 68 175 5 0 0 0 - - -;
#X obj 170 115 cnv 15 150 250 empty empty MIDS 100 240 0 14 -44926
-66577 0;
#X obj 175 196 env~ 64;
#X obj 175 286 threshold~;
#X msg 180 266 set \$1 5 \$1 5;
#X floatatom 219 249 5 0 0 0 - - -;
#X floatatom 180 249 5 0 0 0 - - -;
#X obj 175 318 bng 25 100 50 0 empty empty beat! 0 -6 0 8 -258699 -1
-1;
#X obj 180 152 mtof;
#X floatatom 249 175 5 0 0 0 - - -;
#X obj 330 115 cnv 15 150 250 empty empty TREBLE 80 240 0 14 -44926
-66577 0;
#X obj 335 196 env~ 64;
#X obj 335 286 threshold~;
#X msg 340 266 set \$1 5 \$1 5;
#X floatatom 379 249 5 0 0 0 - - -;
#X floatatom 340 249 5 0 0 0 - - -;
#X obj 335 318 bng 25 100 50 0 empty empty beat! 0 -6 0 8 -258699 -1
-1;
#X obj 340 152 mtof;
#X obj 343 132 hsl 128 15 0 100 0 0 empty empty treble_frequency -2
-6 0 8 -233017 -1 -1 9400 1;
#X floatatom 402 175 5 0 0 0 - - -;
#X obj 174 175 bp~ 220 10;
#X obj 334 175 hip~ 2000;
#X obj 23 132 hsl 128 15 0 100 0 0 empty empty bass_frequency -2 -6
0 8 -233017 -1 -1 2200 1;
#X obj 183 132 hsl 128 15 0 100 0 0 empty empty mids_frequency -2 -6
0 8 -233017 -1 -1 6600 1;
#X obj 23 226 hsl 128 15 0 100 0 0 empty empty bass_threshold -2 -6
0 8 -24198 -1 -1 4600 1;
#X obj 183 226 hsl 128 15 0 100 0 0 empty empty mids_threshold -2 -6
0 8 -24198 -1 -1 9600 1;
#X obj 343 226 hsl 128 15 0 100 0 0 empty empty treble_threshold -2
-6 0 8 -24198 -1 -1 8200 1;
#X text 72 26 filter + envelope follower to get the beat !;
#X connect 0 0 2 0;
#X connect 0 0 30 0;
#X connect 0 0 31 0;
#X connect 2 0 3 0;
#X connect 3 0 7 0;
#X connect 3 0 4 0;
#X connect 4 0 8 0;
#X connect 5 0 4 0;
#X connect 9 0 10 0;
#X connect 9 0 2 1;
#X connect 12 0 16 0;
#X connect 12 0 13 0;
#X connect 13 0 17 0;
#X connect 14 0 13 0;
#X connect 18 0 19 0;
#X connect 18 0 30 1;
#X connect 21 0 25 0;
#X connect 21 0 22 0;
#X connect 22 0 26 0;
#X connect 23 0 22 0;
#X connect 27 0 29 0;
#X connect 27 0 31 1;
#X connect 28 0 27 0;
#X connect 30 0 12 0;
#X connect 31 0 21 0;
#X connect 32 0 9 0;
#X connect 33 0 18 0;
#X connect 34 0 6 0;
#X connect 34 0 5 0;
#X connect 35 0 15 0;
#X connect 35 0 14 0;
#X connect 36 0 24 0;
#X connect 36 0 23 0;
