#N canvas 400 171 464 490 10;
#X obj 271 381 *~;
#X obj 65 375 *~;
#X text 62 80 audio;
#X obj 288 91 inlet;
#X text 257 55 stereo position;
#X text 249 70 (0=left \, 1=right);
#X obj 64 102 inlet~;
#X obj 66 428 outlet~;
#X obj 271 430 outlet~;
#X text 62 452 left OUT;
#X text 267 454 right OUT;
#X obj 288 210 sin;
#X obj 288 161 * 1.5708;
#X obj 96 203 cos;
#X obj 96 250 max 0;
#X obj 96 227 min 1;
#X obj 288 257 max 0;
#X obj 288 234 min 1;
#X obj 288 280 pow 2;
#X obj 96 274 pow 2;
#X text 361 163 * pi/2;
#X text 154 243 cos2 + sin2 = 1;
#X obj 96 316 pack 0 50;
#X obj 96 339 line~;
#X obj 288 314 pack 0 50;
#X obj 288 337 line~;
#X obj 304 132 f \$1;
#X obj 304 111 loadbang;
#X text 34 59 init arg: pan;
#X text 28 15 Equal Power Pan;
#X connect 0 0 8 0;
#X connect 1 0 7 0;
#X connect 3 0 12 0;
#X connect 6 0 1 0;
#X connect 6 0 0 0;
#X connect 11 0 17 0;
#X connect 12 0 13 0;
#X connect 12 0 11 0;
#X connect 13 0 15 0;
#X connect 14 0 19 0;
#X connect 15 0 14 0;
#X connect 16 0 18 0;
#X connect 17 0 16 0;
#X connect 18 0 24 0;
#X connect 19 0 22 0;
#X connect 22 0 23 0;
#X connect 23 0 1 1;
#X connect 24 0 25 0;
#X connect 25 0 0 1;
#X connect 26 0 12 0;
#X connect 27 0 26 0;
