#N canvas 690 286 450 272 10;
#X text 19 15 Stereo Output with Volume Control;
#X obj 35 64 hsl 100 15 0 100 0 0 empty empty volume 15 6 0 10 -260818
-1 -262144 3800 1;
#X obj 150 60 inlet~ left;
#X obj 252 58 inlet~ rigth;
#X obj 180 232 dac~;
#X obj 151 192 *~;
#X obj 253 192 *~;
#X obj 168 162 line~;
#X msg 168 139 \$1 50;
#X obj 32 98 dbtorms;
#X connect 1 0 9 0;
#X connect 2 0 5 0;
#X connect 3 0 6 0;
#X connect 5 0 4 0;
#X connect 6 0 4 1;
#X connect 7 0 5 1;
#X connect 7 0 6 1;
#X connect 8 0 7 0;
#X connect 9 0 8 0;
#X coords 0 -1 1 1 109 31 1 30 50;
