#N struct 1003-symarray float x array symbols 1003-sym;
#N struct 1003-sym symbol name float on;
#N canvas 65 54 1301 714 10;
#X obj 47 111 textfile;
#X symbolatom 47 251 20 0 0 0 - - -;
#X msg 92 61 rewind;
#X obj 47 -121 openpanel;
#X obj 47 -151 bng 15 250 50 0 empty empty empty 17 7 0 10 -262144
-1 -1;
#X obj 297 433 m_symbolarray;
#X msg 372 413 \$1 \$2;
#X obj 372 271 f;
#X obj 402 271 + 1;
#X obj 372 393 pack f s;
#X symbolatom 297 522 10 0 0 0 - - -;
#X msg 639 111 dump;
#X obj 517 572 textfile;
#X msg 297 331 reset;
#X obj 372 479 counter;
#X floatatom 372 501 10 0 0 0 - - -;
#X obj 372 459 bng 15 250 50 0 empty empty empty 17 7 0 10 -262144
-1 -1;
#X floatatom 592 281 5 0 0 0 - - -;
#X msg 391 459 0;
#X obj 80 201 drip;
#X obj 108 111 until;
#X obj 108 91 bng 15 250 50 0 empty empty empty 17 7 0 10 -262144 -1
-1;
#X obj 592 221 until;
#X obj 592 191 t f f;
#X msg 297 552 add2 \$1;
#X obj 607 161 f;
#X obj 592 61 bng 15 250 50 0 empty empty empty 17 7 0 10 -262144 -1
-1;
#N canvas 1501 108 539 341 outputtext 0;
#X msg 93 -5 set add;
#X msg 53 35 add 2012 was a very busy year! <iframe width="500" height="375" src="http://www.youtube.com/embed/GhJYfvFdgYY" frameborder="0" allowfullscreen></iframe>
one with BiLE and the other with Freecode. January was a quiet month. I helped with the organising of the Network Music Festival and did two performances
<h2>January</h2> As usual This month started with my graduation ceremony.
<h2>February</h2>;
#X obj 93 -25 inlet;
#X obj 53 -25 inlet;
#X obj 163 -25 inlet;
#X obj 53 245 outlet;
#X msg 433 35 add 2012 was a very busy year! <iframe width="500" height="375" src="http://www.youtube.com/embed/GhJYfvFdgYY" frameborder="0" allowfullscreen></iframe>
one with BiLE and the other with Freecode. January was a quiet month. I helped with the organising of the Network Music Festival and did two performances
<h2>January</h2> As usual This month started with my graduation ceremony.
<h2>February</h2>;
#X obj 433 245 print;
#X connect 0 0 1 0;
#X connect 0 0 6 0;
#X connect 1 0 5 0;
#X connect 2 0 0 0;
#X connect 3 0 1 0;
#X connect 3 0 6 0;
#X connect 4 0 1 0;
#X connect 6 0 7 0;
#X restore 517 542 pd outputtext;
#X obj 679 325 bng 15 250 50 0 empty empty empty 17 7 0 10 -262144
-1 -1;
#X obj 592 251 urn;
#X msg 387 241 0;
#X obj 47 281 t b s;
#X obj 47 -29 t b b b b b s;
#X obj 47 231 l2s;
#X obj 622 141 + 1;
#X obj 679 345 t b b b;
#X msg 718 405 clear;
#X msg 107 31 read /home/hellocatfood/Desktop/processing cr;
#X msg 122 1 set read \$1 cr;
#X msg 679 435 write /home/hellocatfood/Desktop/processing_random cr
;
#X obj 47 181 gate 2;
#X obj 477 -15 vradio 15 1 0 2 empty empty empty 0 -8 0 10 -262144
-1 -1 0;
#X msg 679 375 set write \$1_random cr;
#X obj 47 151 + 1;
#X text 499 -2 words;
#X text 499 -19 sentences;
#X msg 477 -41 0;
#X obj 477 -61 loadbang;
#X obj 592 81 t b b b b b;
#X msg 679 481 Saved \$1_random;
#X obj 679 502 print;
#X obj 679 461 symbol;
#X obj 137 -49 print;
#X obj 137 -90 symbol;
#X msg 137 -70 Opened \$1;
#X connect 0 0 40 1;
#X connect 0 1 20 1;
#X connect 1 0 31 0;
#X connect 2 0 0 0;
#X connect 3 0 32 0;
#X connect 3 0 51 1;
#X connect 3 0 53 0;
#X connect 4 0 3 0;
#X connect 5 0 10 0;
#X connect 5 1 16 0;
#X connect 6 0 5 1;
#X connect 7 0 8 0;
#X connect 7 0 9 0;
#X connect 8 0 7 1;
#X connect 9 0 6 0;
#X connect 10 0 24 0;
#X connect 11 0 5 0;
#X connect 13 0 5 0;
#X connect 14 0 15 0;
#X connect 15 0 34 0;
#X connect 16 0 14 0;
#X connect 17 0 5 0;
#X connect 18 0 14 2;
#X connect 19 0 33 0;
#X connect 20 0 0 0;
#X connect 21 0 20 0;
#X connect 22 0 29 0;
#X connect 23 0 22 0;
#X connect 23 1 29 1;
#X connect 24 0 27 0;
#X connect 25 0 23 0;
#X connect 26 0 48 0;
#X connect 27 0 12 0;
#X connect 28 0 35 0;
#X connect 29 0 17 0;
#X connect 30 0 7 1;
#X connect 31 0 7 0;
#X connect 31 1 9 1;
#X connect 32 0 21 0;
#X connect 32 1 30 0;
#X connect 32 2 13 0;
#X connect 32 3 2 0;
#X connect 32 4 37 0;
#X connect 32 5 38 0;
#X connect 32 5 42 0;
#X connect 33 0 1 0;
#X connect 34 0 25 1;
#X connect 35 0 39 0;
#X connect 35 0 51 0;
#X connect 35 1 27 2;
#X connect 35 2 36 0;
#X connect 36 0 12 0;
#X connect 37 0 0 0;
#X connect 38 0 37 0;
#X connect 39 0 12 0;
#X connect 40 0 33 0;
#X connect 40 1 19 0;
#X connect 41 0 43 0;
#X connect 42 0 39 0;
#X connect 43 0 40 0;
#X connect 46 0 41 0;
#X connect 47 0 46 0;
#X connect 48 0 27 0;
#X connect 48 1 25 0;
#X connect 48 2 18 0;
#X connect 48 3 11 0;
#X connect 48 4 27 1;
#X connect 49 0 50 0;
#X connect 51 0 49 0;
#X connect 53 0 54 0;
#X connect 54 0 52 0;
