#N struct 1003-symarray float x array symbols 1003-sym;
#N struct 1003-sym symbol name float on;
#N canvas 65 54 1301 714 10;
#X obj 47 261 textfile;
#X symbolatom 47 351 10 0 0 0 - - -;
#X msg 64 121 rewind;
#X obj 47 9 openpanel;
#X obj 47 -31 bng 15 250 50 0 empty empty empty 17 7 0 10 -262144 -1
-1;
#X obj 235 473 m_symbolarray;
#X msg 310 453 \$1 \$2;
#X obj 310 263 f;
#X obj 340 263 + 1;
#X obj 310 433 pack f s;
#X obj 310 233 t b b;
#X symbolatom 235 592 10 0 0 0 - - -;
#X msg 235 381 dump;
#X obj 235 642 textfile;
#X msg 235 622 add \$1;
#X msg 274 381 reset;
#X obj 310 213 until;
#X obj 310 131 bng 15 250 50 0 empty empty empty 17 7 0 10 -262144
-1 -1;
#X obj 310 519 counter;
#X floatatom 310 541 5 0 0 0 - - -;
#X obj 310 499 bng 15 250 50 0 empty empty empty 17 7 0 10 -262144
-1 -1;
#X floatatom 1022 304 5 0 0 0 - - -;
#X obj 1028 220 metro 100;
#X obj 1033 188 tgl 15 0 empty empty empty 17 7 0 10 -262144 -1 -1
0 1;
#X msg 329 499 0;
#X obj 47 31 t b b b s;
#X obj 47 151 s initbang;
#X obj 235 311 r initbang;
#X obj 1026 245 random;
#X obj 235 341 t b b b;
#X msg 81 91 read /home/hellocatfood/Desktop/Random_text/text.txt cr
;
#X msg 168 143 bang;
#X msg 621 545 write /home/hellocatfood/Desktop/output.txt cr;
#X msg 98 61 set read \$1 cr;
#X obj 47 294 drip;
#X obj 66 407 counter;
#X floatatom 67 460 5 0 0 0 - - -;
#X obj 58 381 bng 15 250 50 0 empty empty empty 17 7 0 10 -262144 -1
-1;
#X connect 0 0 34 0;
#X connect 0 1 16 1;
#X connect 1 0 9 1;
#X connect 1 0 37 0;
#X connect 2 0 0 0;
#X connect 3 0 25 0;
#X connect 4 0 3 0;
#X connect 5 0 11 0;
#X connect 5 1 20 0;
#X connect 6 0 5 1;
#X connect 7 0 8 0;
#X connect 7 0 9 0;
#X connect 8 0 7 1;
#X connect 9 0 6 0;
#X connect 10 0 7 0;
#X connect 10 1 0 0;
#X connect 11 0 14 0;
#X connect 12 0 5 0;
#X connect 14 0 13 0;
#X connect 15 0 5 0;
#X connect 16 0 10 0;
#X connect 17 0 16 0;
#X connect 18 0 19 0;
#X connect 19 0 28 1;
#X connect 20 0 18 0;
#X connect 21 0 5 0;
#X connect 22 0 28 0;
#X connect 23 0 22 0;
#X connect 24 0 18 2;
#X connect 25 0 26 0;
#X connect 25 1 2 0;
#X connect 25 2 30 0;
#X connect 25 3 33 0;
#X connect 27 0 29 0;
#X connect 28 0 21 0;
#X connect 29 0 12 0;
#X connect 29 1 24 0;
#X connect 29 2 15 0;
#X connect 30 0 0 0;
#X connect 31 0 10 0;
#X connect 32 0 13 0;
#X connect 33 0 30 0;
#X connect 34 0 1 0;
#X connect 35 0 36 0;
#X connect 37 0 35 0;
