#N canvas 135 63 494 447 10;
#X obj 27 263 print;
#X msg 27 32 hello world;
#X floatatom 49 64 5 0 0 0 - - -;
#X obj 228 64 hsl 128 15 0 127 0 0 empty empty slider -2 -6 0 8 -262144
-1 -1 0 1;
#X msg 133 32 2;
#X msg 195 33 \$1 IS A BEAUTIFUL NUMBER;
#X floatatom 195 8 5 0 0 0 - - -;
#X msg 244 91 bang;
#X obj 296 134 hradio 15 1 0 8 empty empty h_radio 0 -6 0 8 -262144
-1 -1 0;
#X obj 290 92 bng 25 250 50 0 empty empty bang 0 -6 0 8 -262144 -1
-1;
#X obj 315 167 tgl 25 0 empty empty toggle 0 -6 0 8 -262144 -1 -1 0
1;
#X symbolatom 265 224 10 0 0 0 - - -;
#X text 258 241 type in here;
#X text 259 319 derek@umatic.nl;
#X text 246 7 Using a variable In PD;
#X text 41 295 introducing the print object \, use of variables and
a recap of the early stuff;
#X text 41 351 use of symbol. e.g. for storing filename paths etc;
#X connect 1 0 0 0;
#X connect 2 0 0 0;
#X connect 3 0 0 0;
#X connect 4 0 0 0;
#X connect 5 0 0 0;
#X connect 6 0 5 0;
#X connect 7 0 0 0;
#X connect 8 0 0 0;
#X connect 9 0 0 0;
#X connect 10 0 0 0;
#X connect 11 0 0 0;
