#N canvas 150 129 668 452 10;
#X text 14 7 MUY IMPORTANTE! Important lesson numero uno!;
#X floatatom 71 79 5 0 0 0 - - -;
#X floatatom 113 79 5 0 0 0 - - -;
#X floatatom 71 140 5 0 0 0 - - -;
#X obj 71 111 +;
#X text 191 75 The left-most inlet is the "hot" inlet. It is acted
on by an object immediately.;
#X text 190 109 All other inlets are "cold". This means they are stored
in the object until a "hot" inlet is activated.;
#X floatatom 71 179 5 0 0 0 - - -;
#X floatatom 71 240 5 0 0 0 - - -;
#X obj 71 211 + 666;
#X floatatom 71 295 5 0 0 0 - - -;
#X floatatom 71 356 5 0 0 0 - - -;
#X obj 71 327 + 666;
#X floatatom 114 295 5 0 0 0 - - -;
#X text 401 423 derek@umatic.nl;
#X text 68 54 "hot";
#X text 108 54 "cold";
#X text 183 211 "Creation arguments" can take the place of any cold
inlet of an object.;
#X text 185 260 However \, creation arguments will be replaced by the
first inout sent to that cold inlet. The object will NOT vidually chnage
to reflect this. In this case \, consider "666" to be the "default"
of this object until you tell it differently. Use a message box perhaps
to set it up with the default again. N.B. once a number is sent creation
is replaced;
#X connect 1 0 4 0;
#X connect 2 0 4 1;
#X connect 4 0 3 0;
#X connect 7 0 9 0;
#X connect 9 0 8 0;
#X connect 10 0 12 0;
#X connect 12 0 11 0;
#X connect 13 0 12 1;
