#N canvas 230 22 859 730 16;
#X msg 64 68 1;
#X obj 83 167 + 1;
#X obj 194 225 print x1;
#X obj 64 226 print x3;
#X obj 102 139 print x2;
#X obj 194 138 + 1;
#X obj 194 167 + 1;
#X obj 194 196 + 1;
#X obj 64 97 t f f f f;
#X obj 83 196 print x2;
#X text 34 30 In Pd \, message passing is depth first \, so that in
this patch:;
#X text 104 68 <-- click here;
#X text 17 260 ... you get "x1" first \, notwidthstanding the fact
that "x2" and "x3" appear to be closer to the source. This means that
you shouldn't do this:;
#X text 274 553 updated for Pd version 0.34;
#X text 35 410 ... because the "depth" is infinite. The counters you've
seen always have the message chain terminated somewhere in a cold inlet:
;
#X obj 217 548 + 1;
#X obj 75 499 f;
#X floatatom 75 531 0 0 0 0 - - -;
#X text 115 470 <-- better;
#X obj 65 319 cnv 15 100 85 empty empty empty 20 12 0 14 -258699 -66577
0;
#X text 168 321 <-- maybe you shouldn't click here;
#X msg 75 471 bang;
#X obj 246 354 + 1;
#X obj 76 350 f;
#X floatatom 76 382 0 0 0 0 - - -;
#X msg 76 321 bang;
#X connect 0 0 8 0;
#X connect 1 0 9 0;
#X connect 5 0 6 0;
#X connect 6 0 7 0;
#X connect 7 0 2 0;
#X connect 8 0 3 0;
#X connect 8 1 1 0;
#X connect 8 2 4 0;
#X connect 8 3 5 0;
#X connect 15 0 16 1;
#X connect 16 0 15 0;
#X connect 16 0 17 0;
#X connect 21 0 16 0;
#X connect 22 0 23 0;
#X connect 23 0 24 0;
#X connect 23 0 22 0;
#X connect 25 0 23 0;
