#N canvas 194 131 685 347 10;
#X msg 17 19 create;
#X msg 34 44 destroy;
#X obj 74 98 tgl 15 0 empty empty empty 0 -6 0 8 -262144 -1 -1 1 1
;
#X msg 56 70 reset;
#X obj 17 165 loadbang;
#X msg 17 189 \; renderinit 0;
#X obj 120 77 tgl 15 0 empty empty empty 0 -6 0 8 -262144 -1 -1 0 1
;
#X msg 120 95 lighting \$1;
#X obj 17 133 gemwin 50;
#X obj 271 55 gemhead;
#X obj 271 201 pix_texture;
#X obj 271 235 square 4;
#X msg 292 148 RGB;
#X msg 188 201 quality \$1;
#X obj 188 179 tgl 15 0 empty empty empty 0 -6 0 8 -262144 -1 -1 0
1;
#X msg 371 142 1 1 1;
#X msg 355 82 1 0.5 1 0.1 0 1 0 0 0.2 1 0 0.4 1 1 1 0 0 1;
#X obj 271 174 pix_set 3 3;
#X text 170 317 by Aymeric Mansoux;
#N canvas 67 83 450 300 o 0;
#X obj 62 69 metro 400;
#X obj 60 90 random 100;
#X obj 60 111 / 100;
#X obj 63 52 tgl 15 0 empty empty empty 17 7 0 10 -262144 -1 -1 1 1
;
#X obj 62 31 loadbang;
#X obj 63 138 outlet;
#X connect 0 0 1 0;
#X connect 1 0 2 0;
#X connect 2 0 5 0;
#X connect 3 0 0 0;
#X connect 4 0 3 0;
#X restore 377 251 pd o;
#X obj 377 276 pack f f f f f f f f f f f f f f f f;
#N canvas 67 83 450 300 o 0;
#X obj 62 69 metro 400;
#X obj 60 90 random 100;
#X obj 60 111 / 100;
#X obj 63 52 tgl 15 0 empty empty empty 17 7 0 10 -262144 -1 -1 1 1
;
#X obj 62 31 loadbang;
#X obj 63 138 outlet;
#X connect 0 0 1 0;
#X connect 1 0 2 0;
#X connect 2 0 5 0;
#X connect 3 0 0 0;
#X connect 4 0 3 0;
#X restore 391 231 pd o;
#N canvas 67 83 450 300 o 0;
#X obj 62 69 metro 400;
#X obj 60 90 random 100;
#X obj 60 111 / 100;
#X obj 63 52 tgl 15 0 empty empty empty 17 7 0 10 -262144 -1 -1 1 1
;
#X obj 62 31 loadbang;
#X obj 63 138 outlet;
#X connect 0 0 1 0;
#X connect 1 0 2 0;
#X connect 2 0 5 0;
#X connect 3 0 0 0;
#X connect 4 0 3 0;
#X restore 405 211 pd o;
#N canvas 67 83 450 300 o 0;
#X obj 62 69 metro 400;
#X obj 60 90 random 100;
#X obj 60 111 / 100;
#X obj 63 52 tgl 15 0 empty empty empty 17 7 0 10 -262144 -1 -1 1 1
;
#X obj 62 31 loadbang;
#X obj 63 138 outlet;
#X connect 0 0 1 0;
#X connect 1 0 2 0;
#X connect 2 0 5 0;
#X connect 3 0 0 0;
#X connect 4 0 3 0;
#X restore 419 251 pd o;
#N canvas 67 83 450 300 o 0;
#X obj 62 69 metro 400;
#X obj 60 90 random 100;
#X obj 60 111 / 100;
#X obj 63 52 tgl 15 0 empty empty empty 17 7 0 10 -262144 -1 -1 1 1
;
#X obj 62 31 loadbang;
#X obj 63 138 outlet;
#X connect 0 0 1 0;
#X connect 1 0 2 0;
#X connect 2 0 5 0;
#X connect 3 0 0 0;
#X connect 4 0 3 0;
#X restore 433 231 pd o;
#N canvas 67 83 450 300 o 0;
#X obj 62 69 metro 400;
#X obj 60 90 random 100;
#X obj 60 111 / 100;
#X obj 63 52 tgl 15 0 empty empty empty 17 7 0 10 -262144 -1 -1 1 1
;
#X obj 62 31 loadbang;
#X obj 63 138 outlet;
#X connect 0 0 1 0;
#X connect 1 0 2 0;
#X connect 2 0 5 0;
#X connect 3 0 0 0;
#X connect 4 0 3 0;
#X restore 448 211 pd o;
#N canvas 67 83 450 300 o 0;
#X obj 62 69 metro 400;
#X obj 60 90 random 100;
#X obj 60 111 / 100;
#X obj 63 52 tgl 15 0 empty empty empty 17 7 0 10 -262144 -1 -1 1 1
;
#X obj 62 31 loadbang;
#X obj 63 138 outlet;
#X connect 0 0 1 0;
#X connect 1 0 2 0;
#X connect 2 0 5 0;
#X connect 3 0 0 0;
#X connect 4 0 3 0;
#X restore 462 251 pd o;
#N canvas 67 83 450 300 o 0;
#X obj 62 69 metro 400;
#X obj 60 90 random 100;
#X obj 60 111 / 100;
#X obj 63 52 tgl 15 0 empty empty empty 17 7 0 10 -262144 -1 -1 1 1
;
#X obj 62 31 loadbang;
#X obj 63 138 outlet;
#X connect 0 0 1 0;
#X connect 1 0 2 0;
#X connect 2 0 5 0;
#X connect 3 0 0 0;
#X connect 4 0 3 0;
#X restore 476 231 pd o;
#N canvas 67 83 450 300 o 0;
#X obj 62 69 metro 400;
#X obj 60 90 random 100;
#X obj 60 111 / 100;
#X obj 63 52 tgl 15 0 empty empty empty 17 7 0 10 -262144 -1 -1 1 1
;
#X obj 62 31 loadbang;
#X obj 63 138 outlet;
#X connect 0 0 1 0;
#X connect 1 0 2 0;
#X connect 2 0 5 0;
#X connect 3 0 0 0;
#X connect 4 0 3 0;
#X restore 490 211 pd o;
#N canvas 67 83 450 300 o 0;
#X obj 62 69 metro 400;
#X obj 60 90 random 100;
#X obj 60 111 / 100;
#X obj 63 52 tgl 15 0 empty empty empty 17 7 0 10 -262144 -1 -1 1 1
;
#X obj 62 31 loadbang;
#X obj 63 138 outlet;
#X connect 0 0 1 0;
#X connect 1 0 2 0;
#X connect 2 0 5 0;
#X connect 3 0 0 0;
#X connect 4 0 3 0;
#X restore 504 251 pd o;
#N canvas 67 83 450 300 o 0;
#X obj 62 69 metro 400;
#X obj 60 90 random 100;
#X obj 60 111 / 100;
#X obj 63 52 tgl 15 0 empty empty empty 17 7 0 10 -262144 -1 -1 1 1
;
#X obj 62 31 loadbang;
#X obj 63 138 outlet;
#X connect 0 0 1 0;
#X connect 1 0 2 0;
#X connect 2 0 5 0;
#X connect 3 0 0 0;
#X connect 4 0 3 0;
#X restore 518 231 pd o;
#N canvas 67 83 450 300 o 0;
#X obj 62 69 metro 400;
#X obj 60 90 random 100;
#X obj 60 111 / 100;
#X obj 63 52 tgl 15 0 empty empty empty 17 7 0 10 -262144 -1 -1 1 1
;
#X obj 62 31 loadbang;
#X obj 63 138 outlet;
#X connect 0 0 1 0;
#X connect 1 0 2 0;
#X connect 2 0 5 0;
#X connect 3 0 0 0;
#X connect 4 0 3 0;
#X restore 533 211 pd o;
#N canvas 67 83 450 300 o 0;
#X obj 62 69 metro 400;
#X obj 60 90 random 100;
#X obj 60 111 / 100;
#X obj 63 52 tgl 15 0 empty empty empty 17 7 0 10 -262144 -1 -1 1 1
;
#X obj 62 31 loadbang;
#X obj 63 138 outlet;
#X connect 0 0 1 0;
#X connect 1 0 2 0;
#X connect 2 0 5 0;
#X connect 3 0 0 0;
#X connect 4 0 3 0;
#X restore 547 251 pd o;
#N canvas 67 83 450 300 o 0;
#X obj 62 69 metro 400;
#X obj 60 90 random 100;
#X obj 60 111 / 100;
#X obj 63 52 tgl 15 0 empty empty empty 17 7 0 10 -262144 -1 -1 1 1
;
#X obj 62 31 loadbang;
#X obj 63 138 outlet;
#X connect 0 0 1 0;
#X connect 1 0 2 0;
#X connect 2 0 5 0;
#X connect 3 0 0 0;
#X connect 4 0 3 0;
#X restore 561 231 pd o;
#N canvas 67 83 450 300 o 0;
#X obj 62 69 metro 400;
#X obj 60 90 random 100;
#X obj 60 111 / 100;
#X obj 63 52 tgl 15 0 empty empty empty 17 7 0 10 -262144 -1 -1 1 1
;
#X obj 62 31 loadbang;
#X obj 63 138 outlet;
#X connect 0 0 1 0;
#X connect 1 0 2 0;
#X connect 2 0 5 0;
#X connect 3 0 0 0;
#X connect 4 0 3 0;
#X restore 575 211 pd o;
#N canvas 67 83 450 300 o 0;
#X obj 62 69 metro 400;
#X obj 60 90 random 100;
#X obj 60 111 / 100;
#X obj 63 52 tgl 15 0 empty empty empty 17 7 0 10 -262144 -1 -1 1 1
;
#X obj 62 31 loadbang;
#X obj 63 138 outlet;
#X connect 0 0 1 0;
#X connect 1 0 2 0;
#X connect 2 0 5 0;
#X connect 3 0 0 0;
#X connect 4 0 3 0;
#X restore 590 251 pd o;
#X msg 375 306 \$1 \$2 \$3 \$4 \$5 \$6 \$7 \$8 \$9 \$10 \$11 \$12 \$13
\$14 \$15 \$16;
#X connect 0 0 8 0;
#X connect 1 0 8 0;
#X connect 2 0 8 0;
#X connect 3 0 8 0;
#X connect 4 0 5 0;
#X connect 6 0 7 0;
#X connect 7 0 8 0;
#X connect 9 0 17 0;
#X connect 10 0 11 0;
#X connect 12 0 17 0;
#X connect 13 0 10 0;
#X connect 14 0 13 0;
#X connect 15 0 17 1;
#X connect 16 0 17 1;
#X connect 17 0 10 0;
#X connect 19 0 20 0;
#X connect 20 0 36 0;
#X connect 21 0 20 1;
#X connect 22 0 20 2;
#X connect 23 0 20 3;
#X connect 24 0 20 4;
#X connect 25 0 20 5;
#X connect 26 0 20 6;
#X connect 27 0 20 7;
#X connect 28 0 20 8;
#X connect 29 0 20 9;
#X connect 30 0 20 10;
#X connect 31 0 20 11;
#X connect 32 0 20 12;
#X connect 33 0 20 13;
#X connect 34 0 20 14;
#X connect 35 0 20 15;
#X connect 36 0 17 1;
