#N canvas 702 331 645 432 10;
#X msg 17 19 create;
#X msg 34 44 destroy;
#X obj 74 98 tgl 15 0 empty empty empty 0 -6 0 8 -262144 -1 -1 0 1
;
#X msg 56 70 reset;
#X obj 17 165 loadbang;
#X msg 17 189 \; renderinit 0;
#X obj 120 77 tgl 15 0 empty empty empty 0 -6 0 8 -262144 -1 -1 0 1
;
#X msg 120 95 lighting \$1;
#X obj 17 133 gemwin 50;
#X obj 268 27 gemhead;
#X obj 268 333 pix_texture;
#X obj 268 80 pix_image;
#X obj 268 8 tgl 15 0 empty renderinit empty 0 -6 0 8 -262144 -1 -1
0 1;
#X msg 497 55 open \$1;
#X obj 497 34 openpanel;
#X obj 497 16 bng 15 250 50 0 empty empty empty 0 -6 0 8 -262144 -1
-1;
#X obj 268 361 rotateXYZ;
#X floatatom 356 341 5 0 0 0 - - -;
#X msg 342 298 quality \$1;
#X obj 342 279 tgl 15 0 empty empty empty 0 -6 0 8 -262144 -1 -1 0
1;
#X obj 268 383 square 3;
#X obj 393 198 pix_gain;
#X obj 418 147 / 100;
#X floatatom 418 128 5 0 0 0 - - -;
#X msg 491 132 0 0 1;
#X msg 491 154 2 0.5 0.3;
#X msg 467 207 0.2 0.4 0.6;
#X text 90 297 by Aymeric Mansoux;
#X msg 362 85 open ../../06.data/02.pix/icebergs.jpg;
#X connect 0 0 8 0;
#X connect 1 0 8 0;
#X connect 2 0 8 0;
#X connect 3 0 8 0;
#X connect 4 0 5 0;
#X connect 6 0 7 0;
#X connect 7 0 8 0;
#X connect 9 0 11 0;
#X connect 10 0 16 0;
#X connect 11 0 21 0;
#X connect 12 0 9 0;
#X connect 13 0 11 0;
#X connect 14 0 13 0;
#X connect 15 0 14 0;
#X connect 16 0 20 0;
#X connect 17 0 16 3;
#X connect 17 0 16 2;
#X connect 18 0 10 0;
#X connect 19 0 18 0;
#X connect 21 0 10 0;
#X connect 22 0 21 1;
#X connect 23 0 22 0;
#X connect 24 0 21 2;
#X connect 25 0 21 2;
#X connect 26 0 21 2;
#X connect 28 0 11 0;
