#N canvas 672 182 704 509 10;
#X msg 28 11 create;
#X msg 45 36 destroy;
#X obj 85 90 tgl 15 0 empty empty empty 0 -6 0 8 -262144 -1 -1 0 1
;
#X msg 67 62 reset;
#X obj 28 157 loadbang;
#X msg 28 181 \; renderinit 0;
#X obj 28 125 gemwin 50;
#X obj 152 26 gemhead;
#X obj 152 149 pix_image;
#X obj 152 7 tgl 15 0 empty renderinit empty 0 -6 0 8 -262144 -1 -1
1 1;
#X msg 217 48 open \$1;
#X obj 217 27 openpanel;
#X obj 217 9 bng 15 250 50 0 empty empty empty 0 -6 0 8 -262144 -1
-1;
#X obj 309 27 gemhead;
#X obj 309 150 pix_image;
#X obj 309 8 tgl 15 0 empty renderinit empty 0 -6 0 8 -262144 -1 -1
1 1;
#X msg 374 49 open \$1;
#X obj 374 28 openpanel;
#X obj 374 10 bng 15 250 50 0 empty empty empty 0 -6 0 8 -262144 -1
-1;
#N canvas 167 349 561 386 blending 0;
#X obj 28 65 inlet;
#X obj 191 354 outlet;
#X obj 173 285 inlet;
#X obj 320 8 inlet;
#X obj 28 322 pix_composite;
#X obj 129 323 pix_add;
#X obj 285 322 pix_diff;
#X obj 191 322 pix_subtract;
#X obj 28 227 pix_alpha;
#N canvas 446 209 508 174 select 0;
#X obj 88 35 inlet;
#X msg 88 98 1;
#X msg 144 98 2;
#X msg 201 97 3;
#X msg 257 97 0;
#X obj 88 121 outlet;
#X msg 329 100 4;
#X obj 88 59 select pix_add pix_subtract pix_diff pix_composite pix_multiply
;
#X connect 0 0 7 0;
#X connect 1 0 5 0;
#X connect 2 0 5 0;
#X connect 3 0 5 0;
#X connect 4 0 5 0;
#X connect 6 0 5 0;
#X connect 7 0 1 0;
#X connect 7 1 2 0;
#X connect 7 2 3 0;
#X connect 7 3 4 0;
#X connect 7 4 6 0;
#X restore 350 82 pd select blending method;
#X obj 360 324 pix_multiply;
#N canvas 174 427 450 300 demux5 0;
#X obj 59 30 inlet;
#X obj 283 17 inlet;
#X obj 59 193 outlet;
#X obj 59 137 spigot;
#X obj 96 109 == 0;
#X obj 106 137 spigot;
#X obj 153 139 spigot;
#X obj 200 137 spigot;
#X obj 246 137 spigot;
#X obj 143 109 == 1;
#X obj 190 109 == 2;
#X obj 237 109 == 3;
#X obj 283 109 == 4;
#X obj 96 83 loadbang;
#X obj 59 52 t a a a a a;
#X obj 106 194 outlet;
#X obj 153 195 outlet;
#X obj 200 196 outlet;
#X obj 246 195 outlet;
#X obj 283 61 f;
#X connect 0 0 14 0;
#X connect 1 0 19 0;
#X connect 3 0 2 0;
#X connect 4 0 3 1;
#X connect 5 0 15 0;
#X connect 6 0 16 0;
#X connect 7 0 17 0;
#X connect 8 0 18 0;
#X connect 9 0 5 1;
#X connect 10 0 6 1;
#X connect 11 0 7 1;
#X connect 12 0 8 1;
#X connect 13 0 4 0;
#X connect 14 0 3 0;
#X connect 14 1 5 0;
#X connect 14 2 6 0;
#X connect 14 3 7 0;
#X connect 14 4 8 0;
#X connect 19 0 4 0;
#X connect 19 0 9 0;
#X connect 19 0 10 0;
#X connect 19 0 11 0;
#X connect 19 0 12 0;
#X restore 28 189 pd demux5;
#X obj 320 28 t b a;
#X obj 28 129 pix_buf;
#X text 26 39 pix1;
#X text 176 269 pix2;
#X obj 350 56 symbol;
#X text 99 232 we need an alpha componenct for 'composite';
#X text 85 115 [pix_add] and friends will overwrite the original (left)
image with the blend. [pix_buf] holds a local copy of the original
image and will refresh the output when banged.;
#X connect 0 0 13 0;
#X connect 2 0 5 1;
#X connect 2 0 4 1;
#X connect 2 0 7 1;
#X connect 2 0 6 1;
#X connect 2 0 10 1;
#X connect 3 0 12 0;
#X connect 4 0 1 0;
#X connect 5 0 1 0;
#X connect 6 0 1 0;
#X connect 7 0 1 0;
#X connect 8 0 4 0;
#X connect 9 0 11 1;
#X connect 10 0 1 0;
#X connect 11 0 8 0;
#X connect 11 1 5 0;
#X connect 11 2 7 0;
#X connect 11 3 6 0;
#X connect 11 4 10 0;
#X connect 12 0 13 0;
#X connect 12 1 16 0;
#X connect 13 0 11 0;
#X connect 16 0 9 0;
#X restore 343 239 pd blending;
#X msg 498 221 pix_multiply;
#X msg 499 196 pix_diff;
#X msg 497 172 pix_subtract;
#X msg 497 147 pix_add;
#X msg 498 124 pix_composite;
#X text 184 270 To use [pix_add] \, etc \, the images MUST have the
same dimensions!!!;
#X obj 343 357 pix_texture;
#X obj 343 385 rotateXYZ;
#X floatatom 431 365 5 0 0 0 - - -;
#X msg 417 322 quality \$1;
#X obj 417 303 tgl 15 0 empty empty empty 0 -6 0 8 -262144 -1 -1 0
1;
#X obj 343 408 translate;
#X text 212 241 Look inside---->;
#X text 140 377 by Aymeric Mansoux;
#X obj 343 441 square 4;
#X msg 204 96 open ../../06.data/02.pix/blockhouse.jpg;
#X msg 231 121 open ../../06.data/02.pix/fortress.jpg;
#X connect 0 0 6 0;
#X connect 1 0 6 0;
#X connect 2 0 6 0;
#X connect 3 0 6 0;
#X connect 4 0 5 0;
#X connect 7 0 8 0;
#X connect 8 0 19 0;
#X connect 9 0 7 0;
#X connect 10 0 8 0;
#X connect 11 0 10 0;
#X connect 12 0 11 0;
#X connect 13 0 14 0;
#X connect 14 0 19 1;
#X connect 15 0 13 0;
#X connect 16 0 14 0;
#X connect 17 0 16 0;
#X connect 18 0 17 0;
#X connect 19 0 26 0;
#X connect 20 0 19 2;
#X connect 21 0 19 2;
#X connect 22 0 19 2;
#X connect 23 0 19 2;
#X connect 24 0 19 2;
#X connect 26 0 27 0;
#X connect 27 0 31 0;
#X connect 28 0 27 3;
#X connect 28 0 27 2;
#X connect 29 0 26 0;
#X connect 30 0 29 0;
#X connect 31 0 34 0;
#X connect 35 0 8 0;
#X connect 36 0 14 0;
