#N canvas 546 100 854 626 10;
#X msg 17 19 create;
#X msg 34 44 destroy;
#X obj 74 98 tgl 15 0 empty empty empty 0 -6 0 8 -262144 -1 -1 1 1
;
#X msg 56 70 reset;
#X obj 17 165 loadbang;
#X msg 17 189 \; renderinit 0;
#X obj 120 77 tgl 15 0 empty empty empty 0 -6 0 8 -262144 -1 -1 0 1
;
#X msg 120 95 lighting \$1;
#X obj 17 133 gemwin 50;
#X obj 268 27 gemhead;
#X obj 461 556 pix_texture;
#X obj 268 80 pix_image;
#X obj 268 8 tgl 15 0 empty renderinit empty 0 -6 0 8 -262144 -1 -1
1 1;
#X msg 497 55 open \$1;
#X obj 497 34 openpanel;
#X obj 497 16 bng 15 250 50 0 empty empty empty 0 -6 0 8 -262144 -1
-1;
#X msg 362 85 open ../../06.data/02.pix/manga1.jpg;
#X obj 461 577 square 4;
#X floatatom 246 160 5 0 0 2 scale - -;
#X floatatom 286 160 5 0 255 2 floor - -;
#X obj 286 178 / 255;
#X floatatom 326 160 5 0 255 2 ceiling - -;
#X obj 326 178 / 255;
#X obj 228 214 pix_backlight;
#X obj 246 179 / 100;
#X obj 201 211 tgl 15 0 empty renderinit empty 17 7 0 10 -262144 -1
-1 0 1;
#X obj 228 334 pix_bitmask;
#X floatatom 264 310 5 0 255 2 single - -;
#X msg 232 296 127;
#X msg 232 314 128;
#X msg 317 301 255 0 128;
#X msg 324 323 0 128 0;
#X obj 201 336 tgl 15 0 empty renderinit empty 17 7 0 10 -262144 -1
-1 0 1;
#X obj 228 456 pix_colorreduce;
#X floatatom 241 438 5 0 255 2 number - -;
#X floatatom 293 438 5 0 1 2 persist - -;
#X obj 346 436 tgl 15 0 empty empty smooth 0 -6 0 8 -262144 -1 -1 0
1;
#X obj 208 456 tgl 15 0 empty renderinit empty 17 7 0 10 -262144 -1
-1 0 1;
#X obj 461 164 pix_duotone;
#X msg 475 134 0.2 0.1 0.2;
#X msg 572 132 1 0 0;
#X msg 573 158 0 0 1;
#X obj 436 165 tgl 15 0 empty renderinit empty 17 7 0 10 -262144 -1
-1 0 1;
#X obj 461 286 pix_halftone;
#X floatatom 477 230 5 1 32 2 size - -;
#X floatatom 525 230 5 0 0 2 angle - -;
#X floatatom 570 230 5 0 1 2 smooth - -;
#X obj 546 267 hradio 15 1 0 5 empty empty style 40 -6 0 8 -262144
-1 -1 2;
#X msg 549 285 style \$1;
#X obj 441 287 tgl 15 0 empty renderinit empty 17 7 0 10 -262144 -1
-1 0 1;
#X floatatom 475 348 5 0 64 1 segments - -;
#X obj 461 375 pix_kaleidoscope;
#X obj 438 375 tgl 15 0 empty renderinit empty 17 7 0 10 -262144 -1
-1 0 1;
#X obj 461 533 pix_refraction;
#X obj 442 531 tgl 15 0 empty renderinit empty 17 7 0 10 -262144 -1
-1 0 1;
#X floatatom 478 487 3 0.01 16 1 - - -;
#X msg 478 505 refract \$1;
#X msg 558 505 mag \$1;
#X floatatom 478 447 3 0 0 1 - - -;
#X floatatom 558 447 3 0 0 1 - - -;
#X msg 478 465 width \$1;
#X msg 558 465 height \$1;
#X obj 558 486 tgl 15 0 empty empty empty 0 -6 0 8 -262144 -1 -1 0
1;
#X connect 0 0 8 0;
#X connect 1 0 8 0;
#X connect 2 0 8 0;
#X connect 3 0 8 0;
#X connect 4 0 5 0;
#X connect 6 0 7 0;
#X connect 7 0 8 0;
#X connect 9 0 11 0;
#X connect 10 0 17 0;
#X connect 11 0 23 0;
#X connect 12 0 9 0;
#X connect 13 0 11 0;
#X connect 14 0 13 0;
#X connect 15 0 14 0;
#X connect 16 0 11 0;
#X connect 18 0 24 0;
#X connect 19 0 20 0;
#X connect 20 0 23 2;
#X connect 21 0 22 0;
#X connect 22 0 23 3;
#X connect 23 0 26 0;
#X connect 24 0 23 1;
#X connect 25 0 23 0;
#X connect 26 0 33 0;
#X connect 27 0 26 1;
#X connect 28 0 27 0;
#X connect 29 0 27 0;
#X connect 30 0 26 2;
#X connect 31 0 26 2;
#X connect 32 0 26 0;
#X connect 33 0 38 0;
#X connect 34 0 33 1;
#X connect 35 0 33 2;
#X connect 36 0 33 3;
#X connect 37 0 33 0;
#X connect 38 0 43 0;
#X connect 39 0 38 1;
#X connect 40 0 38 2;
#X connect 41 0 38 3;
#X connect 42 0 38 0;
#X connect 43 0 51 0;
#X connect 44 0 43 1;
#X connect 45 0 43 2;
#X connect 46 0 43 3;
#X connect 47 0 48 0;
#X connect 48 0 43 0;
#X connect 49 0 43 0;
#X connect 50 0 51 1;
#X connect 51 0 53 0;
#X connect 52 0 51 0;
#X connect 53 0 10 0;
#X connect 54 0 53 0;
#X connect 55 0 56 0;
#X connect 56 0 53 0;
#X connect 57 0 53 0;
#X connect 58 0 60 0;
#X connect 59 0 61 0;
#X connect 60 0 53 0;
#X connect 61 0 53 0;
#X connect 62 0 57 0;
