#N canvas 451 220 562 197 10;
#N canvas 776 14 481 997 guts 0;
#X obj 0 0 cnv 15 230 180 empty empty empty 20 12 0 14 -260097 -66577
0;
#X obj 120 770 mrpeach/binfile;
#N canvas 515 77 452 685 640x480 0;
#X msg 64 -208 255 216 255 219 0 132 0 3 2 2 3 2 2 3 3 3 3 4 3 3 4
5 8 5 5 4 4 5 10 7 7 6 8 12 10 12 12 11 10 11 11 13 14 18 16 13 14
17 14 11 11 16 22 16 17 19 20 21 21 21 12 15 23 24 22 20 24 18 20 21
20 1 3 4 4 5 4 5 9 5 5 9 20 13 11 13 20 20 20 20 20 20 20 20 20 20
20 20 20 20 20 20 20 20 20 20 20 20 20 20 20 20 20 20 20 20 20 20 20
20 20 20 20 20 20 20 20 20 20 20 20 20 20 20 20 20 255 192 0 17 8;
#X msg 44 -68 1 224 2 128;
#X msg 25 -8 3 1 17 0 2 17 1 3 17 1 255 196 1 162 0 0 1 5 1 1 1 1 1
1 0 0 0 0 0 0 0 0 1 2 3 4 5 6 7 8 9 10 11 16 0 2 1 3 3 2 4 3 5 5 4
4 0 0 1 125 1 2 3 0 4 17 5 18 33 49 65 6 19 81 97 7 34 113 20 50 129
145 161 8 35 66 177 193 21 82 209 240 36 51 98 114 130 9 10 22 23 24
25 26 37 38 39 40 41 42 52 53 54 55 56 57 58 67 68 69 70 71 72 73 74
83 84 85 86 87 88 89 90 99 100 101 102 103 104 105 106 115 116 117
118 119 120 121 122 131 132 133 134 135 136 137 138 146 147 148 149
150 151 152 153 154 162 163 164 165 166 167 168 169 170 178 179 180
181 182 183 184 185 186 194 195 196 197 198 199 200 201 202 210 211
212 213 214 215 216 217 218 225 226 227 228 229 230 231 232 233 234
241 242 243 244 245 246 247 248 249 250 1 0 3 1 1 1 1 1 1 1 1 1 0 0
0 0 0 0 1 2 3 4 5 6 7 8 9 10 11 17 0 2 1 2 4 4 3 4 7 5 4 4 0 1 2 119
0 1 2 3 17 4 5 33 49 6 18 65 81 7 97 113 19 34 50 129 8 20 66 145 161
177 193 9 35 51 82 240 21 98 114 209 10 22 36 52 225 37 241 23 24 25
26 38 39 40 41 42 53 54 55 56 57 58 67 68 69 70 71 72 73 74 83 84 85
86 87 88 89 90 99 100 101 102 103 104 105 106 115 116 117 118 119 120
121 122 130 131 132 133 134 135 136 137 138 146 147 148 149 150 151
152 153 154 162 163 164 165 166 167 168 169 170 178 179 180 181 182
183 184 185 186 194 195 196 197 198 199 200 201 202 210 211 212 213
214 215 216 217 218 226 227 228 229 230 231 232 233 234 242 243 244
245 246 247 248 249 250 255 218 0 12 3 1 0 2 17 3 17 0 63;
#X text 124 -69 640 x 480;
#X obj 25 -238 t b b b;
#X obj 25 -268 inlet;
#X obj 25 332 outlet;
#X msg 77 -38 2 128 1 224;
#X text 157 -39 480 x 640;
#X obj 44 -98 gate 2;
#X obj 115 -268 inlet;
#X connect 0 0 6 0;
#X connect 1 0 6 0;
#X connect 2 0 6 0;
#X connect 4 0 2 0;
#X connect 4 1 9 1;
#X connect 4 2 0 0;
#X connect 5 0 4 0;
#X connect 7 0 6 0;
#X connect 9 0 1 0;
#X connect 9 1 7 0;
#X connect 10 0 9 0;
#X restore 120 500 pd 640x480;
#N canvas 439 82 466 685 3648x2736 0;
#X msg 64 -208 255 216 255 219 0 132 0 3 2 2 3 2 2 3 3 3 3 4 3 3 4
5 8 5 5 4 4 5 10 7 7 6 8 12 10 12 12 11 10 11 11 13 14 18 16 13 14
17 14 11 11 16 22 16 17 19 20 21 21 21 12 15 23 24 22 20 24 18 20 21
20 1 3 4 4 5 4 5 9 5 5 9 20 13 11 13 20 20 20 20 20 20 20 20 20 20
20 20 20 20 20 20 20 20 20 20 20 20 20 20 20 20 20 20 20 20 20 20 20
20 20 20 20 20 20 20 20 20 20 20 20 20 20 20 20 20 255 192 0 17 8;
#X msg 25 2 3 1 17 0 2 17 1 3 17 1 255 196 1 162 0 0 1 5 1 1 1 1 1
1 0 0 0 0 0 0 0 0 1 2 3 4 5 6 7 8 9 10 11 16 0 2 1 3 3 2 4 3 5 5 4
4 0 0 1 125 1 2 3 0 4 17 5 18 33 49 65 6 19 81 97 7 34 113 20 50 129
145 161 8 35 66 177 193 21 82 209 240 36 51 98 114 130 9 10 22 23 24
25 26 37 38 39 40 41 42 52 53 54 55 56 57 58 67 68 69 70 71 72 73 74
83 84 85 86 87 88 89 90 99 100 101 102 103 104 105 106 115 116 117
118 119 120 121 122 131 132 133 134 135 136 137 138 146 147 148 149
150 151 152 153 154 162 163 164 165 166 167 168 169 170 178 179 180
181 182 183 184 185 186 194 195 196 197 198 199 200 201 202 210 211
212 213 214 215 216 217 218 225 226 227 228 229 230 231 232 233 234
241 242 243 244 245 246 247 248 249 250 1 0 3 1 1 1 1 1 1 1 1 1 0 0
0 0 0 0 1 2 3 4 5 6 7 8 9 10 11 17 0 2 1 2 4 4 3 4 7 5 4 4 0 1 2 119
0 1 2 3 17 4 5 33 49 6 18 65 81 7 97 113 19 34 50 129 8 20 66 145 161
177 193 9 35 51 82 240 21 98 114 209 10 22 36 52 225 37 241 23 24 25
26 38 39 40 41 42 53 54 55 56 57 58 67 68 69 70 71 72 73 74 83 84 85
86 87 88 89 90 99 100 101 102 103 104 105 106 115 116 117 118 119 120
121 122 130 131 132 133 134 135 136 137 138 146 147 148 149 150 151
152 153 154 162 163 164 165 166 167 168 169 170 178 179 180 181 182
183 184 185 186 194 195 196 197 198 199 200 201 202 210 211 212 213
214 215 216 217 218 226 227 228 229 230 231 232 233 234 242 243 244
245 246 247 248 249 250 255 218 0 12 3 1 0 2 17 3 17 0 63;
#X obj 25 -238 t b b b;
#X obj 25 -268 inlet;
#X obj 25 342 outlet;
#X text 133 -69 3648 x 2736;
#X msg 44 -68 10 176 14 64;
#X obj 44 -98 gate 2;
#X obj 115 -268 inlet;
#X text 165 -39 2736 x 3648;
#X msg 77 -38 14 64 10 176;
#X connect 0 0 4 0;
#X connect 1 0 4 0;
#X connect 2 0 1 0;
#X connect 2 1 7 1;
#X connect 2 2 0 0;
#X connect 3 0 2 0;
#X connect 6 0 4 0;
#X connect 7 0 6 0;
#X connect 7 1 10 0;
#X connect 8 0 7 0;
#X connect 10 0 4 0;
#X restore 215 710 pd 3648x2736;
#N canvas 127 143 1375 846 random_size 0;
#X obj 54 -101 until;
#X msg 54 -1 27 36 9 35;
#X msg 54 -41 add2 \$1;
#X msg 124 -41 set;
#X msg 54 -128 4;
#X obj 54 -71 random 50;
#X msg 74 -278 255 216 255 219 0 132 0 3 2 2 3 2 2 3 3 3 3 4 3 3 4
5 8 5 5 4 4 5 10 7 7 6 8 12 10 12 12 11 10 11 11 13 14 18 16 13 14
17 14 11 11 16 22 16 17 19 20 21 21 21 12 15 23 24 22 20 24 18 20 21
20 1 3 4 4 5 4 5 9 5 5 9 20 13 11 13 20 20 20 20 20 20 20 20 20 20
20 20 20 20 20 20 20 20 20 20 20 20 20 20 20 20 20 20 20 20 20 20 20
20 20 20 20 20 20 20 20 20 20 20 20 20 20 20 20 20 255 192 0 17 8;
#X msg 35 39 3 1 17 0 2 17 1 3 17 1 255 196 1 162 0 0 1 5 1 1 1 1 1
1 0 0 0 0 0 0 0 0 1 2 3 4 5 6 7 8 9 10 11 16 0 2 1 3 3 2 4 3 5 5 4
4 0 0 1 125 1 2 3 0 4 17 5 18 33 49 65 6 19 81 97 7 34 113 20 50 129
145 161 8 35 66 177 193 21 82 209 240 36 51 98 114 130 9 10 22 23 24
25 26 37 38 39 40 41 42 52 53 54 55 56 57 58 67 68 69 70 71 72 73 74
83 84 85 86 87 88 89 90 99 100 101 102 103 104 105 106 115 116 117
118 119 120 121 122 131 132 133 134 135 136 137 138 146 147 148 149
150 151 152 153 154 162 163 164 165 166 167 168 169 170 178 179 180
181 182 183 184 185 186 194 195 196 197 198 199 200 201 202 210 211
212 213 214 215 216 217 218 225 226 227 228 229 230 231 232 233 234
241 242 243 244 245 246 247 248 249 250 1 0 3 1 1 1 1 1 1 1 1 1 0 0
0 0 0 0 1 2 3 4 5 6 7 8 9 10 11 17 0 2 1 2 4 4 3 4 7 5 4 4 0 1 2 119
0 1 2 3 17 4 5 33 49 6 18 65 81 7 97 113 19 34 50 129 8 20 66 145 161
177 193 9 35 51 82 240 21 98 114 209 10 22 36 52 225 37 241 23 24 25
26 38 39 40 41 42 53 54 55 56 57 58 67 68 69 70 71 72 73 74 83 84 85
86 87 88 89 90 99 100 101 102 103 104 105 106 115 116 117 118 119 120
121 122 130 131 132 133 134 135 136 137 138 146 147 148 149 150 151
152 153 154 162 163 164 165 166 167 168 169 170 178 179 180 181 182
183 184 185 186 194 195 196 197 198 199 200 201 202 210 211 212 213
214 215 216 217 218 226 227 228 229 230 231 232 233 234 242 243 244
245 246 247 248 249 250 255 218 0 12 3 1 0 2 17 3 17 0 63;
#X obj 35 -308 t b b b;
#X obj 35 -338 inlet;
#X obj 35 379 outlet;
#X text 144 -2 Random size;
#X obj 54 -158 t b b b;
#X connect 0 0 5 0;
#X connect 1 0 10 0;
#X connect 2 0 1 0;
#X connect 3 0 1 0;
#X connect 4 0 0 0;
#X connect 5 0 2 0;
#X connect 6 0 10 0;
#X connect 7 0 10 0;
#X connect 8 0 7 0;
#X connect 8 1 12 0;
#X connect 8 2 6 0;
#X connect 9 0 8 0;
#X connect 12 0 1 0;
#X connect 12 1 4 0;
#X connect 12 2 3 0;
#X restore 229 740 pd random_size;
#N canvas 348 98 457 817 1600x1200 0;
#X msg 64 -208 255 216 255 219 0 132 0 3 2 2 3 2 2 3 3 3 3 4 3 3 4
5 8 5 5 4 4 5 10 7 7 6 8 12 10 12 12 11 10 11 11 13 14 18 16 13 14
17 14 11 11 16 22 16 17 19 20 21 21 21 12 15 23 24 22 20 24 18 20 21
20 1 3 4 4 5 4 5 9 5 5 9 20 13 11 13 20 20 20 20 20 20 20 20 20 20
20 20 20 20 20 20 20 20 20 20 20 20 20 20 20 20 20 20 20 20 20 20 20
20 20 20 20 20 20 20 20 20 20 20 20 20 20 20 20 20 255 192 0 17 8;
#X msg 25 12 3 1 17 0 2 17 1 3 17 1 255 196 1 162 0 0 1 5 1 1 1 1 1
1 0 0 0 0 0 0 0 0 1 2 3 4 5 6 7 8 9 10 11 16 0 2 1 3 3 2 4 3 5 5 4
4 0 0 1 125 1 2 3 0 4 17 5 18 33 49 65 6 19 81 97 7 34 113 20 50 129
145 161 8 35 66 177 193 21 82 209 240 36 51 98 114 130 9 10 22 23 24
25 26 37 38 39 40 41 42 52 53 54 55 56 57 58 67 68 69 70 71 72 73 74
83 84 85 86 87 88 89 90 99 100 101 102 103 104 105 106 115 116 117
118 119 120 121 122 131 132 133 134 135 136 137 138 146 147 148 149
150 151 152 153 154 162 163 164 165 166 167 168 169 170 178 179 180
181 182 183 184 185 186 194 195 196 197 198 199 200 201 202 210 211
212 213 214 215 216 217 218 225 226 227 228 229 230 231 232 233 234
241 242 243 244 245 246 247 248 249 250 1 0 3 1 1 1 1 1 1 1 1 1 0 0
0 0 0 0 1 2 3 4 5 6 7 8 9 10 11 17 0 2 1 2 4 4 3 4 7 5 4 4 0 1 2 119
0 1 2 3 17 4 5 33 49 6 18 65 81 7 97 113 19 34 50 129 8 20 66 145 161
177 193 9 35 51 82 240 21 98 114 209 10 22 36 52 225 37 241 23 24 25
26 38 39 40 41 42 53 54 55 56 57 58 67 68 69 70 71 72 73 74 83 84 85
86 87 88 89 90 99 100 101 102 103 104 105 106 115 116 117 118 119 120
121 122 130 131 132 133 134 135 136 137 138 146 147 148 149 150 151
152 153 154 162 163 164 165 166 167 168 169 170 178 179 180 181 182
183 184 185 186 194 195 196 197 198 199 200 201 202 210 211 212 213
214 215 216 217 218 226 227 228 229 230 231 232 233 234 242 243 244
245 246 247 248 249 250 255 218 0 12 3 1 0 2 17 3 17 0 63;
#X obj 25 -238 t b b b;
#X obj 25 -268 inlet;
#X obj 25 352 outlet;
#X msg 44 -68 4 176 6 64;
#X obj 44 -98 gate 2;
#X obj 115 -268 inlet;
#X msg 77 -38 6 64 4 176;
#X text 167 -39 1200 x 1600;
#X text 134 -69 1600 x 1200;
#X connect 0 0 4 0;
#X connect 1 0 4 0;
#X connect 2 0 1 0;
#X connect 2 1 6 1;
#X connect 2 2 0 0;
#X connect 3 0 2 0;
#X connect 5 0 4 0;
#X connect 6 0 5 0;
#X connect 6 1 8 0;
#X connect 7 0 6 0;
#X connect 8 0 4 0;
#X restore 161 590 pd 1600x1200;
#N canvas 143 82 447 685 2048x1536 0;
#X msg 64 -208 255 216 255 219 0 132 0 3 2 2 3 2 2 3 3 3 3 4 3 3 4
5 8 5 5 4 4 5 10 7 7 6 8 12 10 12 12 11 10 11 11 13 14 18 16 13 14
17 14 11 11 16 22 16 17 19 20 21 21 21 12 15 23 24 22 20 24 18 20 21
20 1 3 4 4 5 4 5 9 5 5 9 20 13 11 13 20 20 20 20 20 20 20 20 20 20
20 20 20 20 20 20 20 20 20 20 20 20 20 20 20 20 20 20 20 20 20 20 20
20 20 20 20 20 20 20 20 20 20 20 20 20 20 20 20 20 255 192 0 17 8;
#X msg 25 -8 3 1 17 0 2 17 1 3 17 1 255 196 1 162 0 0 1 5 1 1 1 1 1
1 0 0 0 0 0 0 0 0 1 2 3 4 5 6 7 8 9 10 11 16 0 2 1 3 3 2 4 3 5 5 4
4 0 0 1 125 1 2 3 0 4 17 5 18 33 49 65 6 19 81 97 7 34 113 20 50 129
145 161 8 35 66 177 193 21 82 209 240 36 51 98 114 130 9 10 22 23 24
25 26 37 38 39 40 41 42 52 53 54 55 56 57 58 67 68 69 70 71 72 73 74
83 84 85 86 87 88 89 90 99 100 101 102 103 104 105 106 115 116 117
118 119 120 121 122 131 132 133 134 135 136 137 138 146 147 148 149
150 151 152 153 154 162 163 164 165 166 167 168 169 170 178 179 180
181 182 183 184 185 186 194 195 196 197 198 199 200 201 202 210 211
212 213 214 215 216 217 218 225 226 227 228 229 230 231 232 233 234
241 242 243 244 245 246 247 248 249 250 1 0 3 1 1 1 1 1 1 1 1 1 0 0
0 0 0 0 1 2 3 4 5 6 7 8 9 10 11 17 0 2 1 2 4 4 3 4 7 5 4 4 0 1 2 119
0 1 2 3 17 4 5 33 49 6 18 65 81 7 97 113 19 34 50 129 8 20 66 145 161
177 193 9 35 51 82 240 21 98 114 209 10 22 36 52 225 37 241 23 24 25
26 38 39 40 41 42 53 54 55 56 57 58 67 68 69 70 71 72 73 74 83 84 85
86 87 88 89 90 99 100 101 102 103 104 105 106 115 116 117 118 119 120
121 122 130 131 132 133 134 135 136 137 138 146 147 148 149 150 151
152 153 154 162 163 164 165 166 167 168 169 170 178 179 180 181 182
183 184 185 186 194 195 196 197 198 199 200 201 202 210 211 212 213
214 215 216 217 218 226 227 228 229 230 231 232 233 234 242 243 244
245 246 247 248 249 250 255 218 0 12 3 1 0 2 17 3 17 0 63;
#X obj 25 -238 t b b b;
#X obj 25 -268 inlet;
#X obj 25 332 outlet;
#X msg 45 -68 6 0 8 0;
#X text 115 -69 2048 x 1536;
#X obj 45 -98 gate 2;
#X obj 115 -268 inlet;
#X text 148 -39 1536 x 2048;
#X msg 78 -38 8 0 6 0;
#X connect 0 0 4 0;
#X connect 1 0 4 0;
#X connect 2 0 1 0;
#X connect 2 1 7 1;
#X connect 2 2 0 0;
#X connect 3 0 2 0;
#X connect 5 0 4 0;
#X connect 7 0 5 0;
#X connect 7 1 10 0;
#X connect 8 0 7 0;
#X connect 10 0 4 0;
#X restore 175 620 pd 2048x1536;
#N canvas 472 82 455 685 2592x1944 0;
#X msg 64 -208 255 216 255 219 0 132 0 3 2 2 3 2 2 3 3 3 3 4 3 3 4
5 8 5 5 4 4 5 10 7 7 6 8 12 10 12 12 11 10 11 11 13 14 18 16 13 14
17 14 11 11 16 22 16 17 19 20 21 21 21 12 15 23 24 22 20 24 18 20 21
20 1 3 4 4 5 4 5 9 5 5 9 20 13 11 13 20 20 20 20 20 20 20 20 20 20
20 20 20 20 20 20 20 20 20 20 20 20 20 20 20 20 20 20 20 20 20 20 20
20 20 20 20 20 20 20 20 20 20 20 20 20 20 20 20 20 255 192 0 17 8;
#X msg 25 12 3 1 17 0 2 17 1 3 17 1 255 196 1 162 0 0 1 5 1 1 1 1 1
1 0 0 0 0 0 0 0 0 1 2 3 4 5 6 7 8 9 10 11 16 0 2 1 3 3 2 4 3 5 5 4
4 0 0 1 125 1 2 3 0 4 17 5 18 33 49 65 6 19 81 97 7 34 113 20 50 129
145 161 8 35 66 177 193 21 82 209 240 36 51 98 114 130 9 10 22 23 24
25 26 37 38 39 40 41 42 52 53 54 55 56 57 58 67 68 69 70 71 72 73 74
83 84 85 86 87 88 89 90 99 100 101 102 103 104 105 106 115 116 117
118 119 120 121 122 131 132 133 134 135 136 137 138 146 147 148 149
150 151 152 153 154 162 163 164 165 166 167 168 169 170 178 179 180
181 182 183 184 185 186 194 195 196 197 198 199 200 201 202 210 211
212 213 214 215 216 217 218 225 226 227 228 229 230 231 232 233 234
241 242 243 244 245 246 247 248 249 250 1 0 3 1 1 1 1 1 1 1 1 1 0 0
0 0 0 0 1 2 3 4 5 6 7 8 9 10 11 17 0 2 1 2 4 4 3 4 7 5 4 4 0 1 2 119
0 1 2 3 17 4 5 33 49 6 18 65 81 7 97 113 19 34 50 129 8 20 66 145 161
177 193 9 35 51 82 240 21 98 114 209 10 22 36 52 225 37 241 23 24 25
26 38 39 40 41 42 53 54 55 56 57 58 67 68 69 70 71 72 73 74 83 84 85
86 87 88 89 90 99 100 101 102 103 104 105 106 115 116 117 118 119 120
121 122 130 131 132 133 134 135 136 137 138 146 147 148 149 150 151
152 153 154 162 163 164 165 166 167 168 169 170 178 179 180 181 182
183 184 185 186 194 195 196 197 198 199 200 201 202 210 211 212 213
214 215 216 217 218 226 227 228 229 230 231 232 233 234 242 243 244
245 246 247 248 249 250 255 218 0 12 3 1 0 2 17 3 17 0 63;
#X obj 25 -238 t b b b;
#X obj 25 -268 inlet;
#X obj 25 352 outlet;
#X msg 44 -58 7 152 10 32;
#X obj 44 -98 gate 2;
#X obj 115 -268 inlet;
#X text 167 -29 1944 x 2592;
#X text 134 -59 2592 x 1944;
#X msg 77 -28 10 32 7 152;
#X connect 0 0 4 0;
#X connect 1 0 4 0;
#X connect 2 0 1 0;
#X connect 2 1 6 1;
#X connect 2 2 0 0;
#X connect 3 0 2 0;
#X connect 5 0 4 0;
#X connect 6 0 5 0;
#X connect 6 1 10 0;
#X connect 7 0 6 0;
#X connect 10 0 4 0;
#X restore 188 650 pd 2592x1944;
#N canvas 244 82 458 817 1024x768 0;
#X msg 64 -408 255 216 255 219 0 132 0 3 2 2 3 2 2 3 3 3 3 4 3 3 4
5 8 5 5 4 4 5 10 7 7 6 8 12 10 12 12 11 10 11 11 13 14 18 16 13 14
17 14 11 11 16 22 16 17 19 20 21 21 21 12 15 23 24 22 20 24 18 20 21
20 1 3 4 4 5 4 5 9 5 5 9 20 13 11 13 20 20 20 20 20 20 20 20 20 20
20 20 20 20 20 20 20 20 20 20 20 20 20 20 20 20 20 20 20 20 20 20 20
20 20 20 20 20 20 20 20 20 20 20 20 20 20 20 20 20 255 192 0 17 8;
#X msg 25 -178 3 1 17 0 2 17 1 3 17 1 255 196 1 162 0 0 1 5 1 1 1 1
1 1 0 0 0 0 0 0 0 0 1 2 3 4 5 6 7 8 9 10 11 16 0 2 1 3 3 2 4 3 5 5
4 4 0 0 1 125 1 2 3 0 4 17 5 18 33 49 65 6 19 81 97 7 34 113 20 50
129 145 161 8 35 66 177 193 21 82 209 240 36 51 98 114 130 9 10 22
23 24 25 26 37 38 39 40 41 42 52 53 54 55 56 57 58 67 68 69 70 71 72
73 74 83 84 85 86 87 88 89 90 99 100 101 102 103 104 105 106 115 116
117 118 119 120 121 122 131 132 133 134 135 136 137 138 146 147 148
149 150 151 152 153 154 162 163 164 165 166 167 168 169 170 178 179
180 181 182 183 184 185 186 194 195 196 197 198 199 200 201 202 210
211 212 213 214 215 216 217 218 225 226 227 228 229 230 231 232 233
234 241 242 243 244 245 246 247 248 249 250 1 0 3 1 1 1 1 1 1 1 1 1
0 0 0 0 0 0 1 2 3 4 5 6 7 8 9 10 11 17 0 2 1 2 4 4 3 4 7 5 4 4 0 1
2 119 0 1 2 3 17 4 5 33 49 6 18 65 81 7 97 113 19 34 50 129 8 20 66
145 161 177 193 9 35 51 82 240 21 98 114 209 10 22 36 52 225 37 241
23 24 25 26 38 39 40 41 42 53 54 55 56 57 58 67 68 69 70 71 72 73 74
83 84 85 86 87 88 89 90 99 100 101 102 103 104 105 106 115 116 117
118 119 120 121 122 130 131 132 133 134 135 136 137 138 146 147 148
149 150 151 152 153 154 162 163 164 165 166 167 168 169 170 178 179
180 181 182 183 184 185 186 194 195 196 197 198 199 200 201 202 210
211 212 213 214 215 216 217 218 226 227 228 229 230 231 232 233 234
242 243 244 245 246 247 248 249 250 255 218 0 12 3 1 0 2 17 3 17 0
63;
#X obj 25 -438 t b b b;
#X obj 25 -468 inlet;
#X obj 25 162 outlet;
#X msg 44 -258 3 0 4 0;
#X text 101 -259 1024 x 768;
#X obj 44 -288 gate 2;
#X msg 77 -218 4 0 3 0;
#X text 134 -219 768 x 1024;
#X obj 105 -468 inlet;
#X connect 0 0 4 0;
#X connect 1 0 4 0;
#X connect 2 0 1 0;
#X connect 2 1 7 1;
#X connect 2 2 0 0;
#X connect 3 0 2 0;
#X connect 5 0 4 0;
#X connect 7 0 5 0;
#X connect 7 1 8 0;
#X connect 8 0 4 0;
#X connect 10 0 7 0;
#X restore 133 530 pd 1024x768;
#N canvas 460 236 453 817 1280x960 0;
#X msg 64 -408 255 216 255 219 0 132 0 3 2 2 3 2 2 3 3 3 3 4 3 3 4
5 8 5 5 4 4 5 10 7 7 6 8 12 10 12 12 11 10 11 11 13 14 18 16 13 14
17 14 11 11 16 22 16 17 19 20 21 21 21 12 15 23 24 22 20 24 18 20 21
20 1 3 4 4 5 4 5 9 5 5 9 20 13 11 13 20 20 20 20 20 20 20 20 20 20
20 20 20 20 20 20 20 20 20 20 20 20 20 20 20 20 20 20 20 20 20 20 20
20 20 20 20 20 20 20 20 20 20 20 20 20 20 20 20 20 255 192 0 17 8;
#X msg 25 -168 3 1 17 0 2 17 1 3 17 1 255 196 1 162 0 0 1 5 1 1 1 1
1 1 0 0 0 0 0 0 0 0 1 2 3 4 5 6 7 8 9 10 11 16 0 2 1 3 3 2 4 3 5 5
4 4 0 0 1 125 1 2 3 0 4 17 5 18 33 49 65 6 19 81 97 7 34 113 20 50
129 145 161 8 35 66 177 193 21 82 209 240 36 51 98 114 130 9 10 22
23 24 25 26 37 38 39 40 41 42 52 53 54 55 56 57 58 67 68 69 70 71 72
73 74 83 84 85 86 87 88 89 90 99 100 101 102 103 104 105 106 115 116
117 118 119 120 121 122 131 132 133 134 135 136 137 138 146 147 148
149 150 151 152 153 154 162 163 164 165 166 167 168 169 170 178 179
180 181 182 183 184 185 186 194 195 196 197 198 199 200 201 202 210
211 212 213 214 215 216 217 218 225 226 227 228 229 230 231 232 233
234 241 242 243 244 245 246 247 248 249 250 1 0 3 1 1 1 1 1 1 1 1 1
0 0 0 0 0 0 1 2 3 4 5 6 7 8 9 10 11 17 0 2 1 2 4 4 3 4 7 5 4 4 0 1
2 119 0 1 2 3 17 4 5 33 49 6 18 65 81 7 97 113 19 34 50 129 8 20 66
145 161 177 193 9 35 51 82 240 21 98 114 209 10 22 36 52 225 37 241
23 24 25 26 38 39 40 41 42 53 54 55 56 57 58 67 68 69 70 71 72 73 74
83 84 85 86 87 88 89 90 99 100 101 102 103 104 105 106 115 116 117
118 119 120 121 122 130 131 132 133 134 135 136 137 138 146 147 148
149 150 151 152 153 154 162 163 164 165 166 167 168 169 170 178 179
180 181 182 183 184 185 186 194 195 196 197 198 199 200 201 202 210
211 212 213 214 215 216 217 218 226 227 228 229 230 231 232 233 234
242 243 244 245 246 247 248 249 250 255 218 0 12 3 1 0 2 17 3 17 0
63;
#X obj 25 -438 t b b b;
#X obj 25 -468 inlet;
#X obj 25 172 outlet;
#X msg 44 -258 3 192 5 0;
#X text 141 -259 1280 x 960;
#X obj 44 -298 gate 2;
#X msg 77 -228 5 0 3 192;
#X text 161 -229 960 x 1280;
#X obj 115 -468 inlet;
#X connect 0 0 4 0;
#X connect 1 0 4 0;
#X connect 2 0 1 0;
#X connect 2 1 7 1;
#X connect 2 2 0 0;
#X connect 3 0 2 0;
#X connect 5 0 4 0;
#X connect 7 0 5 0;
#X connect 7 1 8 0;
#X connect 8 0 4 0;
#X connect 10 0 7 0;
#X restore 147 560 pd 1280x960;
#N canvas 521 82 449 685 3264x2448 0;
#X msg 64 -208 255 216 255 219 0 132 0 3 2 2 3 2 2 3 3 3 3 4 3 3 4
5 8 5 5 4 4 5 10 7 7 6 8 12 10 12 12 11 10 11 11 13 14 18 16 13 14
17 14 11 11 16 22 16 17 19 20 21 21 21 12 15 23 24 22 20 24 18 20 21
20 1 3 4 4 5 4 5 9 5 5 9 20 13 11 13 20 20 20 20 20 20 20 20 20 20
20 20 20 20 20 20 20 20 20 20 20 20 20 20 20 20 20 20 20 20 20 20 20
20 20 20 20 20 20 20 20 20 20 20 20 20 20 20 20 20 255 192 0 17 8;
#X msg 25 -8 3 1 17 0 2 17 1 3 17 1 255 196 1 162 0 0 1 5 1 1 1 1 1
1 0 0 0 0 0 0 0 0 1 2 3 4 5 6 7 8 9 10 11 16 0 2 1 3 3 2 4 3 5 5 4
4 0 0 1 125 1 2 3 0 4 17 5 18 33 49 65 6 19 81 97 7 34 113 20 50 129
145 161 8 35 66 177 193 21 82 209 240 36 51 98 114 130 9 10 22 23 24
25 26 37 38 39 40 41 42 52 53 54 55 56 57 58 67 68 69 70 71 72 73 74
83 84 85 86 87 88 89 90 99 100 101 102 103 104 105 106 115 116 117
118 119 120 121 122 131 132 133 134 135 136 137 138 146 147 148 149
150 151 152 153 154 162 163 164 165 166 167 168 169 170 178 179 180
181 182 183 184 185 186 194 195 196 197 198 199 200 201 202 210 211
212 213 214 215 216 217 218 225 226 227 228 229 230 231 232 233 234
241 242 243 244 245 246 247 248 249 250 1 0 3 1 1 1 1 1 1 1 1 1 0 0
0 0 0 0 1 2 3 4 5 6 7 8 9 10 11 17 0 2 1 2 4 4 3 4 7 5 4 4 0 1 2 119
0 1 2 3 17 4 5 33 49 6 18 65 81 7 97 113 19 34 50 129 8 20 66 145 161
177 193 9 35 51 82 240 21 98 114 209 10 22 36 52 225 37 241 23 24 25
26 38 39 40 41 42 53 54 55 56 57 58 67 68 69 70 71 72 73 74 83 84 85
86 87 88 89 90 99 100 101 102 103 104 105 106 115 116 117 118 119 120
121 122 130 131 132 133 134 135 136 137 138 146 147 148 149 150 151
152 153 154 162 163 164 165 166 167 168 169 170 178 179 180 181 182
183 184 185 186 194 195 196 197 198 199 200 201 202 210 211 212 213
214 215 216 217 218 226 227 228 229 230 231 232 233 234 242 243 244
245 246 247 248 249 250 255 218 0 12 3 1 0 2 17 3 17 0 63;
#X obj 25 -238 t b b b;
#X obj 25 -268 inlet;
#X obj 25 332 outlet;
#X msg 44 -68 9 144 12 192;
#X obj 44 -98 gate 2;
#X obj 115 -268 inlet;
#X text 133 -69 3264 x 2448;
#X text 166 -39 2448 x 3264;
#X msg 77 -38 12 192 9 144;
#X connect 0 0 4 0;
#X connect 1 0 4 0;
#X connect 2 0 1 0;
#X connect 2 1 6 1;
#X connect 2 2 0 0;
#X connect 3 0 2 0;
#X connect 5 0 4 0;
#X connect 6 0 5 0;
#X connect 6 1 10 0;
#X connect 7 0 6 0;
#X connect 10 0 4 0;
#X restore 202 680 pd 3264x2448;
#X obj 10 10 vradio 18 1 0 2 empty empty empty 0 -8 0 10 -262144 -1
-1 0;
#X obj 10 428 + 1;
#X text 29 28 Portrait;
#X text 29 10 Landscape;
#X obj 10 -74 loadbang;
#X msg 10 -32 0;
#X obj 163 803 print info;
#X obj 120 10 vradio 18 1 0 9 empty empty empty 0 -8 0 10 -262144 -1
-1 2;
#X text 147 11 640x480;
#X text 147 29 1024x768;
#X text 147 47 1280x960;
#X text 147 65 1600x1200;
#X text 147 83 2048x1536;
#X text 147 101 2592x1944;
#X text 147 119 3264x2448;
#X text 147 136 3648x2736;
#X text 147 154 random;
#X obj 120 460 sel 0 1 2 3 4 5 6 7 8;
#X obj 120 430 change;
#X obj 217 206 r reset;
#X obj 217 228 t b b;
#X msg 217 250 set 20;
#X obj 396 703 r savefile;
#X obj 302 575 r savedata;
#X msg 267 250 clear;
#X obj 10 -52 t b b;
#X msg 37 -32 0;
#X connect 1 1 17 0;
#X connect 2 0 1 0;
#X connect 3 0 1 0;
#X connect 4 0 1 0;
#X connect 5 0 1 0;
#X connect 6 0 1 0;
#X connect 7 0 1 0;
#X connect 8 0 1 0;
#X connect 9 0 1 0;
#X connect 10 0 1 0;
#X connect 11 0 12 0;
#X connect 12 0 2 1;
#X connect 12 0 8 1;
#X connect 12 0 9 1;
#X connect 12 0 5 1;
#X connect 12 0 6 1;
#X connect 12 0 7 1;
#X connect 12 0 10 1;
#X connect 12 0 3 1;
#X connect 15 0 36 0;
#X connect 16 0 11 0;
#X connect 18 0 29 0;
#X connect 28 0 2 0;
#X connect 28 1 8 0;
#X connect 28 2 9 0;
#X connect 28 3 5 0;
#X connect 28 4 6 0;
#X connect 28 5 7 0;
#X connect 28 6 10 0;
#X connect 28 7 3 0;
#X connect 28 8 4 0;
#X connect 29 0 28 0;
#X connect 30 0 31 0;
#X connect 31 0 32 0;
#X connect 31 1 35 0;
#X connect 32 0 29 0;
#X connect 33 0 1 0;
#X connect 34 0 1 0;
#X connect 35 0 1 0;
#X connect 36 0 16 0;
#X connect 36 1 37 0;
#X connect 37 0 18 0;
#X coords 0 -1 1 1 230 180 1 0 0;
#X restore 10 -913 pd guts;
#N canvas 939 30 450 300 openfile 0;
#X obj 100 100 cnv 15 120 80 empty empty empty 20 12 0 14 -233017 -66577
0;
#X msg 195 635 255 217;
#X obj 161 197 openpanel;
#X obj 110 111 bng 20 250 50 0 empty open empty 17 7 0 10 -257985 -258113
-1;
#X msg 195 267 set read \$1;
#X msg 178 307 read /home/hellocatfood/Desktop/Common\ Property/Sonification\ Studies/Modified/2-11\ Got\ to\ Give\ It\ Up.mp3
;
#X obj 161 347 until;
#X obj 161 377 mrpeach/binfile;
#X obj 161 327 bng 15 250 50 0 empty empty empty 17 7 0 10 -262144
-1 -1;
#X obj 161 227 t b b s b;
#X msg 212 247 clear;
#X obj 297 428 stripdir;
#X obj 195 428 splitfilename;
#X obj 297 448 splitfilename .;
#X msg 195 595 write /home/hellocatfood/Desktop/Common\ Property/Sonification\ Studies/Modified/2-11\ Got\ to\ Give\ It\ Up_hellojpg.jpg
;
#X obj 195 478 pack s s;
#X obj 195 398 t s s;
#X msg 195 508 set write \$1/\$2_hellojpg.jpg;
#X obj 110 140 bng 20 250 50 0 empty empty empty 17 7 0 10 -258113
-1 -1;
#X obj 215 558 t b b;
#X text 136 139 save;
#X text 137 114 open file;
#X obj 161 687 s savefile;
#X obj 93 308 r reset;
#X msg 93 330 clear;
#X connect 1 0 22 0;
#X connect 2 0 9 0;
#X connect 3 0 2 0;
#X connect 4 0 5 0;
#X connect 5 0 7 0;
#X connect 6 0 7 0;
#X connect 7 0 22 0;
#X connect 7 2 6 1;
#X connect 8 0 6 0;
#X connect 9 0 8 0;
#X connect 9 1 5 0;
#X connect 9 2 4 0;
#X connect 9 2 16 0;
#X connect 9 3 10 0;
#X connect 10 0 7 0;
#X connect 11 0 13 0;
#X connect 12 0 15 0;
#X connect 13 0 15 1;
#X connect 14 0 22 0;
#X connect 15 0 17 0;
#X connect 16 0 12 0;
#X connect 16 1 11 0;
#X connect 17 0 14 0;
#X connect 18 0 19 0;
#X connect 19 0 14 0;
#X connect 19 1 1 0;
#X connect 23 0 24 0;
#X connect 24 0 7 0;
#X coords 0 -1 1 1 120 80 1 100 100;
#X restore 250 -813 pd openfile;
#N canvas 762 519 450 300 randomdata 0;
#X obj 100 100 cnv 15 120 80 empty empty empty 20 12 0 14 -233017 -66577
0;
#X obj 110 110 tgl 20 0 empty empty empty 17 7 0 10 -4034 -1 -1 0 1
;
#N canvas 175 190 450 300 randomnumbers 0;
#X obj 45 -239 random 255;
#X floatatom 45 -219 5 0 0 0 - - -, f 5;
#X obj 44 -259 metro 2;
#X obj 115 -239 random 255;
#X floatatom 115 -219 5 0 0 0 - - -, f 5;
#X obj 114 -259 metro 2;
#X obj 45 -109 outlet;
#X obj 44 -339 inlet;
#X obj 185 -239 random 255;
#X floatatom 185 -219 5 0 0 0 - - -, f 5;
#X obj 184 -259 metro 2;
#X obj 255 -239 random 255;
#X floatatom 255 -219 5 0 0 0 - - -, f 5;
#X obj 254 -259 metro 2;
#X connect 0 0 1 0;
#X connect 1 0 6 0;
#X connect 2 0 0 0;
#X connect 3 0 4 0;
#X connect 4 0 6 0;
#X connect 5 0 3 0;
#X connect 7 0 2 0;
#X connect 7 0 5 0;
#X connect 7 0 10 0;
#X connect 7 0 13 0;
#X connect 8 0 9 0;
#X connect 9 0 6 0;
#X connect 10 0 8 0;
#X connect 11 0 12 0;
#X connect 12 0 6 0;
#X connect 13 0 11 0;
#X restore 110 220 pd randomnumbers;
#X obj 110 300 f;
#X obj 143 300 + 1;
#X msg 110 370 write hellojpg_0.jpg;
#X obj 110 140 bng 20 250 50 0 empty empty empty 17 7 0 10 -258113
-1 -1;
#X msg 110 320 set write hellojpg_\$1.jpg;
#X obj 110 340 t b a;
#X text 136 109 random data;
#X text 136 139 save;
#X obj 110 392 s savefile;
#X obj 110 242 s savedata;
#X connect 1 0 2 0;
#X connect 2 0 12 0;
#X connect 3 0 4 0;
#X connect 3 0 7 0;
#X connect 4 0 3 1;
#X connect 5 0 11 0;
#X connect 6 0 3 0;
#X connect 7 0 8 0;
#X connect 8 0 5 0;
#X connect 8 1 5 0;
#X coords 0 -1 1 1 120 80 1 100 100;
#X restore 250 -913 pd randomdata;
#N canvas 1355 514 450 300 reset 0;
#X obj 100 100 cnv 15 120 60 empty empty empty 20 12 0 14 -233017 -66577
0;
#X obj 107 114 bng 20 250 50 0 empty empty empty 17 7 0 10 -258113
-1 -1;
#X text 133 113 start again;
#X obj 107 190 s reset;
#X connect 1 0 3 0;
#X coords 0 -1 1 1 120 60 1 100 100;
#X restore 410 -913 pd reset;
#X text 303 -831 or;
#X obj 385 -787 cnv 15 145 55 empty empty empty 20 12 0 14 -257985
-66577 0;
#X text 394 -781 antonio roberts 2016;
#X text 394 -762 hellocatfood.com;
#X coords 0 197 1 196 85 140 0;
