#N canvas 684 458 789 259 10;
#N canvas 705 82 929 997 glitch 0;
#X obj 479 40 cnv 15 124 70 empty empty empty 20 12 0 14 -4034 -66577
0;
#X obj 193 333 mrpeach/binfile;
#X msg 261 216 writeat \$1;
#X msg 193 225 add \$1;
#X floatatom 261 186 15 0 0 0 - - -;
#X obj 220 78 f;
#X obj 193 2 t b b;
#X floatatom 484 80 5 0 255 0 - - -;
#X obj 220 38 r offset;
#X floatatom 484 50 5 0 0 0 - - -;
#X obj 313 303 r data;
#X obj 263 303 r clear;
#X obj 281 78 +;
#X obj 156 170 random 255;
#X obj 156 140 r rand_byte;
#X obj 296 -10 r rand_off;
#X msg 385 246 write /home/hellocatfood/Desktop/hellocatfood_glitch_1.jpg
;
#X obj 193 -28 r go;
#X obj 385 186 r savedir;
#X obj 296 20 random 5000;
#X obj 455 186 r write;
#X text 524 51 period;
#X text 524 81 data;
#X obj 281 247 s offnum_1;
#X msg 385 209 set write \$1/\$2_glitch_1.\$3;
#X connect 2 0 1 0;
#X connect 3 0 1 0;
#X connect 4 0 2 0;
#X connect 4 0 23 0;
#X connect 5 0 4 0;
#X connect 5 0 12 0;
#X connect 6 0 7 0;
#X connect 6 1 5 0;
#X connect 7 0 3 0;
#X connect 8 0 5 0;
#X connect 9 0 12 1;
#X connect 10 0 1 0;
#X connect 11 0 1 0;
#X connect 12 0 5 1;
#X connect 13 0 7 0;
#X connect 14 0 13 0;
#X connect 15 0 19 0;
#X connect 16 0 1 0;
#X connect 17 0 6 0;
#X connect 18 0 24 0;
#X connect 19 0 9 0;
#X connect 20 0 16 0;
#X connect 24 0 16 0;
#X coords 0 -1 1 1 124 70 1 479 40;
#X restore 9 -538 pd glitch;
#N canvas 50 17 929 1001 glitch 0;
#X obj 479 40 cnv 15 124 70 empty empty empty 20 12 0 14 -4034 -66577
0;
#X obj 193 333 mrpeach/binfile;
#X msg 261 216 writeat \$1;
#X msg 193 225 add \$1;
#X floatatom 261 186 15 0 0 0 - - -;
#X obj 220 78 f;
#X obj 193 2 t b b;
#X floatatom 484 80 5 0 255 0 - - -;
#X obj 220 38 r offset;
#X floatatom 484 50 5 0 0 0 - - -;
#X obj 313 303 r data;
#X obj 263 303 r clear;
#X obj 281 78 +;
#X obj 156 170 random 255;
#X obj 156 140 r rand_byte;
#X obj 296 -10 r rand_off;
#X msg 385 246 write /home/hellocatfood/Desktop/hellocatfood_glitch_2.jpg
;
#X obj 193 -28 r go;
#X obj 385 186 r savedir;
#X obj 296 20 random 5000;
#X obj 455 186 r write;
#X text 524 51 period;
#X text 524 81 data;
#X obj 281 247 s offnum_2;
#X msg 385 209 set write \$1/\$2_glitch_2.\$3;
#X connect 2 0 1 0;
#X connect 3 0 1 0;
#X connect 4 0 2 0;
#X connect 4 0 23 0;
#X connect 5 0 4 0;
#X connect 5 0 12 0;
#X connect 6 0 7 0;
#X connect 6 1 5 0;
#X connect 7 0 3 0;
#X connect 8 0 5 0;
#X connect 9 0 12 1;
#X connect 10 0 1 0;
#X connect 11 0 1 0;
#X connect 12 0 5 1;
#X connect 13 0 7 0;
#X connect 14 0 13 0;
#X connect 15 0 19 0;
#X connect 16 0 1 0;
#X connect 17 0 6 0;
#X connect 18 0 24 0;
#X connect 19 0 9 0;
#X connect 20 0 16 0;
#X connect 24 0 16 0;
#X coords 0 -1 1 1 124 70 1 479 40;
#X restore 149 -538 pd glitch;
#N canvas 50 17 929 1001 glitch 0;
#X obj 479 40 cnv 15 124 70 empty empty empty 20 12 0 14 -4034 -66577
0;
#X obj 193 333 mrpeach/binfile;
#X msg 261 216 writeat \$1;
#X msg 193 225 add \$1;
#X floatatom 261 186 15 0 0 0 - - -;
#X obj 220 78 f;
#X obj 193 2 t b b;
#X floatatom 484 80 5 0 255 0 - - -;
#X obj 220 38 r offset;
#X floatatom 484 50 5 0 0 0 - - -;
#X obj 313 303 r data;
#X obj 263 303 r clear;
#X obj 281 78 +;
#X obj 156 170 random 255;
#X obj 156 140 r rand_byte;
#X obj 296 -10 r rand_off;
#X obj 193 -28 r go;
#X obj 385 186 r savedir;
#X obj 296 20 random 5000;
#X obj 455 186 r write;
#X text 524 51 period;
#X text 524 81 data;
#X msg 385 246 write /home/hellocatfood/Desktop/hellocatfood_glitch_3.jpg
;
#X obj 281 247 s offnum_3;
#X msg 385 209 set write \$1/\$2_glitch_3.\$3;
#X connect 2 0 1 0;
#X connect 3 0 1 0;
#X connect 4 0 2 0;
#X connect 4 0 23 0;
#X connect 5 0 4 0;
#X connect 5 0 12 0;
#X connect 6 0 7 0;
#X connect 6 1 5 0;
#X connect 7 0 3 0;
#X connect 8 0 5 0;
#X connect 9 0 12 1;
#X connect 10 0 1 0;
#X connect 11 0 1 0;
#X connect 12 0 5 1;
#X connect 13 0 7 0;
#X connect 14 0 13 0;
#X connect 15 0 18 0;
#X connect 16 0 6 0;
#X connect 17 0 24 0;
#X connect 18 0 9 0;
#X connect 19 0 22 0;
#X connect 22 0 1 0;
#X connect 24 0 22 0;
#X coords 0 -1 1 1 124 70 1 479 40;
#X restore 289 -538 pd glitch;
#N canvas 50 17 929 1001 glitch 0;
#X obj 479 40 cnv 15 124 70 empty empty empty 20 12 0 14 -4034 -66577
0;
#X obj 193 333 mrpeach/binfile;
#X msg 261 216 writeat \$1;
#X msg 193 225 add \$1;
#X floatatom 261 186 15 0 0 0 - - -;
#X obj 220 78 f;
#X obj 193 2 t b b;
#X floatatom 484 80 5 0 255 0 - - -;
#X obj 220 38 r offset;
#X floatatom 484 50 5 0 0 0 - - -;
#X obj 313 303 r data;
#X obj 263 303 r clear;
#X obj 281 78 +;
#X obj 156 170 random 255;
#X obj 156 140 r rand_byte;
#X obj 296 -10 r rand_off;
#X msg 385 246 write /home/hellocatfood/Desktop/hellocatfood_glitch_4.jpg
;
#X obj 193 -28 r go;
#X obj 385 186 r savedir;
#X obj 296 20 random 5000;
#X obj 455 186 r write;
#X text 524 51 period;
#X text 524 81 data;
#X obj 281 247 s offnum_4;
#X msg 385 209 set write \$1/\$2_glitch_4.\$3;
#X connect 2 0 1 0;
#X connect 3 0 1 0;
#X connect 4 0 2 0;
#X connect 4 0 23 0;
#X connect 5 0 4 0;
#X connect 5 0 12 0;
#X connect 6 0 7 0;
#X connect 6 1 5 0;
#X connect 7 0 3 0;
#X connect 8 0 5 0;
#X connect 9 0 12 1;
#X connect 10 0 1 0;
#X connect 11 0 1 0;
#X connect 12 0 5 1;
#X connect 13 0 7 0;
#X connect 14 0 13 0;
#X connect 15 0 19 0;
#X connect 16 0 1 0;
#X connect 17 0 6 0;
#X connect 18 0 24 0;
#X connect 19 0 9 0;
#X connect 20 0 16 0;
#X connect 24 0 16 0;
#X coords 0 -1 1 1 124 70 1 479 40;
#X restore 429 -538 pd glitch;
#N canvas 50 17 929 1001 glitch 0;
#X obj 479 40 cnv 15 124 70 empty empty empty 20 12 0 14 -4034 -66577
0;
#X obj 193 333 mrpeach/binfile;
#X msg 261 216 writeat \$1;
#X msg 193 225 add \$1;
#X floatatom 261 186 15 0 0 0 - - -;
#X obj 220 78 f;
#X obj 193 2 t b b;
#X floatatom 484 80 5 0 255 0 - - -;
#X obj 220 38 r offset;
#X floatatom 484 50 5 0 0 0 - - -;
#X obj 313 303 r data;
#X obj 263 303 r clear;
#X obj 281 78 +;
#X obj 156 170 random 255;
#X obj 156 140 r rand_byte;
#X obj 296 -10 r rand_off;
#X msg 385 246 write /home/hellocatfood/Desktop/hellocatfood_glitch_5.jpg
;
#X obj 193 -28 r go;
#X obj 385 186 r savedir;
#X obj 296 20 random 5000;
#X obj 455 186 r write;
#X text 524 51 period;
#X text 524 81 data;
#X obj 281 247 s offnum_5;
#X msg 385 209 set write \$1/\$2_glitch_5.\$3;
#X connect 2 0 1 0;
#X connect 3 0 1 0;
#X connect 4 0 2 0;
#X connect 4 0 23 0;
#X connect 5 0 4 0;
#X connect 5 0 12 0;
#X connect 6 0 7 0;
#X connect 6 1 5 0;
#X connect 7 0 3 0;
#X connect 8 0 5 0;
#X connect 9 0 12 1;
#X connect 10 0 1 0;
#X connect 11 0 1 0;
#X connect 12 0 5 1;
#X connect 13 0 7 0;
#X connect 14 0 13 0;
#X connect 15 0 19 0;
#X connect 16 0 1 0;
#X connect 17 0 6 0;
#X connect 18 0 24 0;
#X connect 19 0 9 0;
#X connect 20 0 16 0;
#X connect 24 0 16 0;
#X coords 0 -1 1 1 124 70 1 479 40;
#X restore 9 -458 pd glitch;
#N canvas 50 17 929 1001 glitch 0;
#X obj 479 40 cnv 15 124 70 empty empty empty 20 12 0 14 -4034 -66577
0;
#X obj 193 333 mrpeach/binfile;
#X msg 261 216 writeat \$1;
#X msg 193 225 add \$1;
#X floatatom 261 186 15 0 0 0 - - -;
#X obj 220 78 f;
#X obj 193 2 t b b;
#X floatatom 484 80 5 0 255 0 - - -;
#X obj 220 38 r offset;
#X floatatom 484 50 5 0 0 0 - - -;
#X obj 313 303 r data;
#X obj 263 303 r clear;
#X obj 281 78 +;
#X obj 156 170 random 255;
#X obj 156 140 r rand_byte;
#X obj 296 -10 r rand_off;
#X msg 385 246 write /home/hellocatfood/Desktop/hellocatfood_glitch_6.jpg
;
#X obj 193 -28 r go;
#X obj 385 186 r savedir;
#X obj 296 20 random 5000;
#X obj 455 186 r write;
#X text 524 51 period;
#X text 524 81 data;
#X obj 281 247 s offnum_6;
#X msg 385 209 set write \$1/\$2_glitch_6.\$3;
#X connect 2 0 1 0;
#X connect 3 0 1 0;
#X connect 4 0 2 0;
#X connect 4 0 23 0;
#X connect 5 0 4 0;
#X connect 5 0 12 0;
#X connect 6 0 7 0;
#X connect 6 1 5 0;
#X connect 7 0 3 0;
#X connect 8 0 5 0;
#X connect 9 0 12 1;
#X connect 10 0 1 0;
#X connect 11 0 1 0;
#X connect 12 0 5 1;
#X connect 13 0 7 0;
#X connect 14 0 13 0;
#X connect 15 0 19 0;
#X connect 16 0 1 0;
#X connect 17 0 6 0;
#X connect 18 0 24 0;
#X connect 19 0 9 0;
#X connect 20 0 16 0;
#X connect 24 0 16 0;
#X coords 0 -1 1 1 124 70 1 479 40;
#X restore 149 -458 pd glitch;
#N canvas 50 17 929 1001 glitch 0;
#X obj 479 40 cnv 15 124 70 empty empty empty 20 12 0 14 -4034 -66577
0;
#X obj 193 333 mrpeach/binfile;
#X msg 261 216 writeat \$1;
#X msg 193 225 add \$1;
#X floatatom 261 186 15 0 0 0 - - -;
#X obj 220 78 f;
#X obj 193 2 t b b;
#X floatatom 484 80 5 0 255 0 - - -;
#X obj 220 38 r offset;
#X floatatom 484 50 5 0 0 0 - - -;
#X obj 313 303 r data;
#X obj 263 303 r clear;
#X obj 281 78 +;
#X obj 156 170 random 255;
#X obj 156 140 r rand_byte;
#X obj 296 -10 r rand_off;
#X msg 385 246 write /home/hellocatfood/Desktop/hellocatfood_glitch_7.jpg
;
#X obj 193 -28 r go;
#X obj 385 186 r savedir;
#X obj 296 20 random 5000;
#X obj 455 186 r write;
#X text 524 51 period;
#X text 524 81 data;
#X obj 281 247 s offnum_7;
#X msg 385 209 set write \$1/\$2_glitch_7.\$3;
#X connect 2 0 1 0;
#X connect 3 0 1 0;
#X connect 4 0 2 0;
#X connect 4 0 23 0;
#X connect 5 0 4 0;
#X connect 5 0 12 0;
#X connect 6 0 7 0;
#X connect 6 1 5 0;
#X connect 7 0 3 0;
#X connect 8 0 5 0;
#X connect 9 0 12 1;
#X connect 10 0 1 0;
#X connect 11 0 1 0;
#X connect 12 0 5 1;
#X connect 13 0 7 0;
#X connect 14 0 13 0;
#X connect 15 0 19 0;
#X connect 16 0 1 0;
#X connect 17 0 6 0;
#X connect 18 0 24 0;
#X connect 19 0 9 0;
#X connect 20 0 16 0;
#X connect 24 0 16 0;
#X coords 0 -1 1 1 124 70 1 479 40;
#X restore 289 -458 pd glitch;
#N canvas 50 17 929 1001 glitch 0;
#X obj 479 40 cnv 15 124 70 empty empty empty 20 12 0 14 -4034 -66577
0;
#X obj 193 333 mrpeach/binfile;
#X msg 261 216 writeat \$1;
#X msg 193 225 add \$1;
#X floatatom 261 186 15 0 0 0 - - -;
#X obj 220 78 f;
#X obj 193 2 t b b;
#X floatatom 484 80 5 0 255 0 - - -;
#X obj 220 38 r offset;
#X floatatom 484 50 5 0 0 0 - - -;
#X obj 313 303 r data;
#X obj 263 303 r clear;
#X obj 281 78 +;
#X obj 156 170 random 255;
#X obj 156 140 r rand_byte;
#X obj 296 -10 r rand_off;
#X msg 385 246 write /home/hellocatfood/Desktop/hellocatfood_glitch_8.jpg
;
#X obj 193 -28 r go;
#X obj 385 186 r savedir;
#X obj 296 20 random 5000;
#X obj 455 186 r write;
#X text 524 51 period;
#X text 524 81 data;
#X obj 281 247 s offnum_8;
#X msg 385 209 set write \$1/\$2_glitch_8.\$3;
#X connect 2 0 1 0;
#X connect 3 0 1 0;
#X connect 4 0 2 0;
#X connect 4 0 23 0;
#X connect 5 0 4 0;
#X connect 5 0 12 0;
#X connect 6 0 7 0;
#X connect 6 1 5 0;
#X connect 7 0 3 0;
#X connect 8 0 5 0;
#X connect 9 0 12 1;
#X connect 10 0 1 0;
#X connect 11 0 1 0;
#X connect 12 0 5 1;
#X connect 13 0 7 0;
#X connect 14 0 13 0;
#X connect 15 0 19 0;
#X connect 16 0 1 0;
#X connect 17 0 6 0;
#X connect 18 0 24 0;
#X connect 19 0 9 0;
#X connect 20 0 16 0;
#X connect 24 0 16 0;
#X coords 0 -1 1 1 124 70 1 479 40;
#X restore 429 -458 pd glitch;
#N canvas 58 82 929 997 openfile 0;
#X obj 63 -6 cnv 15 150 40 empty empty empty 20 12 0 14 -233017 -66577
0;
#X obj 69 59 openpanel;
#X obj 69 0 bng 25 250 50 0 empty open empty 17 7 0 10 -258113 -258113
-1;
#X msg 115 229 set read \$1;
#X msg 99 259 read /home/hellocatfood/Desktop/hellocatfood.jpg;
#X obj 24 309 until;
#X obj 84 369 mrpeach/binfile;
#X obj 24 290 bng 15 250 50 0 empty empty empty 17 7 0 10 -262144 -1
-1;
#X msg 129 183 clear;
#X obj 127 420 route length;
#X floatatom 127 451 20 0 0 0 - - -;
#X obj 84 480 s data;
#X msg 84 289 info;
#X obj 129 203 s clear;
#X obj 294 173 s savedir;
#X obj 396 92 stripdir;
#X obj 69 89 t b b b s b b;
#X obj 144 159 s offset_init;
#X text 101 4 open;
#X obj 139 0 bng 25 250 50 0 empty open empty 17 7 0 10 -4032 -258113
-1;
#X text 171 4 reset;
#X obj 139 59 t b b b b;
#X obj 127 472 s length;
#X obj 396 173 outlet;
#X obj 294 92 splitfilename;
#X obj 294 42 t s s s;
#X obj 506 112 splitfilename .;
#X obj 506 92 stripdir;
#X obj 294 152 pack s s s;
#X obj 396 112 splitfilename .;
#X connect 1 0 16 0;
#X connect 2 0 1 0;
#X connect 3 0 4 0;
#X connect 4 0 6 0;
#X connect 5 0 6 0;
#X connect 6 0 11 0;
#X connect 6 1 9 0;
#X connect 6 2 5 1;
#X connect 7 0 5 0;
#X connect 8 0 6 0;
#X connect 8 0 13 0;
#X connect 9 0 10 0;
#X connect 10 0 22 0;
#X connect 12 0 6 0;
#X connect 15 0 23 0;
#X connect 15 0 29 0;
#X connect 16 0 7 0;
#X connect 16 1 12 0;
#X connect 16 2 4 0;
#X connect 16 3 3 0;
#X connect 16 3 25 0;
#X connect 16 4 8 0;
#X connect 16 5 17 0;
#X connect 19 0 21 0;
#X connect 21 0 7 0;
#X connect 21 1 4 0;
#X connect 21 2 8 0;
#X connect 21 3 17 0;
#X connect 24 0 28 0;
#X connect 25 0 24 0;
#X connect 25 1 15 0;
#X connect 25 2 27 0;
#X connect 26 1 28 2;
#X connect 27 0 26 0;
#X connect 28 0 14 0;
#X connect 29 0 28 1;
#X coords 0 -1 1 1 150 40 1 63 -6;
#X restore 9 -636 pd openfile;
#N canvas 253 88 450 300 go 0;
#X obj 189 41 cnv 15 114 40 empty empty empty 20 12 0 14 -233017 -66577
0;
#X obj 338 47 >;
#X obj 338 67 sel 1;
#X floatatom 338 17 5 0 0 0 - - -;
#X obj 311 135 until;
#X obj 195 48 bng 25 250 50 0 empty empty empty 17 7 0 10 -4034 -1
-1;
#X obj 338 88 bng 15 250 50 0 empty empty empty 17 7 0 10 -262144 -1
-1;
#X obj 311 156 s go;
#X obj 338 -13 int;
#X obj 328 -104 r offnum_1;
#X obj 398 -104 r offnum_2;
#X obj 468 -104 r offnum_3;
#X obj 538 -104 r offnum_4;
#X obj 338 -74 r offnum_5;
#X obj 408 -74 r offnum_6;
#X obj 478 -74 r offnum_7;
#X obj 548 -74 r offnum_8;
#X obj 338 -34 average 8;
#X text 230 54 glitch it!;
#X obj 384 16 r length;
#X connect 1 0 2 0;
#X connect 2 0 6 0;
#X connect 3 0 1 0;
#X connect 4 0 7 0;
#X connect 5 0 4 0;
#X connect 6 0 4 1;
#X connect 8 0 3 0;
#X connect 9 0 17 0;
#X connect 10 0 17 0;
#X connect 11 0 17 0;
#X connect 12 0 17 0;
#X connect 13 0 17 0;
#X connect 14 0 17 0;
#X connect 15 0 17 0;
#X connect 16 0 17 0;
#X connect 17 0 8 0;
#X connect 19 0 1 1;
#X coords 0 -1 1 1 114 40 1 189 41;
#X restore 429 -636 pd go;
#X text 606 -576 random byte data;
#N canvas 708 345 450 300 go 0;
#X obj 189 41 cnv 15 114 40 empty empty empty 20 12 0 14 -233017 -66577
0;
#X obj 195 48 bng 25 250 50 0 write empty empty 17 7 0 10 -257985 -1
-1;
#X text 229 52 write files;
#X coords 0 -1 1 1 114 40 1 189 41;
#X restore 569 -636 pd go;
#X obj 193 -631 nbx 5 27 1 1e+37 0 0 offset offset_init empty 0 -8
0 21 -260097 -1 -1 300 256;
#X text 469 -574 random period;
#X symbolatom 9 -585 40 0 0 0 - - -;
#X text 9 -564 file currently open;
#X text 310 -627 byte offset;
#X text 563 -457 http://little-scale.blogspot.com;
#X text 563 -537 2013 Antonio Roberts;
#X text 563 -517 http://www.hellocatfood.com;
#X text 563 -477 Based on work by Little-Scale;
#X obj 435 -579 bng 25 250 50 0 rand_off empty empty 17 7 0 10 -260097
-1 -1;
#X obj 575 -579 bng 25 250 50 0 rand_byte empty empty 17 7 0 10 -260097
-1 -1;
#X connect 8 0 14 0;
