#N canvas 149 348 789 259 10;
#N canvas 50 17 929 1001 glitch 0;
#X obj 479 40 cnv 15 124 70 empty empty empty 20 12 0 14 -4034 -66577
0;
#X obj 193 333 mrpeach/binfile;
#X msg 261 216 writeat \$1;
#X msg 193 225 add \$1;
#X floatatom 261 186 15 0 0 0 - - -, f 15;
#X obj 220 78 f;
#X obj 193 2 t b b;
#X floatatom 484 80 5 0 255 0 - - -, f 5;
#X obj 220 38 r offset;
#X floatatom 484 50 5 0 0 0 - - -, f 5;
#X obj 313 303 r data;
#X obj 263 303 r clear;
#X obj 281 78 +;
#X obj 156 170 random 255;
#X obj 156 140 r rand_byte;
#X obj 296 -10 r rand_off;
#X msg 385 246 write /home/hellocatfood/Desktop/1_hellocatfood.jpg
;
#X obj 193 -28 r go;
#X obj 385 186 r savedir;
#X obj 296 20 random 5000;
#X obj 455 186 r write;
#X text 524 51 period;
#X text 524 81 data;
#X obj 281 247 s offnum_1;
#X msg 385 209 set write \$1/1_\$2;
#X connect 2 0 1 0;
#X connect 3 0 1 0;
#X connect 4 0 2 0;
#X connect 4 0 23 0;
#X connect 5 0 4 0;
#X connect 5 0 12 0;
#X connect 6 0 7 0;
#X connect 6 1 5 0;
#X connect 7 0 3 0;
#X connect 8 0 5 0;
#X connect 9 0 12 1;
#X connect 10 0 1 0;
#X connect 11 0 1 0;
#X connect 12 0 5 1;
#X connect 13 0 7 0;
#X connect 14 0 13 0;
#X connect 15 0 19 0;
#X connect 16 0 1 0;
#X connect 17 0 6 0;
#X connect 18 0 24 0;
#X connect 19 0 9 0;
#X connect 20 0 16 0;
#X connect 24 0 16 0;
#X coords 0 -1 1 1 124 70 1 479 40;
#X restore 9 -538 pd glitch;
#N canvas 50 17 929 1001 glitch 0;
#X obj 479 40 cnv 15 124 70 empty empty empty 20 12 0 14 -4034 -66577
0;
#X obj 193 333 mrpeach/binfile;
#X msg 261 216 writeat \$1;
#X msg 193 225 add \$1;
#X floatatom 261 186 15 0 0 0 - - -, f 15;
#X obj 220 78 f;
#X obj 193 2 t b b;
#X floatatom 484 80 5 0 255 0 - - -, f 5;
#X obj 220 38 r offset;
#X floatatom 484 50 5 0 0 0 - - -, f 5;
#X obj 313 303 r data;
#X obj 263 303 r clear;
#X obj 281 78 +;
#X obj 156 170 random 255;
#X obj 156 140 r rand_byte;
#X obj 296 -10 r rand_off;
#X msg 385 246 write /home/hellocatfood/Desktop/2_hellocatfood.jpg
;
#X obj 193 -28 r go;
#X obj 385 186 r savedir;
#X obj 296 20 random 5000;
#X obj 455 186 r write;
#X text 524 51 period;
#X text 524 81 data;
#X obj 281 247 s offnum_2;
#X msg 385 209 set write \$1/2_\$2;
#X connect 2 0 1 0;
#X connect 3 0 1 0;
#X connect 4 0 2 0;
#X connect 4 0 23 0;
#X connect 5 0 4 0;
#X connect 5 0 12 0;
#X connect 6 0 7 0;
#X connect 6 1 5 0;
#X connect 7 0 3 0;
#X connect 8 0 5 0;
#X connect 9 0 12 1;
#X connect 10 0 1 0;
#X connect 11 0 1 0;
#X connect 12 0 5 1;
#X connect 13 0 7 0;
#X connect 14 0 13 0;
#X connect 15 0 19 0;
#X connect 16 0 1 0;
#X connect 17 0 6 0;
#X connect 18 0 24 0;
#X connect 19 0 9 0;
#X connect 20 0 16 0;
#X connect 24 0 16 0;
#X coords 0 -1 1 1 124 70 1 479 40;
#X restore 149 -538 pd glitch;
#N canvas 50 17 929 1001 glitch 0;
#X obj 479 40 cnv 15 124 70 empty empty empty 20 12 0 14 -4034 -66577
0;
#X obj 193 333 mrpeach/binfile;
#X msg 261 216 writeat \$1;
#X msg 193 225 add \$1;
#X floatatom 261 186 15 0 0 0 - - -, f 15;
#X obj 220 78 f;
#X obj 193 2 t b b;
#X floatatom 484 80 5 0 255 0 - - -, f 5;
#X obj 220 38 r offset;
#X floatatom 484 50 5 0 0 0 - - -, f 5;
#X obj 313 303 r data;
#X obj 263 303 r clear;
#X obj 281 78 +;
#X obj 156 170 random 255;
#X obj 156 140 r rand_byte;
#X obj 296 -10 r rand_off;
#X obj 193 -28 r go;
#X obj 385 186 r savedir;
#X obj 296 20 random 5000;
#X obj 455 186 r write;
#X text 524 51 period;
#X text 524 81 data;
#X msg 385 246 write /home/hellocatfood/Desktop/3_hellocatfood.jpg
;
#X obj 281 247 s offnum_3;
#X msg 385 209 set write \$1/3_\$2;
#X connect 2 0 1 0;
#X connect 3 0 1 0;
#X connect 4 0 2 0;
#X connect 4 0 23 0;
#X connect 5 0 4 0;
#X connect 5 0 12 0;
#X connect 6 0 7 0;
#X connect 6 1 5 0;
#X connect 7 0 3 0;
#X connect 8 0 5 0;
#X connect 9 0 12 1;
#X connect 10 0 1 0;
#X connect 11 0 1 0;
#X connect 12 0 5 1;
#X connect 13 0 7 0;
#X connect 14 0 13 0;
#X connect 15 0 18 0;
#X connect 16 0 6 0;
#X connect 17 0 24 0;
#X connect 18 0 9 0;
#X connect 19 0 22 0;
#X connect 22 0 1 0;
#X connect 24 0 22 0;
#X coords 0 -1 1 1 124 70 1 479 40;
#X restore 289 -538 pd glitch;
#N canvas 50 17 929 1001 glitch 0;
#X obj 479 40 cnv 15 124 70 empty empty empty 20 12 0 14 -4034 -66577
0;
#X obj 193 333 mrpeach/binfile;
#X msg 261 216 writeat \$1;
#X msg 193 225 add \$1;
#X floatatom 261 186 15 0 0 0 - - -, f 15;
#X obj 220 78 f;
#X obj 193 2 t b b;
#X floatatom 484 80 5 0 255 0 - - -, f 5;
#X obj 220 38 r offset;
#X floatatom 484 50 5 0 0 0 - - -, f 5;
#X obj 313 303 r data;
#X obj 263 303 r clear;
#X obj 281 78 +;
#X obj 156 170 random 255;
#X obj 156 140 r rand_byte;
#X obj 296 -10 r rand_off;
#X msg 385 246 write /home/hellocatfood/Desktop/4_hellocatfood.jpg
;
#X obj 193 -28 r go;
#X obj 385 186 r savedir;
#X obj 296 20 random 5000;
#X obj 455 186 r write;
#X text 524 51 period;
#X text 524 81 data;
#X obj 281 247 s offnum_4;
#X msg 385 209 set write \$1/4_\$2;
#X connect 2 0 1 0;
#X connect 3 0 1 0;
#X connect 4 0 2 0;
#X connect 4 0 23 0;
#X connect 5 0 4 0;
#X connect 5 0 12 0;
#X connect 6 0 7 0;
#X connect 6 1 5 0;
#X connect 7 0 3 0;
#X connect 8 0 5 0;
#X connect 9 0 12 1;
#X connect 10 0 1 0;
#X connect 11 0 1 0;
#X connect 12 0 5 1;
#X connect 13 0 7 0;
#X connect 14 0 13 0;
#X connect 15 0 19 0;
#X connect 16 0 1 0;
#X connect 17 0 6 0;
#X connect 18 0 24 0;
#X connect 19 0 9 0;
#X connect 20 0 16 0;
#X connect 24 0 16 0;
#X coords 0 -1 1 1 124 70 1 479 40;
#X restore 429 -538 pd glitch;
#N canvas 50 17 929 1001 glitch 0;
#X obj 479 40 cnv 15 124 70 empty empty empty 20 12 0 14 -4034 -66577
0;
#X obj 193 333 mrpeach/binfile;
#X msg 261 216 writeat \$1;
#X msg 193 225 add \$1;
#X floatatom 261 186 15 0 0 0 - - -, f 15;
#X obj 220 78 f;
#X obj 193 2 t b b;
#X floatatom 484 80 5 0 255 0 - - -, f 5;
#X obj 220 38 r offset;
#X floatatom 484 50 5 0 0 0 - - -, f 5;
#X obj 313 303 r data;
#X obj 263 303 r clear;
#X obj 281 78 +;
#X obj 156 170 random 255;
#X obj 156 140 r rand_byte;
#X obj 296 -10 r rand_off;
#X msg 385 246 write /home/hellocatfood/Desktop/5_hellocatfood.jpg
;
#X obj 193 -28 r go;
#X obj 385 186 r savedir;
#X obj 296 20 random 5000;
#X obj 455 186 r write;
#X text 524 51 period;
#X text 524 81 data;
#X obj 281 247 s offnum_5;
#X msg 385 209 set write \$1/5_\$2;
#X connect 2 0 1 0;
#X connect 3 0 1 0;
#X connect 4 0 2 0;
#X connect 4 0 23 0;
#X connect 5 0 4 0;
#X connect 5 0 12 0;
#X connect 6 0 7 0;
#X connect 6 1 5 0;
#X connect 7 0 3 0;
#X connect 8 0 5 0;
#X connect 9 0 12 1;
#X connect 10 0 1 0;
#X connect 11 0 1 0;
#X connect 12 0 5 1;
#X connect 13 0 7 0;
#X connect 14 0 13 0;
#X connect 15 0 19 0;
#X connect 16 0 1 0;
#X connect 17 0 6 0;
#X connect 18 0 24 0;
#X connect 19 0 9 0;
#X connect 20 0 16 0;
#X connect 24 0 16 0;
#X coords 0 -1 1 1 124 70 1 479 40;
#X restore 9 -458 pd glitch;
#N canvas 50 17 929 1001 glitch 0;
#X obj 479 40 cnv 15 124 70 empty empty empty 20 12 0 14 -4034 -66577
0;
#X obj 193 333 mrpeach/binfile;
#X msg 261 216 writeat \$1;
#X msg 193 225 add \$1;
#X floatatom 261 186 15 0 0 0 - - -, f 15;
#X obj 220 78 f;
#X obj 193 2 t b b;
#X floatatom 484 80 5 0 255 0 - - -, f 5;
#X obj 220 38 r offset;
#X floatatom 484 50 5 0 0 0 - - -, f 5;
#X obj 313 303 r data;
#X obj 263 303 r clear;
#X obj 281 78 +;
#X obj 156 170 random 255;
#X obj 156 140 r rand_byte;
#X obj 296 -10 r rand_off;
#X msg 385 246 write /home/hellocatfood/Desktop/6_hellocatfood.jpg
;
#X obj 193 -28 r go;
#X obj 385 186 r savedir;
#X obj 296 20 random 5000;
#X obj 455 186 r write;
#X text 524 51 period;
#X text 524 81 data;
#X obj 281 247 s offnum_6;
#X msg 385 209 set write \$1/6_\$2;
#X connect 2 0 1 0;
#X connect 3 0 1 0;
#X connect 4 0 2 0;
#X connect 4 0 23 0;
#X connect 5 0 4 0;
#X connect 5 0 12 0;
#X connect 6 0 7 0;
#X connect 6 1 5 0;
#X connect 7 0 3 0;
#X connect 8 0 5 0;
#X connect 9 0 12 1;
#X connect 10 0 1 0;
#X connect 11 0 1 0;
#X connect 12 0 5 1;
#X connect 13 0 7 0;
#X connect 14 0 13 0;
#X connect 15 0 19 0;
#X connect 16 0 1 0;
#X connect 17 0 6 0;
#X connect 18 0 24 0;
#X connect 19 0 9 0;
#X connect 20 0 16 0;
#X connect 24 0 16 0;
#X coords 0 -1 1 1 124 70 1 479 40;
#X restore 149 -458 pd glitch;
#N canvas 50 17 929 1001 glitch 0;
#X obj 479 40 cnv 15 124 70 empty empty empty 20 12 0 14 -4034 -66577
0;
#X obj 193 333 mrpeach/binfile;
#X msg 261 216 writeat \$1;
#X msg 193 225 add \$1;
#X floatatom 261 186 15 0 0 0 - - -, f 15;
#X obj 220 78 f;
#X obj 193 2 t b b;
#X floatatom 484 80 5 0 255 0 - - -, f 5;
#X obj 220 38 r offset;
#X floatatom 484 50 5 0 0 0 - - -, f 5;
#X obj 313 303 r data;
#X obj 263 303 r clear;
#X obj 281 78 +;
#X obj 156 170 random 255;
#X obj 156 140 r rand_byte;
#X obj 296 -10 r rand_off;
#X msg 385 246 write /home/hellocatfood/Desktop/7_hellocatfood.jpg
;
#X obj 193 -28 r go;
#X obj 385 186 r savedir;
#X obj 296 20 random 5000;
#X obj 455 186 r write;
#X text 524 51 period;
#X text 524 81 data;
#X obj 281 247 s offnum_7;
#X msg 385 209 set write \$1/7_\$2;
#X connect 2 0 1 0;
#X connect 3 0 1 0;
#X connect 4 0 2 0;
#X connect 4 0 23 0;
#X connect 5 0 4 0;
#X connect 5 0 12 0;
#X connect 6 0 7 0;
#X connect 6 1 5 0;
#X connect 7 0 3 0;
#X connect 8 0 5 0;
#X connect 9 0 12 1;
#X connect 10 0 1 0;
#X connect 11 0 1 0;
#X connect 12 0 5 1;
#X connect 13 0 7 0;
#X connect 14 0 13 0;
#X connect 15 0 19 0;
#X connect 16 0 1 0;
#X connect 17 0 6 0;
#X connect 18 0 24 0;
#X connect 19 0 9 0;
#X connect 20 0 16 0;
#X connect 24 0 16 0;
#X coords 0 -1 1 1 124 70 1 479 40;
#X restore 289 -458 pd glitch;
#N canvas 50 17 929 1001 glitch 0;
#X obj 479 40 cnv 15 124 70 empty empty empty 20 12 0 14 -4034 -66577
0;
#X obj 193 333 mrpeach/binfile;
#X msg 261 216 writeat \$1;
#X msg 193 225 add \$1;
#X floatatom 261 186 15 0 0 0 - - -, f 15;
#X obj 220 78 f;
#X obj 193 2 t b b;
#X floatatom 484 80 5 0 255 0 - - -, f 5;
#X obj 220 38 r offset;
#X floatatom 484 50 5 0 0 0 - - -, f 5;
#X obj 313 303 r data;
#X obj 263 303 r clear;
#X obj 281 78 +;
#X obj 156 170 random 255;
#X obj 156 140 r rand_byte;
#X obj 296 -10 r rand_off;
#X msg 385 246 write /home/hellocatfood/Desktop/8_hellocatfood.jpg
;
#X obj 193 -28 r go;
#X obj 385 186 r savedir;
#X obj 296 20 random 5000;
#X obj 455 186 r write;
#X text 524 51 period;
#X text 524 81 data;
#X obj 281 247 s offnum_8;
#X msg 385 209 set write \$1/8_\$2;
#X connect 2 0 1 0;
#X connect 3 0 1 0;
#X connect 4 0 2 0;
#X connect 4 0 23 0;
#X connect 5 0 4 0;
#X connect 5 0 12 0;
#X connect 6 0 7 0;
#X connect 6 1 5 0;
#X connect 7 0 3 0;
#X connect 8 0 5 0;
#X connect 9 0 12 1;
#X connect 10 0 1 0;
#X connect 11 0 1 0;
#X connect 12 0 5 1;
#X connect 13 0 7 0;
#X connect 14 0 13 0;
#X connect 15 0 19 0;
#X connect 16 0 1 0;
#X connect 17 0 6 0;
#X connect 18 0 24 0;
#X connect 19 0 9 0;
#X connect 20 0 16 0;
#X connect 24 0 16 0;
#X coords 0 -1 1 1 124 70 1 479 40;
#X restore 429 -458 pd glitch;
#N canvas 906 17 929 1001 openfile 0;
#X obj 63 -6 cnv 15 150 40 empty empty empty 20 12 0 14 -233017 -66577
0;
#X obj 69 59 openpanel;
#X obj 69 0 bng 25 250 50 0 empty open empty 17 7 0 10 -258113 -258113
-1;
#X msg 115 229 set read \$1;
#X msg 99 259 read /home/hellocatfood/Desktop/hellocatfood.jpg;
#X obj 24 309 until;
#X obj 84 369 mrpeach/binfile;
#X obj 24 290 bng 15 250 50 0 empty empty empty 17 7 0 10 -262144 -1
-1;
#X msg 129 183 clear;
#X obj 127 420 route length;
#X floatatom 127 451 20 0 0 0 - - -, f 20;
#X obj 84 480 s data;
#X msg 84 289 info;
#X obj 129 203 s clear;
#X obj 351 122 pack s s;
#X obj 351 143 s savedir;
#X obj 294 92 unpack s s;
#X obj 294 72 moonlib/basedir;
#X obj 396 92 stripdir;
#X obj 294 42 t s s;
#X obj 69 89 t b b b s b b;
#X obj 144 159 s offset_init;
#X text 101 4 open;
#X obj 139 0 bng 25 250 50 0 empty open empty 17 7 0 10 -4032 -258113
-1;
#X text 171 4 reset;
#X obj 139 59 t b b b b;
#X obj 127 472 s length;
#X obj 396 193 outlet;
#X connect 1 0 20 0;
#X connect 2 0 1 0;
#X connect 3 0 4 0;
#X connect 4 0 6 0;
#X connect 5 0 6 0;
#X connect 6 0 11 0;
#X connect 6 1 9 0;
#X connect 6 2 5 1;
#X connect 7 0 5 0;
#X connect 8 0 6 0;
#X connect 8 0 13 0;
#X connect 9 0 10 0;
#X connect 10 0 26 0;
#X connect 12 0 6 0;
#X connect 14 0 15 0;
#X connect 16 1 14 0;
#X connect 17 0 16 0;
#X connect 18 0 14 1;
#X connect 18 0 27 0;
#X connect 19 0 17 0;
#X connect 19 1 18 0;
#X connect 20 0 7 0;
#X connect 20 1 12 0;
#X connect 20 2 4 0;
#X connect 20 3 3 0;
#X connect 20 3 19 0;
#X connect 20 4 8 0;
#X connect 20 5 21 0;
#X connect 23 0 25 0;
#X connect 25 0 7 0;
#X connect 25 1 4 0;
#X connect 25 2 8 0;
#X connect 25 3 21 0;
#X coords 0 -1 1 1 150 40 1 63 -6;
#X restore 9 -636 pd openfile;
#N canvas 253 88 450 300 go 0;
#X obj 189 41 cnv 15 114 40 empty empty empty 20 12 0 14 -233017 -66577
0;
#X obj 338 47 >;
#X obj 338 67 sel 1;
#X floatatom 338 17 5 0 0 0 - - -, f 5;
#X obj 311 135 until;
#X obj 195 48 bng 25 250 50 0 empty empty empty 17 7 0 10 -4034 -1
-1;
#X obj 338 88 bng 15 250 50 0 empty empty empty 17 7 0 10 -262144 -1
-1;
#X obj 311 156 s go;
#X obj 338 -13 int;
#X obj 328 -104 r offnum_1;
#X obj 398 -104 r offnum_2;
#X obj 468 -104 r offnum_3;
#X obj 538 -104 r offnum_4;
#X obj 338 -74 r offnum_5;
#X obj 408 -74 r offnum_6;
#X obj 478 -74 r offnum_7;
#X obj 548 -74 r offnum_8;
#X obj 338 -34 average 8;
#X text 230 54 glitch it!;
#X obj 384 16 r length;
#X connect 1 0 2 0;
#X connect 2 0 6 0;
#X connect 3 0 1 0;
#X connect 4 0 7 0;
#X connect 5 0 4 0;
#X connect 6 0 4 1;
#X connect 8 0 3 0;
#X connect 9 0 17 0;
#X connect 10 0 17 0;
#X connect 11 0 17 0;
#X connect 12 0 17 0;
#X connect 13 0 17 0;
#X connect 14 0 17 0;
#X connect 15 0 17 0;
#X connect 16 0 17 0;
#X connect 17 0 8 0;
#X connect 19 0 1 1;
#X coords 0 -1 1 1 114 40 1 189 41;
#X restore 429 -636 pd go;
#X text 606 -576 random byte data;
#N canvas 710 340 450 300 go 0;
#X obj 189 41 cnv 15 114 40 empty empty empty 20 12 0 14 -233017 -66577
0;
#X obj 195 48 bng 25 250 50 0 write empty empty 17 7 0 10 -257985 -1
-1;
#X text 229 52 write files;
#X coords 0 -1 1 1 114 40 1 189 41;
#X restore 569 -636 pd go;
#X obj 193 -631 nbx 5 27 1 1e+37 0 0 offset offset_init empty 0 -8
0 21 -260097 -1 -1 1 256 0;
#X text 469 -574 random period;
#X symbolatom 9 -585 40 0 0 0 - - -, f 40;
#X text 9 -564 file currently open;
#X text 310 -627 byte offset;
#X text 563 -457 http://little-scale.blogspot.com;
#X text 563 -537 2013 Antonio Roberts;
#X text 563 -517 http://www.hellocatfood.com;
#X text 563 -477 Based on work by Little-Scale;
#X obj 435 -579 bng 25 250 50 0 rand_off empty empty 17 7 0 10 -260097
-1 -1;
#X obj 575 -579 bng 25 250 50 0 rand_byte empty empty 17 7 0 10 -260097
-1 -1;
#X connect 8 0 14 0;
