#N canvas 169 148 879 422 10;
#X msg 17 19 create;
#X msg 34 44 destroy;
#X obj 74 98 tgl 15 0 empty empty empty 0 -6 0 8 -262144 -1 -1 0 1
;
#X obj 180 69 gemhead;
#X obj 180 49 tgl 15 0 empty renderinit empty 0 -6 0 8 -262144 -1 -1
0 1;
#X msg 56 70 reset;
#X obj 17 165 loadbang;
#X msg 17 189 \; renderinit 0;
#X obj 17 133 gemwin 50;
#X obj 180 201 square 1;
#X msg 210 95 1 0 0;
#X msg 255 95 0 1 0;
#X msg 301 95 0 0 1;
#X msg 348 95 0.5 0.5 0.5;
#X obj 180 129 color;
#X obj 463 59 gemhead;
#X obj 463 28 tgl 15 0 empty renderinit empty 0 -6 0 8 -262144 -1 -1
0 1;
#X obj 463 238 rotateXYZ;
#X floatatom 530 207 5 0 0 0 - - -;
#X obj 463 179 translateXYZ;
#X floatatom 497 134 5 0 0 0 - - -;
#X floatatom 537 134 5 0 0 0 - - -;
#X floatatom 577 134 5 0 0 0 - - -;
#X obj 463 280 alpha;
#X obj 463 94 color 1 0.5 0 0.5;
#X msg 513 27 set 10;
#X msg 563 27 set 20;
#X obj 634 60 gemhead;
#X obj 634 29 tgl 15 0 empty renderinit empty 0 -6 0 8 -262144 -1 -1
0 1;
#X obj 634 239 rotateXYZ;
#X floatatom 701 208 5 0 0 0 - - -;
#X obj 634 180 translateXYZ;
#X floatatom 668 135 5 0 0 0 - - -;
#X floatatom 708 135 5 0 0 0 - - -;
#X floatatom 748 135 5 0 0 0 - - -;
#X obj 634 281 alpha;
#X msg 684 28 set 10;
#X msg 734 28 set 20;
#X obj 634 95 color 0 0.5 1 0.5;
#X obj 463 313 square 2;
#X obj 634 314 square 2;
#X text 407 368 Be aware of rendering order when using the alpha channel!
;
#X text 170 387 by Aymeric Mansoux;
#X connect 0 0 8 0;
#X connect 1 0 8 0;
#X connect 2 0 8 0;
#X connect 3 0 14 0;
#X connect 4 0 3 0;
#X connect 5 0 8 0;
#X connect 6 0 7 0;
#X connect 10 0 14 1;
#X connect 11 0 14 1;
#X connect 12 0 14 1;
#X connect 13 0 14 1;
#X connect 14 0 9 0;
#X connect 15 0 24 0;
#X connect 16 0 15 0;
#X connect 17 0 23 0;
#X connect 18 0 17 3;
#X connect 18 0 17 2;
#X connect 18 0 17 1;
#X connect 19 0 17 0;
#X connect 20 0 19 1;
#X connect 21 0 19 2;
#X connect 22 0 19 3;
#X connect 23 0 39 0;
#X connect 24 0 19 0;
#X connect 25 0 15 0;
#X connect 26 0 15 0;
#X connect 27 0 38 0;
#X connect 28 0 27 0;
#X connect 29 0 35 0;
#X connect 30 0 29 3;
#X connect 30 0 29 2;
#X connect 30 0 29 1;
#X connect 31 0 29 0;
#X connect 32 0 31 1;
#X connect 33 0 31 2;
#X connect 34 0 31 3;
#X connect 35 0 40 0;
#X connect 36 0 27 0;
#X connect 37 0 27 0;
#X connect 38 0 31 0;
