#N canvas 584 453 641 364 10;
#X msg 17 19 create;
#X msg 34 44 destroy;
#X obj 74 98 tgl 15 0 empty empty empty 0 -6 0 8 -262144 -1 -1 0 1
;
#X obj 266 69 gemhead;
#X obj 266 49 tgl 15 0 empty renderinit empty 0 -6 0 8 -262144 -1 -1
0 1;
#X msg 56 70 reset;
#X obj 17 165 loadbang;
#X msg 17 189 \; renderinit 0;
#X obj 440 237 light;
#X obj 440 42 tgl 15 0 empty renderinit empty 0 -6 0 8 -262144 -1 -1
0 1;
#X obj 440 138 translateXYZ;
#X msg 470 179 1 1 1;
#X obj 120 76 tgl 15 0 empty empty empty 0 -6 0 8 -262144 -1 -1 0 1
;
#X msg 120 97 lighting \$1;
#X floatatom 466 101 5 0 0 0 - - -;
#X floatatom 506 102 5 0 0 0 - - -;
#X msg 526 237 debug \$1;
#X obj 526 219 tgl 15 0 empty empty empty 0 -6 0 8 -262144 -1 -1 0
1;
#X floatatom 546 102 5 0 0 0 - - -;
#X msg 520 179 0 1 0;
#X obj 440 62 gemhead 1;
#X obj 17 133 gemwin 50;
#X obj 266 146 specular 1 0.8 0.3;
#X obj 266 99 shininess 100;
#X obj 266 123 diffuse 0.5 0.2 0;
#X obj 266 168 ambient 1 0.8 0;
#X msg 302 220 2;
#X msg 333 220 86;
#X obj 266 244 sphere 2;
#X text 170 297 by Aymeric Mansoux;
#X connect 0 0 21 0;
#X connect 1 0 21 0;
#X connect 2 0 21 0;
#X connect 3 0 23 0;
#X connect 4 0 3 0;
#X connect 5 0 21 0;
#X connect 6 0 7 0;
#X connect 9 0 20 0;
#X connect 10 0 8 0;
#X connect 11 0 8 1;
#X connect 12 0 13 0;
#X connect 13 0 21 0;
#X connect 14 0 10 1;
#X connect 15 0 10 2;
#X connect 16 0 8 0;
#X connect 17 0 16 0;
#X connect 18 0 10 3;
#X connect 19 0 8 1;
#X connect 20 0 10 0;
#X connect 22 0 25 0;
#X connect 23 0 24 0;
#X connect 24 0 22 0;
#X connect 25 0 28 0;
#X connect 26 0 28 1;
#X connect 27 0 28 2;
