#N canvas 307 575 893 385 10;
#X msg 17 19 create;
#X msg 34 44 destroy;
#X obj 74 98 tgl 15 0 empty empty empty 0 -6 0 8 -262144 -1 -1 0 1
;
#X obj 266 69 gemhead;
#X obj 266 49 tgl 15 0 empty renderinit empty 0 -6 0 8 -262144 -1 -1
0 1;
#X msg 56 70 reset;
#X obj 17 165 loadbang;
#X msg 17 189 \; renderinit 0;
#X obj 598 261 light;
#X obj 598 202 translateXYZ;
#X obj 120 74 tgl 15 0 empty empty empty 0 -6 0 8 -262144 -1 -1 0 1
;
#X msg 120 95 lighting \$1;
#X floatatom 624 165 5 0 0 0 - - -;
#X floatatom 664 166 5 0 0 0 - - -;
#X msg 639 261 debug \$1;
#X obj 639 243 tgl 15 0 empty empty empty 0 -6 0 8 -262144 -1 -1 0
1;
#X floatatom 704 166 5 0 0 0 - - -;
#X obj 598 24 gemhead 1;
#X obj 17 133 gemwin 50;
#X obj 266 146 specular 1 0.8 0.3;
#X obj 266 99 shininess 100;
#X obj 266 123 diffuse 0.5 0.2 0;
#X obj 415 23 gemhead;
#X obj 415 131 rotateXYZ;
#X floatatom 462 101 0 0 0 0 - - -;
#X obj 415 262 world_light;
#X obj 487 176 loadbang;
#X msg 498 261 debug \$1;
#X obj 498 243 tgl 15 0 empty empty empty 0 -6 0 8 -262144 -1 -1 0
1;
#X msg 120 116 color 0.2 0.2 0.3;
#X msg 333 243 80;
#X obj 550 57 + 1;
#X obj 515 56 int;
#X msg 481 56 0;
#X obj 514 33 metro 50;
#X obj 514 14 bng 15 250 50 0 empty empty empty 0 -6 0 8 -262144 -1
-1;
#X msg 487 198 0.9 0.3 0;
#X obj 266 168 ambient 0.2 0.2 1;
#X obj 598 117 rotateXYZ;
#X floatatom 631 78 5 0 0 0 - - -;
#X obj 698 94 / 100;
#X obj 727 114 cos;
#X obj 266 267 sphere 1;
#X obj 515 81 select 360;
#X obj 699 74 / 2;
#X obj 698 115 sin;
#X text 170 337 by Aymeric Mansoux;
#X connect 0 0 18 0;
#X connect 1 0 18 0;
#X connect 2 0 18 0;
#X connect 3 0 20 0;
#X connect 4 0 3 0;
#X connect 5 0 18 0;
#X connect 6 0 7 0;
#X connect 6 0 29 0;
#X connect 9 0 8 0;
#X connect 10 0 11 0;
#X connect 11 0 18 0;
#X connect 12 0 9 1;
#X connect 13 0 9 2;
#X connect 14 0 8 0;
#X connect 15 0 14 0;
#X connect 16 0 9 3;
#X connect 17 0 38 0;
#X connect 19 0 37 0;
#X connect 20 0 21 0;
#X connect 21 0 19 0;
#X connect 22 0 23 0;
#X connect 23 0 25 0;
#X connect 24 0 23 2;
#X connect 24 0 23 3;
#X connect 26 0 36 0;
#X connect 26 0 30 0;
#X connect 27 0 25 0;
#X connect 28 0 27 0;
#X connect 29 0 18 0;
#X connect 30 0 42 2;
#X connect 31 0 32 1;
#X connect 32 0 31 0;
#X connect 32 0 24 0;
#X connect 32 0 39 0;
#X connect 32 0 43 0;
#X connect 33 0 32 0;
#X connect 34 0 32 0;
#X connect 35 0 34 0;
#X connect 36 0 25 1;
#X connect 37 0 42 0;
#X connect 38 0 9 0;
#X connect 39 0 38 1;
#X connect 39 0 38 3;
#X connect 39 0 38 2;
#X connect 39 0 44 0;
#X connect 40 0 41 0;
#X connect 40 0 45 0;
#X connect 41 0 16 0;
#X connect 43 0 33 0;
#X connect 44 0 40 0;
#X connect 45 0 13 0;
#X connect 45 0 12 0;
