#N canvas 172 558 1167 389 10;
#X msg 17 19 create;
#X msg 34 44 destroy;
#X obj 74 98 tgl 15 0 empty empty empty 0 -6 0 8 -262144 -1 -1 0 1
;
#X obj 254 43 tgl 15 0 empty renderinit empty 0 -6 0 8 -262144 -1 -1
0 1;
#X msg 56 70 reset;
#X obj 17 165 loadbang;
#X msg 17 189 \; renderinit 0;
#X obj 950 272 light;
#X obj 950 213 translateXYZ;
#X obj 120 74 tgl 15 0 empty empty empty 0 -6 0 8 -262144 -1 -1 0 1
;
#X msg 120 95 lighting \$1;
#X floatatom 976 176 5 0 0 0 - - -;
#X floatatom 1016 177 5 0 0 0 - - -;
#X msg 991 272 debug \$1;
#X obj 991 254 tgl 15 0 empty empty empty 0 -6 0 8 -262144 -1 -1 0
1;
#X floatatom 1056 177 5 0 0 0 - - -;
#X obj 950 35 gemhead 1;
#X obj 17 133 gemwin 50;
#X obj 254 93 shininess 100;
#X obj 767 34 gemhead;
#X obj 767 142 rotateXYZ;
#X floatatom 814 112 0 0 0 0 - - -;
#X obj 767 273 world_light;
#X obj 839 187 loadbang;
#X msg 850 272 debug \$1;
#X obj 850 254 tgl 15 0 empty empty empty 0 -6 0 8 -262144 -1 -1 0
1;
#X msg 321 237 80;
#X obj 902 68 + 1;
#X obj 867 67 int;
#X msg 833 67 0;
#X obj 866 25 bng 15 250 50 0 empty empty empty 0 -6 0 8 -262144 -1
-1;
#X msg 839 209 0.9 0.3 0;
#X obj 950 128 rotateXYZ;
#X floatatom 992 69 5 0 0 0 - - -;
#X obj 1079 125 cos;
#X obj 867 92 select 360;
#X obj 254 197 alpha;
#X obj 254 63 gemhead 10;
#X obj 391 46 tgl 15 0 empty renderinit empty 0 -6 0 8 -262144 -1 -1
0 1;
#X obj 391 96 shininess 100;
#X obj 391 200 alpha;
#X obj 254 162 ambient 0.2 0.2 1;
#X obj 254 140 specular 1 0.8 0.3;
#X obj 254 117 diffuse 0.5 0.2 0;
#X obj 1050 126 cos;
#X obj 1050 83 * 6.28319;
#X obj 1050 105 / 360;
#X obj 559 49 tgl 15 0 empty renderinit empty 0 -6 0 8 -262144 -1 -1
0 1;
#X obj 559 99 shininess 100;
#X obj 559 203 alpha;
#X obj 391 66 gemhead 15;
#X obj 559 69 gemhead 20;
#X obj 391 143 specular 1 0.8 0.3 0.4;
#X obj 559 146 specular 1 0.8 0.3 0.3;
#X obj 391 165 ambient 0.2 0.3 1 0.4;
#X obj 559 168 ambient 0.2 0.4 1 0.3;
#X obj 391 120 diffuse 0.5 0.2 0.2 0.4;
#X obj 559 123 diffuse 0.5 0.2 0.4 0.3;
#X msg 120 116 color 0.2 0.2 0.3;
#X msg 458 240 80;
#X msg 626 243 80;
#X obj 1061 153 + 2;
#X obj 559 267 sphere 2.2;
#X obj 391 264 sphere 2;
#X obj 254 261 sphere 0.8;
#X obj 866 44 metro 40;
#X text 274 329 Be aware of rendering order when using the Alpha channel.
The numbers in the [gemhead] objects specify rendering order.;
#X text 100 337 by Aymeric Mansoux;
#X connect 0 0 17 0;
#X connect 1 0 17 0;
#X connect 2 0 17 0;
#X connect 3 0 37 0;
#X connect 4 0 17 0;
#X connect 5 0 6 0;
#X connect 5 0 58 0;
#X connect 8 0 7 0;
#X connect 9 0 10 0;
#X connect 10 0 17 0;
#X connect 11 0 8 1;
#X connect 12 0 8 2;
#X connect 13 0 7 0;
#X connect 14 0 13 0;
#X connect 15 0 8 3;
#X connect 16 0 32 0;
#X connect 18 0 43 0;
#X connect 19 0 20 0;
#X connect 20 0 22 0;
#X connect 21 0 20 2;
#X connect 21 0 20 3;
#X connect 23 0 31 0;
#X connect 23 0 26 0;
#X connect 23 0 59 0;
#X connect 23 0 60 0;
#X connect 24 0 22 0;
#X connect 25 0 24 0;
#X connect 26 0 64 2;
#X connect 27 0 28 1;
#X connect 28 0 27 0;
#X connect 28 0 21 0;
#X connect 28 0 33 0;
#X connect 28 0 35 0;
#X connect 29 0 28 0;
#X connect 30 0 65 0;
#X connect 31 0 22 1;
#X connect 32 0 8 0;
#X connect 33 0 32 1;
#X connect 33 0 32 3;
#X connect 33 0 32 2;
#X connect 33 0 45 0;
#X connect 34 0 61 0;
#X connect 35 0 29 0;
#X connect 36 0 64 0;
#X connect 37 0 18 0;
#X connect 38 0 50 0;
#X connect 39 0 56 0;
#X connect 40 0 63 0;
#X connect 41 0 36 0;
#X connect 42 0 41 0;
#X connect 43 0 42 0;
#X connect 44 0 12 0;
#X connect 44 0 11 0;
#X connect 45 0 46 0;
#X connect 46 0 34 0;
#X connect 46 0 44 0;
#X connect 47 0 51 0;
#X connect 48 0 57 0;
#X connect 49 0 62 0;
#X connect 50 0 39 0;
#X connect 51 0 48 0;
#X connect 52 0 54 0;
#X connect 53 0 55 0;
#X connect 54 0 40 0;
#X connect 55 0 49 0;
#X connect 56 0 52 0;
#X connect 57 0 53 0;
#X connect 58 0 17 0;
#X connect 59 0 63 2;
#X connect 60 0 62 2;
#X connect 61 0 15 0;
#X connect 65 0 28 0;
