#N canvas 54 305 520 462 10;
#X obj 5 144 *~ 0.1;
#X obj 4 173 dac~;
#X obj 22 112 hsl 128 15 0 1 0 0 empty empty empty -2 -8 0 10 -262144
-1 -1 6500 1;
#X obj 4 20 *~;
#X obj 5 -58 mtof;
#X obj 8 -118 hsl 128 15 -100 100 0 0 empty empty empty -2 -8 0 10
-262144 -1 -1 0 1;
#X obj 5 -88 int;
#X obj 5 -28 osc~;
#X obj 350 -105 mtof;
#X obj 353 -165 hsl 128 15 -100 200 0 0 empty empty empty -2 -8 0 10
-262144 -1 -1 0 1;
#X obj 350 -135 int;
#X obj 312 -10 phasor~;
#X floatatom 5 -172 5 0 0 0 - - -;
#X obj 6 -198 ctlin 16;
#X obj 5 -148 maxlib/scale 0 127 -100 100;
#X floatatom 349 -215 5 0 0 0 - - -;
#X obj 347 -242 ctlin 17;
#X obj 349 -191 maxlib/scale 0 127 -100 200;
#X obj 179 -13 metro;
#X obj 171 33 snapshot~;
#X obj 189 -68 knob 32 32 1 30 0 0 empty empty empty 0 -8 0 8 -262144
-1 -1 0 1;
#X floatatom 187 -120 5 0 0 0 - - -;
#X obj 188 -146 ctlin 18;
#X obj 150 -27 tgl 15 0 empty empty empty 17 7 0 10 -262144 -1 -1 1
1;
#X obj 187 -96 maxlib/scale 0 127 1 30;
#X obj 130 -48 loadbang;
#X obj 291 126 pd~;
#X msg 323 41 pd~ stop;
#X msg 292 83 pd~ start pd~ video.pd;
#X msg 174 102 snapshot \$1;
#X obj 445 -44 tgl 15 0 empty empty empty 17 7 0 10 -262144 -1 -1 0
1;
#X floatatom 418 -101 5 0 0 0 - - -;
#X msg 110 -222 52.75;
#X msg 261 -199 65.35;
#X msg 444 -13 \; pd dsp \$1;
#X obj 188 173 netsend;
#X floatatom 189 200 5 0 0 0 - - -;
#X msg 92 145 connect localhost 3001;
#X msg 173 67 send \$1;
#X floatatom 64 135 5 0 0 0 - - -;
#X connect 0 0 1 0;
#X connect 0 0 1 1;
#X connect 2 0 0 1;
#X connect 2 0 39 0;
#X connect 3 0 0 0;
#X connect 3 0 19 0;
#X connect 4 0 7 0;
#X connect 5 0 6 0;
#X connect 6 0 4 0;
#X connect 7 0 3 0;
#X connect 8 0 11 0;
#X connect 9 0 10 0;
#X connect 9 0 31 0;
#X connect 10 0 8 0;
#X connect 11 0 3 1;
#X connect 12 0 14 0;
#X connect 13 0 12 0;
#X connect 14 0 5 0;
#X connect 15 0 17 0;
#X connect 16 0 15 0;
#X connect 17 0 9 0;
#X connect 18 0 19 0;
#X connect 19 0 38 0;
#X connect 20 0 18 1;
#X connect 21 0 24 0;
#X connect 22 0 21 0;
#X connect 23 0 18 0;
#X connect 24 0 20 0;
#X connect 25 0 23 0;
#X connect 27 0 26 0;
#X connect 28 0 26 0;
#X connect 29 0 26 0;
#X connect 30 0 34 0;
#X connect 32 0 5 0;
#X connect 33 0 9 0;
#X connect 35 0 36 0;
#X connect 37 0 35 0;
#X connect 38 0 35 0;
