#N canvas 338 150 828 483 10;
#X declare -lib mrpeach;
#X obj -99 -7 import mrpeach;
#X obj 333 18 udpreceive 10000;
#X obj 333 41 unpackOSC;
#X obj 334 67 pipelist;
#X obj 334 129 routeOSC /frame;
#X obj 334 154 routeOSC /add;
#X obj 441 154 routeOSC /playhead;
#X obj 441 174 unpack f f s;
#X obj 391 226 s \$0-new-frame;
#N canvas 397 135 633 514 play-sf 0;
#X obj 103 -190 r path;
#X obj 85 -131 makefilename;
#X obj 62 -271 r \$0-frame;
#X obj 105 12 outlet~;
#X obj 105 -20 readsf~;
#X msg 58 -59 start;
#X obj 73 -240 t b a b;
#X msg 158 -49 stop;
#X msg 96 -101 open \$1;
#X msg 103 -167 set \$1%d.aiff;
#X connect 0 0 9 0;
#X connect 1 0 8 0;
#X connect 2 0 6 0;
#X connect 4 0 3 0;
#X connect 5 0 4 0;
#X connect 6 0 5 0;
#X connect 6 1 1 0;
#X connect 6 2 7 0;
#X connect 7 0 4 0;
#X connect 8 0 4 0;
#X connect 9 0 1 0;
#X restore -100 199 pd play-sf;
#X obj 475 199 s \$0-frame;
#X obj 441 130 routeOSC /clip;
#X obj 334 92 routeOSC /toon;
#N canvas 379 150 706 466 rec-sound 0;
#X msg 277 192 set \$1;
#X obj 257 364 makefilename;
#X obj 257 274 symbol;
#X obj 212 217 loadbang;
#X msg 257 387 open \$1;
#X obj 446 428 writesf~;
#X msg 428 334 start;
#X msg 479 333 stop;
#X obj 238 138 savepanel;
#X obj 238 169 t b s;
#X obj 451 80 r \$0-new-frame;
#X obj 267 301 s path;
#X obj 251 94 inlet;
#X obj 514 223 delay 2000;
#X msg 514 193 stop;
#X obj 451 113 t b b f b b;
#X obj 506 377 adc~;
#X msg 257 328 set \$1%d.aiff;
#X obj 164 408 print;
#X msg 257 249 /home/stefan/Documents/toonloop/testpeter/testpeter
;
#X connect 0 0 19 0;
#X connect 1 0 4 0;
#X connect 1 0 18 0;
#X connect 2 0 17 0;
#X connect 2 0 11 0;
#X connect 3 0 19 0;
#X connect 4 0 5 0;
#X connect 6 0 5 0;
#X connect 7 0 5 0;
#X connect 8 0 9 0;
#X connect 9 0 19 0;
#X connect 9 1 0 0;
#X connect 10 0 15 0;
#X connect 12 0 8 0;
#X connect 13 0 7 0;
#X connect 14 0 13 0;
#X connect 15 0 6 0;
#X connect 15 1 13 0;
#X connect 15 2 1 0;
#X connect 15 3 7 0;
#X connect 15 4 14 0;
#X connect 16 0 5 0;
#X connect 16 1 5 0;
#X connect 17 0 1 0;
#X connect 19 0 2 0;
#X restore -101 101 pd rec-sound;
#X obj -101 76 bng 15 250 50 0 empty empty empty 20 7 0 10 -261682
-1 -1;
#X obj -101 254 output~;
#X obj 334 199 unpack f f;
#X text -102 48 select folder to rec files;
#X text -102 57 + give a name (without extension);
#X text 333 -4 open toonloop with "toonloop --osc-send-port 10000"
;
#X connect 1 0 2 0;
#X connect 2 0 3 0;
#X connect 2 1 3 1;
#X connect 3 0 12 0;
#X connect 4 0 5 0;
#X connect 5 0 16 0;
#X connect 6 0 7 0;
#X connect 7 1 10 0;
#X connect 9 0 15 1;
#X connect 9 0 15 0;
#X connect 11 0 6 0;
#X connect 12 0 4 0;
#X connect 12 0 11 0;
#X connect 14 0 13 0;
#X connect 16 1 8 0;
