#N canvas 65 54 1301 713 10;
#X obj 1012 -48 pix_buffer_write store;
#X obj 1012 -99 pix_video;
#X obj 812 -65 gemwin;
#X obj 1012 -125 gemhead;
#X obj 782 157 gemhead;
#X obj 37 -36 bng 40 250 50 0 empty empty empty 17 7 0 10 -257985 -1
-1;
#X obj 64 55 f;
#X obj 95 55 + 1;
#X obj 137 -67 bng 15 250 50 0 empty empty empty 17 7 0 10 -1 -262144
-1;
#X obj 64 75 s frameCount;
#X obj 1141 -73 r frameCount;
#X obj 812 -125 loadbang;
#X msg 812 -85 0 \, destroy;
#X obj 482 474 pix_record;
#X msg 499 207 record \$1;
#X obj 499 179 tgl 15 0 empty empty empty 0 -6 0 8 -262144 -1 -1 0
1;
#X obj 482 -25 f;
#X obj 515 -25 + 1;
#X obj 482 -115 bng 30 250 50 0 empty empty empty 17 7 0 10 -258113
-1 -1;
#X obj 482 -75 tof/folderpanel;
#X msg 482 85 file /home/hellocatfood/Desktop/stop_motion_1.mov;
#X msg 499 159 0;
#X obj 296 180 gate;
#X msg 296 120 1;
#X obj 296 100 loadbang;
#X obj 296 210 t b b;
#X msg 323 240 1;
#X msg 336 120 0;
#X obj 1012 -18 pix_buffer store 96;
#X obj 482 -55 t b s;
#X obj 482 15 pack f s;
#X msg 482 35 set file \$2/stop_motion_\$1.mov;
#X floatatom 510 505 5 0 0 0 - - -;
#X obj 761 462 gate;
#X msg 791 432 1;
#X msg 761 432 0;
#X obj 761 394 loadbang;
#X obj 510 524 change;
#X obj 37 7 t b b;
#X obj 290 150 t b b;
#X obj 782 258 pix_buffer_read store;
#X obj 905 153 f;
#X obj 930 153 + 1;
#X obj 920 218 + 1;
#X obj 920 178 r frameCount;
#X obj 905 238 % 0;
#X obj 953 77 hsl 80 20 100 0 0 0 empty empty empty -2 -8 0 10 -257985
-1 -1 0 1;
#N canvas 1670 519 450 300 speed 0;
#X obj 107 86 inlet;
#X obj 106 120 f;
#X obj 136 120 + 1;
#X obj 106 165 % 4;
#X obj 107 228 outlet;
#X obj 106 189 sel 0;
#X obj 194 117 inlet;
#X obj 194 149 int;
#X floatatom 250 212 5 0 0 0 - - -;
#X connect 0 0 1 0;
#X connect 1 0 2 0;
#X connect 1 0 3 0;
#X connect 2 0 1 1;
#X connect 3 0 5 0;
#X connect 3 0 8 0;
#X connect 5 0 4 0;
#X connect 6 0 7 0;
#X connect 7 0 3 1;
#X restore 905 125 pd speed;
#X obj 782 278 pix_texture;
#X obj 782 298 rectangle 4 3;
#X obj 905 75 tgl 15 0 empty empty empty 17 7 0 10 -262144 -1 -1 1
1;
#X obj 905 105 metro 10;
#X obj 137 -47 t b b b b;
#N canvas 66 115 450 300 reset 0;
#X obj 38 94 s frameCount;
#X obj 38 66 t f f;
#X obj 38 14 inlet;
#X obj 91 66 outlet;
#X obj 90 13 loadbang;
#X msg 38 43 -1;
#X connect 1 0 0 0;
#X connect 1 1 3 0;
#X connect 2 0 5 0;
#X connect 4 0 5 0;
#X connect 5 0 1 0;
#X restore 137 -17 pd reset;
#X msg 812 -105 create \, 1;
#X text 158 -68 save video/reset;
#X text 515 -110 location to save video;
#X text 948 53 playback speed;
#X text 1110 -120 display video;
#X text 84 -38 record;
#X text 196 267 specify whether to capture frames or not;
#X text 548 12 increments filename by 1 each time reset is pressed
;
#X obj 905 35 loadbang;
#X text 826 431 record 1 frame then stop sending pixes to pix_record
;
#X obj 386 525 print;
#X msg 344 360 codeclist;
#X msg 651 234 codec 1;
#X msg 551 256 set framerate 24;
#X obj 482 55 t b a b b;
#X msg 304 331 dialog;
#X connect 1 0 0 0;
#X connect 3 0 1 0;
#X connect 4 0 40 0;
#X connect 5 0 38 0;
#X connect 6 0 7 0;
#X connect 6 0 9 0;
#X connect 7 0 6 1;
#X connect 8 0 52 0;
#X connect 10 0 0 1;
#X connect 11 0 54 0;
#X connect 12 0 2 0;
#X connect 13 1 32 0;
#X connect 13 2 64 0;
#X connect 14 0 13 0;
#X connect 15 0 14 0;
#X connect 16 0 17 0;
#X connect 16 0 30 0;
#X connect 17 0 16 1;
#X connect 18 0 19 0;
#X connect 19 0 29 0;
#X connect 20 0 13 0;
#X connect 21 0 15 0;
#X connect 22 0 25 0;
#X connect 23 0 22 0;
#X connect 24 0 23 0;
#X connect 25 0 27 0;
#X connect 25 1 26 0;
#X connect 26 0 15 0;
#X connect 27 0 22 0;
#X connect 29 0 16 0;
#X connect 29 1 30 1;
#X connect 30 0 31 0;
#X connect 31 0 68 0;
#X connect 32 0 37 0;
#X connect 33 0 13 0;
#X connect 34 0 33 0;
#X connect 35 0 33 0;
#X connect 36 0 35 0;
#X connect 37 0 35 0;
#X connect 38 0 39 0;
#X connect 38 1 6 0;
#X connect 39 0 34 0;
#X connect 39 1 22 1;
#X connect 40 0 48 0;
#X connect 41 0 42 0;
#X connect 41 0 45 0;
#X connect 42 0 41 1;
#X connect 43 0 45 1;
#X connect 44 0 43 0;
#X connect 45 0 40 1;
#X connect 46 0 47 1;
#X connect 47 0 41 0;
#X connect 48 0 49 0;
#X connect 49 0 33 1;
#X connect 50 0 51 0;
#X connect 51 0 47 0;
#X connect 52 0 53 0;
#X connect 52 1 23 0;
#X connect 52 2 21 0;
#X connect 52 3 16 0;
#X connect 53 0 6 0;
#X connect 54 0 2 0;
#X connect 62 0 50 0;
#X connect 65 0 13 0;
#X connect 66 0 13 0;
#X connect 67 0 13 0;
#X connect 68 0 20 0;
#X connect 68 1 20 0;
#X connect 68 2 67 0;
#X connect 68 3 66 0;
#X connect 69 0 13 0;
