#N canvas 1431 54 1375 846 10;
#X obj 37 344 pix_buffer_write store;
#X obj 782 247 pix_buffer_read store;
#X obj 37 293 pix_video;
#X obj 258 -64 gemwin;
#X obj 37 267 gemhead;
#X obj 782 127 gemhead;
#X obj 37 -36 bng 40 250 50 0 empty empty empty 17 7 0 10 -257985 -1
-1;
#X obj 64 55 f;
#X obj 95 55 + 1;
#X obj 137 -67 bng 15 250 50 0 empty empty empty 17 7 0 10 -1 -262144
-1;
#X text 158 -68 Reset;
#X obj 64 75 s frameCount;
#X obj 166 319 r frameCount;
#X text 84 -38 Record;
#X obj 258 -124 loadbang;
#X obj 782 267 pix_texture;
#X msg 258 -104 create \, 1;
#X msg 258 -84 0 \, destroy;
#X obj 782 287 rectangle 4 3;
#X obj 482 474 pix_record;
#X msg 499 207 record \$1;
#X obj 499 179 tgl 15 0 empty empty empty 0 -6 0 8 -262144 -1 -1 1
1;
#X obj 482 -25 f;
#X obj 515 -25 + 1;
#X obj 482 -115 bng 30 250 50 0 empty empty empty 17 7 0 10 -258113
-1 -1;
#X text 515 -111 save images;
#X obj 482 -75 tof/folderpanel;
#X msg 482 85 file /home/hellocatfood/Desktop/stop_motion_3.mov;
#X obj 482 55 t b a;
#X msg 499 159 0;
#X obj 296 180 gate;
#X msg 296 120 1;
#X obj 296 100 loadbang;
#X obj 296 210 t b b;
#X msg 323 240 1;
#X msg 336 120 0;
#X obj 37 374 pix_buffer store 96;
#X obj 482 -55 t b s;
#X obj 482 15 pack f s;
#X msg 482 35 set file \$2/stop_motion_\$1.mov;
#X floatatom 510 505 5 0 0 0 - - -;
#X obj 761 462 gate;
#X msg 791 432 1;
#X msg 761 432 0;
#X obj 761 394 loadbang;
#X obj 510 524 change;
#X obj 37 7 t b b;
#X obj 290 150 t b b;
#X obj 1142 258 pix_buffer_read store;
#X obj 1142 83 gemhead;
#X obj 1265 153 f;
#X obj 1290 153 + 1;
#X obj 1280 218 + 1;
#X obj 1280 178 r frameCount;
#X obj 1265 238 % 0;
#X obj 1313 77 hsl 80 20 100 0 0 0 empty empty empty -2 -8 0 10 -257985
-1 -1 0 1;
#N canvas 1670 519 450 300 speed 0;
#X obj 107 86 inlet;
#X obj 106 120 f;
#X obj 136 120 + 1;
#X obj 106 165 % 4;
#X obj 107 228 outlet;
#X obj 106 189 sel 0;
#X obj 194 117 inlet;
#X obj 194 149 int;
#X floatatom 250 212 5 0 0 0 - - -;
#X connect 0 0 1 0;
#X connect 1 0 2 0;
#X connect 1 0 3 0;
#X connect 2 0 1 1;
#X connect 3 0 5 0;
#X connect 3 0 8 0;
#X connect 5 0 4 0;
#X connect 6 0 7 0;
#X connect 7 0 3 1;
#X restore 1265 125 pd speed;
#X obj 1142 278 pix_texture;
#X obj 1142 298 rectangle 4 3;
#X obj 1265 75 tgl 15 0 empty empty empty 17 7 0 10 -262144 -1 -1 0
1;
#X obj 1265 105 metro 10;
#X floatatom 1384 167 5 0 0 0 - - -;
#X obj 1364 214 f;
#X obj 905 227 f;
#X obj 905 177 bng 15 250 50 0 empty empty empty 17 7 0 10 -262144
-1 -1;
#X obj 920 197 r frameCount;
#X obj 137 -47 t b b b b;
#N canvas 66 115 450 300 reset 0;
#X obj 38 94 s frameCount;
#X obj 38 66 t f f;
#X obj 38 14 inlet;
#X obj 91 66 outlet;
#X obj 90 13 loadbang;
#X msg 38 43 -1;
#X connect 1 0 0 0;
#X connect 1 1 3 0;
#X connect 2 0 5 0;
#X connect 4 0 5 0;
#X connect 5 0 1 0;
#X restore 137 -17 pd reset;
#X obj 905 147 delay 50;
#X connect 1 0 15 0;
#X connect 2 0 0 0;
#X connect 4 0 2 0;
#X connect 5 0 1 0;
#X connect 6 0 46 0;
#X connect 6 0 68 0;
#X connect 7 0 8 0;
#X connect 7 0 11 0;
#X connect 8 0 7 1;
#X connect 9 0 66 0;
#X connect 12 0 0 1;
#X connect 14 0 16 0;
#X connect 15 0 18 0;
#X connect 16 0 3 0;
#X connect 17 0 3 0;
#X connect 18 0 41 1;
#X connect 19 1 40 0;
#X connect 20 0 19 0;
#X connect 21 0 20 0;
#X connect 22 0 23 0;
#X connect 22 0 38 0;
#X connect 23 0 22 1;
#X connect 24 0 26 0;
#X connect 26 0 37 0;
#X connect 27 0 19 0;
#X connect 28 0 27 0;
#X connect 28 1 27 0;
#X connect 29 0 21 0;
#X connect 30 0 33 0;
#X connect 31 0 30 0;
#X connect 32 0 31 0;
#X connect 33 0 35 0;
#X connect 33 1 34 0;
#X connect 34 0 21 0;
#X connect 35 0 30 0;
#X connect 37 0 22 0;
#X connect 37 1 38 1;
#X connect 38 0 39 0;
#X connect 39 0 28 0;
#X connect 40 0 45 0;
#X connect 41 0 19 0;
#X connect 42 0 41 0;
#X connect 43 0 41 0;
#X connect 44 0 43 0;
#X connect 45 0 43 0;
#X connect 46 0 47 0;
#X connect 46 1 7 0;
#X connect 47 0 42 0;
#X connect 47 1 30 1;
#X connect 48 0 57 0;
#X connect 50 0 51 0;
#X connect 50 0 54 0;
#X connect 51 0 50 1;
#X connect 52 0 54 1;
#X connect 53 0 52 0;
#X connect 54 0 48 1;
#X connect 55 0 56 1;
#X connect 56 0 50 0;
#X connect 57 0 58 0;
#X connect 59 0 60 0;
#X connect 60 0 56 0;
#X connect 61 0 62 1;
#X connect 62 0 48 1;
#X connect 63 0 1 1;
#X connect 64 0 63 0;
#X connect 65 0 63 1;
#X connect 66 0 67 0;
#X connect 66 1 31 0;
#X connect 66 2 29 0;
#X connect 66 3 22 0;
#X connect 67 0 7 0;
#X connect 68 0 64 0;
