#N canvas 214 82 578 472 10;
#X declare -lib gridflow;
#X obj 32 236 pix_buffer_write store;
#X obj 782 302 pix_buffer_read store;
#X obj 32 185 pix_video;
#X obj 258 56 gemwin;
#X obj 32 159 gemhead;
#X obj 782 137 gemhead;
#X obj 36 -16 bng 40 250 50 0 empty empty empty 17 7 0 10 -257985 -1
-1;
#X obj 36 55 f;
#X obj 67 55 + 1;
#X obj 905 207 f;
#X obj 930 207 + 1;
#X obj 782 162 t a b;
#X obj 920 257 + 1;
#X obj 137 -17 bng 15 250 50 0 empty empty empty 17 7 0 10 -1 -262144
-1;
#X text 158 -18 Reset;
#X obj 36 75 s frameCount;
#X obj 161 211 r frameCount;
#X obj 920 232 r frameCount;
#X obj 905 282 % 0;
#N canvas 66 110 450 300 reset 0;
#X obj 38 94 s frameCount;
#X obj 38 66 t f f;
#X obj 38 14 inlet;
#X obj 91 66 outlet;
#X obj 90 13 loadbang;
#X msg 38 43 -1;
#X connect 1 0 0 0;
#X connect 1 1 3 0;
#X connect 2 0 5 0;
#X connect 4 0 5 0;
#X connect 5 0 1 0;
#X restore 137 3 pd reset;
#X text 83 -18 Record;
#X obj 953 131 hsl 80 20 10 0 0 0 empty empty empty -2 -8 0 10 -257985
-1 -1 0 1;
#X text 946 89 Playback speed;
#N canvas 391 410 450 300 speed 0;
#X obj 107 86 inlet;
#X obj 106 120 f;
#X obj 136 120 + 1;
#X obj 106 165 % 4;
#X obj 107 228 outlet;
#X obj 106 189 sel 0;
#X obj 194 117 inlet;
#X obj 194 149 int;
#X connect 0 0 1 0;
#X connect 1 0 2 0;
#X connect 1 0 3 0;
#X connect 2 0 1 1;
#X connect 3 0 5 0;
#X connect 5 0 4 0;
#X connect 6 0 7 0;
#X connect 7 0 3 1;
#X restore 905 179 pd speed;
#X obj 258 -4 loadbang;
#X msg 92 165 device /dev/video1;
#X obj 782 322 pix_texture;
#X obj 258 76 import gridflow;
#X obj 32 306 #from_pix \, colorspace rgb;
#X obj 32 347 #out window \, title preview;
#X obj 32 327 #downscale_by 2;
#X msg 258 16 create \, 1;
#X msg 258 36 0 \, destroy;
#X obj 782 342 rectangle 4 3;
#X text 37 281 gridflow used for preview;
#X obj 218 347 pix_buffer store 96;
#X obj 218 307 pack f s;
#X msg 218 327 save \$2/stop_motion_%02d\$1.jpg \$1;
#X symbolatom 190 118 20 0 0 0 - - -;
#X obj 471 264 pix_record;
#X msg 500 237 bang;
#X msg 540 205 record \$1;
#X obj 520 207 tgl 15 0 empty empty empty 0 -6 0 8 -262144 -1 -1 0
1;
#X obj 528 5 f;
#X obj 561 5 + 1;
#X obj 483 54 pack s f;
#X obj 483 -70 bng 15 250 50 0 empty empty empty 17 7 0 10 -258113
-1 -1;
#X text 505 -72 save images;
#X obj 483 -50 tof/folderpanel;
#X obj 483 -20 t s b;
#X floatatom 580 42 5 0 0 0 - - -;
#X msg 483 144 file /home/hellocatfood/Desktop/stop_motion_4.mov;
#X msg 483 82 set file \$1/stop_motion_\$2.mov;
#X obj 483 114 t b a;
#X msg 382 129 0;
#X connect 0 0 28 0;
#X connect 0 0 39 0;
#X connect 1 0 26 0;
#X connect 2 0 0 0;
#X connect 4 0 2 0;
#X connect 5 0 11 0;
#X connect 6 0 7 0;
#X connect 6 0 40 0;
#X connect 7 0 8 0;
#X connect 7 0 15 0;
#X connect 8 0 7 1;
#X connect 9 0 10 0;
#X connect 9 0 18 0;
#X connect 10 0 9 1;
#X connect 11 0 1 0;
#X connect 11 1 23 0;
#X connect 12 0 18 1;
#X connect 13 0 19 0;
#X connect 13 0 54 0;
#X connect 16 0 0 1;
#X connect 17 0 12 0;
#X connect 18 0 1 1;
#X connect 19 0 7 0;
#X connect 21 0 23 1;
#X connect 23 0 9 0;
#X connect 24 0 31 0;
#X connect 25 0 2 0;
#X connect 26 0 33 0;
#X connect 28 0 30 0;
#X connect 30 0 29 0;
#X connect 31 0 3 0;
#X connect 32 0 3 0;
#X connect 36 0 37 0;
#X connect 37 0 35 0;
#X connect 40 0 39 0;
#X connect 41 0 39 0;
#X connect 42 0 41 0;
#X connect 43 0 44 0;
#X connect 43 0 45 1;
#X connect 43 0 50 0;
#X connect 44 0 43 1;
#X connect 45 0 52 0;
#X connect 46 0 48 0;
#X connect 48 0 49 0;
#X connect 49 0 45 0;
#X connect 49 1 43 0;
#X connect 51 0 39 0;
#X connect 52 0 53 0;
#X connect 53 0 51 0;
#X connect 53 1 51 0;
#X connect 54 0 42 0;
