#N canvas 409 255 578 472 10;
#X declare -lib gridflow;
#X obj 32 316 pix_buffer_write store;
#X obj 452 302 pix_buffer_read store;
#X obj 32 185 pix_video;
#X obj 138 -84 gemwin;
#X obj 32 159 gemhead;
#X obj 452 137 gemhead;
#X obj 36 -16 bng 40 250 50 0 empty empty empty 17 7 0 10 -258113 -1
-1;
#X obj 36 55 f;
#X obj 67 55 + 1;
#X obj 575 207 f;
#X obj 605 207 + 1;
#X obj 452 162 t a b;
#X obj 137 -17 bng 15 250 50 0 empty empty empty 17 7 0 10 -1 -262144
-1;
#X text 158 -18 Reset;
#X obj 36 75 s frameCount;
#X obj 161 296 r frameCount;
#X obj 590 232 r frameCount;
#X obj 575 282 % 0;
#N canvas 67 95 450 300 reset 0;
#X obj 38 94 s frameCount;
#X msg 38 43 0;
#X obj 38 66 t f f;
#X obj 38 14 inlet;
#X obj 91 66 outlet;
#X obj 90 13 loadbang;
#X connect 1 0 2 0;
#X connect 2 0 0 0;
#X connect 2 1 4 0;
#X connect 3 0 1 0;
#X connect 5 0 1 0;
#X restore 137 3 pd reset;
#X text 83 -18 Record;
#X obj 623 131 hsl 80 20 10 0 0 0 empty empty empty -2 -8 0 10 -257985
-1 -1 0 1;
#X text 616 109 Playback speed;
#N canvas 391 410 450 300 speed 0;
#X obj 107 86 inlet;
#X obj 106 120 f;
#X obj 136 120 + 1;
#X obj 106 165 % 4;
#X obj 107 228 outlet;
#X obj 106 189 sel 0;
#X obj 194 117 inlet;
#X obj 194 149 int;
#X connect 0 0 1 0;
#X connect 1 0 2 0;
#X connect 1 0 3 0;
#X connect 2 0 1 1;
#X connect 3 0 5 0;
#X connect 5 0 4 0;
#X connect 6 0 7 0;
#X connect 7 0 3 1;
#X restore 575 179 pd speed;
#X msg 92 165 device /dev/video1;
#X obj 392 382 pix_texture;
#X obj 138 -64 import gridflow;
#X obj 32 386 #from_pix \, colorspace rgb;
#X obj 32 427 #out window \, title preview;
#X obj 32 407 #downscale_by 2;
#X msg 138 -124 create \, 1;
#X msg 138 -104 0 \, destroy;
#X obj 392 402 rectangle 4 3;
#X text 37 361 gridflow used for preview;
#X obj 253 -33 bng 15 250 50 0 empty empty empty 17 7 0 10 -258113
-1 -1;
#X text 275 -35 save images;
#X obj 208 107 pix_buffer store 96;
#X obj 253 -13 tof/folderpanel;
#X obj 208 67 pack f s;
#X msg 208 87 save \$2/stop_motion_%02d\$1.jpg \$1;
#X obj 384 339 hsl 60 20 0 1 0 0 empty empty empty -2 -8 0 10 -260097
-1 -1 0 1;
#X obj 332 207 pix_film;
#X msg 392 183 auto \$1;
#X obj 392 163 tgl 15 0 empty empty empty 17 7 0 10 -262144 -1 -1 0
1;
#X obj 392 207 f;
#X obj 332 137 gemhead 10;
#X obj 392 362 pix_mix;
#X obj 208 7 r frameCount;
#X obj 208 47 i;
#X obj 208 27 - 0.4;
#X symbolatom 253 27 30 0 0 0 - - -;
#X floatatom 128 53 5 0 0 0 - - -;
#X obj 590 257 + 1;
#X obj 452 322 shunt;
#X obj 523 383 tgl 15 0 empty empty empty 17 7 0 10 -262144 -1 -1 0
1;
#X obj 32 295 pix_flip;
#X msg 91 207 horizontal;
#X msg 91 227 vertical;
#X msg 91 247 none;
#X msg 91 267 both;
#X msg 228 -118 offset 1366 0;
#X msg 325 -112 dimen 1400 900;
#X msg 279 -84 0 \, destroy;
#X connect 0 0 26 0;
#X connect 1 0 52 0;
#X connect 2 0 54 0;
#X connect 4 0 2 0;
#X connect 5 0 11 0;
#X connect 6 0 7 0;
#X connect 7 0 8 0;
#X connect 7 0 14 0;
#X connect 7 0 50 0;
#X connect 8 0 7 1;
#X connect 9 0 10 0;
#X connect 9 0 17 0;
#X connect 10 0 9 1;
#X connect 11 0 1 0;
#X connect 11 1 22 0;
#X connect 12 0 18 0;
#X connect 15 0 0 1;
#X connect 16 0 51 0;
#X connect 17 0 1 1;
#X connect 18 0 7 0;
#X connect 20 0 22 1;
#X connect 22 0 9 0;
#X connect 23 0 2 0;
#X connect 24 0 31 0;
#X connect 26 0 28 0;
#X connect 28 0 27 0;
#X connect 29 0 3 0;
#X connect 30 0 3 0;
#X connect 33 0 36 0;
#X connect 36 0 37 1;
#X connect 36 0 49 0;
#X connect 37 0 38 0;
#X connect 38 0 35 0;
#X connect 39 0 45 2;
#X connect 40 0 45 0;
#X connect 40 2 43 0;
#X connect 41 0 40 0;
#X connect 42 0 41 0;
#X connect 43 0 40 1;
#X connect 44 0 40 0;
#X connect 45 0 24 0;
#X connect 46 0 48 0;
#X connect 47 0 37 0;
#X connect 48 0 47 0;
#X connect 51 0 17 1;
#X connect 52 0 45 1;
#X connect 52 1 24 0;
#X connect 53 0 52 1;
#X connect 54 0 0 0;
#X connect 55 0 54 0;
#X connect 56 0 54 0;
#X connect 57 0 54 0;
#X connect 58 0 54 0;
#X connect 59 0 3 0;
#X connect 60 0 3 0;
#X connect 61 0 3 0;
