#N canvas 827 175 867 524 10;
#X obj 468 269 #cast f;
#X obj 468 383 #cast i;
#X msg 603 113 4 2 # 0 0 0 1 1 1 1 0;
#X obj 468 364 #remap_image;
#X obj 468 345 # sqrt (f #);
#X obj 468 132 #store (256 256 1 #);
#X obj 229 633 # >> 8;
#X obj 223 646 # +;
#X obj 505 555 #greyscale_to_rgb;
#X obj 504 498 #convolve (3 3 # 0 -1 0 -1 4 -1);
#X obj 603 94 loadbang;
#X obj 767 191 # +;
#X obj 800 220 display;
#X obj 504 536 # * 255;
#X msg 398 572 1 3 # 64 128 255;
#X obj 767 231 #fold +;
#X obj 767 250 #fold +;
#X obj 767 269 display;
#X obj 470 50 metro 33.333;
#X obj 468 288 #fft \, real;
#X obj 468 307 # sq- (f #);
#X obj 504 207 #convolve (3 3 # 1 4 1 4 12 4 1 4 1);
#X obj 471 177 shunt;
#X obj 507 179 tgl 15 0 empty empty empty 17 7 0 10 -262144 -1 -1 0
1;
#X obj 230 568 #inner (1 3 # 255 128 64);
#X obj 468 326 #inner (2 f # 1 1);
#X obj 554 364 # - 128;
#X obj 613 411 # >>;
#X floatatom 654 362 5 0 0 0 - - -;
#X msg 423 599 1 3 # 255 128 64;
#X msg 398 624 1 3 # 64 255 128;
#X obj 803 127 #to_list;
#X obj 804 109 #pack 5;
#X obj 969 71 metro 120;
#X obj 468 440 # / 16;
#X floatatom 558 406 5 0 0 0 - - -;
#X obj 468 421 #fade 8;
#X obj 504 518 # < 0.5;
#X obj 467 403 # << 0.004;
#X obj 469 459 # >> 8;
#X obj 603 132 # *;
#X obj 675 14 shunt;
#X obj 162 124 tgl 15 0 empty empty random_shape 17 7 0 8 -257985 -1
-1 1 1;
#N canvas 0 0 450 300 random-anim 0;
#X obj 25 23 inlet;
#X obj 25 178 outlet;
#X obj 52 118 # rand;
#X obj 52 61 f;
#X obj 77 61 + 1;
#X obj 52 80 sel 0;
#X obj 102 61 % 30;
#X msg 52 99 8 2 # 240 320;
#X obj 25 159 #fade_lin 5 5;
#X obj 25 42 t b b;
#X obj 25 140 #store;
#X connect 0 0 9 0;
#X connect 2 0 10 1;
#X connect 3 0 4 0;
#X connect 3 0 5 0;
#X connect 4 0 6 0;
#X connect 5 0 7 0;
#X connect 6 0 3 1;
#X connect 7 0 2 0;
#X connect 8 0 1 0;
#X connect 9 0 10 0;
#X connect 9 1 3 0;
#X connect 10 0 8 0;
#X restore 715 45 pd random-anim;
#N canvas 36 143 450 300 star-anim 0;
#X obj 35 33 inlet;
#X obj 37 210 outlet;
#X obj 35 52 f;
#X obj 37 191 # + (120 160);
#X obj 96 52 % 36000;
#X obj 60 52 + 200;
#X obj 37 153 #outer + (0 9000);
#X obj 37 77 t b f;
#X obj 37 134 # +;
#X obj 37 96 #for 0 5;
#X obj 37 115 # * 14400;
#X floatatom 191 138 5 0 0 0 - - -;
#X floatatom 267 51 5 0 0 0 - - -;
#X floatatom 184 184 5 0 0 0 - - -;
#X obj 40 172 # sin* 115;
#X obj 239 88 * 100;
#X floatatom 108 24 5 0 0 0 - - -;
#X connect 0 0 2 0;
#X connect 2 0 5 0;
#X connect 2 0 7 0;
#X connect 3 0 1 0;
#X connect 4 0 2 1;
#X connect 5 0 4 0;
#X connect 6 0 14 0;
#X connect 7 0 9 0;
#X connect 7 1 8 1;
#X connect 8 0 6 0;
#X connect 9 0 10 0;
#X connect 10 0 8 0;
#X connect 11 0 6 1;
#X connect 12 0 15 0;
#X connect 13 0 14 1;
#X connect 14 0 3 0;
#X connect 15 0 10 1;
#X connect 16 0 5 1;
#X restore 666 76 pd star-anim;
#X obj 592 60 t b b;
#X msg 875 23 0;
#X msg 803 148 2 4 # \$1 \$2 \$1 \$2 \$3 \$2 \$4 \$5 \$4 \$5;
#X obj 223 691 #clip;
#X obj 472 486 t a a;
#X obj 967 92 random 20;
#X obj 118 124 tgl 15 0 empty empty start 17 7 0 8 -257985 -1 -1 0
1;
#X obj 115 161 hsl 60 15 0 10 0 0 empty empty munchies_1 -2 -8 0 10
-257985 -1 -1 0 1;
#X obj 302 33 loadbang;
#X obj 216 722 outlet;
#X obj 240 178 hsl 40 10 0 10 0 0 empty empty conv -2 -8 0 10 -260097
-1 -1 0 1;
#X obj 240 200 hsl 40 10 0 10 0 0 empty empty conv -2 -8 0 10 -260097
-1 -1 0 1;
#X obj 239 223 hsl 40 10 0 10 0 0 empty empty conv -2 -8 0 10 -260097
-1 -1 0 1;
#X obj 238 246 hsl 40 10 0 10 0 0 empty empty conv -2 -8 0 10 -260097
-1 -1 0 1;
#X obj 114 194 hsl 60 15 0.1 100 1 0 empty empty munchies_2 -2 -8 0
10 -257985 -1 -1 0 1;
#X obj 943 2 metro 120;
#X obj 941 23 random 20;
#X obj 862 -39 metro 120;
#X obj 860 -18 random 20;
#X obj 795 -39 metro 120;
#X obj 793 -18 random 20;
#X obj 731 -41 metro 120;
#X obj 729 -20 random 20;
#X obj 238 146 bng 17 250 50 0 empty empty random 17 7 0 10 -262144
-1 -1;
#X obj 235 289 bng 17 250 50 0 empty empty off 17 7 0 10 -262144 -1
-1;
#X obj 238 272 hsl 40 10 0 10 0 0 empty empty conv -2 -8 0 10 -260097
-1 -1 0 1;
#X obj 118 246 bng 17 250 50 0 empty empty red 17 7 0 10 -258113 -1
-1;
#X obj 118 264 bng 17 250 50 0 empty empty green 17 7 0 10 -4034 -1
-1;
#X obj 117 281 bng 17 250 50 0 empty empty blue 17 7 0 10 -4032 -1
-1;
#X obj 480 178 #draw_polygon + (10);
#X obj 349 708 #to_pdp;
#X connect 0 0 19 0;
#X connect 1 0 38 0;
#X connect 2 0 40 0;
#X connect 3 0 1 0;
#X connect 3 1 26 0;
#X connect 4 0 3 0;
#X connect 5 0 74 0;
#X connect 6 0 7 1;
#X connect 7 0 48 0;
#X connect 8 0 7 0;
#X connect 9 0 37 0;
#X connect 10 0 2 0;
#X connect 11 0 12 0;
#X connect 11 0 15 0;
#X connect 11 0 21 1;
#X connect 13 0 8 0;
#X connect 14 0 24 1;
#X connect 15 0 16 0;
#X connect 16 0 17 0;
#X connect 18 0 2 0;
#X connect 18 0 45 0;
#X connect 19 0 20 0;
#X connect 20 0 25 0;
#X connect 21 0 0 0;
#X connect 22 0 21 0;
#X connect 23 0 22 1;
#X connect 24 0 6 0;
#X connect 25 0 4 0;
#X connect 26 0 3 1;
#X connect 27 0 9 0;
#X connect 28 0 27 1;
#X connect 29 0 24 1;
#X connect 30 0 24 1;
#X connect 31 0 47 0;
#X connect 32 0 31 0;
#X connect 33 0 50 0;
#X connect 34 0 39 0;
#X connect 35 0 39 1;
#X connect 36 0 34 0;
#X connect 37 0 13 0;
#X connect 38 0 36 0;
#X connect 39 0 49 0;
#X connect 41 0 44 0;
#X connect 41 1 43 0;
#X connect 42 0 41 1;
#X connect 43 0 74 2;
#X connect 44 0 74 2;
#X connect 45 0 5 0;
#X connect 45 1 41 0;
#X connect 46 0 66 0;
#X connect 46 0 64 0;
#X connect 46 0 60 0;
#X connect 46 0 62 0;
#X connect 46 0 33 0;
#X connect 46 0 32 1;
#X connect 46 0 32 2;
#X connect 46 0 32 3;
#X connect 46 0 32 4;
#X connect 46 0 32 0;
#X connect 47 0 11 0;
#X connect 48 0 54 0;
#X connect 48 0 75 0;
#X connect 49 0 27 0;
#X connect 49 1 24 0;
#X connect 50 0 32 4;
#X connect 51 0 18 0;
#X connect 52 0 39 1;
#X connect 53 0 42 0;
#X connect 55 0 32 0;
#X connect 56 0 32 1;
#X connect 57 0 32 2;
#X connect 58 0 32 3;
#X connect 59 0 28 0;
#X connect 60 0 61 0;
#X connect 61 0 32 3;
#X connect 62 0 63 0;
#X connect 63 0 32 2;
#X connect 64 0 65 0;
#X connect 65 0 32 1;
#X connect 66 0 67 0;
#X connect 67 0 32 0;
#X connect 68 0 66 0;
#X connect 68 0 64 0;
#X connect 68 0 62 0;
#X connect 68 0 60 0;
#X connect 68 0 33 0;
#X connect 69 0 46 0;
#X connect 70 0 32 4;
#X connect 71 0 29 0;
#X connect 72 0 30 0;
#X connect 73 0 14 0;
#X connect 74 0 22 0;
#X coords 0 -1 1 1 220 220 1 100 100;
