#N canvas 70 104 834 600 10;
#X declare -lib gridflow;
#X obj 127 172 poly_cyl;
#X obj 405 76 poly_star;
#X obj -68 39 poly_mush;
#X obj 405 212 re_map;
#X msg -74 367 open window;
#X msg -70 392 close;
#X obj 97 411 #out window \, title poly_play;
#X obj 299 34 import gridflow;
#X connect 0 0 6 0;
#X connect 1 0 3 0;
#X connect 2 0 6 0;
#X connect 3 0 6 0;
