#N canvas 618 54 738 663 10;
#X obj 267 -76 bng 15 250 50 0 empty empty empty 17 7 0 10 -4034 -1
-1;
#X obj 50 140 tgl 20 0 empty mush start 25 9 0 8 -4034 -1 -1 0 1;
#X obj 50 163 #color;
#N canvas 195 413 450 300 remap 0;
#X obj 204 134 # +;
#X obj 110 134 #remap_image;
#X msg 123 -6 op *;
#X msg 163 -3 op *>>8;
#X msg 223 0 op ^;
#X obj 126 87 inlet;
#X obj 111 183 outlet;
#X msg 265 -1 op &;
#X obj 345 137 inlet;
#X msg 304 -1 op &&;
#X msg 348 -3 op |;
#X obj 189 -47 sel 0 1 2 3 4 5;
#X obj 191 -73 inlet;
#X connect 0 0 1 1;
#X connect 1 0 6 0;
#X connect 1 1 0 0;
#X connect 2 0 0 0;
#X connect 3 0 0 0;
#X connect 4 0 0 0;
#X connect 5 0 1 0;
#X connect 7 0 0 0;
#X connect 8 0 0 1;
#X connect 9 0 0 0;
#X connect 10 0 0 0;
#X connect 11 0 2 0;
#X connect 11 1 3 0;
#X connect 11 2 4 0;
#X connect 11 3 7 0;
#X connect 11 4 9 0;
#X connect 11 6 10 0;
#X connect 12 0 11 0;
#X restore 589 94 pd remap;
#X obj 49 248 #many nbx 2 2;
#X obj 53 291 vradio 15 1 0 3 empty empty empty 0 -8 0 10 -257985 -1
-1 0;
#X text 70 292 fill;
#X msg 511 172 draw \$1;
#X obj 109 290 vradio 15 1 0 3 empty empty empty 0 -8 0 10 -257985
-1 -1 0;
#X text 126 290 none;
#X msg 534 257 omit \$1;
#X text 126 305 last;
#X text 126 319 odd;
#X obj 534 238 listread none last odd;
#X obj 511 153 listread fill line point;
#X text 70 306 line;
#X text 70 320 point;
#X obj 511 347 s \$0-a;
#X obj 159 291 vradio 15 1 0 3 empty empty empty 0 -8 0 10 -257985
-1 -1 0;
#X msg 564 347 rule \$1;
#X obj 564 328 listread oddeven winding multi;
#X text 177 291 oddeven;
#X text 177 306 winding;
#X text 177 320 multi;
#N canvas 88 331 450 300 star-anim 0;
#X obj 35 33 inlet;
#X obj 31 226 outlet;
#X obj 35 52 f;
#X obj 32 199 # + (120 160);
#X obj 96 52 % 36000;
#X obj 60 52 + 200;
#X obj 37 77 t b f;
#X obj 37 134 # +;
#X obj 37 115 # * 14400;
#X floatatom 253 97 5 0 0 0 - - -;
#X msg 177 92 9000;
#X obj 253 118 * 100;
#X floatatom 222 169 5 0 0 0 - - -;
#X obj 222 190 * 100;
#X obj 37 172 # sin* 115;
#X obj 37 152 #outer - (0 9000);
#X floatatom 115 23 5 0 0 0 - - -;
#X floatatom 142 174 5 0 0 0 - - -;
#X obj 37 96 #for 0 5;
#X obj 315 26 loadbang;
#X msg 188 22 334;
#X msg 319 172 279;
#X msg 257 57 85;
#X connect 0 0 2 0;
#X connect 2 0 5 0;
#X connect 2 0 6 0;
#X connect 3 0 1 0;
#X connect 4 0 2 1;
#X connect 5 0 4 0;
#X connect 6 0 18 0;
#X connect 6 1 7 1;
#X connect 7 0 15 0;
#X connect 8 0 7 0;
#X connect 9 0 11 0;
#X connect 10 0 15 1;
#X connect 11 0 8 1;
#X connect 12 0 13 0;
#X connect 13 0 4 1;
#X connect 14 0 3 0;
#X connect 15 0 14 0;
#X connect 16 0 5 1;
#X connect 17 0 14 1;
#X connect 18 0 8 0;
#X connect 19 0 22 0;
#X connect 19 0 20 0;
#X connect 19 0 21 0;
#X connect 20 0 16 0;
#X connect 21 0 13 0;
#X connect 22 0 9 0;
#X restore 454 -5 pd star-anim;
#X obj 285 -106 metro 10;
#X obj 331 171 #solarize;
#X msg 282 -19 240 320 3 #;
#X obj 255 67 #draw_polygon put (255 25 255);
#X obj 299 -83 t t b;
#X floatatom 365 -106 5 0 0 0 - - -;
#X obj 338 123 #fade (70 50 .99);
#X obj 329 297 outlet;
#X obj 294 31 r \$0-a;
#X obj 52 226 hsl 39 14 0 10 0 0 empty empty fade 50 12 0 8 -257985
-1 -1 0 1;
#X obj 590 45 hradio 19 1 0 6 empty empty Nu-op 125 15 0 8 -257985
-1 -1 0;
#X text 592 25 *;
#X text 611 25 >8;
#X text 634 23 ^;
#X text 655 23 &;
#X text 669 22 &&;
#X text 693 21 |;
#X obj 331 243 rgb_delay;
#X obj 49 358 hradio 15 1 0 3 empty empty rgb-delay 0 -8 0 8 -257985
-1 -1 0;
#X connect 0 0 29 0;
#X connect 1 0 25 0;
#X connect 2 0 28 1;
#X connect 3 0 28 2;
#X connect 4 0 3 2;
#X connect 5 0 14 0;
#X connect 7 0 17 0;
#X connect 8 0 13 0;
#X connect 10 0 17 0;
#X connect 13 0 10 0;
#X connect 14 0 7 0;
#X connect 18 0 20 0;
#X connect 19 0 17 0;
#X connect 20 0 19 0;
#X connect 24 0 3 0;
#X connect 25 0 29 0;
#X connect 26 0 42 0;
#X connect 27 0 28 0;
#X connect 28 0 31 0;
#X connect 29 0 27 0;
#X connect 29 1 24 0;
#X connect 30 0 25 1;
#X connect 31 0 26 0;
#X connect 33 0 28 0;
#X connect 34 0 31 1;
#X connect 35 0 3 1;
#X connect 42 0 32 0;
#X connect 43 0 42 1;
#X coords 0 -1 1 1 188 270 1 42 109;
