#N canvas 509 381 833 300 10;
#X obj 362 249 # +;
#X obj 268 249 #remap_image;
#X msg 281 109 op *;
#X msg 321 112 op *>>8;
#X msg 381 115 op ^;
#X obj 284 202 inlet;
#X obj 269 298 outlet;
#X msg 423 114 op &;
#X obj 503 252 inlet;
#X msg 462 114 op &&;
#X msg 506 112 op |;
#X obj 347 68 sel 0 1 2 3 4 5;
#X obj 108 134 hradio 19 1 0 6 empty empty Nu-op 125 15 0 8 -257985
-1 -1 0;
#X text 107 116 *;
#X text 126 116 >8;
#X text 149 114 ^;
#X text 170 114 &;
#X text 184 113 &&;
#X text 208 112 |;
#X obj 108 163 #many nbx 2 2;
#X connect 0 0 1 1;
#X connect 1 0 6 0;
#X connect 1 1 0 0;
#X connect 2 0 0 0;
#X connect 3 0 0 0;
#X connect 4 0 0 0;
#X connect 5 0 1 0;
#X connect 7 0 0 0;
#X connect 8 0 0 1;
#X connect 9 0 0 0;
#X connect 10 0 0 0;
#X connect 11 0 2 0;
#X connect 11 1 3 0;
#X connect 11 2 4 0;
#X connect 11 3 7 0;
#X connect 11 4 9 0;
#X connect 11 6 10 0;
#X connect 12 0 11 0;
#X connect 19 0 0 1;
#X coords 0 -1 1 1 166 102 2 100 100;
