#N canvas 0 0 450 300 10;
#X obj 482 356 + 1;
#X obj 403 301 #transpose 0 2;
#X obj 403 320 #cast b;
#X obj 403 566 #transpose 0 2;
#X msg 550 345 put_at \$1 0 0 0;
#X obj 574 411 # rand;
#X obj 574 430 #join -1 (3 1 # 0 1 2);
#X obj 380 377 shunt;
#X obj 308 330 tgl 15 0 empty empty empty 17 7 0 10 -257985 -1 -1 0
1;
#X obj 430 200 t a a;
#X obj 403 181 shunt;
#X obj 443 177 tgl 15 0 empty empty empty 17 7 0 10 -257985 -1 -1 0
1;
#X obj 469 277 #clip;
#X msg 575 392 3 1 # 32;
#X obj 430 258 # << 1;
#X obj 472 239 spigot;
#X obj 514 240 tgl 15 0 empty empty empty 17 7 0 10 -257985 -1 -1 0
1;
#X obj 430 239 # abs-;
#X obj 403 339 t b a b;
#X obj 458 356 f;
#X obj 403 546 #store (64 3 320 240 b #);
#X obj 418 475 # >> 0;
#X obj 418 456 #outer * (1 0);
#X obj 403 527 # +;
#X msg 403 404 3 2 # -1 0 -31 1 -62 2;
#X obj 403 594 outlet;
#X obj 402 150 inlet;
#X obj 527 157 sel 0 1;
#X obj 525 133 inlet;
#X connect 0 0 19 1;
#X connect 1 0 2 0;
#X connect 2 0 18 0;
#X connect 3 0 25 0;
#X connect 4 0 20 1;
#X connect 5 0 6 0;
#X connect 6 0 23 0;
#X connect 7 0 24 0;
#X connect 7 1 13 0;
#X connect 8 0 7 1;
#X connect 9 0 15 0;
#X connect 9 1 17 0;
#X connect 10 0 1 0;
#X connect 10 1 9 0;
#X connect 11 0 10 1;
#X connect 12 0 1 0;
#X connect 13 0 5 0;
#X connect 14 0 12 0;
#X connect 15 0 17 1;
#X connect 16 0 15 1;
#X connect 17 0 14 0;
#X connect 18 0 7 0;
#X connect 18 1 20 1;
#X connect 18 2 19 0;
#X connect 19 0 0 0;
#X connect 19 0 4 0;
#X connect 19 0 22 0;
#X connect 20 0 3 0;
#X connect 21 0 23 1;
#X connect 22 0 21 0;
#X connect 23 0 20 0;
#X connect 24 0 23 0;
#X connect 26 0 10 0;
#X connect 27 0 8 0;
#X connect 27 1 11 0;
#X connect 27 2 16 0;
#X connect 28 0 27 0;
