#N canvas 256 140 626 456 10;
#X obj 410 134 makefilename %c;
#X symbolatom 180 21 40 0 0 0 - - -;
#X obj 410 94 bng 15 250 50 0 empty empty empty 17 7 0 10 -258113 -1
-1;
#X symbolatom 180 41 40 0 0 0 - - -;
#X obj 89 404 text3d;
#X obj 179 367 openpanel;
#X obj 179 349 bng 15 250 50 0 empty empty empty 17 7 0 10 -262144
-1 -1;
#X msg 179 387 font \$1;
#X obj 428 312 gemwin;
#X msg 428 252 create \, 1;
#X obj 89 24 gemhead;
#X msg 207 301 text \$1;
#X symbolatom 207 282 20 0 0 0 - - -;
#X obj 207 261 l2s;
#X text 200 346 open font file;
#X text 408 171 click to send to screen;
#X text 428 92 click for line break;
#X text 428 19 first text line;
#X text 428 39 second text line;
#X msg 410 112 10;
#X symbolatom 180 61 40 0 0 0 - - -;
#X text 428 59 third text line;
#X msg 207 151 add2 \$1;
#X msg 207 171 list It Finally Works;
#X obj 180 101 t b s;
#X msg 207 131 set list;
#X obj 180 81 t s b;
#X msg 438 282 0 \, destroy;
#X connect 0 0 22 0;
#X connect 1 0 26 0;
#X connect 2 0 19 0;
#X connect 3 0 24 0;
#X connect 5 0 7 0;
#X connect 6 0 5 0;
#X connect 7 0 4 0;
#X connect 9 0 8 0;
#X connect 10 0 4 0;
#X connect 11 0 4 0;
#X connect 12 0 11 0;
#X connect 13 0 12 0;
#X connect 19 0 0 0;
#X connect 20 0 24 0;
#X connect 22 0 23 0;
#X connect 23 0 13 0;
#X connect 24 0 2 0;
#X connect 24 1 22 0;
#X connect 25 0 23 0;
#X connect 26 0 24 0;
#X connect 26 1 25 0;
#X connect 27 0 8 0;
