#N canvas 66 82 450 300 10;
#X obj 245 53 pix_record;
#X obj 179 170 /;
#X obj 218 91 hsl 128 15 0 127 0 0 empty empty empty -2 -8 0 10 -262144
-1 -1 3000 1;
#X floatatom 211 141 5 0 0 0 - - -;
#X obj 175 206 * 1000;
#X msg 170 140 1;
#X obj 212 113 t b f;
#X floatatom 189 245 5 0 0 0 - - -;
#X text 360 89 fps;
#X connect 1 0 4 0;
#X connect 2 0 6 0;
#X connect 3 0 1 1;
#X connect 4 0 7 0;
#X connect 5 0 1 0;
#X connect 6 0 5 0;
#X connect 6 1 3 0;
