#N canvas 785 103 578 472 10;
#X obj 32 236 pix_buffer_write store;
#X obj 262 105 pix_buffer store 96;
#X obj 262 329 pix_buffer_read store;
#X obj 32 175 pix_video;
#X obj 258 62 gemwin;
#X msg 258 39 dimen 1000 500 \, create \, 1;
#X obj 32 401 square 4;
#X obj 32 294 pix_texture;
#X obj 32 149 gemhead;
#X obj 261 151 gemhead;
#X obj 262 358 pix_texture;
#X obj 262 408 square 4;
#X obj 262 384 translateXYZ -4 0 0;
#X obj 32 347 translateXYZ 4 0 0;
#X obj 36 14 bng 40 250 50 0 empty empty empty 17 7 0 10 -257985 -1
-1;
#X obj 36 85 f;
#X obj 67 85 + 1;
#X obj 385 227 f;
#X obj 410 227 + 1;
#X obj 261 176 t a b;
#X obj 400 277 + 1;
#X obj 137 13 bng 15 250 50 0 empty empty empty 17 7 0 10 -1 -262144
-1;
#X text 158 12 Reset;
#X obj 36 112 s frameCount;
#X obj 161 211 r frameCount;
#X obj 400 252 r frameCount;
#N canvas 261 191 450 300 reset 1;
#X obj 38 94 s frameCount;
#X obj 38 66 t f f;
#X obj 38 14 inlet;
#X obj 91 66 outlet;
#X obj 90 13 loadbang;
#X msg 38 43 -1;
#X connect 1 0 0 0;
#X connect 1 1 3 0;
#X connect 2 0 5 0;
#X connect 4 0 5 0;
#X connect 5 0 1 0;
#X restore 137 37 pd reset;
#X text 83 12 Record;
#X obj 433 151 hsl 80 15 0 10 0 0 empty empty empty -2 -8 0 10 -257985
-1 -1 0 1;
#X text 426 129 Playback speed;
#N canvas 395 398 450 300 speed 0;
#X obj 107 86 inlet;
#X obj 106 120 f;
#X obj 136 120 + 1;
#X obj 106 165 % 4;
#X obj 107 228 outlet;
#X obj 106 189 sel 0;
#X obj 194 117 inlet;
#X obj 194 149 int;
#X connect 0 0 1 0;
#X connect 1 0 2 0;
#X connect 1 0 3 0;
#X connect 2 0 1 1;
#X connect 3 0 5 0;
#X connect 5 0 4 0;
#X connect 6 0 7 0;
#X connect 7 0 3 1;
#X restore 385 199 pd speed;
#X obj 258 16 loadbang;
#X obj 385 302 % 1;
#X obj 128 78 loadbang;
#X msg 131 101 -1;
#X connect 0 0 7 0;
#X connect 2 0 10 0;
#X connect 3 0 0 0;
#X connect 5 0 4 0;
#X connect 7 0 13 0;
#X connect 8 0 3 0;
#X connect 9 0 19 0;
#X connect 10 0 12 0;
#X connect 12 0 11 0;
#X connect 13 0 6 0;
#X connect 14 0 15 0;
#X connect 15 0 16 0;
#X connect 15 0 23 0;
#X connect 16 0 15 1;
#X connect 17 0 18 0;
#X connect 17 0 32 0;
#X connect 18 0 17 1;
#X connect 19 0 2 0;
#X connect 19 1 30 0;
#X connect 20 0 32 1;
#X connect 21 0 26 0;
#X connect 24 0 0 1;
#X connect 25 0 20 0;
#X connect 26 0 15 0;
#X connect 28 0 30 1;
#X connect 30 0 17 0;
#X connect 31 0 5 0;
#X connect 32 0 2 1;
#X connect 33 0 34 0;
#X connect 34 0 15 1;
