#N canvas -121 107 650 685 10;
#X obj 85 1 gemhead;
#X obj 325 -39 gemwin;
#X msg 325 -79 create \, 1;
#X obj 85 21 alpha;
#X obj 325 224 pix_alpha;
#X obj 325 284 pix_texture;
#X obj 325 61 pix_image;
#X msg 337 134 1;
#X msg 350 154 0;
#X obj 85 354 rotateXYZ;
#N canvas 67 95 450 300 rgb 0;
#X obj 103 100 hsl 90 15 0 1 0 0 empty empty empty -2 -8 0 10 -258113
-1 -1 3182 1;
#X obj 103 115 hsl 90 15 0 1 0 0 empty empty empty -2 -8 0 10 -4034
-1 -1 6985 1;
#X obj 103 130 hsl 90 15 0 1 0 0 empty empty empty -2 -8 0 10 -4032
-1 -1 2745 1;
#X obj 100 150 pack f f f;
#X obj 210 150 t b f;
#X obj 170 150 t b f;
#X obj 100 80 inlet;
#X obj 140 80 inlet;
#X obj 180 80 inlet;
#X obj 100 170 outlet;
#X connect 0 0 3 0;
#X connect 1 0 5 0;
#X connect 2 0 4 0;
#X connect 3 0 9 0;
#X connect 4 0 0 0;
#X connect 4 1 3 2;
#X connect 5 0 0 0;
#X connect 5 1 3 1;
#X connect 6 0 0 0;
#X connect 7 0 1 0;
#X connect 8 0 2 0;
#X coords 0 -1 1 1 95 45 2 100 100;
#X restore 461 129 pd rgb;
#N canvas 870 154 450 300 randomalpha 0;
#X obj 47 53 random 100;
#X obj 47 83 / 100;
#X msg 47 143 \$1 \$2;
#X obj 47 113 pack f f;
#X obj 47 23 metro 100;
#X floatatom 317 23 10 0 0 0 - - -;
#X obj 47 173 line;
#X obj 47 203 outlet;
#X obj 47 -7 inlet;
#X obj 137 53 random 100;
#X obj 137 83 / 100;
#X msg 137 143 \$1 \$2;
#X obj 137 113 pack f f;
#X obj 137 23 metro 100;
#X obj 137 173 line;
#X obj 137 203 outlet;
#X obj 227 53 random 100;
#X obj 227 83 / 100;
#X msg 227 143 \$1 \$2;
#X obj 227 113 pack f f;
#X obj 227 23 metro 100;
#X obj 227 173 line;
#X obj 227 203 outlet;
#X obj 317 3 inlet;
#X obj 366 -18 loadbang;
#X msg 366 3 3000;
#X msg 366 186 1;
#X connect 0 0 1 0;
#X connect 1 0 3 0;
#X connect 2 0 6 0;
#X connect 3 0 2 0;
#X connect 4 0 0 0;
#X connect 5 0 4 1;
#X connect 5 0 3 1;
#X connect 5 0 13 1;
#X connect 5 0 12 1;
#X connect 5 0 20 1;
#X connect 5 0 19 1;
#X connect 6 0 7 0;
#X connect 8 0 4 0;
#X connect 8 0 13 0;
#X connect 8 0 20 0;
#X connect 9 0 10 0;
#X connect 10 0 12 0;
#X connect 11 0 14 0;
#X connect 12 0 11 0;
#X connect 13 0 9 0;
#X connect 14 0 15 0;
#X connect 16 0 17 0;
#X connect 17 0 19 0;
#X connect 18 0 21 0;
#X connect 19 0 18 0;
#X connect 20 0 16 0;
#X connect 21 0 22 0;
#X connect 23 0 5 0;
#X connect 24 0 25 0;
#X connect 24 0 26 0;
#X connect 25 0 5 0;
#X connect 26 0 7 0;
#X connect 26 0 15 0;
#X connect 26 0 22 0;
#X restore 461 109 pd randomalpha;
#X obj 461 89 tgl 15 0 empty empty empty 17 7 0 10 -4034 -1 -1 1 1
;
#X obj 484 89 hsl 80 15 3000 100 0 0 empty empty empty -2 -8 0 10 -260097
-1 -1 6700 1;
#X msg 363 174 \$1 \$2 \$3;
#N canvas 492 198 450 300 rotate 0;
#X obj 57 83 f;
#X obj 57 33 tgl 15 0 empty empty empty 17 7 0 10 -262144 -1 -1 1 1
;
#X obj 57 153 line;
#X obj 57 13 loadbang;
#X obj 57 183 outlet;
#X obj 87 83 + 1;
#X obj 57 113 % 360;
#X obj 57 53 metro 50;
#X msg 57 133 \$1 50;
#X connect 0 0 5 0;
#X connect 0 0 6 0;
#X connect 1 0 7 0;
#X connect 2 0 4 0;
#X connect 3 0 1 0;
#X connect 5 0 0 1;
#X connect 6 0 8 0;
#X connect 7 0 0 0;
#X connect 8 0 2 0;
#X restore 136 334 pd rotate;
#X obj 337 110 loadbang;
#X msg 376 194 0 0 0;
#X obj 367 21 openpanel;
#X obj 367 1 bng 15 250 50 0 empty empty empty 17 7 0 10 -258113 -1
-1;
#X msg 367 41 open \$1;
#N canvas 490 204 450 300 rotate 0;
#X obj 57 83 f;
#X obj 57 33 tgl 15 0 empty empty empty 17 7 0 10 -262144 -1 -1 1 1
;
#X obj 57 153 line;
#X obj 57 13 loadbang;
#X obj 57 183 outlet;
#X obj 87 83 + 1;
#X obj 57 113 % 360;
#X obj 57 53 metro 50;
#X msg 57 133 \$1 50;
#X connect 0 0 5 0;
#X connect 0 0 6 0;
#X connect 1 0 7 0;
#X connect 2 0 4 0;
#X connect 3 0 1 0;
#X connect 5 0 0 1;
#X connect 6 0 8 0;
#X connect 7 0 0 0;
#X connect 8 0 2 0;
#X restore 119 314 pd rotate;
#N canvas 490 204 450 300 rotate 0;
#X obj 57 83 f;
#X obj 57 33 tgl 15 0 empty empty empty 17 7 0 10 -262144 -1 -1 1 1
;
#X obj 57 153 line;
#X obj 57 13 loadbang;
#X obj 57 183 outlet;
#X obj 87 83 + 1;
#X obj 57 113 % 360;
#X obj 57 53 metro 50;
#X msg 57 133 \$1 50;
#X connect 0 0 5 0;
#X connect 0 0 6 0;
#X connect 1 0 7 0;
#X connect 2 0 4 0;
#X connect 3 0 1 0;
#X connect 5 0 0 1;
#X connect 6 0 8 0;
#X connect 7 0 0 0;
#X connect 8 0 2 0;
#X restore 102 294 pd rotate;
#X text 570 87 alpha speed;
#X msg 325 -59 0 \, destroy;
#X text 394 -80 create window;
#X text 394 -60 destroy window;
#X obj 85 65 t a b;
#X msg 205 117 0;
#X obj 190 137 i;
#X obj 220 137 + 1;
#X obj 85 120 t a b;
#X obj 85 204 separator;
#X obj 190 204 +;
#X obj 205 174 f;
#X obj 85 92 repeat 90;
#N canvas 828 451 466 316 fmod 0;
#X obj 67 37 inlet;
#X obj 67 211 outlet;
#X obj 67 103 % 23;
#X obj 118 118 i;
#X obj 93 146 -;
#X obj 67 182 +;
#X obj 67 62 t f f f;
#X floatatom 150 172 5 0 0 0 - - -;
#X connect 0 0 6 0;
#X connect 2 0 5 0;
#X connect 3 0 4 1;
#X connect 4 0 5 1;
#X connect 4 0 7 0;
#X connect 5 0 1 0;
#X connect 6 0 2 0;
#X connect 6 1 4 0;
#X connect 6 2 3 0;
#X restore 190 234 pd fmod 90;
#X obj 85 274 translateXYZ 0 0 1;
#X obj 426 224 loadbang;
#X obj 85 41 translateXYZ 0 0 -20;
#X obj 325 354 cube;
#X obj 235 174 + 0.05;
#X obj 325 264 pix_gain;
#X msg 347 244 4;
#X text 384 0 open image;
#X msg 346 334 1.5;
#X obj 455 302 cnv 15 110 70 empty empty empty 20 12 0 14 -257985 -66577
0;
#X text 459 325 Antonio Roberts;
#X text 459 345 hellocatfood.com;
#X text 459 305 2012;
#X connect 0 0 3 0;
#X connect 2 0 1 0;
#X connect 3 0 39 0;
#X connect 4 0 42 0;
#X connect 5 0 40 0;
#X connect 6 0 4 0;
#X connect 7 0 4 1;
#X connect 8 0 4 2;
#X connect 9 0 6 0;
#X connect 10 0 14 0;
#X connect 11 0 10 0;
#X connect 11 1 10 1;
#X connect 11 2 10 2;
#X connect 12 0 11 0;
#X connect 13 0 11 1;
#X connect 14 0 4 3;
#X connect 15 0 9 3;
#X connect 16 0 7 0;
#X connect 16 0 8 0;
#X connect 16 0 17 0;
#X connect 17 0 4 4;
#X connect 18 0 20 0;
#X connect 19 0 18 0;
#X connect 20 0 6 0;
#X connect 21 0 9 2;
#X connect 22 0 9 1;
#X connect 24 0 1 0;
#X connect 27 0 35 0;
#X connect 27 1 28 0;
#X connect 27 1 34 0;
#X connect 28 0 29 1;
#X connect 29 0 30 0;
#X connect 29 0 33 0;
#X connect 30 0 29 1;
#X connect 31 0 32 0;
#X connect 31 1 29 0;
#X connect 32 0 37 0;
#X connect 33 0 36 0;
#X connect 34 0 33 1;
#X connect 34 0 41 0;
#X connect 35 0 31 0;
#X connect 36 0 37 3;
#X connect 37 0 9 0;
#X connect 38 0 43 0;
#X connect 38 0 45 0;
#X connect 39 0 27 0;
#X connect 41 0 34 1;
#X connect 42 0 5 0;
#X connect 43 0 42 1;
#X connect 45 0 40 1;
