#N canvas 275 30 1005 677 10;
#X obj 15 15 bng 15 250 50 0 empty empty empty 17 7 0 10 -262144 -1
-1;
#X obj 15 35 openpanel;
#X obj 15 78 soundfiler;
#X obj 15 99 s sf-length;
#X msg 15 56 read -resize -maxsize 3e+07 \$1 sample;
#X obj 522 35 table sample;
#X obj 15 209 r sf-length;
#X obj 253 226 until;
#X obj 253 423 * 44.1;
#X obj 253 444 i;
#X obj 253 126 bng 15 250 50 0 empty empty empty 17 7 0 10 -262144
-1 -1;
#X obj 253 146 t b b;
#X obj 522 75 table shuffled;
#X obj 522 55 table split-points;
#X obj 396 548 >;
#X obj 396 569 select 1;
#X obj 414 524 r sf-length;
#X obj 396 590 s stop-until;
#X obj 285 198 r stop-until;
#X obj 285 170 s reset;
#X obj 253 511 +;
#X obj 283 511 f;
#X obj 253 532 t f f;
#X msg 15 230 \; shuffled resize \$1 \; split-points resize \$1 \;
split-points const -1 \;;
#X obj 292 564 swap 1;
#X obj 292 585 -;
#X obj 253 613 spigot;
#X obj 253 634 t f b;
#X obj 253 705 tabwrite split-points;
#X obj 397 680 f;
#X obj 427 680 + 1;
#X obj 415 635 r reset;
#X msg 415 656 0;
#X obj 283 468 r reset;
#X msg 283 489 0;
#X obj 422 734 s num-splits;
#X obj 422 712 + 1;
#X obj 26 530 r num-splits;
#X obj 8 553 f;
#X obj 8 497 r stop-until;
#X msg 8 647 \; split-points resize \$1 \; split-points bounds 0 \$2
\$1 0 \;;
#X obj 8 574 pack f f;
#X obj 153 527 s last-split;
#X obj 61 552 r last-split;
#X obj 530 193 bng 15 250 50 0 empty empty empty 17 7 0 10 -262144
-1 -1;
#X obj 253 301 t b f;
#X obj 253 373 list split;
#X obj 253 399 list split 1;
#X obj 253 246 t b b;
#X obj 530 388 t f f;
#X obj 530 409 + 1;
#X obj 530 430 tabread split-points;
#X obj 530 461 -;
#X obj 700 430 tabread split-points;
#X obj 530 522 until;
#X obj 646 617 f;
#X obj 676 617 + 1;
#X msg 664 593 0;
#X obj 530 708 tabwrite shuffled;
#X obj 530 543 t b b;
#X obj 530 617 f;
#X obj 560 617 + 1;
#X msg 548 593 0;
#X obj 530 638 +;
#X obj 530 659 tabread sample;
#X obj 530 482 t f b;
#X obj 801 536 bng 15 250 50 0 empty empty empty 17 7 0 10 -262144
-1 -1;
#X obj 801 556 tabplay~ shuffled;
#X obj 801 687 *~;
#X obj 801 708 dac~;
#X obj 839 589 hsl 128 15 0 100 0 0 empty empty empty -2 -8 0 10 -262144
-1 -1 12700 1;
#X obj 836 609 dbtorms;
#X obj 836 630 pack f 40;
#X obj 836 651 line~;
#N canvas 0 22 535 466 random-no-replacement 0;
#X obj 9 22 inlet;
#X obj 9 426 outlet;
#X obj 348 163 until;
#X obj 378 221 + 1;
#X msg 366 201 0;
#X obj 348 263 t l;
#X obj 306 279 list;
#X obj 348 242 list prepend;
#X obj 306 91 inlet;
#X obj 168 103 list;
#X obj 168 144 list length;
#X obj 34 188 until;
#X obj 34 216 list;
#X obj 34 346 list prepend;
#X obj 34 324 list split 1;
#X obj 34 367 t l;
#X obj 34 280 list prepend;
#X obj 9 398 list;
#X obj 34 301 t l b l;
#X obj 306 112 t b b b b f;
#X obj 9 43 t b b b b b b;
#X obj 125 346 bng 15 250 50 0 empty empty empty 17 7 0 10 -262144
-1 -1;
#X obj 44 398 bng 15 250 50 0 empty empty empty 17 7 0 10 -262144 -1
-1;
#X obj 348 142 f;
#X obj 348 221 f;
#X obj 115 218 random;
#X obj 179 172 select;
#X obj 34 243 list split;
#X connect 0 0 20 0;
#X connect 2 0 24 0;
#X connect 3 0 24 1;
#X connect 4 0 24 1;
#X connect 5 0 6 1;
#X connect 5 0 7 1;
#X connect 6 0 9 1;
#X connect 7 0 5 0;
#X connect 8 0 19 0;
#X connect 9 0 10 0;
#X connect 9 0 12 1;
#X connect 10 0 25 1;
#X connect 10 0 26 0;
#X connect 11 0 12 0;
#X connect 12 0 27 0;
#X connect 13 0 15 0;
#X connect 14 0 13 0;
#X connect 14 1 16 1;
#X connect 15 0 13 1;
#X connect 15 0 17 1;
#X connect 16 0 18 0;
#X connect 17 0 1 0;
#X connect 18 0 12 1;
#X connect 18 1 25 0;
#X connect 18 2 10 0;
#X connect 19 0 6 0;
#X connect 19 1 23 0;
#X connect 19 2 4 0;
#X connect 19 4 23 1;
#X connect 20 0 17 0;
#X connect 20 1 11 0;
#X connect 20 2 25 0;
#X connect 20 3 9 0;
#X connect 20 4 22 0;
#X connect 20 5 21 0;
#X connect 21 0 13 1;
#X connect 22 0 17 1;
#X connect 23 0 2 0;
#X connect 24 0 3 0;
#X connect 24 0 7 0;
#X connect 25 0 27 1;
#X connect 26 0 11 1;
#X connect 27 0 16 0;
#X connect 27 1 14 0;
#X restore 549 272 pd random-no-replacement;
#X obj 732 225 r num-splits;
#X text 285 106 2) Generate split points based on a list of possible
grain durations;
#X text 37 16 1) Choose a sound file;
#X text 551 190 3) select the grains in random order (no replacement)
and write to a separate table.;
#X text 781 511 4) play the shuffled table;
#X msg 322 262 50 100 200 300 400 500;
#X text 326 244 Grain dur list:;
#X obj 253 342 list;
#X obj 322 283 list length;
#X obj 253 267 random;
#X obj 714 250 f;
#X obj 530 234 t b b b;
#X obj 549 293 list-drip;
#X obj 549 314 list;
#X obj 589 314 t l;
#X obj 530 338 list;
#X obj 530 359 list-drip;
#X connect 0 0 1 0;
#X connect 1 0 4 0;
#X connect 2 0 3 0;
#X connect 4 0 2 0;
#X connect 6 0 23 0;
#X connect 7 0 48 0;
#X connect 8 0 9 0;
#X connect 9 0 20 0;
#X connect 10 0 11 0;
#X connect 11 0 7 0;
#X connect 11 1 19 0;
#X connect 14 0 15 0;
#X connect 14 0 24 0;
#X connect 15 0 17 0;
#X connect 16 0 14 1;
#X connect 18 0 7 1;
#X connect 20 0 21 0;
#X connect 20 0 22 0;
#X connect 20 0 42 0;
#X connect 21 0 20 1;
#X connect 22 0 26 0;
#X connect 22 1 14 0;
#X connect 24 0 25 0;
#X connect 24 1 25 1;
#X connect 25 0 26 1;
#X connect 26 0 27 0;
#X connect 27 0 28 0;
#X connect 27 1 29 0;
#X connect 29 0 30 0;
#X connect 29 0 28 1;
#X connect 29 0 36 0;
#X connect 30 0 29 1;
#X connect 31 0 32 0;
#X connect 32 0 29 1;
#X connect 33 0 34 0;
#X connect 34 0 21 0;
#X connect 36 0 35 0;
#X connect 37 0 38 1;
#X connect 38 0 41 0;
#X connect 39 0 38 0;
#X connect 41 0 40 0;
#X connect 43 0 41 1;
#X connect 44 0 86 0;
#X connect 45 0 82 0;
#X connect 45 1 46 1;
#X connect 46 1 47 0;
#X connect 47 0 8 0;
#X connect 48 0 84 0;
#X connect 48 1 80 0;
#X connect 49 0 50 0;
#X connect 49 1 53 0;
#X connect 50 0 51 0;
#X connect 51 0 52 0;
#X connect 52 0 65 0;
#X connect 53 0 52 1;
#X connect 53 0 63 1;
#X connect 54 0 59 0;
#X connect 55 0 56 0;
#X connect 55 0 58 1;
#X connect 56 0 55 1;
#X connect 57 0 55 1;
#X connect 59 0 60 0;
#X connect 59 1 55 0;
#X connect 60 0 61 0;
#X connect 60 0 63 0;
#X connect 61 0 60 1;
#X connect 62 0 60 1;
#X connect 63 0 64 0;
#X connect 64 0 58 0;
#X connect 65 0 54 0;
#X connect 65 1 62 0;
#X connect 66 0 67 0;
#X connect 67 0 68 0;
#X connect 68 0 69 0;
#X connect 68 0 69 1;
#X connect 70 0 71 0;
#X connect 71 0 72 0;
#X connect 72 0 73 0;
#X connect 73 0 68 1;
#X connect 74 0 87 0;
#X connect 75 0 85 1;
#X connect 80 0 82 1;
#X connect 80 0 83 0;
#X connect 82 0 46 0;
#X connect 83 0 84 1;
#X connect 84 0 45 0;
#X connect 85 0 74 1;
#X connect 86 0 90 0;
#X connect 86 1 74 0;
#X connect 86 2 85 0;
#X connect 86 2 57 0;
#X connect 87 0 88 0;
#X connect 88 0 89 0;
#X connect 88 0 90 1;
#X connect 89 0 88 1;
#X connect 90 0 91 0;
#X connect 91 0 49 0;
