#N canvas 1 53 1184 681 10;
#X obj 227 249 hsl 128 15 0 100 0 0 empty empty empty -2 -8 0 10 -262144
-1 -1 0 1;
#X obj 97 34 loadbang;
#X msg 97 61 1000;
#X obj 97 88 s fade_time;
#X text 134 59 <- time to get from 0 to 100 (ms);
#N canvas 0 53 1366 682 fade1 1;
#X obj 76 557 line;
#X obj 57 147 sel 0 1;
#X msg 91 255 100;
#X obj 76 348 pack f f;
#X obj 76 170 t b b;
#X msg 103 193 \; t2 0 \; t3 0 \; t4 0 \;;
#X obj 136 348 f;
#X obj 76 285 t f b b;
#X msg 163 491 \$1 0;
#X obj 187 437 expr (100 - $f1)/100*$f2;
#X obj 95 315 f;
#X obj 136 376 t f f;
#X obj 328 407 r fade_time;
#X obj 57 113 t f f;
#X obj 136 464 expr $f1/100*$f2;
#X msg 57 255 0;
#X obj 76 588 outlet;
#X text 202 407 <- fade up or out;
#X text 153 216 <- fade all others out;
#X text 242 465 <- time for fade down;
#X text 340 437 <- time for fade up;
#X obj 413 4 inlet fader;
#X text 200 491 <- set line to same pos as fader;
#X text 218 508 before starting fade;
#X obj 57 89 tgl 15 0 empty empty empty 17 7 0 10 -262144 -1 -1 0 1
;
#X obj 57 63 r t1;
#X msg 26 63 1;
#X obj 26 3 inlet;
#X text 81 88 <- for debugging;
#X obj 26 32 route bang;
#X text 116 19 0 = fade down;
#X text 98 4 <- bang or 1 = fade up;
#X obj 136 408 demux 0 1;
#X connect 0 0 16 0;
#X connect 1 0 15 0;
#X connect 1 1 4 0;
#X connect 2 0 7 0;
#X connect 3 0 0 0;
#X connect 4 0 2 0;
#X connect 4 1 5 0;
#X connect 6 0 11 0;
#X connect 7 0 3 0;
#X connect 7 1 10 0;
#X connect 7 2 6 0;
#X connect 8 0 0 0;
#X connect 9 0 10 1;
#X connect 10 0 3 1;
#X connect 11 0 32 0;
#X connect 11 1 8 0;
#X connect 12 0 9 1;
#X connect 12 0 14 1;
#X connect 13 0 1 0;
#X connect 13 1 32 1;
#X connect 14 0 10 1;
#X connect 15 0 7 0;
#X connect 21 0 6 1;
#X connect 24 0 13 0;
#X connect 25 0 24 0;
#X connect 26 0 24 0;
#X connect 27 0 29 0;
#X connect 29 0 26 0;
#X connect 29 1 24 0;
#X connect 32 0 14 0;
#X connect 32 1 9 0;
#X restore 224 214 pd fade1;
#X obj 224 180 bng 15 250 50 0 empty empty empty 17 7 0 10 -262144
-1 -1;
#X obj 377 249 hsl 128 15 0 100 0 0 empty empty empty -2 -8 0 10 -262144
-1 -1 0 1;
#X obj 374 180 bng 15 250 50 0 empty empty empty 17 7 0 10 -262144
-1 -1;
#N canvas 316 134 525 600 fade2 1;
#X obj 76 557 line;
#X obj 57 147 sel 0 1;
#X msg 91 255 100;
#X obj 76 348 pack f f;
#X obj 76 170 t b b;
#X obj 136 348 f;
#X obj 76 285 t f b b;
#X msg 163 491 \$1 0;
#X obj 187 437 expr (100 - $f1)/100*$f2;
#X obj 95 315 f;
#X obj 136 376 t f f;
#X obj 328 407 r fade_time;
#X obj 136 408 demux 0 1;
#X obj 57 113 t f f;
#X obj 136 464 expr $f1/100*$f2;
#X msg 57 255 0;
#X obj 76 588 outlet;
#X text 202 407 <- fade up or out;
#X text 153 216 <- fade all others out;
#X text 242 465 <- time for fade down;
#X text 340 437 <- time for fade up;
#X obj 413 4 inlet fader;
#X text 200 491 <- set line to same pos as fader;
#X text 218 508 before starting fade;
#X obj 57 89 tgl 15 0 empty empty empty 17 7 0 10 -262144 -1 -1 0 1
;
#X msg 26 63 1;
#X obj 26 3 inlet;
#X text 81 88 <- for debugging;
#X obj 26 32 route bang;
#X text 116 19 0 = fade down;
#X text 98 4 <- bang or 1 = fade up;
#X obj 57 63 r t2;
#X msg 103 193 \; t1 0 \; t3 0 \; t4 0 \;;
#X connect 0 0 16 0;
#X connect 1 0 15 0;
#X connect 1 1 4 0;
#X connect 2 0 6 0;
#X connect 3 0 0 0;
#X connect 4 0 2 0;
#X connect 4 1 32 0;
#X connect 5 0 10 0;
#X connect 6 0 3 0;
#X connect 6 1 9 0;
#X connect 6 2 5 0;
#X connect 7 0 0 0;
#X connect 8 0 9 1;
#X connect 9 0 3 1;
#X connect 10 0 12 0;
#X connect 10 1 7 0;
#X connect 11 0 8 1;
#X connect 11 0 14 1;
#X connect 12 0 14 0;
#X connect 12 1 8 0;
#X connect 13 0 1 0;
#X connect 13 1 12 1;
#X connect 14 0 9 1;
#X connect 15 0 6 0;
#X connect 21 0 5 1;
#X connect 24 0 13 0;
#X connect 25 0 24 0;
#X connect 26 0 28 0;
#X connect 28 0 25 0;
#X connect 28 1 24 0;
#X connect 31 0 24 0;
#X restore 374 214 pd fade2;
#X obj 527 249 hsl 128 15 0 100 0 0 empty empty empty -2 -8 0 10 -262144
-1 -1 0 1;
#X obj 524 180 bng 15 250 50 0 empty empty empty 17 7 0 10 -262144
-1 -1;
#X obj 677 249 hsl 128 15 0 100 0 0 empty empty empty -2 -8 0 10 -262144
-1 -1 12700 1;
#X obj 674 180 bng 15 250 50 0 empty empty empty 17 7 0 10 -262144
-1 -1;
#N canvas 315 134 525 600 fade3 1;
#X obj 76 557 line;
#X obj 57 147 sel 0 1;
#X msg 91 255 100;
#X obj 76 348 pack f f;
#X obj 76 170 t b b;
#X obj 136 348 f;
#X obj 76 285 t f b b;
#X msg 163 491 \$1 0;
#X obj 187 437 expr (100 - $f1)/100*$f2;
#X obj 95 315 f;
#X obj 136 376 t f f;
#X obj 328 407 r fade_time;
#X obj 136 408 demux 0 1;
#X obj 57 113 t f f;
#X obj 136 464 expr $f1/100*$f2;
#X msg 57 255 0;
#X obj 76 588 outlet;
#X text 202 407 <- fade up or out;
#X text 153 216 <- fade all others out;
#X text 242 465 <- time for fade down;
#X text 340 437 <- time for fade up;
#X obj 413 4 inlet fader;
#X text 200 491 <- set line to same pos as fader;
#X text 218 508 before starting fade;
#X obj 57 89 tgl 15 0 empty empty empty 17 7 0 10 -262144 -1 -1 0 1
;
#X msg 26 63 1;
#X obj 26 3 inlet;
#X text 81 88 <- for debugging;
#X obj 26 32 route bang;
#X text 116 19 0 = fade down;
#X text 98 4 <- bang or 1 = fade up;
#X obj 57 63 r t3;
#X msg 103 193 \; t1 0 \; t2 0 \; t4 0 \;;
#X connect 0 0 16 0;
#X connect 1 0 15 0;
#X connect 1 1 4 0;
#X connect 2 0 6 0;
#X connect 3 0 0 0;
#X connect 4 0 2 0;
#X connect 4 1 32 0;
#X connect 5 0 10 0;
#X connect 6 0 3 0;
#X connect 6 1 9 0;
#X connect 6 2 5 0;
#X connect 7 0 0 0;
#X connect 8 0 9 1;
#X connect 9 0 3 1;
#X connect 10 0 12 0;
#X connect 10 1 7 0;
#X connect 11 0 8 1;
#X connect 11 0 14 1;
#X connect 12 0 14 0;
#X connect 12 1 8 0;
#X connect 13 0 1 0;
#X connect 13 1 12 1;
#X connect 14 0 9 1;
#X connect 15 0 6 0;
#X connect 21 0 5 1;
#X connect 24 0 13 0;
#X connect 25 0 24 0;
#X connect 26 0 28 0;
#X connect 28 0 25 0;
#X connect 28 1 24 0;
#X connect 31 0 24 0;
#X restore 524 214 pd fade3;
#N canvas 315 134 525 600 fade4 1;
#X obj 76 557 line;
#X obj 57 147 sel 0 1;
#X msg 91 255 100;
#X obj 76 348 pack f f;
#X obj 76 170 t b b;
#X obj 136 348 f;
#X obj 76 285 t f b b;
#X msg 163 491 \$1 0;
#X obj 187 437 expr (100 - $f1)/100*$f2;
#X obj 95 315 f;
#X obj 136 376 t f f;
#X obj 328 407 r fade_time;
#X obj 136 408 demux 0 1;
#X obj 57 113 t f f;
#X obj 136 464 expr $f1/100*$f2;
#X msg 57 255 0;
#X obj 76 588 outlet;
#X text 202 407 <- fade up or out;
#X text 153 216 <- fade all others out;
#X text 242 465 <- time for fade down;
#X text 340 437 <- time for fade up;
#X obj 413 4 inlet fader;
#X text 200 491 <- set line to same pos as fader;
#X text 218 508 before starting fade;
#X obj 57 89 tgl 15 0 empty empty empty 17 7 0 10 -262144 -1 -1 1 1
;
#X msg 26 63 1;
#X obj 26 3 inlet;
#X text 81 88 <- for debugging;
#X obj 26 32 route bang;
#X text 116 19 0 = fade down;
#X text 98 4 <- bang or 1 = fade up;
#X msg 103 193 \; t1 0 \; t2 0 \; t3 0 \;;
#X obj 57 63 r t4;
#X connect 0 0 16 0;
#X connect 1 0 15 0;
#X connect 1 1 4 0;
#X connect 2 0 6 0;
#X connect 3 0 0 0;
#X connect 4 0 2 0;
#X connect 4 1 31 0;
#X connect 5 0 10 0;
#X connect 6 0 3 0;
#X connect 6 1 9 0;
#X connect 6 2 5 0;
#X connect 7 0 0 0;
#X connect 8 0 9 1;
#X connect 9 0 3 1;
#X connect 10 0 12 0;
#X connect 10 1 7 0;
#X connect 11 0 8 1;
#X connect 11 0 14 1;
#X connect 12 0 14 0;
#X connect 12 1 8 0;
#X connect 13 0 1 0;
#X connect 13 1 12 1;
#X connect 14 0 9 1;
#X connect 15 0 6 0;
#X connect 21 0 5 1;
#X connect 24 0 13 0;
#X connect 25 0 24 0;
#X connect 26 0 28 0;
#X connect 28 0 25 0;
#X connect 28 1 24 0;
#X connect 32 0 24 0;
#X restore 674 214 pd fade4;
#N canvas 423 131 633 399 fadergui 0;
#X obj 101 101 cnv 15 138 238 empty empty empty 20 12 0 14 -99865 -66577
0;
#N canvas 314 113 525 600 fade1 0;
#X obj 76 557 line;
#X obj 57 147 sel 0 1;
#X msg 91 255 100;
#X obj 76 348 pack f f;
#X obj 76 170 t b b;
#X msg 103 193 \; t2 0 \; t3 0 \; t4 0 \;;
#X obj 136 348 f;
#X obj 76 285 t f b b;
#X msg 163 491 \$1 0;
#X obj 187 437 expr (100 - $f1)/100*$f2;
#X obj 95 315 f;
#X obj 136 376 t f f;
#X obj 328 407 r fade_time;
#X obj 136 408 demux 0 1;
#X obj 57 113 t f f;
#X obj 136 464 expr $f1/100*$f2;
#X msg 57 255 0;
#X obj 76 588 outlet;
#X text 202 407 <- fade up or out;
#X text 153 216 <- fade all others out;
#X text 242 465 <- time for fade down;
#X text 340 437 <- time for fade up;
#X obj 413 4 inlet fader;
#X text 200 491 <- set line to same pos as fader;
#X text 218 508 before starting fade;
#X obj 57 89 tgl 15 0 empty empty empty 17 7 0 10 -262144 -1 -1 0 1
;
#X obj 57 63 r t1;
#X msg 26 63 1;
#X obj 26 3 inlet;
#X text 81 88 <- for debugging;
#X obj 26 32 route bang;
#X text 116 19 0 = fade down;
#X text 98 4 <- bang or 1 = fade up;
#X connect 0 0 17 0;
#X connect 1 0 16 0;
#X connect 1 1 4 0;
#X connect 2 0 7 0;
#X connect 3 0 0 0;
#X connect 4 0 2 0;
#X connect 4 1 5 0;
#X connect 6 0 11 0;
#X connect 7 0 3 0;
#X connect 7 1 10 0;
#X connect 7 2 6 0;
#X connect 8 0 0 0;
#X connect 9 0 10 1;
#X connect 10 0 3 1;
#X connect 11 0 13 0;
#X connect 11 1 8 0;
#X connect 12 0 9 1;
#X connect 12 0 15 1;
#X connect 13 0 15 0;
#X connect 13 1 9 0;
#X connect 14 0 1 0;
#X connect 14 1 13 1;
#X connect 15 0 10 1;
#X connect 16 0 7 0;
#X connect 22 0 6 1;
#X connect 25 0 14 0;
#X connect 26 0 25 0;
#X connect 27 0 25 0;
#X connect 28 0 30 0;
#X connect 30 0 27 0;
#X connect 30 1 25 0;
#X restore 69 396 pd fade1;
#X obj 114 145 bng 20 250 50 0 empty empty + 5 8 0 18 -162280 -262144
-257985;
#N canvas 314 113 525 600 fade2 0;
#X obj 76 557 line;
#X obj 57 147 sel 0 1;
#X msg 91 255 100;
#X obj 76 348 pack f f;
#X obj 76 170 t b b;
#X obj 136 348 f;
#X obj 76 285 t f b b;
#X msg 163 491 \$1 0;
#X obj 187 437 expr (100 - $f1)/100*$f2;
#X obj 95 315 f;
#X obj 136 376 t f f;
#X obj 328 407 r fade_time;
#X obj 136 408 demux 0 1;
#X obj 57 113 t f f;
#X obj 136 464 expr $f1/100*$f2;
#X msg 57 255 0;
#X obj 76 588 outlet;
#X text 202 407 <- fade up or out;
#X text 153 216 <- fade all others out;
#X text 242 465 <- time for fade down;
#X text 340 437 <- time for fade up;
#X obj 413 4 inlet fader;
#X text 200 491 <- set line to same pos as fader;
#X text 218 508 before starting fade;
#X obj 57 89 tgl 15 0 empty empty empty 17 7 0 10 -262144 -1 -1 0 1
;
#X msg 26 63 1;
#X obj 26 3 inlet;
#X text 81 88 <- for debugging;
#X obj 26 32 route bang;
#X text 116 19 0 = fade down;
#X text 98 4 <- bang or 1 = fade up;
#X obj 57 63 r t2;
#X msg 103 193 \; t1 0 \; t3 0 \; t4 0 \;;
#X connect 0 0 16 0;
#X connect 1 0 15 0;
#X connect 1 1 4 0;
#X connect 2 0 6 0;
#X connect 3 0 0 0;
#X connect 4 0 2 0;
#X connect 4 1 32 0;
#X connect 5 0 10 0;
#X connect 6 0 3 0;
#X connect 6 1 9 0;
#X connect 6 2 5 0;
#X connect 7 0 0 0;
#X connect 8 0 9 1;
#X connect 9 0 3 1;
#X connect 10 0 12 0;
#X connect 10 1 7 0;
#X connect 11 0 8 1;
#X connect 11 0 14 1;
#X connect 12 0 14 0;
#X connect 12 1 8 0;
#X connect 13 0 1 0;
#X connect 13 1 12 1;
#X connect 14 0 9 1;
#X connect 15 0 6 0;
#X connect 21 0 5 1;
#X connect 24 0 13 0;
#X connect 25 0 24 0;
#X connect 26 0 28 0;
#X connect 28 0 25 0;
#X connect 28 1 24 0;
#X connect 31 0 24 0;
#X restore 174 394 pd fade2;
#N canvas 314 113 525 600 fade3 0;
#X obj 76 557 line;
#X obj 57 147 sel 0 1;
#X msg 91 255 100;
#X obj 76 348 pack f f;
#X obj 76 170 t b b;
#X obj 136 348 f;
#X obj 76 285 t f b b;
#X msg 163 491 \$1 0;
#X obj 187 437 expr (100 - $f1)/100*$f2;
#X obj 95 315 f;
#X obj 136 376 t f f;
#X obj 328 407 r fade_time;
#X obj 136 408 demux 0 1;
#X obj 57 113 t f f;
#X obj 136 464 expr $f1/100*$f2;
#X msg 57 255 0;
#X obj 76 588 outlet;
#X text 202 407 <- fade up or out;
#X text 153 216 <- fade all others out;
#X text 242 465 <- time for fade down;
#X text 340 437 <- time for fade up;
#X obj 413 4 inlet fader;
#X text 200 491 <- set line to same pos as fader;
#X text 218 508 before starting fade;
#X obj 57 89 tgl 15 0 empty empty empty 17 7 0 10 -262144 -1 -1 0 1
;
#X msg 26 63 1;
#X obj 26 3 inlet;
#X text 81 88 <- for debugging;
#X obj 26 32 route bang;
#X text 116 19 0 = fade down;
#X text 98 4 <- bang or 1 = fade up;
#X obj 57 63 r t3;
#X msg 103 193 \; t1 0 \; t2 0 \; t4 0 \;;
#X connect 0 0 16 0;
#X connect 1 0 15 0;
#X connect 1 1 4 0;
#X connect 2 0 6 0;
#X connect 3 0 0 0;
#X connect 4 0 2 0;
#X connect 4 1 32 0;
#X connect 5 0 10 0;
#X connect 6 0 3 0;
#X connect 6 1 9 0;
#X connect 6 2 5 0;
#X connect 7 0 0 0;
#X connect 8 0 9 1;
#X connect 9 0 3 1;
#X connect 10 0 12 0;
#X connect 10 1 7 0;
#X connect 11 0 8 1;
#X connect 11 0 14 1;
#X connect 12 0 14 0;
#X connect 12 1 8 0;
#X connect 13 0 1 0;
#X connect 13 1 12 1;
#X connect 14 0 9 1;
#X connect 15 0 6 0;
#X connect 21 0 5 1;
#X connect 24 0 13 0;
#X connect 25 0 24 0;
#X connect 26 0 28 0;
#X connect 28 0 25 0;
#X connect 28 1 24 0;
#X connect 31 0 24 0;
#X restore 324 394 pd fade3;
#N canvas 314 113 525 600 fade4 0;
#X obj 76 557 line;
#X obj 57 147 sel 0 1;
#X msg 91 255 100;
#X obj 76 348 pack f f;
#X obj 76 170 t b b;
#X obj 136 348 f;
#X obj 76 285 t f b b;
#X msg 163 491 \$1 0;
#X obj 187 437 expr (100 - $f1)/100*$f2;
#X obj 95 315 f;
#X obj 136 376 t f f;
#X obj 328 407 r fade_time;
#X obj 136 408 demux 0 1;
#X obj 57 113 t f f;
#X obj 136 464 expr $f1/100*$f2;
#X msg 57 255 0;
#X obj 76 588 outlet;
#X text 202 407 <- fade up or out;
#X text 153 216 <- fade all others out;
#X text 242 465 <- time for fade down;
#X text 340 437 <- time for fade up;
#X obj 413 4 inlet fader;
#X text 200 491 <- set line to same pos as fader;
#X text 218 508 before starting fade;
#X obj 57 89 tgl 15 0 empty empty empty 17 7 0 10 -262144 -1 -1 0 1
;
#X msg 26 63 1;
#X obj 26 3 inlet;
#X text 81 88 <- for debugging;
#X obj 26 32 route bang;
#X text 116 19 0 = fade down;
#X text 98 4 <- bang or 1 = fade up;
#X msg 103 193 \; t1 0 \; t2 0 \; t3 0 \;;
#X obj 57 63 r t4;
#X connect 0 0 16 0;
#X connect 1 0 15 0;
#X connect 1 1 4 0;
#X connect 2 0 6 0;
#X connect 3 0 0 0;
#X connect 4 0 2 0;
#X connect 4 1 31 0;
#X connect 5 0 10 0;
#X connect 6 0 3 0;
#X connect 6 1 9 0;
#X connect 6 2 5 0;
#X connect 7 0 0 0;
#X connect 8 0 9 1;
#X connect 9 0 3 1;
#X connect 10 0 12 0;
#X connect 10 1 7 0;
#X connect 11 0 8 1;
#X connect 11 0 14 1;
#X connect 12 0 14 0;
#X connect 12 1 8 0;
#X connect 13 0 1 0;
#X connect 13 1 12 1;
#X connect 14 0 9 1;
#X connect 15 0 6 0;
#X connect 21 0 5 1;
#X connect 24 0 13 0;
#X connect 25 0 24 0;
#X connect 26 0 28 0;
#X connect 28 0 25 0;
#X connect 28 1 24 0;
#X connect 32 0 24 0;
#X restore 474 394 pd fade4;
#X obj 114 197 vsl 20 128 0 100 0 0 empty empty empty 0 -9 0 10 -162280
-257985 -262144 0 1;
#X obj 114 170 bng 20 250 50 0 empty empty - 5 8 0 18 -162280 -262144
-257985;
#X msg 61 368 0;
#X obj 144 145 bng 20 250 50 0 empty empty + 5 8 0 18 -162280 -262144
-257985;
#X obj 144 197 vsl 20 128 0 100 0 0 empty empty empty 0 -9 0 10 -162280
-257985 -262144 0 1;
#X obj 144 170 bng 20 250 50 0 empty empty - 5 8 0 18 -162280 -262144
-257985;
#X obj 174 145 bng 20 250 50 0 empty empty + 5 8 0 18 -162280 -262144
-257985;
#X obj 174 197 vsl 20 128 0 100 0 0 empty empty empty 0 -9 0 10 -162280
-257985 -262144 0 1;
#X obj 174 170 bng 20 250 50 0 empty empty - 5 8 0 18 -162280 -262144
-257985;
#X obj 204 145 bng 20 250 50 0 empty empty + 5 8 0 18 -162280 -262144
-257985;
#X obj 204 197 vsl 20 128 0 100 0 0 empty empty empty 0 -9 0 10 -162280
-257985 -262144 0 1;
#X obj 204 170 bng 20 250 50 0 empty empty - 5 8 0 18 -162280 -262144
-257985;
#X msg 171 368 0;
#X msg 311 368 0;
#X msg 441 368 0;
#X obj 115 111 nbx 5 20 -1e+37 1e+37 0 0 empty empty Speed(ms) 60 12
0 10 -162280 -257985 -228856 1000 256;
#X obj -11 206 s fade_time;
#X obj 115 50 loadbang;
#X msg 115 74 1000;
#X connect 1 0 6 0;
#X connect 2 0 1 0;
#X connect 3 0 10 0;
#X connect 4 0 13 0;
#X connect 5 0 16 0;
#X connect 6 0 1 1;
#X connect 7 0 8 0;
#X connect 8 0 1 0;
#X connect 9 0 3 0;
#X connect 10 0 3 1;
#X connect 11 0 18 0;
#X connect 12 0 4 0;
#X connect 13 0 4 1;
#X connect 14 0 19 0;
#X connect 15 0 5 0;
#X connect 16 0 5 1;
#X connect 17 0 20 0;
#X connect 18 0 3 0;
#X connect 19 0 4 0;
#X connect 20 0 5 0;
#X connect 21 0 22 0;
#X connect 23 0 24 0;
#X connect 24 0 21 0;
#X coords 0 -1 1 1 140 240 1 100 100;
#X restore 416 365 pd fadergui;
#X text 398 338 GUI implementation of the above;
#X text 570 411 <- fade up;
#X text 570 435 <- fade down;
#X floatatom 235 283 5 0 0 0 - - -;
#X connect 0 0 5 1;
#X connect 0 0 20 0;
#X connect 1 0 2 0;
#X connect 2 0 3 0;
#X connect 5 0 0 0;
#X connect 6 0 5 0;
#X connect 7 0 9 1;
#X connect 8 0 9 0;
#X connect 9 0 7 0;
#X connect 10 0 14 1;
#X connect 11 0 14 0;
#X connect 12 0 15 1;
#X connect 13 0 15 0;
#X connect 14 0 10 0;
#X connect 15 0 12 0;
