#N canvas 145 52 780 634 10;
#X obj 16 47 select 7;
#X obj 117 47 select 8 9 10;
#X floatatom 12 425 0 0 0 0 - - -;
#X obj 12 450 spigot;
#X floatatom 12 474 0 0 0 0 - - -;
#X obj 49 425 tgl 15 0 empty empty empty 0 -6 0 8 -262144 -1 -1 0 1
;
#X text 69 425 <-- nonzero number to open;
#X floatatom 16 15 5 0 0 0 - - -;
#X floatatom 117 16 5 0 0 0 - - -;
#X obj 16 73 bng 15 250 50 0 empty empty empty 0 -6 0 8 -262144 -1
-1;
#X floatatom 67 72 5 0 0 0 - - -;
#X obj 117 71 bng 15 250 50 0 empty empty empty 0 -6 0 8 -262144 -1
-1;
#X obj 145 71 bng 15 250 50 0 empty empty empty 0 -6 0 8 -262144 -1
-1;
#X obj 174 71 bng 15 250 50 0 empty empty empty 0 -6 0 8 -262144 -1
-1;
#X floatatom 203 72 5 0 0 0 - - -;
#X text 262 15 [select] tests input against the numbers in its creation
argument. If the number matches \, it sends a "bang" to the corresponding
outlet. Otherwise \, it copies the number to the last outlet.;
#X text 259 425 [spigot] is a kind of gate. If open \, messages coming
in at left are sent to output.;
#X obj 15 154 route 7;
#X text 259 174 If a match is found \, the rest of the message appears
on the corresponding outlet. If no match \, the message is repeated
to the last "rejection" outlet. The number of outlets is the number
of arguments plus one.;
#X msg 15 125 1 23;
#X msg 51 125 4 56;
#X msg 88 125 7 89;
#X msg 127 125 10 11 12;
#X obj 15 176 print accept;
#X obj 59 196 print reject;
#X obj 404 380 print reject;
#X text 260 123 [route] checks the first element of a message against
each of its arguments \, which may be numbers or symbols (but not a
mixture of the two.);
#X msg 445 263 7 89;
#X msg 343 263 doggy bad bad;
#X obj 263 320 print accept_eight;
#X obj 309 340 print accept_doggy;
#X obj 357 360 print accept_ten;
#X obj 263 292 route eight doggy ten;
#X msg 484 263 ten 11 12;
#X msg 263 263 eight 23;
#X floatatom 11 519 0 0 0 0 - - -;
#X floatatom 11 568 0 0 0 0 - - -;
#X obj 11 544 moses 5;
#X floatatom 55 568 0 0 0 0 - - -;
#X text 259 512 [moses] sends numbers to the left if they're less than
the argument \, right otherwise:;
#X text 12 237 A more complex example using symbols and multiple outlets:
;
#X text 532 582 derek@umatic.nl;
#X connect 0 0 9 0;
#X connect 0 1 10 0;
#X connect 1 0 11 0;
#X connect 1 1 12 0;
#X connect 1 2 13 0;
#X connect 1 3 14 0;
#X connect 2 0 3 0;
#X connect 3 0 4 0;
#X connect 5 0 3 1;
#X connect 7 0 0 0;
#X connect 8 0 1 0;
#X connect 17 0 23 0;
#X connect 17 1 24 0;
#X connect 19 0 17 0;
#X connect 20 0 17 0;
#X connect 21 0 17 0;
#X connect 22 0 17 0;
#X connect 27 0 32 0;
#X connect 28 0 32 0;
#X connect 32 0 29 0;
#X connect 32 1 30 0;
#X connect 32 2 31 0;
#X connect 32 3 25 0;
#X connect 33 0 32 0;
#X connect 34 0 32 0;
#X connect 35 0 37 0;
#X connect 37 0 36 0;
#X connect 37 1 38 0;
