#N canvas 45 125 680 448 10;
#X floatatom 524 338 0 0 0 0 - - -;
#X floatatom 353 338 0 0 0 0 - - -;
#X floatatom 298 338 0 0 0 0 - - -;
#X floatatom 413 338 0 0 0 0 - - -;
#X floatatom 467 338 0 0 0 0 - - -;
#X obj 524 311 <;
#X obj 298 262 r left;
#X obj 540 267 r right;
#X floatatom 71 335 0 0 0 0 - - -;
#X floatatom 19 334 0 0 0 0 - - -;
#X floatatom 119 335 0 0 0 0 - - -;
#X floatatom 163 334 0 0 0 0 - - -;
#X obj 13 25 &;
#X obj 63 25 |;
#X obj 115 25 &&;
#X obj 166 25 ||;
#X obj 19 307 &;
#X obj 71 308 |;
#X obj 119 308 &&;
#X obj 163 307 ||;
#X text 10 53 The Logical Operators;
#X obj 19 266 r left;
#X obj 218 266 r right;
#X obj 12 118 >;
#X obj 61 118 >=;
#X obj 114 118 ==;
#X obj 215 119 <=;
#X obj 262 119 <;
#X text 11 153 The Relational Operators;
#X obj 298 312 >;
#X obj 353 312 >=;
#X obj 413 312 ==;
#X obj 467 312 <=;
#X obj 166 118 !=;
#X floatatom 202 335 0 0 0 0 - - -;
#X floatatom 246 334 0 0 0 0 - - -;
#X obj 205 26 <<;
#X obj 256 26 >>;
#X obj 202 308 <<;
#X obj 246 307 >>;
#X text 457 392 last updated for version 0.32;
#X obj 316 26 cnv 15 300 150 empty empty empty 20 12 0 14 -44926 -66577
0;
#X floatatom 377 71 0 0 0 0 - - -;
#X obj 377 98 s left;
#X floatatom 448 72 0 0 0 0 - - -;
#X obj 448 100 t b f;
#X obj 448 128 s left;
#X obj 508 128 s right;
#X text 344 48 Set left and right inputs here;
#X text 16 190 Relational output is logical \, and negative numbers
BAD in bitwise logical operators. These operators as defined by C programming
language. (Inputs and outputs are converted to and from floating point).
;
#X text 295 368 Relational Operators give 0 or 1 ("false" or "true").
;
#X text 16 368 Logical Operators give bit value.;
#X text 556 408 derek@umatic.nl;
#X connect 5 0 0 0;
#X connect 6 0 29 0;
#X connect 6 0 30 0;
#X connect 6 0 31 0;
#X connect 6 0 32 0;
#X connect 6 0 5 0;
#X connect 7 0 29 1;
#X connect 7 0 30 1;
#X connect 7 0 31 1;
#X connect 7 0 32 1;
#X connect 7 0 5 1;
#X connect 16 0 9 0;
#X connect 17 0 8 0;
#X connect 18 0 10 0;
#X connect 19 0 11 0;
#X connect 21 0 16 0;
#X connect 21 0 17 0;
#X connect 21 0 18 0;
#X connect 21 0 19 0;
#X connect 21 0 38 0;
#X connect 21 0 39 0;
#X connect 22 0 19 1;
#X connect 22 0 18 1;
#X connect 22 0 17 1;
#X connect 22 0 16 1;
#X connect 22 0 39 1;
#X connect 22 0 38 1;
#X connect 29 0 2 0;
#X connect 30 0 1 0;
#X connect 31 0 3 0;
#X connect 32 0 4 0;
#X connect 38 0 34 0;
#X connect 39 0 35 0;
#X connect 42 0 43 0;
#X connect 44 0 45 0;
#X connect 45 0 46 0;
#X connect 45 1 47 0;
