#N canvas 76 223 558 388 10;
#X obj 54 52 inlet;
#X obj 153 51 inlet;
#X obj 206 51 inlet;
#X obj 54 314 outlet;
#X text 54 30 bang;
#X text 152 31 min;
#X text 206 31 max;
#X text 58 336 value;
#X obj 54 169 random 1e+06;
#X obj 54 195 * 1e-06;
#X obj 190 168 -;
#X obj 190 194 abs;
#X obj 54 243 *;
#X obj 54 280 +;
#X obj 153 118 f \$1;
#X obj 206 119 f \$2;
#X obj 54 78 t b b b;
#X text 117 313 Thanks to Thomas Musil for this abstraction!;
#X text 298 57 1 minimum of range;
#X text 298 78 2 maximum of range;
#X text 298 34 CREATION ARGUMENTS:;
#X text 316 337 derek@umatic.nl;
#X text 115 244 (1e+06 is notation for 1 plus 6 decimal points.);
#X text 115 264 (1e-06 is notation for 1 minus 6 decimal points.);
#X connect 0 0 16 0;
#X connect 1 0 14 0;
#X connect 2 0 15 0;
#X connect 8 0 9 0;
#X connect 9 0 12 0;
#X connect 10 0 11 0;
#X connect 11 0 12 1;
#X connect 12 0 13 0;
#X connect 13 0 3 0;
#X connect 14 0 10 0;
#X connect 14 0 13 1;
#X connect 15 0 10 1;
#X connect 16 0 8 0;
#X connect 16 1 14 0;
#X connect 16 2 15 0;
