#N canvas 65 54 1301 714 10;
#X obj 444 -533 tgl 20 0 empty empty empty 17 7 0 10 -4034 -1 -1 0
1;
#X obj 444 -29 mrpeach/binfile;
#X msg 464 -59 clear;
#X text 470 -534 fill the jpg with random data;
#X text 550 -154 save the jpg file;
#X obj 464 -86 bng 20 250 50 0 empty empty empty 17 7 0 10 -258113
-1 -1;
#X text 490 -87 start again;
#X msg 444 -152 write file.jpg;
#N canvas 1555 190 450 300 randomnumbers 0;
#X obj 45 -239 random 255;
#X floatatom 45 -219 5 0 0 0 - - -;
#X obj 44 -259 metro 2;
#X obj 115 -239 random 255;
#X floatatom 115 -219 5 0 0 0 - - -;
#X obj 114 -259 metro 2;
#X obj 45 -109 outlet;
#X obj 44 -339 inlet;
#X obj 185 -239 random 255;
#X floatatom 185 -219 5 0 0 0 - - -;
#X obj 184 -259 metro 2;
#X obj 255 -239 random 255;
#X floatatom 255 -219 5 0 0 0 - - -;
#X obj 254 -259 metro 2;
#X connect 0 0 1 0;
#X connect 1 0 6 0;
#X connect 2 0 0 0;
#X connect 3 0 4 0;
#X connect 4 0 6 0;
#X connect 5 0 3 0;
#X connect 7 0 2 0;
#X connect 7 0 5 0;
#X connect 7 0 10 0;
#X connect 7 0 13 0;
#X connect 8 0 9 0;
#X connect 9 0 6 0;
#X connect 10 0 8 0;
#X connect 11 0 12 0;
#X connect 12 0 6 0;
#X connect 13 0 11 0;
#X restore 444 -503 pd randomnumbers;
#X msg 191 -42 255 217;
#X msg -26 -542 255 216 255 219 0 132 0 3 2 2 3 2 2 3 3 3 3 4 3 3 4
5 8 5 5 4 4 5 10 7 7 6 8 12 10 12 12 11 10 11 11 13 14 18 16 13 14
17 14 11 11 16 22 16 17 19 20 21 21 21 12 15 23 24 22 20 24 18 20 21
20 1 3 4 4 5 4 5 9 5 5 9 20 13 11 13 20 20 20 20 20 20 20 20 20 20
20 20 20 20 20 20 20 20 20 20 20 20 20 20 20 20 20 20 20 20 20 20 20
20 20 20 20 20 20 20 20 20 20 20 20 20 20 20 20 20 255 192 0 17 8 1
224 2 128 3 1 17 0 2 17 1 3 17 1 255 196 1 162 0 0 1 5 1 1 1 1 1 1
0 0 0 0 0 0 0 0 1 2 3 4 5 6 7 8 9 10 11 16 0 2 1 3 3 2 4 3 5 5 4 4
0 0 1 125 1 2 3 0 4 17 5 18 33 49 65 6 19 81 97 7 34 113 20 50 129
145 161 8 35 66 177 193 21 82 209 240 36 51 98 114 130 9 10 22 23 24
25 26 37 38 39 40 41 42 52 53 54 55 56 57 58 67 68 69 70 71 72 73 74
83 84 85 86 87 88 89 90 99 100 101 102 103 104 105 106 115 116 117
118 119 120 121 122 131 132 133 134 135 136 137 138 146 147 148 149
150 151 152 153 154 162 163 164 165 166 167 168 169 170 178 179 180
181 182 183 184 185 186 194 195 196 197 198 199 200 201 202 210 211
212 213 214 215 216 217 218 225 226 227 228 229 230 231 232 233 234
241 242 243 244 245 246 247 248 249 250 1 0 3 1 1 1 1 1 1 1 1 1 0 0
0 0 0 0 1 2 3 4 5 6 7 8 9 10 11 17 0 2 1 2 4 4 3 4 7 5 4 4 0 1 2 119
0 1 2 3 17 4 5 33 49 6 18 65 81 7 97 113 19 34 50 129 8 20 66 145 161
177 193 9 35 51 82 240 21 98 114 209 10 22 36 52 225 37 241 23 24 25
26 38 39 40 41 42 53 54 55 56 57 58 67 68 69 70 71 72 73 74 83 84 85
86 87 88 89 90 99 100 101 102 103 104 105 106 115 116 117 118 119 120
121 122 130 131 132 133 134 135 136 137 138 146 147 148 149 150 151
152 153 154 162 163 164 165 166 167 168 169 170 178 179 180 181 182
183 184 185 186 194 195 196 197 198 199 200 201 202 210 211 212 213
214 215 216 217 218 226 227 228 229 230 231 232 233 234 242 243 244
245 246 247 248 249 250 255 218 0 12 3 1 0 2 17 3 17 0 63;
#X msg 695 -508 255 216 255 219 0 132 0 3 2 2 3 2 2 3 3 3 3 4 3 3 4
5 8 5 5 4 4 5 10 7 7 6 8 12 10 12 12 11 10 11 11 13 14 18 16 13 14
17 14 11 11 16 22 16 17 19 20 21 21 21 12 15 23 24 22 20 24 18 20 21
20 1 3 4 4 5 4 5 9 5 5 9 20 13 11 13 20 20 20 20 20 20 20 20 20 20
20 20 20 20 20 20 20 20 20 20 20 20 20 20 20 20 20 20 20 20 20 20 20
20 20 20 20 20 20 20 20 20 20 20 20 20 20 20 20 20 255 192 0 17 8;
#X msg 1047 -367 1 224 2 128;
#X msg 751 -185 3 1 17 0 2 17 1 3 17 1 255 196 1 162 0 0 1 5 1 1 1
1 1 1 0 0 0 0 0 0 0 0 1 2 3 4 5 6 7 8 9 10 11 16 0 2 1 3 3 2 4 3 5
5 4 4 0 0 1 125 1 2 3 0 4 17 5 18 33 49 65 6 19 81 97 7 34 113 20 50
129 145 161 8 35 66 177 193 21 82 209 240 36 51 98 114 130 9 10 22
23 24 25 26 37 38 39 40 41 42 52 53 54 55 56 57 58 67 68 69 70 71 72
73 74 83 84 85 86 87 88 89 90 99 100 101 102 103 104 105 106 115 116
117 118 119 120 121 122 131 132 133 134 135 136 137 138 146 147 148
149 150 151 152 153 154 162 163 164 165 166 167 168 169 170 178 179
180 181 182 183 184 185 186 194 195 196 197 198 199 200 201 202 210
211 212 213 214 215 216 217 218 225 226 227 228 229 230 231 232 233
234 241 242 243 244 245 246 247 248 249 250 1 0 3 1 1 1 1 1 1 1 1 1
0 0 0 0 0 0 1 2 3 4 5 6 7 8 9 10 11 17 0 2 1 2 4 4 3 4 7 5 4 4 0 1
2 119 0 1 2 3 17 4 5 33 49 6 18 65 81 7 97 113 19 34 50 129 8 20 66
145 161 177 193 9 35 51 82 240 21 98 114 209 10 22 36 52 225 37 241
23 24 25 26 38 39 40 41 42 53 54 55 56 57 58 67 68 69 70 71 72 73 74
83 84 85 86 87 88 89 90 99 100 101 102 103 104 105 106 115 116 117
118 119 120 121 122 130 131 132 133 134 135 136 137 138 146 147 148
149 150 151 152 153 154 162 163 164 165 166 167 168 169 170 178 179
180 181 182 183 184 185 186 194 195 196 197 198 199 200 201 202 210
211 212 213 214 215 216 217 218 226 227 228 229 230 231 232 233 234
242 243 244 245 246 247 248 249 250 255 218 0 12 3 1 0 2 17 3 17 0
63;
#X obj 842 -321 until;
#X msg 842 -234 28 29 40 49;
#X msg 842 -262 add2 \$1;
#X msg 932 -262 set;
#X obj 842 -301 bng 15 250 50 0 empty empty empty 17 7 0 10 -262144
-1 -1;
#X msg 842 -341 4;
#X obj 842 -361 t b b;
#X obj 842 -381 bng 15 250 50 0 empty empty empty 17 7 0 10 -262144
-1 -1;
#X obj 842 -282 random 50;
#X text 1127 -370 640 x 480;
#X obj 496 -406 openpanel;
#X obj 496 -435 bng 25 250 50 0 empty open empty 17 7 0 10 -228856
-258113 -1;
#X msg 496 -366 read \$1;
#X floatatom 496 -230 5 0 0 0 - - -;
#X obj 646 -330 tgl 15 0 empty empty empty 17 7 0 10 -262144 -1 -1
0 1;
#X obj 496 -260 mrpeach/binfile;
#X msg 576 -329 clear;
#X obj 576 -356 bng 20 250 50 0 empty empty empty 17 7 0 10 -258113
-1 -1;
#X obj 496 -386 t s b;
#X obj 496 -180 spigot;
#X obj 536 -210 tgl 15 0 empty empty empty 17 7 0 10 -262144 -1 -1
0 1;
#X obj 646 -290 metro 2;
#X obj 646 -310 t b f;
#X msg 590 -406 set read \$1;
#X obj 647 -260 delay 1800;
#X msg 604 -382 read /home/hellocatfood/Desktop/ckad6464f2b00e27hs3t.png
;
#X msg 354 -403 write file.jpg;
#X msg 189 6 writeat 0;
#N canvas 1431 54 1375 846 640x480 0;
#X msg 64 -208 255 216 255 219 0 132 0 3 2 2 3 2 2 3 3 3 3 4 3 3 4
5 8 5 5 4 4 5 10 7 7 6 8 12 10 12 12 11 10 11 11 13 14 18 16 13 14
17 14 11 11 16 22 16 17 19 20 21 21 21 12 15 23 24 22 20 24 18 20 21
20 1 3 4 4 5 4 5 9 5 5 9 20 13 11 13 20 20 20 20 20 20 20 20 20 20
20 20 20 20 20 20 20 20 20 20 20 20 20 20 20 20 20 20 20 20 20 20 20
20 20 20 20 20 20 20 20 20 20 20 20 20 20 20 20 20 255 192 0 17 8;
#X msg 44 -88 1 224 2 128;
#X msg 25 -48 3 1 17 0 2 17 1 3 17 1 255 196 1 162 0 0 1 5 1 1 1 1
1 1 0 0 0 0 0 0 0 0 1 2 3 4 5 6 7 8 9 10 11 16 0 2 1 3 3 2 4 3 5 5
4 4 0 0 1 125 1 2 3 0 4 17 5 18 33 49 65 6 19 81 97 7 34 113 20 50
129 145 161 8 35 66 177 193 21 82 209 240 36 51 98 114 130 9 10 22
23 24 25 26 37 38 39 40 41 42 52 53 54 55 56 57 58 67 68 69 70 71 72
73 74 83 84 85 86 87 88 89 90 99 100 101 102 103 104 105 106 115 116
117 118 119 120 121 122 131 132 133 134 135 136 137 138 146 147 148
149 150 151 152 153 154 162 163 164 165 166 167 168 169 170 178 179
180 181 182 183 184 185 186 194 195 196 197 198 199 200 201 202 210
211 212 213 214 215 216 217 218 225 226 227 228 229 230 231 232 233
234 241 242 243 244 245 246 247 248 249 250 1 0 3 1 1 1 1 1 1 1 1 1
0 0 0 0 0 0 1 2 3 4 5 6 7 8 9 10 11 17 0 2 1 2 4 4 3 4 7 5 4 4 0 1
2 119 0 1 2 3 17 4 5 33 49 6 18 65 81 7 97 113 19 34 50 129 8 20 66
145 161 177 193 9 35 51 82 240 21 98 114 209 10 22 36 52 225 37 241
23 24 25 26 38 39 40 41 42 53 54 55 56 57 58 67 68 69 70 71 72 73 74
83 84 85 86 87 88 89 90 99 100 101 102 103 104 105 106 115 116 117
118 119 120 121 122 130 131 132 133 134 135 136 137 138 146 147 148
149 150 151 152 153 154 162 163 164 165 166 167 168 169 170 178 179
180 181 182 183 184 185 186 194 195 196 197 198 199 200 201 202 210
211 212 213 214 215 216 217 218 226 227 228 229 230 231 232 233 234
242 243 244 245 246 247 248 249 250 255 218 0 12 3 1 0 2 17 3 17 0
63;
#X text 124 -89 640 x 480;
#X obj 25 -238 t b b b;
#X obj 25 -268 inlet;
#X obj 25 292 outlet;
#X connect 0 0 6 0;
#X connect 1 0 6 0;
#X connect 2 0 6 0;
#X connect 4 0 2 0;
#X connect 4 1 1 0;
#X connect 4 2 0 0;
#X connect 5 0 4 0;
#X restore 71 -51 pd 640x480;
#N canvas 1431 54 1375 846 3648x2736 0;
#X msg 64 -208 255 216 255 219 0 132 0 3 2 2 3 2 2 3 3 3 3 4 3 3 4
5 8 5 5 4 4 5 10 7 7 6 8 12 10 12 12 11 10 11 11 13 14 18 16 13 14
17 14 11 11 16 22 16 17 19 20 21 21 21 12 15 23 24 22 20 24 18 20 21
20 1 3 4 4 5 4 5 9 5 5 9 20 13 11 13 20 20 20 20 20 20 20 20 20 20
20 20 20 20 20 20 20 20 20 20 20 20 20 20 20 20 20 20 20 20 20 20 20
20 20 20 20 20 20 20 20 20 20 20 20 20 20 20 20 20 255 192 0 17 8;
#X msg 25 -48 3 1 17 0 2 17 1 3 17 1 255 196 1 162 0 0 1 5 1 1 1 1
1 1 0 0 0 0 0 0 0 0 1 2 3 4 5 6 7 8 9 10 11 16 0 2 1 3 3 2 4 3 5 5
4 4 0 0 1 125 1 2 3 0 4 17 5 18 33 49 65 6 19 81 97 7 34 113 20 50
129 145 161 8 35 66 177 193 21 82 209 240 36 51 98 114 130 9 10 22
23 24 25 26 37 38 39 40 41 42 52 53 54 55 56 57 58 67 68 69 70 71 72
73 74 83 84 85 86 87 88 89 90 99 100 101 102 103 104 105 106 115 116
117 118 119 120 121 122 131 132 133 134 135 136 137 138 146 147 148
149 150 151 152 153 154 162 163 164 165 166 167 168 169 170 178 179
180 181 182 183 184 185 186 194 195 196 197 198 199 200 201 202 210
211 212 213 214 215 216 217 218 225 226 227 228 229 230 231 232 233
234 241 242 243 244 245 246 247 248 249 250 1 0 3 1 1 1 1 1 1 1 1 1
0 0 0 0 0 0 1 2 3 4 5 6 7 8 9 10 11 17 0 2 1 2 4 4 3 4 7 5 4 4 0 1
2 119 0 1 2 3 17 4 5 33 49 6 18 65 81 7 97 113 19 34 50 129 8 20 66
145 161 177 193 9 35 51 82 240 21 98 114 209 10 22 36 52 225 37 241
23 24 25 26 38 39 40 41 42 53 54 55 56 57 58 67 68 69 70 71 72 73 74
83 84 85 86 87 88 89 90 99 100 101 102 103 104 105 106 115 116 117
118 119 120 121 122 130 131 132 133 134 135 136 137 138 146 147 148
149 150 151 152 153 154 162 163 164 165 166 167 168 169 170 178 179
180 181 182 183 184 185 186 194 195 196 197 198 199 200 201 202 210
211 212 213 214 215 216 217 218 226 227 228 229 230 231 232 233 234
242 243 244 245 246 247 248 249 250 255 218 0 12 3 1 0 2 17 3 17 0
63;
#X obj 25 -238 t b b b;
#X obj 25 -268 inlet;
#X obj 25 292 outlet;
#X text 133 -89 3648 x 2736;
#X msg 44 -88 10 176 14 64;
#X connect 0 0 4 0;
#X connect 1 0 4 0;
#X connect 2 0 1 0;
#X connect 2 1 6 0;
#X connect 2 2 0 0;
#X connect 3 0 2 0;
#X connect 6 0 4 0;
#X restore 91 -20 pd 3648x2736;
#X msg 345 -112 add2 \$1;
#X obj 364 -258 until;
#X msg 364 -304 5000;
#X connect 0 0 8 0;
#X connect 2 0 1 0;
#X connect 5 0 2 0;
#X connect 7 0 1 0;
#X connect 8 0 1 0;
#X connect 9 0 1 0;
#X connect 10 0 1 0;
#X connect 11 0 1 0;
#X connect 13 0 1 0;
#X connect 14 0 18 0;
#X connect 15 0 1 0;
#X connect 16 0 15 0;
#X connect 17 0 15 0;
#X connect 18 0 22 0;
#X connect 19 0 14 0;
#X connect 20 0 19 0;
#X connect 20 1 17 0;
#X connect 21 0 20 0;
#X connect 22 0 16 0;
#X connect 24 0 32 0;
#X connect 24 0 37 0;
#X connect 25 0 24 0;
#X connect 26 0 29 0;
#X connect 27 0 1 0;
#X connect 27 0 44 0;
#X connect 28 0 36 0;
#X connect 29 0 27 0;
#X connect 29 2 28 0;
#X connect 30 0 29 0;
#X connect 31 0 30 0;
#X connect 32 0 26 0;
#X connect 32 1 31 0;
#X connect 33 0 1 0;
#X connect 35 0 29 0;
#X connect 36 0 38 0;
#X connect 36 1 35 0;
#X connect 37 0 39 0;
#X connect 38 0 34 0;
#X connect 39 0 1 0;
#X connect 39 0 29 0;
#X connect 40 0 29 0;
#X connect 41 0 1 0;
#X connect 45 0 29 0;
#X connect 46 0 45 0;
