#N canvas 130 64 894 536 10;
#X obj 8 6 cnv 15 870 30 empty empty empty 20 12 0 14 -233017 -66577
0;
#X obj 8 487 cnv 15 870 30 empty empty empty 20 12 0 14 -233017 -66577
0;
#X text 668 489 Copyright Ben Bogart 2005 \; (See COPYING.TXT for details)
;
#N canvas 0 22 494 344 META 0;
#X text 12 5 CATEGORY: tutorial;
#X text 12 15 KEYWORDS: Gem pix_video pix_film;
#X restore 16 493 pd META;
#X obj 460 275 gemwin;
#X obj 460 183 tgl 15 0 empty empty empty 0 -6 0 8 -262144 -1 -1 0
1;
#X msg 495 183 create;
#X msg 495 203 destroy;
#X msg 495 225 dimen 400 400;
#X msg 495 247 color 1 0 0;
#X floatatom 690 278 3 -20 2.9 0 - - -;
#X obj 602 91 cnv 15 145 120 empty empty empty 20 12 0 14 -179884 -66577
0;
#X obj 611 66 gemhead;
#X obj 611 234 colorRGB 0 0 1 1;
#X floatatom 637 216 3 0 1 0 - - -;
#X floatatom 664 216 3 0 1 0 - - -;
#X floatatom 691 216 3 0 1 0 - - -;
#X obj 611 255 alpha;
#X floatatom 637 278 3 -4 4 0 - - -;
#X floatatom 663 278 3 -4 4 0 - - -;
#X obj 611 296 translateXYZ;
#X floatatom 630 318 3 0 359 0 - - -;
#X floatatom 653 318 3 0 359 0 - - -;
#X floatatom 676 318 3 0 359 0 - - -;
#X obj 611 336 rotateXYZ;
#X floatatom 628 358 3 0 4 0 - - -;
#X floatatom 651 358 3 0 4 0 - - -;
#X floatatom 674 358 3 0 4 0 - - -;
#X obj 611 375 scaleXYZ;
#X obj 611 45 tgl 17 0 empty Objects_5-head empty 0 -6 0 8 -262144
-1 -1 0 1;
#X obj 611 189 pix_texture;
#X obj 611 431 sphere 2;
#X floatatom 636 396 3 0 4 0 - - -;
#X floatatom 662 414 3 4 50 0 - - -;
#X text 690 412 Number of Faces;
#X text 665 396 Size;
#X floatatom 718 216 3 0 1 0 - - -;
#X obj 8 96 cnv 15 430 15 empty empty empty 20 12 0 14 -179884 -66577
0;
#X text 12 20 DESCRIPTION: pix_film;
#X text 13 96 "pix_film";
#X text 16 232 For more info see: pix_film-help.pd;
#X obj 611 164 pix_film;
#X floatatom 662 146 5 0 0 0 - - -;
#X text 732 99 Click to load video;
#X text 17 46 This is your opportunity to play around. I've modified
the previous example so that rather than loading an image-file \, you
can load Quicktime movies.;
#X msg 636 122 auto 1;
#X text 691 123 Click to auto-play;
#X text 17 126 "pix_film" accepts the same "open [filename]" message
as pix_image. Click on the open message to open the Quicktime. The
right inlet on the pix_film object defines what frame the Quicktime
is on. You can use this to scrub video. "pix_film" also supports the
"auto" message. The auto message has a single argument "1" for on and
"0" for off. "auto 1" tells pix_film to play the movie clip automatically
on load.;
#X obj 8 266 cnv 15 430 15 empty empty empty 20 12 0 14 -179884 -66577
0;
#X text 13 266 Free Exploration;
#X text 17 296 Try using counter and metro to control the colour \,
translation \, rotation or scale of the sphere. You could replace any
of the number boxes below with sliders (don't forget to change the
scale!). You can also replace "pix_film" with "pix_video" to use a
live video input rather than a video file.;
#X text 17 386 Try using the metro and counter objects to create your
own video clip looper.;
#X text 12 8 5 Interoduction to Gem - Using pix_film and playing around.
;
#X msg 626 99 open clip.avi;
#X connect 5 0 4 0;
#X connect 6 0 4 0;
#X connect 7 0 4 0;
#X connect 8 0 4 0;
#X connect 9 0 4 0;
#X connect 10 0 20 3;
#X connect 12 0 41 0;
#X connect 13 0 17 0;
#X connect 14 0 13 1;
#X connect 15 0 13 2;
#X connect 16 0 13 3;
#X connect 17 0 20 0;
#X connect 18 0 20 1;
#X connect 19 0 20 2;
#X connect 20 0 24 0;
#X connect 21 0 24 1;
#X connect 22 0 24 2;
#X connect 23 0 24 3;
#X connect 24 0 28 0;
#X connect 25 0 28 1;
#X connect 26 0 28 2;
#X connect 27 0 28 3;
#X connect 28 0 31 0;
#X connect 29 0 12 0;
#X connect 30 0 13 0;
#X connect 32 0 31 1;
#X connect 33 0 31 2;
#X connect 36 0 13 4;
#X connect 41 0 30 0;
#X connect 42 0 41 1;
#X connect 45 0 41 0;
#X connect 53 0 41 0;
