#N canvas 545 21 450 499 10;
#X obj 8 6 cnv 15 430 30 empty empty empty 20 12 0 14 -233017 -66577
0;
#X obj 8 457 cnv 15 430 30 empty empty empty 20 12 0 14 -233017 -66577
0;
#X text 228 459 Copyright Ben Bogart 2005 \; (See COPYING.TXT for details)
;
#X text 12 13 Welcome to Pure-Data...;
#X obj 8 46 cnv 15 430 15 empty empty empty 20 12 0 14 -179884 -66577
0;
#X text 13 46 What is Pure-Data (aka PD)?;
#X obj 8 176 PD-Section-1-Introduction;
#X obj 8 306 GEM-Section-1-Introduction;
#X text 28 74 Pure-Data is an open-source patching environment for
multi-media (audio+image). Pure Data is a programming language where
you create relationships by connecting visual boxes (rather than typing
complex commands). This lecture is separated into two sections: An
Introduction to Pure-Data \, and an introduction to Gem.;
