#N canvas 0 22 851 661 10;
#X obj 75 166 int 0;
#X obj 114 166 + 1;
#X obj 140 166 % 360;
#X floatatom 74 191 5 0 0 0 - - -;
#X obj 74 144 metro 100;
#X obj 131 107 /;
#X msg 146 88 360;
#X obj 145 67 t b;
#X floatatom 131 127 5 0 0 0 - - -;
#X text 170 47 sample duration;
#X obj 74 103 tgl 15 0 empty empty empty 0 -6 0 8 -262144 -1 -1 0 1
;
#X obj 73 20 inlet;
#X obj 130 20 inlet;
#X floatatom 131 47 5 0 0 0 - - -;
#X text 16 19 on/off;
#X text 122 190 outlet 360% rotation;
#X obj 74 213 outlet;
#X connect 0 0 1 0;
#X connect 0 0 3 0;
#X connect 1 0 2 0;
#X connect 2 0 0 1;
#X connect 3 0 16 0;
#X connect 4 0 0 0;
#X connect 5 0 8 0;
#X connect 6 0 5 1;
#X connect 7 0 6 0;
#X connect 8 0 4 1;
#X connect 10 0 4 0;
#X connect 11 0 10 0;
#X connect 12 0 13 0;
#X connect 13 0 7 0;
#X connect 13 0 5 0;
