#N canvas 0 22 458 308 10;
#X obj 48 48 t b f;
#X obj 91 48 t b f;
#X obj 98 18 inlet;
#X obj 18 18 inlet;
#X obj 58 18 inlet;
#X obj 32 150 outlet;
#X obj 31 102 pack f f f f;
#X obj 135 50 t b f;
#X obj 142 20 inlet;
#X msg 31 121 \$1 \$2 \$3 \$4;
#X connect 0 0 6 0;
#X connect 0 1 6 1;
#X connect 1 0 6 0;
#X connect 1 1 6 2;
#X connect 2 0 1 0;
#X connect 3 0 6 0;
#X connect 4 0 0 0;
#X connect 6 0 9 0;
#X connect 7 0 6 0;
#X connect 7 1 6 3;
#X connect 8 0 7 0;
#X connect 9 0 5 0;
