#N canvas 0 22 1090 847 10;
#X obj 864 -21 loadbang;
#X obj 865 -2 s lbang;
#X msg 335 15 create;
#X msg 334 34 destroy;
#X msg 335 89 dimen 640 480;
#X msg 340 55 1;
#X msg 372 55 0;
#X obj 337 114 tgl 15 0 empty empty empty 0 -6 0 8 -262144 -1 -1 0
1;
#X obj 338 188 color;
#X obj 338 209 alpha;
#X obj 339 242 rotateXYZ;
#X obj 424 189 r lbang;
#X obj 339 432 translateXYZ;
#X floatatom 424 412 5 0 0 0 - - -;
#X obj 426 367 r lbang;
#X msg 425 391 -2;
#X floatatom 383 408 5 0 0 0 - - -;
#X floatatom 383 225 5 0 0 0 - - -;
#X obj 537 188 color;
#X obj 537 209 alpha;
#X obj 538 242 rotateXYZ;
#X obj 623 189 r lbang;
#X obj 538 432 translateXYZ;
#X floatatom 624 410 5 0 0 0 - - -;
#X obj 624 364 r lbang;
#X floatatom 582 411 5 0 0 0 - - -;
#X floatatom 581 225 5 0 0 0 - - -;
#X obj 719 190 color;
#X obj 719 211 alpha;
#X obj 720 243 rotateXYZ;
#X floatatom 805 228 5 0 0 0 - - -;
#X obj 805 191 r lbang;
#X obj 720 432 translateXYZ;
#X floatatom 803 408 5 0 0 0 - - -;
#X obj 804 368 r lbang;
#X msg 804 387 -2;
#X floatatom 764 408 5 0 0 0 - - -;
#X floatatom 763 227 5 0 0 0 - - -;
#X msg 382 207 124;
#X msg 763 209 48;
#X msg 623 209 643;
#X msg 580 207 -9;
#X msg 582 393 -0.79;
#X msg 624 391 1.44;
#X msg 423 208 584;
#X msg 805 210 448;
#X msg 765 385 0;
#X msg 384 385 1;
#X obj 425 172 rgbpack;
#X obj 426 114 r r;
#X obj 452 114 r g;
#X obj 478 114 r b;
#X obj 623 172 rgbpack;
#X obj 650 114 r g;
#X obj 676 114 r b;
#X obj 806 175 rgbpack;
#X obj 808 118 r r;
#X obj 833 118 r g;
#X obj 858 118 r b;
#X obj 835 146 + 0.1;
#X floatatom 106 510 0 0 0 0 - - -;
#X obj 108 473 tgl 15 0 empty empty empty 0 -6 0 8 -262144 -1 -1 0
1;
#X obj 624 114 r r;
#N canvas 28 22 677 710 eq 0;
#X obj 52 44 inlet;
#X obj 114 44 inlet;
#X obj 156 151 soundfiler;
#X obj 156 99 openpanel;
#X obj 156 63 bng 32 250 50 0 empty empty empty 17 7 0 10 -262144 -1
-1;
#X floatatom 156 173 10 0 0 1 sample_size - -;
#X obj 47 211 *~;
#X obj 45 316 dac~;
#X text 196 70 click to load an audio file;
#X floatatom 47 163 5 0 0 0 - - -;
#X obj 47 185 phasor~ 1;
#X obj 118 291 lop~;
#X floatatom 141 272 5 0 0 0 - - -;
#X obj 118 313 env~;
#X obj 118 336 vsl 15 128 0 127 0 0 empty empty empty 0 -8 0 8 -262144
-1 -1 7247 1;
#X floatatom 246 273 5 0 0 0 - - -;
#X obj 222 312 env~;
#X obj 222 335 vsl 15 128 0 127 0 0 empty empty empty 0 -8 0 8 -262144
-1 -1 8271 1;
#X obj 222 290 hip~;
#X floatatom 324 245 5 0 0 0 - - -;
#X obj 317 312 env~;
#X obj 317 335 vsl 15 128 0 127 0 0 empty empty empty 0 -8 0 8 -262144
-1 -1 4167 1;
#X obj 317 290 bp~;
#X floatatom 333 263 5 0 0 0 - - -;
#X msg 141 252 290;
#X msg 246 253 5000;
#X msg 333 227 1347;
#X msg 156 120 read -resize \$1 sample;
#X obj 47 234 tabread4~ sample;
#X text 86 136 play!;
#X obj 246 235 r lbang;
#X text 86 450 bass;
#X text 203 449 hi;
#X text 271 450 mid;
#X obj 119 495 line;
#X floatatom 119 538 5 0 0 0 - - -;
#X obj 224 495 line;
#X floatatom 223 538 5 0 0 0 - - -;
#X msg 223 473 \$1 50;
#X msg 119 473 \$1 50;
#X obj 318 494 line;
#X floatatom 318 537 5 0 0 0 - - -;
#X msg 318 472 \$1 50;
#X floatatom 93 349 5 0 0 0 - - -;
#X obj 66 382 vsl 15 128 0.1 10 0 0 empty empty empty 0 -8 0 8 -262144
-1 -1 6311 1;
#X floatatom 31 342 0 0 100 0 - - -;
#X obj 31 401 osc~;
#X obj 31 376 *;
#X obj 3 280 *~;
#X obj 37 548 line;
#X floatatom 36 587 5 0 0 0 - - -;
#X msg 33 522 \$1 50;
#X obj 37 570 * 20;
#X obj 119 575 s r;
#X obj 222 577 s g;
#X obj 318 577 s b;
#X obj 161 551 s bass;
#X obj 261 550 s hi;
#X obj 358 550 s mid;
#X obj 37 605 s ringmod;
#X obj 251 36 inlet;
#X msg 294 203 400;
#X msg 336 193 63;
#X obj 165 657 s alpha;
#X floatatom 202 631 5 0 0 0 - - -;
#X obj 163 590 * 0.1;
#X obj 293 603 * -1;
#X floatatom 360 669 5 0 0 0 - - -;
#X obj 393 632 + 10;
#X floatatom 85 656 5 0 0 0 - - -;
#X floatatom 157 620 5 0 0 0 - - -;
#X obj 405 656 * 0.1;
#X obj 255 641 + 0.1;
#N canvas 96 169 966 618 reverb 0;
#X obj 13 19 inlet~;
#X obj 13 43 reverb-echo echo-del1 5.43216;
#X obj 277 215 +~;
#X obj 319 215 +~;
#X obj 67 276 outlet~;
#X obj 137 276 outlet~;
#X obj 238 334 +~;
#X obj 347 335 +~;
#X obj 280 334 -~;
#X obj 387 334 -~;
#X obj 237 390 +~;
#X obj 281 391 +~;
#X obj 325 392 -~;
#X obj 364 392 -~;
#X obj 324 474 *~ 0;
#X obj 282 473 *~ 0;
#X obj 237 472 *~ 0;
#X obj 365 475 *~ 0;
#X obj 632 365 inlet;
#X obj 632 437 / 200;
#X obj 632 389 min 100;
#X obj 632 412 max 0;
#X obj 238 583 delwrite~ loop-del1 60;
#X obj 283 561 delwrite~ loop-del2 71.9345;
#X obj 364 515 delwrite~ loop-del4 95.945;
#X obj 298 154 delread~ loop-del1 60;
#X obj 340 179 delread~ loop-del2 71.9345;
#X obj 408 233 delread~ loop-del4 95.945;
#X obj 386 208 delread~ loop-del3 86.7545;
#X obj 325 538 delwrite~ loop-del3 86.7545;
#X obj 13 67 reverb-echo echo-del2 8.45346;
#X obj 13 91 reverb-echo echo-del3 13.4367;
#X obj 13 115 reverb-echo echo-del4 21.5463;
#X obj 13 139 reverb-echo echo-del5 34.3876;
#X obj 13 163 reverb-echo echo-del6 55.5437;
#X text 286 42 "early echo" generators \, which also increase echo
density. Open one to see what they do.;
#X text 300 115 Get the outputs of the recirculating delays. Add the
inputs to two of them.;
#X text 420 313 Do a power-conserving mix of them in pairs. First combine
(1 \, 2) and (3 \, 4)...;
#X text 402 385 ...then (1 \, 3) and (2 \, 4);
#X text 446 469 The two mixing stages have a combined gain of 2 \,
so the recirculation gain is limited to 0.5.;
#X text 586 542 Put the signals back into the;
#X text 584 557 recirculating delays.;
#X text 29 296 Tap outputs from here.;
#X text 708 381 0 to 100 to control reverb;
#X text 719 396 time.;
#X text 691 364 feedback gain on a scale of;
#X connect 0 0 1 0;
#X connect 1 0 30 0;
#X connect 1 1 30 1;
#X connect 2 0 4 0;
#X connect 2 0 6 0;
#X connect 2 0 8 0;
#X connect 3 0 5 0;
#X connect 3 0 6 1;
#X connect 3 0 8 1;
#X connect 6 0 10 0;
#X connect 6 0 12 0;
#X connect 7 0 12 1;
#X connect 7 0 10 1;
#X connect 8 0 11 0;
#X connect 8 0 13 0;
#X connect 9 0 11 1;
#X connect 9 0 13 1;
#X connect 10 0 16 0;
#X connect 11 0 15 0;
#X connect 12 0 14 0;
#X connect 13 0 17 0;
#X connect 14 0 29 0;
#X connect 15 0 23 0;
#X connect 16 0 22 0;
#X connect 17 0 24 0;
#X connect 18 0 20 0;
#X connect 19 0 17 1;
#X connect 19 0 16 1;
#X connect 19 0 15 1;
#X connect 19 0 14 1;
#X connect 20 0 21 0;
#X connect 21 0 19 0;
#X connect 25 0 2 1;
#X connect 26 0 3 1;
#X connect 27 0 7 1;
#X connect 27 0 9 1;
#X connect 28 0 7 0;
#X connect 28 0 9 0;
#X connect 30 0 31 0;
#X connect 30 1 31 1;
#X connect 31 0 32 0;
#X connect 31 1 32 1;
#X connect 32 0 33 0;
#X connect 32 1 33 1;
#X connect 33 0 34 0;
#X connect 33 1 34 1;
#X connect 34 0 2 0;
#X connect 34 1 3 0;
#X restore 376 289 pd reverb;
#X floatatom 452 265 0 0 100 0 - - -;
#X text 490 264 <-- feedback (100 maximum);
#X text 467 290 <-- open to see how it works;
#X obj 388 332 /~ 2;
#X obj 431 329 /~ 2;
#X obj 450 241 r reverb;
#X obj 477 414 +~;
#X msg 48 138 0.08;
#X obj 478 516 *~ 0.4;
#X obj 537 528 /~ 2;
#X obj 423 491 /~ 2;
#X obj 491 470 +~;
#X obj 501 581 +~;
#X obj 563 643 outlet;
#N canvas 0 22 752 548 (subpatch) 0;
#X array sample 797773 float 0;
#X coords 0 1 797772 -1 200 140 1;
#X restore 425 48 graph;
#X obj 119 517 * 0.03;
#X obj 224 517 * 0.03;
#X obj 318 517 * 0.03;
#X obj 120 557 * 0.32;
#X obj 222 557 * 0.2;
#X obj 318 557 * 0.5;
#X connect 0 0 81 0;
#X connect 1 0 4 0;
#X connect 2 0 5 0;
#X connect 2 0 6 1;
#X connect 3 0 27 0;
#X connect 4 0 3 0;
#X connect 5 0 87 0;
#X connect 6 0 28 0;
#X connect 9 0 10 0;
#X connect 10 0 6 0;
#X connect 11 0 13 0;
#X connect 12 0 11 1;
#X connect 13 0 14 0;
#X connect 14 0 39 0;
#X connect 15 0 18 1;
#X connect 16 0 17 0;
#X connect 17 0 38 0;
#X connect 18 0 16 0;
#X connect 19 0 22 1;
#X connect 20 0 21 0;
#X connect 21 0 42 0;
#X connect 22 0 20 0;
#X connect 23 0 22 2;
#X connect 24 0 12 0;
#X connect 25 0 15 0;
#X connect 25 0 19 0;
#X connect 26 0 23 0;
#X connect 27 0 2 0;
#X connect 28 0 48 0;
#X connect 28 0 84 0;
#X connect 28 0 85 0;
#X connect 30 0 26 0;
#X connect 30 0 25 0;
#X connect 30 0 24 0;
#X connect 30 0 62 0;
#X connect 30 0 61 0;
#X connect 34 0 89 0;
#X connect 35 0 56 0;
#X connect 35 0 92 0;
#X connect 36 0 90 0;
#X connect 37 0 57 0;
#X connect 37 0 93 0;
#X connect 38 0 36 0;
#X connect 39 0 34 0;
#X connect 40 0 91 0;
#X connect 41 0 58 0;
#X connect 41 0 94 0;
#X connect 42 0 40 0;
#X connect 43 0 47 1;
#X connect 44 0 47 0;
#X connect 44 0 51 0;
#X connect 44 0 69 0;
#X connect 44 0 65 0;
#X connect 44 0 66 0;
#X connect 45 0 47 0;
#X connect 46 0 48 1;
#X connect 47 0 46 0;
#X connect 48 0 73 0;
#X connect 49 0 52 0;
#X connect 50 0 59 0;
#X connect 51 0 49 0;
#X connect 52 0 50 0;
#X connect 60 0 44 0;
#X connect 61 0 43 0;
#X connect 62 0 45 0;
#X connect 64 0 63 0;
#X connect 65 0 70 0;
#X connect 66 0 68 0;
#X connect 67 0 72 0;
#X connect 68 0 71 0;
#X connect 71 0 67 0;
#X connect 72 0 63 0;
#X connect 73 0 77 0;
#X connect 73 1 78 0;
#X connect 74 0 73 1;
#X connect 77 0 80 0;
#X connect 78 0 80 1;
#X connect 79 0 74 0;
#X connect 80 0 22 0;
#X connect 80 0 18 0;
#X connect 80 0 11 0;
#X connect 80 0 85 1;
#X connect 81 0 9 0;
#X connect 83 0 86 1;
#X connect 84 0 86 0;
#X connect 85 0 82 0;
#X connect 85 0 83 0;
#X connect 86 0 7 1;
#X connect 86 0 7 0;
#X connect 89 0 35 0;
#X connect 90 0 37 0;
#X connect 91 0 41 0;
#X connect 92 0 53 0;
#X connect 93 0 54 0;
#X connect 94 0 55 0;
#X restore 47 294 pd eq;
#X obj 364 366 r bass;
#X obj 563 368 r hi;
#X obj 745 365 r mid;
#X obj 357 262 r ringmod;
#X obj 137 187 vsl 15 128 0.1 10 0 0 empty empty empty 0 -8 0 8 -262144
-1 -1 6311 1;
#X obj 46 188 bng 15 250 50 0 empty empty empty 0 -6 0 8 -262144 -1
-1;
#X obj 63 188 bng 15 250 50 0 empty empty empty 0 -6 0 8 -262144 -1
-1;
#X text 9 186 play!;
#X text 62 171 loadfile;
#X obj 444 -14 key;
#X obj 444 3 sel 102;
#X obj 333 -5 tgl 15 0 empty empty empty 0 -6 0 8 -262144 -1 -1 1 1
;
#X msg 443 42 fullscreen \$1;
#X floatatom 133 320 5 0 0 0 - - -;
#X obj 143 354 int;
#X floatatom 232 150 5 0 0 0 - - -;
#X obj 453 313 repeat 2;
#X obj 634 315 repeat 3;
#X obj 504 114 r alpha;
#X obj 232 168 autoscale;
#X obj 337 146 gemhead;
#X obj 333 70 gemwin;
#X floatatom 212 228 5 0 0 0 - - -;
#X obj 262 434 autoscale;
#X floatatom 262 417 5 0 0 0 - - -;
#X obj 271 458 * 10;
#X obj 272 478 s reverb;
#X obj 424 572 translateXYZ;
#X obj 519 578 color;
#X obj 550 561 rgbpack;
#X obj 563 523 r g;
#X obj 588 523 r b;
#X obj 563 542 + 0.1;
#X obj 539 523 r r;
#X obj 647 553 repeat 2;
#X obj 683 575 translateXYZ;
#X floatatom 710 555 5 0 0 0 - - -;
#X obj 683 594 square 0.1;
#X obj 425 592 square 0.1;
#X obj 423 551 repeat 2;
#X obj 710 518 r lbang;
#X msg 710 537 -0.33;
#X text 332 -22 FIRST!;
#X floatatom 46 320 0 0 0 0 - - -;
#X text -28 319 samplesize;
#X obj 46 345 / 44100;
#X floatatom 46 366 5 0 0 0 - - -;
#X obj 101 331 bng 15 250 50 0 empty empty empty 0 -6 0 8 -262144 -1
-1;
#X text -62 364 duration (sec.);
#X text -22 457 from 0 to 360 in sampleduration;
#X obj 47 386 * 1000;
#X obj 48 407 s duration;
#X obj 107 490 360counter;
#X obj 123 473 r duration;
#X text 133 168 ringmod;
#X obj 701 114 r alpha;
#X obj 883 118 r alpha;
#X obj 560 263 r ringmod;
#X msg 451 498 draw line;
#X obj 451 479 r lbang;
#X obj 381 492 rotateXYZ;
#X text 506 3 F-key;
#X obj 451 460 r rotate;
#X obj 106 530 s rotate;
#X obj 263 535 * 2;
#X obj 637 142 + 0.3;
#X obj 426 132 + 0.3;
#X obj 226 256 s Llr;
#X obj 263 500 s cube;
#X obj 381 515 cube 0.3;
#X floatatom 870 315 0 0 0 0 - - -;
#X obj 787 314 text3d \$1;
#X msg 812 278 justify right top;
#X msg 812 259 justify center center;
#X msg 793 296 font arialHB.ttf;
#X obj 740 270 separator;
#X obj 922 297 r lbang;
#X text 38 147 SECOND!;
#X obj 870 387 translateXYZ;
#X floatatom 922 360 5 0 0 0 - - -;
#X floatatom 968 370 5 0 0 0 - - -;
#X msg 923 317 6;
#X msg 925 338 -0.24;
#X obj 538 455 model abs.obj;
#X obj 720 456 model abs.obj;
#X obj 339 455 model abs.obj;
#X msg 955 318 0;
#X obj 202 129 usbmapping -------;
#X text 201 86 THIRD!;
#N canvas 0 22 887 351 backgoround 0;
#X obj 13 73 translateXYZ;
#X floatatom 91 46 5 0 0 0 - - -;
#X obj 13 111 square 10000;
#X obj 91 10 r lbang;
#X msg 91 27 -12;
#X text 13 17 background;
#X obj 13 36 tgl 15 0 empty empty empty 0 -6 0 8 -262144 -1 -1 0 1
;
#X obj 13 54 gemhead 1;
#X obj 13 92 color;
#X obj 141 92 rgbpack;
#X floatatom 142 28 5 0 0 0 - - -;
#X floatatom 154 41 5 0 0 0 - - -;
#X floatatom 170 54 5 0 0 0 - - -;
#X floatatom 186 68 5 0 0 0 - - -;
#X msg 56 92 0.42 0.51 1;
#X msg 197 92 0.33 0.33 0.33 1;
#X msg 196 111 0.55 0.55 0.55 1;
#X obj 238 66 r lbang;
#X connect 0 0 8 0;
#X connect 1 0 0 3;
#X connect 3 0 4 0;
#X connect 4 0 1 0;
#X connect 6 0 7 0;
#X connect 7 0 0 0;
#X connect 8 0 2 0;
#X connect 9 0 8 1;
#X connect 10 0 9 0;
#X connect 11 0 9 1;
#X connect 12 0 9 2;
#X connect 13 0 9 3;
#X connect 14 0 8 1;
#X connect 15 0 8 1;
#X connect 16 0 8 1;
#X connect 17 0 15 0;
#X restore 815 23 pd backgoround;
#N canvas 0 22 506 306 cubeandtext 0;
#X msg 75 168 draw line;
#X obj 75 149 r lbang;
#X obj 12 112 rotateXYZ;
#X obj 119 93 r rotate;
#X obj 11 37 tgl 15 0 empty empty empty 0 -6 0 8 -262144 -1 -1 0 1
;
#X obj 12 73 color;
#X obj 12 93 alpha;
#X obj 11 54 gemhead;
#X obj 12 131 translateXYZ;
#X obj 99 206 int;
#X obj 11 187 translateXYZ;
#X obj 110 227 - 5;
#X obj 11 169 repeat 2;
#X obj 51 93 r ringmod;
#X obj 12 150 cube 8;
#X obj 101 131 r bass;
#X obj 71 227 * 0.2;
#X obj 11 206 cube 7;
#X obj 64 75 rgbpack;
#X obj 65 35 r r;
#X obj 91 35 r g;
#X obj 117 35 r b;
#X obj 104 53 r alpha;
#X obj 65 53 + 0.3;
#X obj 81 112 r Llr;
#X obj 99 187 r cube;
#X floatatom 365 81 0 0 0 0 - - -;
#X obj 282 80 text3d \$1;
#X msg 307 44 justify right top;
#X msg 307 25 justify center center;
#X obj 235 36 separator;
#X obj 417 63 r lbang;
#X msg 418 83 16;
#X obj 256 60 r bass;
#X obj 159 71 translateXYZ;
#X floatatom 202 51 5 0 0 0 - - -;
#X obj 165 27 r lbang;
#X msg 172 46 5;
#X msg 288 62 font arialHB.ttf;
#X connect 0 0 14 0;
#X connect 0 0 17 0;
#X connect 1 0 0 0;
#X connect 2 0 8 0;
#X connect 3 0 2 2;
#X connect 4 0 7 0;
#X connect 5 0 6 0;
#X connect 6 0 2 0;
#X connect 7 0 5 0;
#X connect 8 0 14 0;
#X connect 9 0 11 0;
#X connect 9 0 16 0;
#X connect 10 0 17 0;
#X connect 10 0 30 0;
#X connect 11 0 12 1;
#X connect 12 0 10 0;
#X connect 13 0 2 1;
#X connect 14 0 12 0;
#X connect 15 0 8 1;
#X connect 15 0 8 3;
#X connect 16 0 10 3;
#X connect 18 0 5 1;
#X connect 19 0 23 0;
#X connect 20 0 18 1;
#X connect 21 0 18 2;
#X connect 22 0 18 3;
#X connect 23 0 18 0;
#X connect 24 0 2 3;
#X connect 25 0 9 0;
#X connect 26 0 27 1;
#X connect 28 0 27 0;
#X connect 29 0 27 0;
#X connect 30 0 34 0;
#X connect 31 0 32 0;
#X connect 32 0 26 0;
#X connect 33 0 27 0;
#X connect 34 0 27 0;
#X connect 35 0 34 1;
#X connect 35 0 34 2;
#X connect 35 0 34 3;
#X connect 36 0 37 0;
#X connect 36 0 38 0;
#X connect 37 0 35 0;
#X connect 38 0 27 0;
#X restore 814 47 pd cubeandtext;
#X obj 203 104 bng 15 250 50 0 empty empty empty 0 -6 0 8 -262144 -1
-1;
#X text -43 -84 Hook up a usb gamecontroller (patch works uses two
analogue sticks) \,;
#X text -44 -61 and work your way aound the three steps to get it to
work:;
#X text -45 -36 second: load audio file;
#X text -46 -24 third: start the usb hid interface;
#X text -45 -48 first: create window;
#X connect 0 0 1 0;
#X connect 2 0 85 0;
#X connect 3 0 85 0;
#X connect 4 0 85 0;
#X connect 5 0 85 0;
#X connect 6 0 85 0;
#X connect 7 0 84 0;
#X connect 8 0 9 0;
#X connect 9 0 10 0;
#X connect 10 0 12 0;
#X connect 11 0 44 0;
#X connect 11 0 38 0;
#X connect 12 0 149 0;
#X connect 13 0 12 3;
#X connect 14 0 15 0;
#X connect 14 0 47 0;
#X connect 15 0 13 0;
#X connect 16 0 12 2;
#X connect 17 0 10 2;
#X connect 18 0 19 0;
#X connect 19 0 20 0;
#X connect 20 0 22 0;
#X connect 20 0 103 0;
#X connect 21 0 41 0;
#X connect 21 0 40 0;
#X connect 22 0 147 0;
#X connect 23 0 22 3;
#X connect 24 0 43 0;
#X connect 24 0 42 0;
#X connect 25 0 22 2;
#X connect 26 0 20 2;
#X connect 27 0 28 0;
#X connect 28 0 29 0;
#X connect 29 0 32 0;
#X connect 29 0 98 0;
#X connect 29 0 139 0;
#X connect 30 0 29 2;
#X connect 30 0 29 3;
#X connect 31 0 45 0;
#X connect 31 0 39 0;
#X connect 32 0 148 0;
#X connect 33 0 32 3;
#X connect 34 0 35 0;
#X connect 35 0 33 0;
#X connect 36 0 32 2;
#X connect 37 0 29 2;
#X connect 38 0 17 0;
#X connect 39 0 37 0;
#X connect 40 0 20 3;
#X connect 41 0 26 0;
#X connect 42 0 25 0;
#X connect 43 0 23 0;
#X connect 44 0 10 3;
#X connect 45 0 30 0;
#X connect 46 0 36 0;
#X connect 47 0 16 0;
#X connect 48 0 8 1;
#X connect 49 0 130 0;
#X connect 50 0 48 1;
#X connect 51 0 48 2;
#X connect 52 0 18 1;
#X connect 53 0 129 0;
#X connect 54 0 52 2;
#X connect 55 0 27 1;
#X connect 56 0 55 0;
#X connect 56 0 135 0;
#X connect 57 0 55 1;
#X connect 58 0 59 0;
#X connect 59 0 55 2;
#X connect 60 0 127 0;
#X connect 61 0 116 0;
#X connect 62 0 52 0;
#X connect 63 0 107 0;
#X connect 64 0 12 1;
#X connect 65 0 22 1;
#X connect 66 0 32 1;
#X connect 67 0 10 1;
#X connect 68 0 63 2;
#X connect 68 0 77 0;
#X connect 69 0 63 0;
#X connect 70 0 63 1;
#X connect 73 0 74 0;
#X connect 74 0 75 0;
#X connect 75 0 76 0;
#X connect 75 0 85 0;
#X connect 76 0 85 0;
#X connect 77 0 78 0;
#X connect 79 0 83 0;
#X connect 80 0 18 0;
#X connect 81 0 27 0;
#X connect 82 0 48 3;
#X connect 83 0 68 0;
#X connect 84 0 8 0;
#X connect 86 0 10 2;
#X connect 86 0 131 0;
#X connect 87 0 89 0;
#X connect 87 0 128 0;
#X connect 87 0 132 0;
#X connect 88 0 87 0;
#X connect 89 0 90 0;
#X connect 91 0 102 0;
#X connect 92 0 91 0;
#X connect 93 0 92 1;
#X connect 94 0 96 0;
#X connect 95 0 93 2;
#X connect 96 0 93 1;
#X connect 97 0 93 0;
#X connect 98 0 99 0;
#X connect 99 0 101 0;
#X connect 100 0 99 1;
#X connect 103 0 91 0;
#X connect 104 0 105 0;
#X connect 105 0 100 0;
#X connect 107 0 109 0;
#X connect 109 0 110 0;
#X connect 110 0 114 0;
#X connect 111 0 107 0;
#X connect 114 0 115 0;
#X connect 116 0 60 0;
#X connect 117 0 116 1;
#X connect 119 0 52 3;
#X connect 120 0 55 3;
#X connect 121 0 20 1;
#X connect 122 0 133 0;
#X connect 123 0 122 0;
#X connect 124 0 133 0;
#X connect 126 0 124 2;
#X connect 126 0 124 1;
#X connect 128 0 103 1;
#X connect 128 0 98 1;
#X connect 129 0 52 1;
#X connect 130 0 48 0;
#X connect 134 0 135 1;
#X connect 136 0 135 0;
#X connect 137 0 135 0;
#X connect 138 0 135 0;
#X connect 139 0 142 0;
#X connect 140 0 145 0;
#X connect 140 0 138 0;
#X connect 140 0 146 0;
#X connect 140 0 150 0;
#X connect 142 0 135 0;
#X connect 143 0 142 2;
#X connect 144 0 142 3;
#X connect 144 0 142 1;
#X connect 145 0 134 0;
#X connect 146 0 143 0;
#X connect 147 0 81 0;
#X connect 149 0 80 0;
#X connect 150 0 144 0;
#X connect 151 1 86 0;
#X connect 151 3 79 0;
#X connect 151 6 88 0;
#X connect 155 0 151 0;
