#N canvas 58 146 896 532 10;
#X floatatom 99 310 6 0 0 1 L-analog_x - -;
#X msg 103 196 close;
#X floatatom 433 338 7 0 0 0 LR_axis - -;
#X obj 433 354 tgl 15 0 empty empty empty 0 -6 0 8 -262144 -1 -1 0
-1;
#X floatatom 518 338 7 0 0 1 UD_axis - -;
#X obj 518 354 tgl 15 0 empty empty empty 0 -6 0 8 -262144 -1 -1 0
-1;
#X text 151 196 close device;
#X obj 128 174 tgl 15 0 empty empty empty 17 7 0 10 -262144 -1 -1 1
1;
#X text 146 174 start capture;
#X msg 34 79 refresh;
#X text 93 77 refresh device list;
#X msg 56 103 print;
#X text 103 102 print the device and element lists;
#X text 34 56 ------ where is my stuff ? ------;
#X text 94 132 ------ talk to me ------;
#X obj 56 234 hid 0;
#X msg 100 234 debug 0;
#X text 162 234 shut up...;
#X obj 56 441 route btn_0 btn_1 btn_2 btn_3 btn_4 btn_5 btn_6 btn_7
;
#X obj 56 468 tgl 15 0 empty empty 1 17 7 0 10 -262144 -1 -1 0 1;
#X obj 101 468 tgl 15 0 empty empty 2 17 7 0 10 -262144 -1 -1 0 1;
#X obj 147 468 tgl 15 0 empty empty 3 17 7 0 10 -262144 -1 -1 0 1;
#X obj 193 468 tgl 15 0 empty empty 4 17 7 0 10 -262144 -1 -1 0 1;
#X obj 239 468 tgl 15 0 empty empty L1 17 7 0 10 -262144 -1 -1 0 1
;
#X obj 284 468 tgl 15 0 empty empty R1 17 7 0 10 -262144 -1 -1 0 1
;
#X obj 330 468 tgl 15 0 empty empty L2 17 7 0 10 -262144 -1 -1 0 1
;
#X obj 376 468 tgl 15 0 empty empty R2 17 7 0 10 -262144 -1 -1 0 1
;
#X obj 56 265 route key abs;
#X obj 99 289 route abs_x abs_y abs_rx abs_rz;
#X text 426 170 Simplified HID view for dual shock and dual shock clones
joypads in XY mode.;
#X obj 433 316 route abs_hat0x abs_hat0y;
#X floatatom 152 330 6 0 0 1 L-analog_y - -;
#X floatatom 205 350 6 0 0 1 R-analog_x - -;
#X floatatom 257 370 6 0 0 1 R-analog_y - -;
#X msg 98 152 open 2;
#X obj 100 413 outlet;
#X obj 151 414 outlet;
#X obj 258 386 outlet;
#X obj 463 386 outlet;
#X obj 516 386 outlet;
#X obj 57 495 outlet;
#X obj 110 495 outlet;
#X obj 164 497 outlet;
#X obj 217 497 outlet;
#X obj 269 498 outlet;
#X obj 322 498 outlet;
#X obj 372 498 outlet;
#X obj 425 498 outlet;
#X obj 159 381 line;
#X msg 160 361 \$1 100;
#X obj 100 382 line;
#X msg 101 362 \$1 100;
#X text 151 151 open device 2;
#X text 252 151 (generic usb controller);
#X obj 199 13 inlet;
#X connect 0 0 51 0;
#X connect 1 0 15 0;
#X connect 2 0 3 0;
#X connect 3 0 38 0;
#X connect 4 0 5 0;
#X connect 5 0 39 0;
#X connect 7 0 15 0;
#X connect 9 0 15 0;
#X connect 11 0 15 0;
#X connect 15 0 27 0;
#X connect 16 0 15 0;
#X connect 18 0 19 0;
#X connect 18 1 20 0;
#X connect 18 2 21 0;
#X connect 18 3 22 0;
#X connect 18 4 23 0;
#X connect 18 5 24 0;
#X connect 18 6 25 0;
#X connect 18 7 26 0;
#X connect 19 0 40 0;
#X connect 20 0 41 0;
#X connect 21 0 42 0;
#X connect 22 0 43 0;
#X connect 23 0 44 0;
#X connect 24 0 45 0;
#X connect 25 0 46 0;
#X connect 26 0 47 0;
#X connect 27 0 18 0;
#X connect 27 1 28 0;
#X connect 28 0 0 0;
#X connect 28 1 31 0;
#X connect 28 2 32 0;
#X connect 28 3 33 0;
#X connect 28 4 30 0;
#X connect 30 0 2 0;
#X connect 30 1 4 0;
#X connect 31 0 49 0;
#X connect 33 0 37 0;
#X connect 34 0 15 0;
#X connect 48 0 36 0;
#X connect 49 0 48 0;
#X connect 50 0 35 0;
#X connect 51 0 50 0;
#X connect 54 0 34 0;
#X connect 54 0 7 0;
