#N canvas -65 54 1270 653 10;
#X obj 957 120 gemwin;
#X msg 1059 103 destroy;
#X obj 722 48 gemhead;
#X obj 741 608 GEMglVertex3d;
#X obj 741 356 GEMglBegin;
#X obj 624 356 GEMglEnd;
#X obj 722 241 t a a b;
#X obj 797 224 loadbang;
#X floatatom 893 500 5 0 0 0 - - -;
#X obj 826 298 sel 0;
#X obj 826 556 * -1;
#X obj 826 516 / 10;
#X obj 766 569 / 10;
#X obj 766 263 counter 104;
#X obj 722 125 translateXYZ -5.19 3.86 0;
#X msg 972 52 dimen 640 480 \, create \, 1;
#X obj 826 327 counter 77;
#X obj 722 203 repeat 8190;
#N canvas 0 0 450 296 color 0;
#X obj 144 147 unpack f f f;
#X obj 144 264 outlet;
#X obj 178 241 outlet;
#X obj 213 216 outlet;
#X obj 318 199 r colorB;
#X obj 318 247 r colorR;
#X obj 318 224 r colorV;
#X obj 144 79 r color3V;
#X connect 0 0 1 0;
#X connect 0 1 2 0;
#X connect 0 2 3 0;
#X connect 4 0 3 0;
#X connect 5 0 1 0;
#X connect 6 0 2 0;
#X connect 7 0 0 0;
#X restore 837 416 pd color;
#X obj 741 505 GEMglColor3d;
#X obj 778 292 s X;
#X obj 837 355 s Y;
#X obj -78 62 r X;
#X obj -43 62 r Y;
#X obj -78 147 +;
#X floatatom 10 56 5 0 0 0 - - -;
#X floatatom 10 21 5 0 0 0 - - -;
#X obj -78 110 >;
#X obj 152 62 r X;
#X obj 187 62 r Y;
#X obj 152 147 +;
#X floatatom 240 56 5 0 0 0 - - -;
#X floatatom 240 21 5 0 0 0 - - -;
#X obj 37 164 +;
#X obj 187 110 <;
#X obj -43 110 >;
#X obj 152 110 <;
#X obj 242 279 sel 1;
#X obj 296 481 counter 1 0 20;
#X obj 296 507 / 20;
#X obj 503 296 counter 2 0 104;
#X obj 503 328 / 10;
#X floatatom 940 311 5 0 0 0 - - -;
#X floatatom 938 247 5 0 0 0 - - -;
#X text 981 314 nb de ligne;
#X text 978 250 nb de colone;
#X obj 242 448 counter 2 0 40;
#X obj 242 484 / 40;
#X floatatom 377 452 5 0 0 0 - - -;
#X obj 375 79 r X;
#X obj 410 79 r Y;
#X obj 375 164 +;
#X obj 242 227 == 2;
#X obj 242 181 +;
#X floatatom 455 81 5 0 0 0 - - -;
#X floatatom 455 46 5 0 0 0 - - -;
#X obj 73 4 init 93;
#X obj 73 39 init 30;
#X obj 299 4 init 0;
#X obj 299 39 init 20;
#X obj 513 29 init 66;
#X obj 242 396 t b b;
#X floatatom 323 417 5 0 0 0 - - -;
#X obj 377 375 tgl 15 0 empty empty empty 17 7 0 10 -262144 -1 -1 0
1;
#X obj 377 421 counter 2 0 300;
#X obj 377 399 metro 10;
#X text 933 502 ecratement des points;
#X obj 611 564 s colorB;
#X obj 557 564 s colorV;
#X obj 503 564 s colorR;
#X obj 350 564 s colorB;
#X obj 296 564 s colorV;
#X obj 242 564 s colorR;
#X obj 375 127 <;
#X obj 410 127 >;
#X obj 513 64 init 53;
#X obj 957 25 loadbang;
#X msg 957 75 dimen 400 300 \, create \, 1;
#X connect 1 0 0 0;
#X connect 2 0 14 0;
#X connect 4 0 19 0;
#X connect 6 0 5 0;
#X connect 6 1 4 0;
#X connect 6 2 13 0;
#X connect 7 0 13 2;
#X connect 7 0 16 2;
#X connect 8 0 11 1;
#X connect 8 0 12 1;
#X connect 9 0 16 0;
#X connect 10 0 3 2;
#X connect 11 0 10 0;
#X connect 12 0 3 1;
#X connect 13 0 12 0;
#X connect 13 0 20 0;
#X connect 13 2 9 0;
#X connect 14 0 17 0;
#X connect 15 0 0 0;
#X connect 16 0 11 0;
#X connect 16 0 21 0;
#X connect 17 0 6 0;
#X connect 18 0 19 1;
#X connect 18 1 19 2;
#X connect 18 2 19 3;
#X connect 19 0 3 0;
#X connect 22 0 27 0;
#X connect 23 0 35 0;
#X connect 24 0 33 0;
#X connect 25 0 35 1;
#X connect 26 0 27 1;
#X connect 27 0 24 0;
#X connect 28 0 36 0;
#X connect 29 0 34 0;
#X connect 30 0 33 1;
#X connect 31 0 34 1;
#X connect 32 0 36 1;
#X connect 33 0 53 0;
#X connect 34 0 30 1;
#X connect 35 0 24 1;
#X connect 36 0 30 0;
#X connect 37 0 61 0;
#X connect 37 1 40 0;
#X connect 38 0 39 0;
#X connect 39 0 71 0;
#X connect 40 0 41 0;
#X connect 41 0 69 0;
#X connect 42 0 16 4;
#X connect 43 0 13 4;
#X connect 46 0 47 0;
#X connect 47 0 72 0;
#X connect 48 0 38 4;
#X connect 49 0 73 0;
#X connect 50 0 74 0;
#X connect 51 0 53 1;
#X connect 52 0 37 0;
#X connect 53 0 52 0;
#X connect 54 0 74 1;
#X connect 55 0 73 1;
#X connect 56 0 26 0;
#X connect 57 0 25 0;
#X connect 58 0 32 0;
#X connect 59 0 31 0;
#X connect 60 0 55 0;
#X connect 61 0 46 0;
#X connect 61 1 38 0;
#X connect 62 0 46 4;
#X connect 63 0 65 0;
#X connect 64 0 48 0;
#X connect 65 0 64 0;
#X connect 73 0 51 0;
#X connect 74 0 51 1;
#X connect 75 0 54 0;
#X connect 76 0 77 0;
#X connect 77 0 0 0;
