#N canvas 23 118 977 567 10;
#X text 778 77 off;
#X floatatom 743 127 0 0 0 0 - - -;
#X obj 743 242 noteout;
#X obj 743 206 makenote 64 250;
#X obj 743 153 metro 500;
#X msg 743 100 1;
#X msg 775 100 0;
#X text 743 77 on;
#X msg 743 180 60;
#X text 31 14 MIDI I/O objects;
#X floatatom 520 129 0 0 0 0 - - -;
#X floatatom 476 129 0 0 0 0 - - -;
#X floatatom 583 129 0 0 0 0 - - -;
#X floatatom 547 129 0 0 0 0 - - -;
#X floatatom 619 129 0 0 0 0 - - -;
#X obj 476 102 touchin;
#X obj 547 103 polytouchin;
#X text 475 79 channel and poly aftertouch;
#X floatatom 477 156 0 0 0 0 - - -;
#X floatatom 548 156 0 0 0 0 - - -;
#X obj 477 182 touchout;
#X obj 548 182 polytouchout;
#X floatatom 587 157 0 0 0 0 - - -;
#X floatatom 627 157 0 0 0 0 - - -;
#X obj 478 283 midiin;
#X floatatom 478 314 0 0 0 0 - - -;
#X floatatom 515 314 0 0 0 0 - - -;
#X floatatom 553 314 0 0 0 0 - - -;
#X floatatom 597 314 0 0 0 0 - - -;
#X text 474 220 These two are always omni and;
#X text 473 236 output the port number instead;
#X obj 553 281 sysexin;
#X obj 480 404 midiout;
#X text 478 338 use this to output raw MIDI;
#X text 473 358 (the second inlet is the port;
#X text 736 424 updated for Pd release 0.35;
#X obj 443 23 bng 15 250 50 0 empty empty empty 0 -6 0 8 -262144 -1
-1;
#X obj 443 426 bng 15 250 50 0 empty empty empty 0 -6 0 8 -262144 -1
-1;
#X text 20 46 This document is currently under revision by the PDDP
(Pure Data Documentation Project). Please stay posted for available
updates.;
#X text 20 97 DOCUMENTED MIDI OBJECTS;
#X text 480 44 MIDI OBJECTS NOT YET DOCUMENTED;
#X text 474 254 of the channel (Linux only):;
#X text 476 376 number.) (Linux Only):;
#X obj 707 23 bng 15 250 50 0 empty empty empty 0 -6 0 8 -262144 -1
-1;
#X obj 707 426 bng 15 250 50 0 empty empty empty 0 -6 0 8 -262144 -1
-1;
#X text 736 44 THE [MAKENOTE] APPARATUS;
#N canvas 167 0 365 252 window_controls 0;
#X obj 19 9 inlet;
#X msg 19 183 \; pd open \$1 \$2;
#X obj 19 29 pack s;
#X obj 19 49 makefilename %s.pd;
#X obj 72 69 inlet;
#X obj 19 163 pack s s;
#X obj 72 143 pack s;
#X obj 161 99 loadbang;
#X msg 72 123 /usr/local/lib/pd/doc/5.reference;
#X obj 78 98 delay 20;
#X connect 0 0 2 0;
#X connect 2 0 3 0;
#X connect 3 0 5 0;
#X connect 4 0 8 0;
#X connect 4 0 9 0;
#X connect 5 0 1 0;
#X connect 6 0 5 1;
#X connect 7 0 8 0;
#X connect 8 0 6 0;
#X connect 9 0 8 0;
#X restore 40 433 pd window_controls;
#X text 162 323 If you have installed PD into;
#X text 161 338 a unique location \, type the path;
#X text 162 354 here to your 5.reference folder;
#X text 159 371 and then save this patch.;
#X text 257 115 Click the object's name;
#X text 256 131 to view its help document.;
#X msg 169 413 set C:/pd/doc/5.reference;
#X msg 161 120 help-bendin;
#X msg 161 144 help-bendout;
#X msg 161 169 help-ctlin;
#X msg 162 194 help-ctlout;
#X msg 162 219 help-notein;
#X msg 162 244 help-noteout;
#X msg 162 269 help-pgmin;
#X msg 163 295 help-pgmout;
#X msg 161 392 set /usr/local/lib/pd/doc/5.reference;
#X obj 800 242 pack 0 0;
#X obj 800 267 print noteout;
#X text 840 535 derek@umatic.nl;
#X text 521 517 http://www.davesabine.com/media/puredata_pddpfiles.asp
;
#X text 520 460 This document was adapted from the Pure Data Documentation
Project \, updated for PD version 0.35 test 29 by Dave Sabine as part
of a project called pddp proposed by Krzysztof Czaja to build comprehensive
documentation for PD.;
#X connect 1 0 4 0;
#X connect 3 0 2 0;
#X connect 3 0 63 0;
#X connect 3 1 2 1;
#X connect 3 1 63 1;
#X connect 4 0 8 0;
#X connect 5 0 1 0;
#X connect 6 0 1 0;
#X connect 8 0 3 0;
#X connect 15 0 11 0;
#X connect 15 1 10 0;
#X connect 16 0 13 0;
#X connect 16 1 12 0;
#X connect 16 2 14 0;
#X connect 18 0 20 0;
#X connect 19 0 21 0;
#X connect 22 0 21 1;
#X connect 23 0 21 2;
#X connect 24 0 25 0;
#X connect 24 1 26 0;
#X connect 31 0 27 0;
#X connect 31 1 28 0;
#X connect 36 0 37 0;
#X connect 43 0 44 0;
#X connect 53 0 46 1;
#X connect 54 0 46 0;
#X connect 55 0 46 0;
#X connect 56 0 46 0;
#X connect 57 0 46 0;
#X connect 58 0 46 0;
#X connect 59 0 46 0;
#X connect 60 0 46 0;
#X connect 61 0 46 0;
#X connect 62 0 46 1;
#X connect 63 0 64 0;
