#N canvas 692 115 704 393 10;
#X msg 17 19 create;
#X msg 34 44 destroy;
#X obj 74 98 tgl 15 0 empty empty empty 0 -6 0 8 -262144 -1 -1 1 1
;
#X msg 56 70 reset;
#X obj 19 306 loadbang;
#X msg 19 330 \; renderinit 0;
#X obj 17 231 gemwin 50;
#X obj 431 76 gemhead;
#X obj 431 287 pix_texture;
#X obj 431 57 tgl 15 0 empty renderinit empty 0 -6 0 8 -262144 -1 -1
1 1;
#X msg 583 94 open \$1;
#X obj 583 73 openpanel;
#X obj 583 55 bng 15 250 50 0 empty empty empty 0 -6 0 8 -262144 -1
-1;
#X obj 431 188 pix_film;
#X msg 495 76 auto 1;
#X obj 495 56 loadbang;
#X obj 501 189 t f;
#X obj 157 152 bng 15 250 50 0 empty empty empty 0 -6 0 8 -262144 -1
-1;
#X obj 221 297 cos;
#X obj 263 198 + 1;
#X obj 228 197 int;
#X obj 263 178 select 360;
#X msg 228 175 0;
#X obj 249 239 * 6.28319;
#X obj 249 220 / 360;
#X obj 156 297 cos;
#X obj 188 297 cos;
#X msg 156 343 perspec \$1 \$2 \$3 \$4 1 20;
#X obj 156 321 pack f f f f;
#X obj 250 297 cos;
#X obj 157 170 metro 40;
#X msg 532 307 40;
#X obj 532 286 loadbang;
#X obj 156 272 * 1;
#X obj 188 272 * 2;
#X obj 230 272 * 3;
#X obj 259 272 * 4;
#X text 170 367 by Aymeric Mansoux;
#X msg 386 140 open ../../06.data/03.video/IslamSanger.avi;
#X obj 431 337 sphere 4;
#X connect 0 0 6 0;
#X connect 1 0 6 0;
#X connect 2 0 6 0;
#X connect 3 0 6 0;
#X connect 4 0 5 0;
#X connect 7 0 13 0;
#X connect 8 0 39 0;
#X connect 9 0 7 0;
#X connect 10 0 13 0;
#X connect 11 0 10 0;
#X connect 12 0 11 0;
#X connect 13 0 8 0;
#X connect 13 2 16 0;
#X connect 14 0 13 0;
#X connect 15 0 14 0;
#X connect 16 0 13 1;
#X connect 17 0 30 0;
#X connect 18 0 28 2;
#X connect 19 0 20 1;
#X connect 20 0 19 0;
#X connect 20 0 21 0;
#X connect 20 0 24 0;
#X connect 21 0 22 0;
#X connect 22 0 20 0;
#X connect 23 0 33 0;
#X connect 23 0 34 0;
#X connect 23 0 35 0;
#X connect 23 0 36 0;
#X connect 24 0 23 0;
#X connect 25 0 28 0;
#X connect 26 0 28 1;
#X connect 27 0 6 0;
#X connect 28 0 27 0;
#X connect 29 0 28 3;
#X connect 30 0 20 0;
#X connect 31 0 39 2;
#X connect 32 0 31 0;
#X connect 33 0 25 0;
#X connect 34 0 26 0;
#X connect 35 0 18 0;
#X connect 36 0 29 0;
#X connect 38 0 13 0;
