#N canvas 651 51 679 675 10;
#X obj 155 529 rectangle 4 3;
#X obj 184 310 unpack 0 0 0;
#X floatatom 170 333 5 0 0 3 length - -;
#X floatatom 219 333 5 0 0 3 width - -;
#X floatatom 269 333 5 0 0 3 height - -;
#X obj 224 261 bng 15 250 50 0 empty empty end_reached 20 7 0 10 -262144
-1 -1;
#X floatatom 213 226 5 0 10000 1 frame# - -;
#X msg 173 178 auto \$1;
#X obj 173 160 tgl 15 0 empty empty empty 0 -6 0 8 -262144 -1 -1 1
1;
#X obj 155 244 pix_movie;
#X msg 17 19 create;
#X msg 34 44 destroy;
#X obj 74 98 tgl 15 0 empty empty empty 0 -6 0 8 -262144 -1 -1 1 1
;
#X msg 56 70 reset;
#X obj 19 306 loadbang;
#X msg 19 330 \; renderinit 0;
#X obj 17 231 gemwin 50;
#X obj 155 42 gemhead;
#X obj 169 101 openpanel;
#X msg 169 121 open \$1;
#X obj 169 74 bng 15 250 50 0 empty empty empty 0 -6 0 8 -262144 -1
-1;
#X obj 155 18 tgl 15 0 empty empty empty 0 -6 0 8 -262144 -1 -1 1 1
;
#X obj 344 310 unpack 0 0 0;
#X floatatom 330 333 5 0 0 3 length - -;
#X floatatom 379 333 5 0 0 3 width - -;
#X floatatom 429 333 5 0 0 3 height - -;
#X obj 384 261 bng 15 250 50 0 empty empty end_reached 20 7 0 10 -262144
-1 -1;
#X floatatom 373 226 5 0 10000 1 frame# - -;
#X msg 333 178 auto \$1;
#X obj 333 160 tgl 15 0 empty empty empty 0 -6 0 8 -262144 -1 -1 1
1;
#X obj 315 244 pix_movie;
#X obj 315 42 gemhead;
#X obj 329 101 openpanel;
#X msg 329 121 open \$1;
#X obj 329 74 bng 15 250 50 0 empty empty empty 0 -6 0 8 -262144 -1
-1;
#X obj 315 18 tgl 15 0 empty empty empty 0 -6 0 8 -262144 -1 -1 1 1
;
#X obj 404 393 hsl 128 15 1 0 0 0 empty empty crossfader -2 -6 0 8
-262144 -1 -1 1200 1;
#X obj 401 413 * -1;
#X obj 401 433 + 1;
#X msg 425 280 0;
#X msg 265 280 0;
#X obj 315 529 rectangle 4 3;
#X obj 315 507 alpha;
#X obj 155 507 alpha;
#X obj 155 485 color 1 1 1 1;
#X obj 315 485 color 1 1 1 1;
#X msg 401 459 1 1 1 \$1;
#X msg 241 459 1 1 1 \$1;
#X text 59 559 With [pix_movie] \, you need NO [pix_texture] to texture
the image somewhere.;
#X msg 389 19 open ../../06.data/03.video/Skisprung.avi;
#X msg 390 52 open ../../06.data/03.video/Wrestling.avi;
#X connect 1 0 2 0;
#X connect 1 1 3 0;
#X connect 1 2 4 0;
#X connect 5 0 40 0;
#X connect 6 0 9 1;
#X connect 7 0 9 0;
#X connect 8 0 7 0;
#X connect 9 0 44 0;
#X connect 9 1 1 0;
#X connect 9 2 5 0;
#X connect 10 0 16 0;
#X connect 11 0 16 0;
#X connect 12 0 16 0;
#X connect 13 0 16 0;
#X connect 14 0 15 0;
#X connect 17 0 9 0;
#X connect 18 0 19 0;
#X connect 19 0 9 0;
#X connect 20 0 18 0;
#X connect 21 0 17 0;
#X connect 22 0 23 0;
#X connect 22 1 24 0;
#X connect 22 2 25 0;
#X connect 26 0 39 0;
#X connect 27 0 30 1;
#X connect 28 0 30 0;
#X connect 29 0 28 0;
#X connect 30 0 45 0;
#X connect 30 1 22 0;
#X connect 30 2 26 0;
#X connect 31 0 30 0;
#X connect 32 0 33 0;
#X connect 33 0 30 0;
#X connect 34 0 32 0;
#X connect 35 0 31 0;
#X connect 36 0 37 0;
#X connect 36 0 47 0;
#X connect 37 0 38 0;
#X connect 38 0 46 0;
#X connect 39 0 27 0;
#X connect 40 0 6 0;
#X connect 42 0 41 0;
#X connect 43 0 0 0;
#X connect 44 0 43 0;
#X connect 45 0 42 0;
#X connect 46 0 45 1;
#X connect 47 0 44 1;
#X connect 49 0 9 0;
#X connect 50 0 30 0;
