#N canvas 588 173 792 582 10;
#X msg 17 19 create;
#X msg 34 44 destroy;
#X obj 74 98 tgl 15 0 empty empty empty 0 -6 0 8 -262144 -1 -1 1 1
;
#X msg 56 70 reset;
#X obj 17 165 loadbang;
#X msg 17 189 \; renderinit 0;
#X obj 17 133 gemwin 50;
#X obj 220 43 gemhead;
#X obj 556 457 pix_texture;
#X obj 220 24 tgl 15 0 empty renderinit empty 0 -6 0 8 -262144 -1 -1
1 1;
#X msg 380 38 open \$1;
#X obj 380 17 openpanel;
#X obj 380 -1 bng 15 250 50 0 empty empty empty 0 -6 0 8 -262144 -1
-1;
#X obj 220 109 pix_film;
#X msg 246 79 open ../../06.data/03.video/Skisprung.avi;
#X msg 294 40 auto \$1;
#X obj 296 22 tgl 15 0 empty empty empty 17 7 0 10 -262144 -1 -1 1
1;
#X obj 556 488 square 4;
#X floatatom 233 228 3 0 1 2 fb0 - -;
#X floatatom 260 228 3 0 1 2 fb1 - -;
#X floatatom 286 228 3 0 1 2 fb2 - -;
#X floatatom 323 228 3 0 1 2 ff0 - -;
#X obj 220 248 pix_tIIR 2 1;
#X floatatom 350 228 3 0 1 2 ff1 - -;
#N canvas 0 0 450 300 init 0;
#X msg 175 214 0.3;
#X msg 247 215 0.6;
#X msg 277 215 0.4;
#X obj 104 258 outlet;
#X obj 154 258 outlet;
#X obj 204 258 outlet;
#X obj 254 258 outlet;
#X obj 304 258 outlet;
#X obj 244 59 inlet;
#X obj 338 158 t b;
#X msg 328 201 1;
#X msg 363 201 0;
#X obj 238 127 t b;
#X obj 246 88 route 1;
#X msg 104 214 0.2;
#X msg 140 215 0.5;
#X connect 0 0 5 0;
#X connect 1 0 6 0;
#X connect 2 0 7 0;
#X connect 8 0 13 0;
#X connect 9 0 10 0;
#X connect 9 0 11 0;
#X connect 10 0 3 0;
#X connect 10 0 6 0;
#X connect 11 0 4 0;
#X connect 11 0 5 0;
#X connect 11 0 7 0;
#X connect 12 0 14 0;
#X connect 12 0 15 0;
#X connect 12 0 0 0;
#X connect 12 0 1 0;
#X connect 12 0 2 0;
#X connect 13 0 12 0;
#X connect 13 1 9 0;
#X connect 14 0 3 0;
#X connect 15 0 4 0;
#X restore 379 211 pd init;
#X obj 379 194 tgl 15 0 empty empty empty 0 -6 0 8 -262144 -1 -1 1
1;
#X msg 246 192 set;
#X msg 286 193 set 0;
#X obj 197 247 tgl 15 0 empty renderinit empty 17 7 0 10 -262144 -1
-1 0 1;
#X obj 282 109 t 0;
#X obj 220 435 pix_rtx;
#X msg 291 413 set;
#X msg 236 409 mode \$1;
#X obj 236 389 tgl 15 0 empty empty empty 0 -6 0 8 -262144 -1 -1 0
1;
#X obj 198 436 tgl 15 0 empty renderinit empty 17 7 0 10 -262144 -1
-1 0 1;
#X obj 556 165 pix_motionblur;
#X obj 530 163 tgl 15 0 empty renderinit empty 17 7 0 10 -262144 -1
-1 0 1;
#X floatatom 663 141 5 0 100 0 blur - -;
#X obj 663 158 / 100;
#X floatatom 632 265 3 0 100 2 threshold - -;
#X obj 556 306 pix_movement 0.5;
#X obj 631 281 / 100;
#X obj 533 306 tgl 15 0 empty renderinit empty 17 7 0 10 -262144 -1
-1 1 1;
#X obj 556 421 alpha;
#X connect 0 0 6 0;
#X connect 1 0 6 0;
#X connect 2 0 6 0;
#X connect 3 0 6 0;
#X connect 4 0 5 0;
#X connect 7 0 13 0;
#X connect 8 0 17 0;
#X connect 9 0 7 0;
#X connect 10 0 13 0;
#X connect 11 0 10 0;
#X connect 12 0 11 0;
#X connect 13 0 22 0;
#X connect 13 2 29 0;
#X connect 14 0 13 0;
#X connect 15 0 13 0;
#X connect 16 0 15 0;
#X connect 18 0 22 1;
#X connect 19 0 22 2;
#X connect 20 0 22 3;
#X connect 21 0 22 4;
#X connect 22 0 30 0;
#X connect 23 0 22 5;
#X connect 24 0 18 0;
#X connect 24 1 19 0;
#X connect 24 2 20 0;
#X connect 24 3 21 0;
#X connect 24 4 23 0;
#X connect 25 0 24 0;
#X connect 26 0 22 0;
#X connect 27 0 22 0;
#X connect 28 0 22 0;
#X connect 29 0 13 1;
#X connect 30 0 35 0;
#X connect 31 0 30 0;
#X connect 32 0 30 0;
#X connect 33 0 32 0;
#X connect 34 0 30 0;
#X connect 35 0 40 0;
#X connect 36 0 35 0;
#X connect 37 0 38 0;
#X connect 38 0 35 1;
#X connect 39 0 41 0;
#X connect 40 0 43 0;
#X connect 41 0 40 1;
#X connect 42 0 40 0;
#X connect 43 0 8 0;
