#N canvas 660 35 459 498 10;
#X obj 30 80 gemwin;
#X obj 147 19 gemhead;
#X obj 285 458 teapot;
#X obj 285 152 translateXYZ;
#X obj 285 212 rotateXYZ;
#X obj 285 291 scaleXYZ;
#X floatatom 308 97 5 0 0 0 - - -;
#X floatatom 353 97 5 0 0 0 - - -;
#X floatatom 399 96 5 0 0 0 - - -;
#X floatatom 302 182 5 0 0 0 - - -;
#X floatatom 344 183 5 0 0 0 - - -;
#X floatatom 387 184 5 0 0 0 - - -;
#X obj 308 121 / 100;
#X obj 353 121 / 100;
#X obj 399 121 / 100;
#X floatatom 300 238 5 0 0 0 - - -;
#X floatatom 345 238 5 0 0 0 - - -;
#X floatatom 391 237 5 0 0 0 - - -;
#X obj 300 262 / 100;
#X obj 345 262 / 100;
#X obj 391 262 / 100;
#X floatatom 317 320 5 0 0 0 - - -;
#X floatatom 361 320 5 0 0 0 - - -;
#X floatatom 406 319 5 0 0 0 - - -;
#X obj 317 344 / 100;
#X obj 361 343 / 100;
#X obj 406 344 / 100;
#X msg 30 49 reset \, create \, 1;
#X msg 336 424 draw line;
#X msg 336 401 draw fill;
#X obj 147 72 separator;
#X obj 285 72 separator;
#X obj 147 101 rotateXYZ -45 45 0;
#X obj 147 130 world_light;
#X msg 13 24 lighting 1;
#X obj 285 375 diffuseRGB 0.5 0.5 0.5;
#X text 71 374 use color if there is no lighting;
#X connect 1 0 31 0;
#X connect 1 0 30 0;
#X connect 3 0 4 0;
#X connect 4 0 5 0;
#X connect 5 0 35 0;
#X connect 6 0 12 0;
#X connect 7 0 13 0;
#X connect 8 0 14 0;
#X connect 9 0 4 1;
#X connect 10 0 4 2;
#X connect 11 0 4 3;
#X connect 12 0 3 1;
#X connect 13 0 3 2;
#X connect 14 0 3 3;
#X connect 15 0 18 0;
#X connect 16 0 19 0;
#X connect 17 0 20 0;
#X connect 18 0 5 1;
#X connect 19 0 5 2;
#X connect 20 0 5 3;
#X connect 21 0 24 0;
#X connect 22 0 25 0;
#X connect 23 0 26 0;
#X connect 24 0 35 1;
#X connect 25 0 35 2;
#X connect 26 0 35 3;
#X connect 27 0 0 0;
#X connect 28 0 2 0;
#X connect 29 0 2 0;
#X connect 30 0 32 0;
#X connect 31 0 3 0;
#X connect 32 0 33 0;
#X connect 34 0 0 0;
#X connect 35 0 2 0;
