#N canvas 574 97 447 494 10;
#X obj 22 51 gemwin;
#X msg 22 23 reset \, create \, 1;
#X obj 23 87 gemhead;
#X obj 23 138 separator;
#X obj 23 427 cube;
#X obj 23 193 alpha;
#X obj 23 165 color 1 0 0 0.25;
#X obj 184 138 separator;
#X obj 184 402 cube;
#X obj 184 193 alpha;
#X msg 202 374 draw line;
#X obj 184 347 rotateXYZ;
#X obj 23 347 translateXYZ;
#X obj 184 165 color 0 1 0 0.25;
#X text 40 454 translation;
#X text 191 455 rotation;
#X obj 313 138 separator;
#X obj 313 402 cube;
#X obj 313 193 alpha;
#X floatatom 358 311 5 0 0 0 - - -;
#X msg 331 374 draw line;
#X obj 313 165 color 0 0 1 0.25;
#X obj 313 345 scaleXYZ;
#X obj 358 207 random 2000;
#X obj 358 232 / 1000;
#X text 341 454 scale;
#X obj 78 217 pack 0 1000;
#X obj 78 242 line;
#X obj 78 193 random 4000;
#X obj 78 266 / 1000;
#X obj 78 290 - 2;
#X floatatom 78 316 5 0 0 0 - - -;
#X obj 201 232 random 360;
#X obj 201 257 pack 0 1000;
#X obj 201 283 line;
#X floatatom 201 307 5 0 0 0 - - -;
#X obj 358 258 pack 0 1000;
#X obj 358 284 line;
#X obj 95 53 tgl 15 0 empty empty empty 17 7 0 10 -262144 -1 -1 1 1
;
#X msg 41 374 draw line;
#X msg 40 397 width 10;
#X obj 95 77 metro 800;
#X connect 1 0 0 0;
#X connect 2 0 3 0;
#X connect 2 0 7 0;
#X connect 2 0 16 0;
#X connect 3 0 6 0;
#X connect 5 0 12 0;
#X connect 6 0 5 0;
#X connect 7 0 13 0;
#X connect 9 0 11 0;
#X connect 10 0 8 0;
#X connect 11 0 8 0;
#X connect 12 0 4 0;
#X connect 13 0 9 0;
#X connect 16 0 21 0;
#X connect 18 0 22 0;
#X connect 19 0 22 1;
#X connect 19 0 22 2;
#X connect 19 0 22 3;
#X connect 20 0 17 0;
#X connect 21 0 18 0;
#X connect 22 0 17 0;
#X connect 23 0 24 0;
#X connect 24 0 36 0;
#X connect 26 0 27 0;
#X connect 27 0 29 0;
#X connect 28 0 26 0;
#X connect 29 0 30 0;
#X connect 30 0 31 0;
#X connect 31 0 12 1;
#X connect 31 0 12 2;
#X connect 31 0 12 3;
#X connect 32 0 33 0;
#X connect 33 0 34 0;
#X connect 34 0 35 0;
#X connect 35 0 11 3;
#X connect 35 0 11 2;
#X connect 35 0 11 1;
#X connect 36 0 37 0;
#X connect 37 0 19 0;
#X connect 38 0 41 0;
#X connect 39 0 4 0;
#X connect 40 0 4 0;
#X connect 41 0 28 0;
#X connect 41 0 32 0;
#X connect 41 0 23 0;
