#N canvas 46 100 356 451 10;
#X obj 19 42 gemwin;
#X msg 19 16 reset \, create \, 1;
#X obj 161 17 gemhead;
#X obj 188 100 f;
#X obj 221 100 + 1;
#X obj 161 225 translateXYZ;
#X obj 161 71 t a b;
#X obj 161 125 separator;
#X obj 161 43 repeat 20;
#X obj 254 99 % 20;
#X msg 209 378 draw line;
#X msg 210 354 draw fill;
#X obj 296 2 vsl 15 128 0 1 0 0 empty empty empty 0 -8 0 8 -262144
-1 -1 0 1;
#X obj 184 158 *;
#X obj 184 187 - 3;
#X obj 215 187 - 3;
#X obj 250 274 pack 0 1 1;
#X obj 250 301 hsv2rgb;
#X obj 161 330 color;
#X obj 250 248 /;
#X floatatom 265 221 5 0 0 0 - - -;
#X obj 265 166 loadbang;
#X msg 265 194 6;
#X obj 161 404 cube 0.5;
#X connect 1 0 0 0;
#X connect 2 0 8 0;
#X connect 3 0 4 0;
#X connect 4 0 9 0;
#X connect 5 0 18 0;
#X connect 6 0 7 0;
#X connect 6 1 3 0;
#X connect 7 0 5 0;
#X connect 8 0 6 0;
#X connect 9 0 3 1;
#X connect 9 0 13 0;
#X connect 9 0 15 0;
#X connect 10 0 23 0;
#X connect 11 0 23 0;
#X connect 12 0 13 1;
#X connect 13 0 14 0;
#X connect 13 0 19 0;
#X connect 14 0 5 1;
#X connect 15 0 5 2;
#X connect 16 0 17 0;
#X connect 17 0 18 1;
#X connect 18 0 23 0;
#X connect 19 0 16 0;
#X connect 20 0 19 1;
#X connect 21 0 22 0;
#X connect 22 0 20 0;
