#N canvas 89 87 595 653 10;
#X obj 19 42 gemwin;
#X msg 19 16 reset \, create \, 1;
#X obj 161 17 gemhead;
#X obj 188 100 f;
#X obj 221 100 + 1;
#X obj 161 391 translateXYZ;
#X obj 161 71 t a b;
#X obj 202 280 sin;
#X obj 202 150 timer;
#X obj 161 125 separator;
#X obj 247 280 cos;
#X obj 202 308 *;
#X obj 247 308 *;
#X obj 202 251 +;
#X obj 217 227 *;
#X obj 202 178 / 5000;
#X obj 232 202 sin;
#X obj 202 338 * 0.1;
#X obj 247 338 * 0.1;
#X obj 161 43 repeat 20;
#X obj 254 99 % 20;
#X obj 292 307 *;
#X obj 161 453 rotateXYZ;
#X obj 178 421 * 30;
#X obj 214 421 * 45;
#X obj 161 551 color;
#X obj 161 524 alpha;
#X obj 260 511 hsv2rgb;
#X obj 161 618 cube 0.5;
#X msg 209 592 draw line;
#X obj 358 283 pix_snap2tex;
#X msg 403 259 0 0;
#X msg 449 258 500 500;
#X obj 403 236 t b b;
#X obj 358 243 t b a;
#X obj 358 321 alpha;
#X floatatom 531 311 5 0 0 0 - - -;
#X obj 358 389 square 4;
#X obj 536 163 vsl 15 128 0 1 0 0 empty empty empty 0 -8 0 8 -262144
-1 -1 11400 1;
#X obj 358 345 colorRGB 1 1 1 0.888;
#X obj 403 217 loadbang;
#X msg 210 568 draw fill;
#X obj 188 502 tgl 15 0 empty empty empty 17 7 0 10 -262144 -1 -1 1
1;
#X obj 292 281 tan;
#X obj 250 421 * 15;
#X obj 292 337 * 0.1;
#X obj 260 483 pack 0 1 1 0.5;
#X text 410 420 motion blur;
#X obj 188 478 loadbang;
#X msg 378 70 lighting \$1;
#X obj 383 38 tgl 15 0 empty empty empty 17 7 0 10 -262144 -1 -1 1
1;
#X obj 449 32 world_light;
#X obj 448 6 gemhead;
#X obj 103 578 scaleXYZ;
#X floatatom 125 518 5 0 0 0 - - -;
#X floatatom 81 453 5 0 0 0 - - -;
#X connect 1 0 0 0;
#X connect 2 0 19 0;
#X connect 3 0 4 0;
#X connect 4 0 20 0;
#X connect 5 0 22 0;
#X connect 6 0 9 0;
#X connect 6 1 3 0;
#X connect 6 1 8 1;
#X connect 7 0 11 0;
#X connect 8 0 15 0;
#X connect 9 0 5 0;
#X connect 10 0 12 0;
#X connect 11 0 17 0;
#X connect 12 0 18 0;
#X connect 13 0 7 0;
#X connect 13 0 10 0;
#X connect 13 0 43 0;
#X connect 14 0 13 1;
#X connect 15 0 13 0;
#X connect 15 0 16 0;
#X connect 16 0 14 1;
#X connect 17 0 5 1;
#X connect 17 0 23 0;
#X connect 17 0 46 0;
#X connect 18 0 5 2;
#X connect 18 0 24 0;
#X connect 19 0 6 0;
#X connect 20 0 3 1;
#X connect 20 0 12 1;
#X connect 20 0 11 1;
#X connect 20 0 14 0;
#X connect 20 0 21 1;
#X connect 21 0 45 0;
#X connect 22 0 26 0;
#X connect 23 0 22 1;
#X connect 24 0 22 2;
#X connect 25 0 53 0;
#X connect 26 0 25 0;
#X connect 27 0 25 1;
#X connect 29 0 28 0;
#X connect 30 0 35 0;
#X connect 31 0 30 1;
#X connect 32 0 30 2;
#X connect 33 0 31 0;
#X connect 33 1 32 0;
#X connect 34 0 30 0;
#X connect 34 1 30 0;
#X connect 35 0 39 0;
#X connect 36 0 39 4;
#X connect 38 0 36 0;
#X connect 39 0 37 0;
#X connect 40 0 33 0;
#X connect 41 0 28 0;
#X connect 42 0 26 1;
#X connect 43 0 21 0;
#X connect 44 0 22 3;
#X connect 45 0 5 3;
#X connect 45 0 44 0;
#X connect 46 0 27 0;
#X connect 48 0 42 0;
#X connect 49 0 0 0;
#X connect 50 0 49 0;
#X connect 52 0 51 0;
#X connect 53 0 28 0;
#X connect 54 0 53 2;
#X connect 55 0 53 1;
