#N canvas 352 119 518 201 10;
#X obj 57 150 gemwin;
#X obj 201 43 gemmouse;
#X obj 223 116 s gemwin_mess;
#X obj 223 67 del 100;
#X msg 223 91 destroy;
#X text 192 142 press the left-mouse-button to kill the gem-window
;
#X obj 79 112 r gemwin_mess;
#X msg 57 16 fullscreen 1 \, menubar 0 \, cursor 1 \, create \, 1;
#X connect 1 2 3 0;
#X connect 3 0 4 0;
#X connect 4 0 2 0;
#X connect 6 0 0 0;
#X connect 7 0 0 0;
