#N canvas 489 527 325 151 10;
#N canvas 0 25 1343 632 moteur 0;
#X obj 1064 128 gemwin;
#X msg 1147 111 0 \, destroy;
#X obj 224 238 rectangle 5.33 4;
#X obj 197 132 pix_texture;
#X obj 182 391 pix_data;
#X obj 91 521 unpack 0 0 0;
#X obj 197 159 t a a;
#X obj -83 681 colorRGB;
#X obj 182 -130 t b b;
#X obj 197 94 pix_video;
#X obj 204 599 list append 0 8;
#X obj -83 717 square 0.1;
#X obj 12 480 r gemY;
#X obj -73 480 r gemX;
#X obj -83 610 square 0.13;
#X obj 30 406 curve 2;
#X obj 69 314 r gemX;
#X obj -83 -111 gemhead 1;
#X msg 49 351 \$1 8 0;
#X msg 69 375 \$1 0 0;
#X obj 923 298 s reset;
#X obj 709 65 bng 15 250 50 0 empty empty empty 17 7 0 10 -262144 -1
-1;
#X obj 182 -200 r start;
#X obj 989 55 s start;
#X obj 709 40 tgl 15 0 empty empty empty 17 7 0 10 -262144 -1 -1 0
1;
#X obj 291 491 r reset;
#X msg 291 522 0 8;
#X obj 709 15 tgl 15 0 empty empty empty 17 7 0 10 -262144 -1 -1 1
1;
#X obj 1064 30 sel 1 0;
#X text 733 15 fenetre;
#X text 734 38 start;
#X text 734 63 reset;
#X obj 709 -27 init 1;
#X obj -48 388 r reset;
#X msg -48 440 0;
#X msg -13 440 8;
#X obj 788 -58 key;
#X obj 839 -58 gemkeyboard;
#X obj 788 -31 sel 27;
#X obj 839 -31 sel 9;
#N canvas 0 25 1364 653 cine-strip 0;
#X obj 73 -248 tgl 15 0 empty empty empty 17 7 0 10 -262144 -1 -1 1
1;
#X obj 73 -193 gemhead;
#X obj 73 -38 translateXYZ;
#X obj 73 143 colorRGB;
#X obj 73 -217 metro 10;
#X obj 73 285 pix_texture;
#X obj 96 -81 r trans-X;
#X obj 119 -62 r trans-Y;
#X obj 73 170 alpha;
#X obj 314 327 / 480;
#X obj 314 237 loadbang;
#X obj 373 344 s X;
#X obj 225 -167 t a b;
#X msg 314 285 8;
#X obj 225 -103 unpack f f f f f;
#X obj 294 12 s trans-X;
#X obj 318 -52 s trans-Y;
#X obj 73 344 square 0.01;
#X obj 73 -274 init 1;
#X obj 225 -219 inlet;
#X obj 294 -18 - 11;
#X obj 276 -164 r reset;
#X msg 276 -133 0;
#X msg 344 -147 8;
#X connect 0 0 4 0;
#X connect 1 0 2 0;
#X connect 2 0 3 0;
#X connect 3 0 8 0;
#X connect 4 0 1 0;
#X connect 5 0 17 0;
#X connect 6 0 2 1;
#X connect 7 0 2 2;
#X connect 8 0 5 0;
#X connect 9 0 11 0;
#X connect 9 0 17 1;
#X connect 10 0 13 0;
#X connect 12 0 14 0;
#X connect 13 0 9 0;
#X connect 14 0 3 1;
#X connect 14 1 3 2;
#X connect 14 2 3 3;
#X connect 14 3 20 0;
#X connect 14 4 16 0;
#X connect 18 0 0 0;
#X connect 19 0 12 0;
#X connect 20 0 15 0;
#X connect 21 0 22 0;
#X connect 21 0 23 0;
#X connect 22 0 20 0;
#X connect 23 0 16 0;
#X restore 204 625 pd cine-strip;
#X obj 212 346 r cap-X;
#X obj 227 368 r cap-Y;
#X obj -83 -173 tgl 15 0 empty empty empty 17 7 0 10 -262144 -1 -1
1 1;
#X obj -83 -205 init 1;
#X obj 197 5 pix_separator;
#X obj -83 189 pix_separator;
#X obj 30 99 pix_separator;
#X obj -83 166 separator;
#X obj 197 -18 separator;
#X obj 30 76 separator;
#X obj 182 -164 metro 5;
#X obj -83 576 colorRGB 1 0 0 0;
#X obj -40 293 bng 15 250 50 0 empty empty empty 17 7 0 10 -262144
-1 -1;
#X obj -40 319 init width 2;
#X obj 224 205 translateXYZ 5.33 4 0;
#X obj 580 48 loadbang;
#X obj -83 522 translateXYZ 0 8 0;
#X obj -83 114 t a a;
#X obj -258 387 pix_separator;
#X obj -258 360 separator;
#X obj -258 468 rectangle 0.1 4;
#X obj -258 414 translateXYZ -0.1 4 0;
#X obj -258 441 color 0 0 0;
#X obj -213 216 sel 9;
#X msg -213 243 0;
#X obj -258 333 spigot 1;
#X obj -213 185 r X-limite-cache;
#X text 894 431 cache noir pour effacer le quevillonnage;
#X obj -177 290 r reset;
#X msg -177 316 1;
#X text -259 487 gere les traces du curseur;
#X text -259 501 sur le quevillonnnage;
#X text -171 605 Curseur rouge;
#X text -205 677 Couleur remplissant;
#X text -152 690 le curseur;
#X obj 580 5 r reset-up;
#X obj 709 90 vradio 15 1 0 2 empty empty empty 0 -8 0 10 -262144 -1
-1 0;
#X text 734 88 webcam 1;
#X text 734 104 webcam 2;
#X obj 656 126 init 0;
#X obj 709 143 s n-cam;
#X msg 216 58 device \$1;
#X obj 216 30 r n-cam;
#X obj -83 -60 spigot 1;
#X obj -38 -87 r curseur-1-0;
#X obj 30 164 color 1 0 0;
#X obj -83 -35 t a a a;
#N canvas 83 211 643 557 shot 0;
#X obj 118 415 pix_write;
#X msg 345 364 0 0;
#X obj 118 221 pix_snap2tex;
#X msg 173 247 auto 0;
#X obj 345 230 loadbang;
#X msg 496 398 1280 480;
#X obj 118 144 t b b;
#X obj 224 283 getdir;
#X msg 224 340 file \$1 100;
#X obj 118 189 gemhead -100;
#X obj 118 88 inlet;
#X obj 224 310 makesymbol %s/photos/;
#X connect 1 0 0 1;
#X connect 2 0 0 0;
#X connect 3 0 0 0;
#X connect 4 0 1 0;
#X connect 4 0 3 0;
#X connect 4 0 5 0;
#X connect 4 0 7 0;
#X connect 5 0 0 2;
#X connect 6 0 9 0;
#X connect 6 1 0 0;
#X connect 7 0 11 0;
#X connect 8 0 0 0;
#X connect 9 0 2 0;
#X connect 10 0 6 0;
#X connect 11 0 8 0;
#X restore 1094 727 pd shot;
#X obj 1128 850 s curseur-1-0;
#X msg 1009 833 1;
#X msg 1128 782 0;
#X obj 1111 700 s b-gem;
#X obj 1077 664 t b b b b;
#X obj 197 -53 gemhead 1;
#X obj 197 -83 r b-gem;
#X obj 1009 805 del 100;
#X obj 1077 509 key;
#X obj 1128 509 gemkeyboard;
#X obj 1077 536 sel 32;
#X obj 1128 536 sel 65;
#X obj 1077 604 b;
#X obj 1077 630 del 3000;
#X obj 1036 988 rectangle 5.33 4;
#X obj 1036 903 gemhead;
#X obj 1036 928 color 1 0 0;
#X obj 1009 749 t b b;
#X obj 1036 955 translateXYZ 5.33 4 0;
#X obj -83 -138 metro 40;
#X obj 1057 858 bng 15 250 50 0 empty empty empty 17 7 0 10 -262144
-1 -1;
#X text 1034 1008 cache rouge d'indicateur de photo;
#X obj 338 -380 r tps;
#X obj 815 25 vradio 15 1 0 6 tps empty empty 0 -8 0 10 -262144 -1
-1 1;
#X text 829 5 Toutes les...;
#X text 837 25 5 ms --> 26 min;
#X text 836 39 11 ms --> ~ 1 h;
#X text 837 53 23 ms --> ~ 2 h;
#X text 837 68 70 ms --> ~ 6 H;
#X text 838 85 140 ms --> ~ 12 H;
#X text 838 102 280 ms --> ~ 24 H;
#X obj 338 -341 sel 0 1 2 3 4 5;
#X msg 338 -181 5;
#X msg 352 -201 11;
#X msg 367 -225 23;
#X msg 381 -245 70;
#X msg 396 -269 140;
#X obj 815 -125 init 1;
#X msg 410 -289 280;
#X obj 896 267 t b b;
#X obj 896 326 gemhead 100;
#X obj 896 351 color 0 0 0;
#X obj 858 290 bng 15 250 50 0 empty empty empty 17 7 0 10 -262144
-1 -1;
#X msg 94 274 0 \$1 0;
#X msg 113 298 10.66 \$1 0;
#X obj 94 237 r gemY;
#X floatatom 557 336 5 0 0 0 - - -;
#X obj 530 260 expr 1 - ($f1 / 480);
#X obj 482 464 expr $f1 * 10.66 / 640;
#X obj 497 582 pack f f;
#X obj 557 354 expr 8 - $f1 * 8 / 480;
#X obj 559 170 r reset;
#X obj 513 -155 r reset;
#X obj 530 289 s cap-Y;
#X obj 455 440 s cap-X;
#X obj 530 231 t f f;
#X obj 530 206 counter;
#X obj 455 332 t f f;
#X floatatom 620 735 5 0 0 0 - - -;
#X floatatom 581 735 5 0 0 0 - - -;
#X obj 584 682 unpack;
#X obj 497 665 spigot;
#X obj 530 650 tgl 10 0 empty empty empty 17 7 0 10 -262144 -1 -1 0
1;
#X text 580 729 X;
#X text 620 729 Y;
#X obj 497 496 s gemX;
#X obj 573 387 s gemY;
#X obj 750 484 del 1000;
#N canvas 83 211 643 557 shot 0;
#X obj 118 415 pix_write;
#X msg 345 364 0 0;
#X obj 118 221 pix_snap2tex;
#X msg 173 247 auto 0;
#X obj 345 230 loadbang;
#X msg 496 398 1280 480;
#X obj 118 144 t b b;
#X obj 224 283 getdir;
#X msg 224 340 file \$1 100;
#X obj 118 189 gemhead -100;
#X obj 118 88 inlet;
#X obj 224 310 makesymbol %s/pix/;
#X connect 1 0 0 1;
#X connect 2 0 0 0;
#X connect 3 0 0 0;
#X connect 4 0 1 0;
#X connect 4 0 3 0;
#X connect 4 0 5 0;
#X connect 4 0 7 0;
#X connect 5 0 0 2;
#X connect 6 0 9 0;
#X connect 6 1 0 0;
#X connect 7 0 11 0;
#X connect 8 0 0 0;
#X connect 9 0 2 0;
#X connect 10 0 6 0;
#X connect 11 0 8 0;
#X restore 767 456 pd shot;
#X obj 686 501 t b b;
#X obj 801 644 s curseur-1-0;
#X msg 713 539 1;
#X msg 801 551 0;
#X obj 686 630 s reset-up;
#X obj 784 426 s b-gem;
#X obj 750 390 t b b b b;
#X obj 750 352 sel 481;
#X obj 542 547 f;
#X obj 482 530 t f b;
#X obj 476 -113 counter 1 640;
#X msg 1064 82 border 1 \, buffer 1 \, dimen 1300 480 \, offset 33
10 \, view -0.17 4 4 \, create \, 1;
#X obj 896 411 rectangle 5.4 4;
#X obj 557 312 + 1;
#X obj 896 378 translateXYZ -5.62 4 0;
#X obj 455 413 expr ($f1 / 640)-0.001;
#X obj 530 71 once;
#X obj 428 -48 t b f;
#N canvas 83 211 643 557 shotII 0;
#X obj 118 415 pix_write;
#X msg 345 364 0 0;
#X obj 118 221 pix_snap2tex;
#X msg 173 247 auto 0;
#X obj 345 230 loadbang;
#X obj 118 144 t b b;
#X obj 224 283 getdir;
#X msg 224 340 file \$1 100;
#X obj 118 189 gemhead -100;
#X obj 118 88 inlet;
#X msg 496 398 640 480;
#X obj 224 310 makesymbol %s/pix/crop-;
#X connect 1 0 0 1;
#X connect 2 0 0 0;
#X connect 3 0 0 0;
#X connect 4 0 1 0;
#X connect 4 0 3 0;
#X connect 4 0 10 0;
#X connect 4 0 6 0;
#X connect 5 0 8 0;
#X connect 5 1 0 0;
#X connect 6 0 11 0;
#X connect 7 0 0 0;
#X connect 8 0 2 0;
#X connect 9 0 5 0;
#X connect 10 0 0 2;
#X connect 11 0 7 0;
#X restore 816 456 pd shotII;
#X connect 1 0 0 0;
#X connect 3 0 6 0;
#X connect 4 1 5 0;
#X connect 4 1 10 0;
#X connect 5 0 7 1;
#X connect 5 1 7 2;
#X connect 5 2 7 3;
#X connect 6 0 4 1;
#X connect 6 1 55 0;
#X connect 7 0 11 0;
#X connect 8 0 4 0;
#X connect 8 1 168 0;
#X connect 9 0 3 0;
#X connect 10 0 40 0;
#X connect 12 0 57 2;
#X connect 13 0 57 1;
#X connect 14 0 7 0;
#X connect 16 0 18 0;
#X connect 16 0 19 0;
#X connect 17 0 84 0;
#X connect 21 0 128 0;
#X connect 22 0 51 0;
#X connect 24 0 23 0;
#X connect 25 0 26 0;
#X connect 26 0 10 1;
#X connect 27 0 28 0;
#X connect 28 0 169 0;
#X connect 28 1 1 0;
#X connect 32 0 27 0;
#X connect 33 0 34 0;
#X connect 33 0 35 0;
#X connect 34 0 57 1;
#X connect 35 0 57 2;
#X connect 36 0 38 0;
#X connect 37 0 39 0;
#X connect 38 0 27 0;
#X connect 39 0 27 0;
#X connect 41 0 4 2;
#X connect 42 0 4 3;
#X connect 43 0 108 0;
#X connect 44 0 43 0;
#X connect 45 0 9 0;
#X connect 46 0 57 0;
#X connect 47 0 86 0;
#X connect 48 0 46 0;
#X connect 49 0 45 0;
#X connect 50 0 47 0;
#X connect 51 0 8 0;
#X connect 52 0 14 0;
#X connect 53 0 54 0;
#X connect 54 0 15 0;
#X connect 55 0 2 0;
#X connect 56 0 21 0;
#X connect 57 0 52 0;
#X connect 58 0 48 0;
#X connect 58 1 66 0;
#X connect 59 0 62 0;
#X connect 60 0 59 0;
#X connect 62 0 63 0;
#X connect 63 0 61 0;
#X connect 64 0 65 0;
#X connect 65 0 66 1;
#X connect 66 0 60 0;
#X connect 67 0 64 0;
#X connect 69 0 70 0;
#X connect 70 0 66 1;
#X connect 76 0 21 0;
#X connect 77 0 81 0;
#X connect 80 0 77 0;
#X connect 82 0 9 0;
#X connect 83 0 82 0;
#X connect 84 0 87 0;
#X connect 85 0 84 1;
#X connect 86 0 15 0;
#X connect 87 0 58 0;
#X connect 87 1 50 0;
#X connect 87 2 49 0;
#X connect 90 0 89 0;
#X connect 91 0 89 0;
#X connect 93 0 106 0;
#X connect 93 1 88 0;
#X connect 93 2 92 0;
#X connect 93 3 91 0;
#X connect 94 0 49 0;
#X connect 95 0 94 0;
#X connect 96 0 90 0;
#X connect 97 0 99 0;
#X connect 98 0 100 0;
#X connect 99 0 101 0;
#X connect 100 0 101 0;
#X connect 101 0 102 0;
#X connect 102 0 93 0;
#X connect 104 0 105 0;
#X connect 105 0 107 0;
#X connect 106 0 96 0;
#X connect 106 1 104 0;
#X connect 107 0 103 0;
#X connect 108 0 17 0;
#X connect 109 0 104 0;
#X connect 111 0 120 0;
#X connect 120 0 121 0;
#X connect 120 1 122 0;
#X connect 120 2 123 0;
#X connect 120 3 124 0;
#X connect 120 4 125 0;
#X connect 120 5 127 0;
#X connect 121 0 51 1;
#X connect 122 0 51 1;
#X connect 123 0 51 1;
#X connect 124 0 51 1;
#X connect 125 0 51 1;
#X connect 126 0 112 0;
#X connect 127 0 51 1;
#X connect 128 0 129 0;
#X connect 128 1 20 0;
#X connect 129 0 130 0;
#X connect 130 0 172 0;
#X connect 131 0 129 0;
#X connect 132 0 15 1;
#X connect 133 0 15 2;
#X connect 134 0 132 0;
#X connect 134 0 133 0;
#X connect 135 0 139 0;
#X connect 135 0 165 0;
#X connect 136 0 142 0;
#X connect 137 0 154 0;
#X connect 137 0 167 0;
#X connect 138 0 150 0;
#X connect 138 0 10 1;
#X connect 139 0 155 0;
#X connect 139 0 166 1;
#X connect 140 0 145 3;
#X connect 141 0 168 2;
#X connect 144 0 136 0;
#X connect 144 1 171 0;
#X connect 145 0 144 0;
#X connect 146 0 173 0;
#X connect 146 1 137 0;
#X connect 149 0 147 0;
#X connect 149 1 148 0;
#X connect 150 0 149 0;
#X connect 151 0 150 1;
#X connect 156 0 158 0;
#X connect 158 0 162 0;
#X connect 158 1 160 0;
#X connect 160 0 159 0;
#X connect 161 0 159 0;
#X connect 164 0 156 0;
#X connect 164 1 157 0;
#X connect 164 1 176 0;
#X connect 164 2 163 0;
#X connect 164 3 161 0;
#X connect 165 0 164 0;
#X connect 166 0 138 1;
#X connect 167 0 138 0;
#X connect 167 1 166 0;
#X connect 168 0 175 0;
#X connect 168 3 174 1;
#X connect 169 0 0 0;
#X connect 171 0 135 0;
#X connect 172 0 170 0;
#X connect 173 0 143 0;
#X connect 174 0 145 0;
#X connect 175 0 174 0;
#X connect 175 1 146 0;
#X coords 0 -1 1 1 250 130 2 700 0;
#X restore 35 11 pd moteur;
