#N canvas 0 0 450 453 10;
#X obj 255 172 pix_texture;
#X obj 255 146 pix_delay;
#X msg 183 156 texunit \$1;
#X obj 183 -31 loadbang;
#X obj 183 7 \$1;
#X obj 255 22 inlet;
#X obj 255 238 outlet;
#X connect 0 0 6 0;
#X connect 1 0 0 0;
#X connect 2 0 0 0;
#X connect 3 0 4 0;
#X connect 4 0 2 0;
#X connect 4 0 1 1;
#X connect 5 0 1 0;
