#N canvas 145 -13 905 630 10;
#X text 11 7 There are two ways to send data over a network. [netsend]
and [netreceive] are native to PD. The OSC objects are an external
library.;
#X obj 19 266 netsend;
#X msg 28 244 send foo \$1;
#X floatatom 28 217 0 0 0 0 - - -;
#X msg 19 185 disconnect;
#X msg 289 238 send foo \$1;
#X floatatom 289 211 0 0 0 0 - - -;
#X msg 272 185 disconnect;
#X obj 272 263 netsend 1;
#X msg 272 104 connect localhost 3001;
#X floatatom 19 293 0 0 0 0 - - -;
#X floatatom 272 290 0 0 0 0 - - -;
#X text 363 263 creation argument: 0 or none for TCP \, nonzero for
UDP;
#X text 70 83 TCP;
#X text 347 80 UDP;
#X text 377 186 Close the connection;
#X text 329 213 Send messages to "foo" on remote machine;
#X text 14 314 Outlet is nonzero if connection is open \, zero otherwise.
;
#X msg 272 131 connect molloy 3001;
#X text 18 62 NETSEND;
#X floatatom 132 470 0 0 0 0 - - -;
#X obj 18 531 netreceive 3001 1;
#X text 180 530 <-- UDP \, port 3001;
#X text 154 471 <--- number of open connections;
#X text 15 498 incoming messages;
#X obj 18 470 print tcp;
#X obj 18 559 print udp;
#X text 24 352 NETRECEIVE;
#X obj 18 440 netreceive 3002 0;
#X msg 19 104 connect localhost 3002;
#X msg 19 131 connect molloy 3002;
#X text 16 387 First argument: portnumber = 3002;
#X text 17 408 Second argument: 0 or none for TCP \, nonzero for UDP
;
#X text 432 315 The Netsend object connects to another machine over
the network for sending TCP ("stream") or UDP ("datagram") messages.
An outlet reports whether the connection is open or not. A connection
request should specify the name or IP address of the other host and
the port number. There should be a "Netreceive" on the remote host
with a matching port number.;
#X text 429 425 The Netreceive object opens a socket for TCP ("stream")
or UDP ("datagram") network reception on a specified port. If using
TCP \, an outlet gives you the number of Netsend objects (or other
compatible clients) have opened connections here.;
#X text 427 506 Incoming network messages appear on "receive" objects
\; it's up to the sender to select which one. Here \, a "receive foo"
fields messages sent from the Netsend help window \, q.v.;
#X text 486 586 Adapted from PD documentation.;
#X text 486 570 Updated for Pd version 0.33;
#X text 667 608 derek@umatic.nl;
#X text 479 102 Connect to "localhost" port 3002/3001;
#X msg 19 158 connect 192.168.1.165 3002;
#X msg 272 158 connect 192.168.1.165 3000;
#X text 180 439 <-- TCP \, port 3002;
#X connect 1 0 10 0;
#X connect 2 0 1 0;
#X connect 3 0 2 0;
#X connect 4 0 1 0;
#X connect 5 0 8 0;
#X connect 6 0 5 0;
#X connect 7 0 8 0;
#X connect 8 0 11 0;
#X connect 9 0 8 0;
#X connect 18 0 8 0;
#X connect 21 0 26 0;
#X connect 28 0 25 0;
#X connect 28 1 20 0;
#X connect 29 0 1 0;
#X connect 30 0 1 0;
#X connect 40 0 1 0;
#X connect 41 0 8 0;
