#N canvas 260 96 931 654 10;
#X obj 312 175 #cast f;
#X obj 504 78 f;
#X obj 312 277 #t;
#X msg 374 262 list f # \$1;
#X msg 609 79 0;
#X obj 504 194 +;
#X obj 504 137 div 10;
#X obj 339 268 # *;
#X obj 339 287 # + (2 f #);
#X obj 435 201 #pack 2 f;
#X obj 312 403 spigot;
#X obj 484 388 tgl 15 0 empty empty empty 17 7 0 10 -257985 -1 -1 1
1;
#X obj 312 422 t a a;
#X obj 312 441 #finished;
#X obj 504 479 #cast i;
#X obj 504 460 # + (2 f # 256 256);
#X obj 504 441 # * (2 f # -63 63);
#X obj 510 98 moses 360;
#X obj 435 182 * 500;
#X obj 33 95 tgl 19 0 empty cyl start 22 7 0 7 -4034 -1 -1 0 1;
#X obj 318 81 fps;
#X floatatom 318 100 5 0 0 0 - - -;
#X obj 312 156 #outer + (0 9000);
#X obj 504 175 * 0.1;
#X obj 528 194 * 0.9;
#X obj 312 61 metro 16.6666;
#X obj 484 369 loadbang;
#X obj 504 156 shunt;
#X obj 30 184 tgl 15 0 empty empty ease_in? 17 7 0 7 -262144 -1 -1
0 1;
#X obj 649 152 / 10;
#X obj 634 223 +;
#X obj 649 204 expr (3-2*$f1)*$f1*$f1;
#X obj 504 118 t f f;
#X text 496 209 linear recursive lop;
#X msg 472 150 0;
#X floatatom 593 120 5 0 0 0 - - -;
#X obj 414 296 # cos* (2 f # 3);
#X obj 414 315 # + (2 f # 1);
#X obj 528 78 + 0.1;
#X text 657 222 cubic interpolator;
#X text 652 187 integral of 6x - 6x^2 = 3x^2 - 2x^3;
#X obj 312 137 #for 0 36000 75;
#X obj 649 172 gf/wrap;
#X obj 312 316 # cos* (2 2 f #);
#X obj 313 346 #inner (2 3 f # 1 0 3 1 1 0);
#X floatatom 29 164 4 0 0 1 scrub - -;
#X obj 503 424 #reverse -1;
#X msg 185 280 op ^;
#X msg 101 285 op +;
#X obj 237 319 r \$0-a;
#X obj 123 115 vradio 15 1 0 3 empty empty empty 0 -8 0 10 -257985
-1 -1 0;
#X text 140 116 fill;
#X msg 26 352 draw \$1;
#X obj 243 119 vradio 15 1 0 3 empty empty empty 0 -8 0 10 -257985
-1 -1 2;
#X text 261 119 none;
#X msg 49 437 omit \$1;
#X text 261 134 last;
#X text 261 148 odd;
#X obj 49 418 listread none last odd;
#X obj 26 333 listread fill line point;
#X text 140 130 line;
#X text 140 144 point;
#X obj 26 527 s \$0-a;
#X obj 178 118 vradio 15 1 0 3 empty empty empty 0 -8 0 10 -257985
-1 -1 2;
#X msg 79 527 rule \$1;
#X obj 79 508 listread oddeven winding multi;
#X text 196 118 oddeven;
#X text 196 133 winding;
#X text 196 147 multi;
#X obj 295 511 #draw_polygon put (3 b # 10 200 35);
#X floatatom 30 125 4 0 0 1 for_start - -;
#X obj 377 95 * 200;
#X floatatom 30 144 4 0 0 1 for_end - -;
#X msg 184 359 op *;
#X obj 304 463 #store (512 512 3 b # 1 1 1);
#X obj 120 182 bng 15 250 50 0 empty empty + 17 7 0 10 -262144 -1 -1
;
#X obj 120 166 bng 15 250 50 0 empty empty ^ 17 7 0 10 -262144 -1 -1
;
#X obj 154 182 bng 15 250 50 0 empty empty * 17 7 0 10 -262144 -1 -1
;
#X obj 154 166 bng 15 250 50 0 empty empty - 17 7 0 10 -262144 -1 -1
;
#X msg 224 281 op -;
#X obj 659 335 cnv 15 238 62 empty empty empty 20 12 0 14 -204786 -66577
0;
#X text 662 361 Copyright © 2010 by Mathieu Bouchard;
#X text 665 346 based on Supercycloid:;
#X obj 658 329 cnv 5 239 5 empty empty empty 20 12 0 14 -233017 -66577
0;
#X text 664 381 hacked a bit by a_brooker;
#X obj 178 31 loadbang;
#X msg 178 53 3;
#X obj 291 535 #downscale_by 2 smoothly;
#X obj 290 593 outlet;
#X connect 0 0 2 0;
#X connect 1 0 18 0;
#X connect 1 0 17 0;
#X connect 1 0 32 0;
#X connect 2 0 43 0;
#X connect 2 1 7 0;
#X connect 3 0 7 1;
#X connect 4 0 1 1;
#X connect 5 0 3 0;
#X connect 5 0 24 0;
#X connect 6 0 27 0;
#X connect 7 0 8 0;
#X connect 8 0 36 0;
#X connect 9 0 8 1;
#X connect 10 0 12 0;
#X connect 11 0 10 1;
#X connect 12 0 13 0;
#X connect 12 1 46 0;
#X connect 13 0 74 0;
#X connect 14 0 69 2;
#X connect 15 0 14 0;
#X connect 16 0 15 0;
#X connect 17 0 38 0;
#X connect 17 1 4 0;
#X connect 17 1 35 0;
#X connect 18 0 9 0;
#X connect 19 0 25 0;
#X connect 20 0 21 0;
#X connect 22 0 0 0;
#X connect 23 0 5 0;
#X connect 24 0 5 1;
#X connect 25 0 1 0;
#X connect 25 0 41 0;
#X connect 25 0 20 0;
#X connect 26 0 11 0;
#X connect 27 0 23 0;
#X connect 27 1 30 0;
#X connect 28 0 27 1;
#X connect 29 0 42 0;
#X connect 30 0 3 0;
#X connect 31 0 30 1;
#X connect 32 0 6 0;
#X connect 32 1 29 0;
#X connect 34 0 5 1;
#X connect 36 0 37 0;
#X connect 37 0 43 1;
#X connect 38 0 1 1;
#X connect 41 0 22 0;
#X connect 42 0 31 0;
#X connect 43 0 44 0;
#X connect 44 0 10 0;
#X connect 45 0 18 1;
#X connect 46 0 16 0;
#X connect 47 0 69 0;
#X connect 48 0 69 0;
#X connect 49 0 69 0;
#X connect 50 0 59 0;
#X connect 52 0 62 0;
#X connect 53 0 58 0;
#X connect 55 0 62 0;
#X connect 58 0 55 0;
#X connect 59 0 52 0;
#X connect 63 0 65 0;
#X connect 64 0 62 0;
#X connect 65 0 64 0;
#X connect 69 0 87 0;
#X connect 70 0 71 0;
#X connect 71 0 41 1;
#X connect 72 0 41 2;
#X connect 73 0 69 0;
#X connect 74 0 69 0;
#X connect 75 0 48 0;
#X connect 76 0 47 0;
#X connect 77 0 73 0;
#X connect 78 0 79 0;
#X connect 79 0 69 0;
#X connect 85 0 86 0;
#X connect 86 0 63 0;
#X connect 87 0 88 0;
#X coords 0 -1 1 1 272 134 1 24 75;
