#N canvas 565 144 450 300 10;
#X obj 134 107 snare-wt~;
#X obj 120 142 dac~;
#X obj 142 73 bng 15 250 50 0 empty empty empty 17 7 0 10 -262144 -1
-1;
#X connect 0 0 1 0;
#X connect 0 0 1 1;
#X connect 2 0 0 0;
