#N canvas 0 25 1364 653 10;
#X obj 123 415 *;
#X obj 138 344 sel 0 1;
#X msg 138 371 -1;
#X msg 157 398 -1;
#X obj 156 268 random 2;
#X obj 221 327 random 2;
#X obj 221 186 metro 2000;
#X obj 123 33 inlet;
#X obj 123 463 outlet;
#X obj 123 313 spigot;
#X obj 123 256 *;
#X obj 138 172 / 100;
#X obj 138 120 random 200;
#X obj 350 241 + 1000;
#X obj 350 203 random 2000;
#X obj 138 145 + 50;
#X obj 221 159 r start;
#X connect 0 0 8 0;
#X connect 1 0 2 0;
#X connect 1 1 3 0;
#X connect 2 0 0 1;
#X connect 3 0 0 1;
#X connect 4 0 9 1;
#X connect 5 0 1 0;
#X connect 6 0 4 0;
#X connect 6 0 5 0;
#X connect 6 0 12 0;
#X connect 6 0 14 0;
#X connect 7 0 10 0;
#X connect 9 0 0 0;
#X connect 10 0 9 0;
#X connect 11 0 10 1;
#X connect 12 0 15 0;
#X connect 13 0 6 1;
#X connect 14 0 13 0;
#X connect 15 0 11 0;
#X connect 16 0 6 0;
