#N canvas 501 182 648 660 10;
#X obj 397 2 gemwin;
#X obj 181 -216 gemhead;
#X obj 190 27 expr $f1/10-4;
#X obj 195 -57 tgl 15 0 empty start empty 17 7 0 10 -262144 -1 -1 1
1;
#X obj 181 -263 tgl 15 0 empty start empty 17 7 0 10 -262144 -1 -1
1 1;
#X obj 181 -241 metro 40;
#X obj 190 211 pack f f 0;
#X obj 190 150 t f f;
#X obj 572 -218 tgl 15 0 empty empty empty 17 7 0 10 -262144 -1 -1
1 1;
#X obj 190 182 coord;
#X obj 181 -85 color;
#X msg 292 -102 0 0 0;
#X msg 235 -129 1 1 1;
#X msg 208 -169 1 0 0;
#X obj 258 -213 random 3;
#X obj 258 -186 sel 0 1 2;
#X obj 258 -240 metro 2000;
#X obj 258 -265 tgl 15 0 empty start empty 17 7 0 10 -262144 -1 -1
1 1;
#X obj 31 211 gemhead;
#X obj 31 122 t b b;
#X obj 31 95 metro 5000;
#X obj 31 70 tgl 15 0 empty start empty 17 7 0 10 -262144 -1 -1 1 1
;
#X obj 376 -223 random 2000;
#X obj 376 -196 + 500;
#X obj 76 184 / 2;
#X obj 397 -52 loadbang;
#X obj 269 211 pack f f 0;
#X obj 269 150 t f f;
#X obj 350 210 pack f f 0;
#X obj 350 149 t f f;
#X obj 572 -185 s start;
#N canvas 0 0 340 141 infos 0;
#X text 17 53 http://www.labomedia.net;
#X text 17 18 http://www.yamatierea.org/papatchs;
#X text 18 80 Avec l'aide précieuse de Benjamin Cadon.;
#X text 17 6 Tissé par Olivier Baudu.;
#X text 17 41 Pour le Labomedia.;
#X text 18 108 03/03/11;
#X restore 572 -158 pd infos;
#X obj 375 -13 bng 15 250 50 0 empty empty empty 17 7 0 10 -262144
-1 -1;
#X msg 119 218 width \$1;
#X obj 103 342 square 4;
#X obj 76 157 counter 1 0 10;
#X obj 103 288 sel 0;
#X obj 103 315 gemhead;
#X obj 181 297 curve 4;
#X obj 433 210 pack f f 0;
#X obj 433 149 t f f;
#X obj 190 71 t f f f f;
#X obj 231 181 coord;
#X obj 269 182 coord;
#X obj 310 181 coord;
#X obj 350 181 coord;
#X obj 391 180 coord;
#X obj 433 181 coord;
#X obj 474 180 coord;
#X msg 397 -25 dimen 1152 864 \, buffer 1 \, offset 1366 0 \, border
0 \, color 1 1 1 \, create \, 1;
#X obj 30 240 circle 20;
#X obj 192 -31 metro 10;
#X obj 244 -73 hsl 128 15 0 100 0 0 empty empty empty -2 -8 0 10 -262144
-1 -1 6500 1;
#X floatatom 262 -50 5 0 0 0 - - -;
#X obj 190 -5 counter 2 0 800;
#X connect 1 0 10 0;
#X connect 2 0 41 0;
#X connect 3 0 51 0;
#X connect 4 0 5 0;
#X connect 5 0 1 0;
#X connect 6 0 38 1;
#X connect 7 0 9 0;
#X connect 7 1 42 0;
#X connect 8 0 30 0;
#X connect 9 0 6 0;
#X connect 10 0 38 0;
#X connect 11 0 10 1;
#X connect 12 0 10 1;
#X connect 13 0 10 1;
#X connect 14 0 15 0;
#X connect 15 0 13 0;
#X connect 15 1 12 0;
#X connect 15 2 11 0;
#X connect 16 0 14 0;
#X connect 16 0 22 0;
#X connect 17 0 16 0;
#X connect 18 0 50 0;
#X connect 19 0 18 0;
#X connect 19 1 35 0;
#X connect 20 0 19 0;
#X connect 21 0 20 0;
#X connect 22 0 23 0;
#X connect 23 0 16 1;
#X connect 24 0 50 1;
#X connect 26 0 38 2;
#X connect 27 0 43 0;
#X connect 27 1 44 0;
#X connect 28 0 38 3;
#X connect 29 0 45 0;
#X connect 29 1 46 0;
#X connect 32 0 0 0;
#X connect 33 0 38 0;
#X connect 35 0 24 0;
#X connect 35 1 36 0;
#X connect 36 0 37 0;
#X connect 37 0 34 0;
#X connect 39 0 38 4;
#X connect 40 0 47 0;
#X connect 40 1 48 0;
#X connect 41 0 7 0;
#X connect 41 1 27 0;
#X connect 41 2 29 0;
#X connect 41 3 40 0;
#X connect 42 0 6 1;
#X connect 43 0 26 0;
#X connect 44 0 26 1;
#X connect 45 0 28 0;
#X connect 46 0 28 1;
#X connect 47 0 39 0;
#X connect 48 0 39 1;
#X connect 49 0 0 0;
#X connect 51 0 54 0;
#X connect 52 0 51 1;
#X connect 52 0 53 0;
#X connect 54 0 2 0;
