#N canvas 161 14 710 446 10;
#X obj 18 192 gemwin;
#X msg 51 35 create;
#X msg 65 64 destroy;
#X obj 80 90 tgl 15 0 empty empty empty 0 -6 0 8 -262144 -1 -1 0 1
;
#X obj 239 82 gemhead;
#X obj 239 63 tgl 15 0 empty empty empty 0 -6 0 8 -262144 -1 -1 0 1
;
#X obj 239 380 primTri 12345;
#X obj 239 200 rotateXYZ;
#X obj 239 330 alpha;
#X msg 445 264 0 1 0;
#X msg 417 229 -3 -1 1;
#X msg 430 247 0 3 -1;
#X msg 486 316 0.7 0.7 0.9 0.5;
#X msg 97 149 color 0.7 0.7 0.7;
#X floatatom 294 171 5 0 0 0 - - -;
#X msg 459 282 0.3 0.3 0.3 0.5;
#X msg 473 299 0.9 0.9 1 0.2;
#X obj 522 174 loadbang;
#X obj 239 282 scale;
#X floatatom 265 248 5 0 0 0 - - -;
#X text 80 287 by Aymeric Mansoux;
#X connect 1 0 0 0;
#X connect 2 0 0 0;
#X connect 3 0 0 0;
#X connect 4 0 7 0;
#X connect 5 0 4 0;
#X connect 7 0 18 0;
#X connect 8 0 6 0;
#X connect 9 0 6 3;
#X connect 10 0 6 1;
#X connect 11 0 6 2;
#X connect 12 0 6 6;
#X connect 13 0 0 0;
#X connect 14 0 7 2;
#X connect 14 0 7 3;
#X connect 15 0 6 4;
#X connect 16 0 6 5;
#X connect 17 0 10 0;
#X connect 17 0 11 0;
#X connect 17 0 9 0;
#X connect 17 0 15 0;
#X connect 17 0 16 0;
#X connect 17 0 12 0;
#X connect 18 0 8 0;
#X connect 19 0 18 1;
