#N canvas 21 103 632 735 10;
#X obj 204 199 fancyA;
#X msg 23 20 create;
#X msg 39 42 destroy;
#X obj 63 71 tgl 15 0 empty empty empty 0 -6 0 8 -262144 -1 -1 0 1
;
#X obj 79 105 loadbang;
#X obj 271 40 metro 40;
#X obj 271 19 bng 15 250 50 0 empty empty empty 0 -6 0 8 -262144 -1
-1;
#X obj 20 157 gemwin 50;
#X obj 306 66 + 1;
#X obj 271 65 int;
#X obj 271 89 select 360;
#X msg 239 66 0;
#X obj 386 24 vsl 15 128 0 2 0 0 empty empty empty 0 -8 0 8 -262144
-1 -1 0 1;
#X obj 204 229 fancyA;
#X obj 204 259 fancyA;
#X obj 204 288 fancyA;
#X obj 204 319 fancyA;
#X obj 204 349 fancyA;
#X obj 204 379 fancyA;
#X obj 204 406 fancyA;
#X obj 204 436 fancyA;
#X obj 204 466 fancyA;
#X obj 204 495 fancyA;
#X obj 204 526 fancyA;
#X obj 204 556 fancyA;
#X obj 204 578 fancyA;
#X obj 257 200 fancyA;
#X obj 257 230 fancyA;
#X obj 257 260 fancyA;
#X obj 257 289 fancyA;
#X obj 257 320 fancyA;
#X obj 257 350 fancyA;
#X obj 257 380 fancyA;
#X obj 257 407 fancyA;
#X obj 257 437 fancyA;
#X obj 257 467 fancyA;
#X obj 257 496 fancyA;
#X obj 257 527 fancyA;
#X obj 257 557 fancyA;
#X obj 257 587 fancyA;
#X msg 78 129 color 0.3 0.3 0.3;
#X obj 380 204 fancyB;
#X obj 380 229 fancyB;
#X obj 380 259 fancyB;
#X obj 380 289 fancyB;
#X obj 380 319 fancyB;
#X obj 380 349 fancyB;
#X obj 380 379 fancyB;
#X obj 380 409 fancyB;
#X obj 380 439 fancyB;
#X obj 380 469 fancyB;
#X obj 380 499 fancyB;
#X obj 380 529 fancyB;
#X obj 380 559 fancyB;
#X obj 380 589 fancyB;
#X obj 436 205 fancyB;
#X obj 436 230 fancyB;
#X obj 436 260 fancyB;
#X obj 436 290 fancyB;
#X obj 436 320 fancyB;
#X obj 436 350 fancyB;
#X obj 436 380 fancyB;
#X obj 436 410 fancyB;
#X obj 436 440 fancyB;
#X obj 436 470 fancyB;
#X obj 436 500 fancyB;
#X obj 436 530 fancyB;
#X obj 436 560 fancyB;
#X obj 436 590 fancyB;
#X text 40 308 by Aymeric Mansoux;
#X connect 0 0 13 0;
#X connect 0 1 13 1;
#X connect 1 0 7 0;
#X connect 2 0 7 0;
#X connect 3 0 7 0;
#X connect 4 0 40 0;
#X connect 5 0 9 0;
#X connect 6 0 5 0;
#X connect 8 0 9 1;
#X connect 9 0 8 0;
#X connect 9 0 10 0;
#X connect 9 0 0 0;
#X connect 9 0 41 0;
#X connect 10 0 11 0;
#X connect 11 0 9 0;
#X connect 12 0 0 1;
#X connect 12 0 41 1;
#X connect 13 0 14 0;
#X connect 13 1 14 1;
#X connect 14 0 15 0;
#X connect 14 1 15 1;
#X connect 15 0 16 0;
#X connect 15 1 16 1;
#X connect 16 0 17 0;
#X connect 16 1 17 1;
#X connect 17 0 18 0;
#X connect 17 1 18 1;
#X connect 18 0 19 0;
#X connect 18 1 19 1;
#X connect 19 0 20 0;
#X connect 19 1 20 1;
#X connect 20 0 21 0;
#X connect 20 1 21 1;
#X connect 21 0 22 0;
#X connect 21 1 22 1;
#X connect 22 0 23 0;
#X connect 22 1 23 1;
#X connect 23 0 24 0;
#X connect 23 1 24 1;
#X connect 24 0 25 0;
#X connect 24 1 25 1;
#X connect 25 0 26 0;
#X connect 25 1 26 1;
#X connect 26 0 27 0;
#X connect 26 1 27 1;
#X connect 27 0 28 0;
#X connect 27 1 28 1;
#X connect 28 0 29 0;
#X connect 28 1 29 1;
#X connect 29 0 30 0;
#X connect 29 1 30 1;
#X connect 30 0 31 0;
#X connect 30 1 31 1;
#X connect 31 0 32 0;
#X connect 31 1 32 1;
#X connect 32 0 33 0;
#X connect 32 1 33 1;
#X connect 33 0 34 0;
#X connect 33 1 34 1;
#X connect 34 0 35 0;
#X connect 34 1 35 1;
#X connect 35 0 36 0;
#X connect 35 1 36 1;
#X connect 36 0 37 0;
#X connect 36 1 37 1;
#X connect 37 0 38 0;
#X connect 37 1 38 1;
#X connect 38 0 39 0;
#X connect 38 1 39 1;
#X connect 40 0 7 0;
#X connect 41 0 42 0;
#X connect 41 1 42 1;
#X connect 42 0 43 0;
#X connect 42 1 43 1;
#X connect 43 0 44 0;
#X connect 43 1 44 1;
#X connect 44 0 45 0;
#X connect 44 1 45 1;
#X connect 45 0 46 0;
#X connect 45 1 46 1;
#X connect 46 0 47 0;
#X connect 46 1 47 1;
#X connect 47 0 48 0;
#X connect 47 1 48 1;
#X connect 48 0 49 0;
#X connect 48 1 49 1;
#X connect 49 0 50 0;
#X connect 49 1 50 1;
#X connect 50 0 51 0;
#X connect 50 1 51 1;
#X connect 51 0 52 0;
#X connect 51 1 52 1;
#X connect 52 0 53 0;
#X connect 52 1 53 1;
#X connect 53 0 54 0;
#X connect 53 1 54 1;
#X connect 54 0 55 0;
#X connect 54 1 55 1;
#X connect 55 0 56 0;
#X connect 55 1 56 1;
#X connect 56 0 57 0;
#X connect 56 1 57 1;
#X connect 57 0 58 0;
#X connect 57 1 58 1;
#X connect 58 0 59 0;
#X connect 58 1 59 1;
#X connect 59 0 60 0;
#X connect 59 1 60 1;
#X connect 60 0 61 0;
#X connect 60 1 61 1;
#X connect 61 0 62 0;
#X connect 61 1 62 1;
#X connect 62 0 63 0;
#X connect 62 1 63 1;
#X connect 63 0 64 0;
#X connect 63 1 64 1;
#X connect 64 0 65 0;
#X connect 64 1 65 1;
#X connect 65 0 66 0;
#X connect 65 1 66 1;
#X connect 66 0 67 0;
#X connect 66 1 67 1;
#X connect 67 0 68 0;
#X connect 67 1 68 1;
