#N canvas 412 104 796 761 10;
#X obj 42 325 fancyA;
#X msg 20 20 create;
#X msg 39 42 destroy;
#X obj 63 71 tgl 15 0 empty empty empty 0 -6 0 8 -262144 -1 -1 0 1
;
#X obj 79 105 loadbang;
#X obj 271 40 metro 40;
#X obj 271 19 bng 15 250 50 0 empty empty empty 0 -6 0 8 -262144 -1
-1;
#X obj 20 157 gemwin 50;
#X obj 306 66 + 1;
#X obj 271 65 int;
#X obj 271 89 select 360;
#X msg 239 66 0;
#X msg 78 129 color 0.3 0.3 0.3;
#X obj 236 326 fancyB;
#X obj 496 12 adc~;
#X obj 506 72 +~;
#X obj 472 43 *~ 0.5;
#X obj 520 43 *~ 0.5;
#X obj 539 130 env~ 4096;
#X floatatom 455 154 5 0 0 0 - - -;
#X floatatom 539 154 5 0 0 0 - - -;
#X msg 68 273 0;
#X obj 455 131 env~ 8192;
#X obj 48 191 <= 50;
#X obj 217 189 <= 70;
#X obj 302 189 <= 80;
#X msg 109 273 0.5;
#X msg 151 274 1;
#X msg 191 272 1.5;
#X msg 228 275 2;
#X obj 26 215 ==;
#X floatatom 26 236 5 0 0 0 - - -;
#X obj 91 215 ==;
#X floatatom 91 236 5 0 0 0 - - -;
#X obj 133 191 <= 60;
#X obj 7 191 >= 0;
#X obj 174 215 ==;
#X floatatom 174 236 5 0 0 0 - - -;
#X obj 275 215 ==;
#X floatatom 275 236 5 0 0 0 - - -;
#X obj 352 187 > 80;
#X floatatom 352 235 5 0 0 0 - - -;
#X obj 91 191 > 50;
#X obj 173 190 > 60;
#X obj 260 191 > 70;
#X obj 455 102 lop~ 20;
#X obj 37 254 sel 1;
#X obj 94 255 sel 1;
#X obj 149 255 sel 1;
#X obj 199 254 sel 1;
#X obj 248 256 sel 1;
#X msg 447 317 0;
#X obj 427 235 <= 50;
#X obj 596 233 <= 70;
#X obj 681 233 <= 80;
#X msg 488 317 0.5;
#X msg 530 318 1;
#X msg 570 316 1.5;
#X msg 607 319 2;
#X obj 405 259 ==;
#X floatatom 405 280 5 0 0 0 - - -;
#X obj 470 259 ==;
#X floatatom 470 280 5 0 0 0 - - -;
#X obj 512 235 <= 60;
#X obj 392 236 >= 0;
#X obj 553 259 ==;
#X floatatom 553 280 5 0 0 0 - - -;
#X obj 654 259 ==;
#X floatatom 654 280 5 0 0 0 - - -;
#X obj 731 231 > 80;
#X floatatom 731 279 5 0 0 0 - - -;
#X obj 470 235 > 50;
#X obj 552 234 > 60;
#X obj 639 235 > 70;
#X obj 416 298 sel 1;
#X obj 473 299 sel 1;
#X obj 528 299 sel 1;
#X obj 578 298 sel 1;
#X obj 627 300 sel 1;
#X obj 236 351 fancyB;
#X obj 236 381 fancyB;
#X obj 236 411 fancyB;
#X obj 236 441 fancyB;
#X obj 236 471 fancyB;
#X obj 236 501 fancyB;
#X obj 236 531 fancyB;
#X obj 236 561 fancyB;
#X obj 236 591 fancyB;
#X obj 236 621 fancyB;
#X obj 236 651 fancyB;
#X obj 236 681 fancyB;
#X obj 236 711 fancyB;
#X obj 292 327 fancyB;
#X obj 292 352 fancyB;
#X obj 292 382 fancyB;
#X obj 292 412 fancyB;
#X obj 292 442 fancyB;
#X obj 292 472 fancyB;
#X obj 292 502 fancyB;
#X obj 292 532 fancyB;
#X obj 292 562 fancyB;
#X obj 292 592 fancyB;
#X obj 292 622 fancyB;
#X obj 292 652 fancyB;
#X obj 292 682 fancyB;
#X obj 292 712 fancyB;
#X obj 538 102 hip~ 10000;
#X obj 42 355 fancyA;
#X obj 42 385 fancyA;
#X obj 42 414 fancyA;
#X obj 42 445 fancyA;
#X obj 42 475 fancyA;
#X obj 42 505 fancyA;
#X obj 42 532 fancyA;
#X obj 42 562 fancyA;
#X obj 42 592 fancyA;
#X obj 42 621 fancyA;
#X obj 42 652 fancyA;
#X obj 42 682 fancyA;
#X obj 42 704 fancyA;
#X obj 95 326 fancyA;
#X obj 95 356 fancyA;
#X obj 95 386 fancyA;
#X obj 95 415 fancyA;
#X obj 95 446 fancyA;
#X obj 95 476 fancyA;
#X obj 95 506 fancyA;
#X obj 95 533 fancyA;
#X obj 95 563 fancyA;
#X obj 95 593 fancyA;
#X obj 95 622 fancyA;
#X obj 95 653 fancyA;
#X obj 95 683 fancyA;
#X obj 95 713 fancyA;
#X text 405 394 by Aymeric Mansoux;
#X connect 0 0 107 0;
#X connect 0 1 107 1;
#X connect 1 0 7 0;
#X connect 2 0 7 0;
#X connect 3 0 7 0;
#X connect 4 0 12 0;
#X connect 5 0 9 0;
#X connect 6 0 5 0;
#X connect 8 0 9 1;
#X connect 9 0 8 0;
#X connect 9 0 10 0;
#X connect 9 0 0 0;
#X connect 9 0 13 0;
#X connect 10 0 11 0;
#X connect 11 0 9 0;
#X connect 12 0 7 0;
#X connect 13 0 79 0;
#X connect 13 1 79 1;
#X connect 14 0 16 0;
#X connect 14 1 17 0;
#X connect 15 0 45 0;
#X connect 15 0 106 0;
#X connect 16 0 15 0;
#X connect 17 0 15 1;
#X connect 18 0 20 0;
#X connect 19 0 23 0;
#X connect 19 0 24 0;
#X connect 19 0 25 0;
#X connect 19 0 34 0;
#X connect 19 0 35 0;
#X connect 19 0 40 0;
#X connect 19 0 42 0;
#X connect 19 0 43 0;
#X connect 19 0 44 0;
#X connect 20 0 64 0;
#X connect 20 0 52 0;
#X connect 20 0 71 0;
#X connect 20 0 63 0;
#X connect 20 0 72 0;
#X connect 20 0 53 0;
#X connect 20 0 73 0;
#X connect 20 0 54 0;
#X connect 20 0 69 0;
#X connect 21 0 0 1;
#X connect 22 0 19 0;
#X connect 23 0 30 1;
#X connect 24 0 36 1;
#X connect 25 0 38 1;
#X connect 26 0 0 1;
#X connect 27 0 0 1;
#X connect 28 0 0 1;
#X connect 29 0 0 1;
#X connect 30 0 31 0;
#X connect 31 0 46 0;
#X connect 32 0 33 0;
#X connect 33 0 47 0;
#X connect 34 0 32 1;
#X connect 35 0 30 0;
#X connect 36 0 37 0;
#X connect 37 0 48 0;
#X connect 38 0 39 0;
#X connect 39 0 49 0;
#X connect 40 0 41 0;
#X connect 41 0 50 0;
#X connect 42 0 32 0;
#X connect 43 0 36 0;
#X connect 44 0 38 0;
#X connect 45 0 22 0;
#X connect 46 0 21 0;
#X connect 47 0 26 0;
#X connect 48 0 27 0;
#X connect 49 0 28 0;
#X connect 50 0 29 0;
#X connect 51 0 13 1;
#X connect 52 0 59 1;
#X connect 53 0 65 1;
#X connect 54 0 67 1;
#X connect 55 0 13 1;
#X connect 56 0 13 1;
#X connect 57 0 13 1;
#X connect 58 0 13 1;
#X connect 59 0 60 0;
#X connect 60 0 74 0;
#X connect 61 0 62 0;
#X connect 62 0 75 0;
#X connect 63 0 61 1;
#X connect 64 0 59 0;
#X connect 65 0 66 0;
#X connect 66 0 76 0;
#X connect 67 0 68 0;
#X connect 68 0 77 0;
#X connect 69 0 70 0;
#X connect 70 0 78 0;
#X connect 71 0 61 0;
#X connect 72 0 65 0;
#X connect 73 0 67 0;
#X connect 74 0 51 0;
#X connect 75 0 55 0;
#X connect 76 0 56 0;
#X connect 77 0 57 0;
#X connect 78 0 58 0;
#X connect 79 0 80 0;
#X connect 79 1 80 1;
#X connect 80 0 81 0;
#X connect 80 1 81 1;
#X connect 81 0 82 0;
#X connect 81 1 82 1;
#X connect 82 0 83 0;
#X connect 82 1 83 1;
#X connect 83 0 84 0;
#X connect 83 1 84 1;
#X connect 84 0 85 0;
#X connect 84 1 85 1;
#X connect 85 0 86 0;
#X connect 85 1 86 1;
#X connect 86 0 87 0;
#X connect 86 1 87 1;
#X connect 87 0 88 0;
#X connect 87 1 88 1;
#X connect 88 0 89 0;
#X connect 88 1 89 1;
#X connect 89 0 90 0;
#X connect 89 1 90 1;
#X connect 90 0 91 0;
#X connect 90 1 91 1;
#X connect 91 0 92 0;
#X connect 91 1 92 1;
#X connect 92 0 93 0;
#X connect 92 1 93 1;
#X connect 93 0 94 0;
#X connect 93 1 94 1;
#X connect 94 0 95 0;
#X connect 94 1 95 1;
#X connect 95 0 96 0;
#X connect 95 1 96 1;
#X connect 96 0 97 0;
#X connect 96 1 97 1;
#X connect 97 0 98 0;
#X connect 97 1 98 1;
#X connect 98 0 99 0;
#X connect 98 1 99 1;
#X connect 99 0 100 0;
#X connect 99 1 100 1;
#X connect 100 0 101 0;
#X connect 100 1 101 1;
#X connect 101 0 102 0;
#X connect 101 1 102 1;
#X connect 102 0 103 0;
#X connect 102 1 103 1;
#X connect 103 0 104 0;
#X connect 103 1 104 1;
#X connect 104 0 105 0;
#X connect 104 1 105 1;
#X connect 106 0 18 0;
#X connect 107 0 108 0;
#X connect 107 1 108 1;
#X connect 108 0 109 0;
#X connect 108 1 109 1;
#X connect 109 0 110 0;
#X connect 109 1 110 1;
#X connect 110 0 111 0;
#X connect 110 1 111 1;
#X connect 111 0 112 0;
#X connect 111 1 112 1;
#X connect 112 0 113 0;
#X connect 112 1 113 1;
#X connect 113 0 114 0;
#X connect 113 1 114 1;
#X connect 114 0 115 0;
#X connect 114 1 115 1;
#X connect 115 0 116 0;
#X connect 115 1 116 1;
#X connect 116 0 117 0;
#X connect 116 1 117 1;
#X connect 117 0 118 0;
#X connect 117 1 118 1;
#X connect 118 0 119 0;
#X connect 118 1 119 1;
#X connect 119 0 120 0;
#X connect 119 1 120 1;
#X connect 120 0 121 0;
#X connect 120 1 121 1;
#X connect 121 0 122 0;
#X connect 121 1 122 1;
#X connect 122 0 123 0;
#X connect 122 1 123 1;
#X connect 123 0 124 0;
#X connect 123 1 124 1;
#X connect 124 0 125 0;
#X connect 124 1 125 1;
#X connect 125 0 126 0;
#X connect 125 1 126 1;
#X connect 126 0 127 0;
#X connect 126 1 127 1;
#X connect 127 0 128 0;
#X connect 127 1 128 1;
#X connect 128 0 129 0;
#X connect 128 1 129 1;
#X connect 129 0 130 0;
#X connect 129 1 130 1;
#X connect 130 0 131 0;
#X connect 130 1 131 1;
#X connect 131 0 132 0;
#X connect 131 1 132 1;
#X connect 132 0 133 0;
#X connect 132 1 133 1;
