#N canvas 216 122 726 605 10;
#X obj 239 82 gemhead;
#X obj 239 380 primTri 12345;
#X obj 239 200 rotateXYZ;
#X obj 239 330 alpha;
#X msg 445 264 0 1 0;
#X msg 417 229 -3 -1 1;
#X msg 430 247 0 3 -1;
#X msg 486 316 0.7 0.7 0.9 0.5;
#X msg 459 282 0.3 0.3 0.3 0.5;
#X msg 473 299 0.9 0.9 1 0.2;
#X obj 522 174 loadbang;
#X obj 239 282 scale;
#X obj 335 39 inlet;
#X obj 455 39 inlet;
#X obj 445 152 outlet;
#X obj 510 133 outlet;
#X obj 445 124 pipe 80;
#X obj 510 99 pipe 40;
#X text 70 253 by Aymeric Mansoux;
#X connect 0 0 2 0;
#X connect 2 0 11 0;
#X connect 3 0 1 0;
#X connect 4 0 1 3;
#X connect 5 0 1 1;
#X connect 6 0 1 2;
#X connect 7 0 1 6;
#X connect 8 0 1 4;
#X connect 9 0 1 5;
#X connect 10 0 5 0;
#X connect 10 0 6 0;
#X connect 10 0 4 0;
#X connect 10 0 8 0;
#X connect 10 0 9 0;
#X connect 10 0 7 0;
#X connect 11 0 3 0;
#X connect 12 0 2 2;
#X connect 12 0 2 3;
#X connect 12 0 16 0;
#X connect 13 0 11 1;
#X connect 13 0 17 0;
#X connect 16 0 14 0;
#X connect 17 0 15 0;
