#N canvas 915 201 408 208 10;
#N canvas 0 115 874 653 defilement 1;
#X obj -208 119 r Y;
#X obj -208 285 f;
#X obj -208 179 t b f;
#X obj -208 229 -;
#X floatatom -132 378 5 0 0 0 - - -;
#X obj -208 204 8;
#X obj 143 221 metro 500;
#X obj -105 239 * 2;
#X obj -105 212 r Y;
#X obj -120 268 -;
#X obj -208 399 sel 1;
#X obj -208 375 <= 0;
#X obj -208 312 t f f;
#X obj 143 140 tgl 11 0 empty empty empty 17 7 0 10 -262144 -1 -1 0
1;
#X obj -33 310 f;
#X floatatom 83 443 5 0 0 0 - - -;
#X obj 70 264 * 2;
#X obj -33 426 sel 1;
#X obj -33 337 t f f;
#X obj -33 214 r X;
#X obj 70 237 r X;
#X obj 55 293 +;
#X obj -33 238 f;
#X obj -208 344 +;
#X obj -175 345 r Y;
#X obj -33 402 >= 10.66;
#X obj 39 354 r X;
#X obj 253 130 hsl 100 11 2000 1 0 0 empty empty empty -2 -8 0 10 -262144
-1 -1 7429 1;
#X obj -33 371 - 1;
#X obj 126 140 bng 11 250 50 0 empty empty empty 17 7 0 10 -262144
-1 -1;
#X obj -144 332 b;
#X obj -310 314 b;
#X obj 83 522 s trans-X;
#X obj -132 454 s trans-Y;
#X text 157 137 0/1;
#X floatatom 366 128 5 0 0 0 - - -;
#X obj 250 37 init 500;
#X obj 293 184 / 1000;
#X text 401 131 /s;
#X obj 252 376 tgl 15 0 empty empty empty 17 7 0 10 -262144 -1 -1 1
1;
#X obj 252 428 gemhead;
#X obj 252 536 translateXYZ;
#X obj 252 401 metro 10;
#X obj 252 455 pix_video;
#X obj 252 563 pix_texture;
#X floatatom 366 148 5 0 0 0 - - -;
#X obj 366 203 t f f;
#X obj 366 229 expr $f1*4/3;
#X obj 252 617 rectangle;
#X obj 393 344 s Y;
#X obj 366 344 s X;
#X obj 275 482 r trans-X;
#X obj 298 509 r trans-Y;
#X obj 277 590 r X;
#X obj 303 590 r Y;
#X obj 252 349 loadbang;
#X text 193 127 Vitesse;
#X text 193 147 Taille;
#X obj 253 150 hsl 100 11 1 300 0 0 empty empty empty -2 -8 0 10 -262144
-1 -1 1622 1;
#X obj 293 204 / 100;
#X obj 329 37 init 50;
#X msg 300 83 set \$1;
#N canvas 309 87 643 557 shot 0;
#X obj 118 415 pix_write;
#X msg 345 364 0 0;
#X obj 118 221 pix_snap2tex;
#X msg 173 247 auto 0;
#X obj 345 230 loadbang;
#X obj 118 144 t b b;
#X obj 224 283 getdir;
#X msg 224 340 file \$1 100;
#X obj 118 189 gemhead -100;
#X obj 118 88 inlet;
#X obj 224 310 makesymbol %s/pix/;
#X msg 496 398 800 600;
#X connect 1 0 0 1;
#X connect 2 0 0 0;
#X connect 3 0 0 0;
#X connect 4 0 1 0;
#X connect 4 0 3 0;
#X connect 4 0 11 0;
#X connect 4 0 6 0;
#X connect 5 0 8 0;
#X connect 5 1 0 0;
#X connect 6 0 10 0;
#X connect 7 0 0 0;
#X connect 8 0 2 0;
#X connect 9 0 5 0;
#X connect 10 0 7 0;
#X connect 11 0 0 2;
#X restore -208 537 pd shot;
#X obj 366 300 f;
#X obj 393 300 f;
#X obj 408 268 r reset;
#X text -360 560 C'est ici qu'est gere la capture (taille entre autre...)
;
#X connect 0 0 2 0;
#X connect 1 0 12 0;
#X connect 2 0 5 0;
#X connect 2 1 3 1;
#X connect 3 0 1 0;
#X connect 4 0 33 0;
#X connect 5 0 3 0;
#X connect 6 0 14 0;
#X connect 7 0 9 1;
#X connect 8 0 7 0;
#X connect 9 0 1 1;
#X connect 10 0 31 0;
#X connect 10 0 62 0;
#X connect 11 0 10 0;
#X connect 12 0 23 0;
#X connect 12 1 9 0;
#X connect 12 1 4 0;
#X connect 13 0 6 0;
#X connect 14 0 18 0;
#X connect 15 0 32 0;
#X connect 16 0 21 1;
#X connect 17 0 30 0;
#X connect 18 0 28 0;
#X connect 18 1 15 0;
#X connect 18 1 21 0;
#X connect 19 0 22 0;
#X connect 20 0 16 0;
#X connect 21 0 14 1;
#X connect 22 0 14 0;
#X connect 23 0 11 0;
#X connect 24 0 23 1;
#X connect 25 0 17 0;
#X connect 26 0 28 1;
#X connect 27 0 6 1;
#X connect 27 0 37 0;
#X connect 28 0 25 0;
#X connect 29 0 14 0;
#X connect 30 0 22 0;
#X connect 30 0 1 0;
#X connect 31 0 3 0;
#X connect 36 0 27 0;
#X connect 37 0 35 0;
#X connect 39 0 42 0;
#X connect 40 0 43 0;
#X connect 41 0 44 0;
#X connect 42 0 40 0;
#X connect 43 0 41 0;
#X connect 44 0 48 0;
#X connect 45 0 46 0;
#X connect 46 0 47 0;
#X connect 46 1 64 0;
#X connect 47 0 63 0;
#X connect 51 0 41 1;
#X connect 52 0 41 2;
#X connect 53 0 48 1;
#X connect 54 0 48 2;
#X connect 55 0 39 0;
#X connect 58 0 59 0;
#X connect 59 0 45 0;
#X connect 60 0 61 0;
#X connect 60 0 59 0;
#X connect 61 0 58 0;
#X connect 63 0 50 0;
#X connect 64 0 49 0;
#X connect 65 0 63 0;
#X connect 65 0 64 0;
#X coords 0 -1 1 1 325 80 1 100 100;
#X restore 46 65 pd defilement;
#N canvas 477 261 807 468 GEM 0;
#X obj 162 104 tgl 11 0 empty empty empty 17 7 0 10 -262144 -1 -1 1
1;
#X obj 162 182 sel 1 0;
#X msg 181 268 0 \, destroy;
#X obj 209 104 bng 11 250 50 0 empty empty empty 17 7 0 10 -262144
-1 -1;
#X text 181 101 0/1;
#X text 228 100 reset;
#X obj 162 304 gemwin;
#X obj 162 -2 init 1;
#X obj 234 -2 gemkeyboard;
#X obj 208 -2 key;
#X obj 208 41 sel 27 9;
#X obj 209 147 s reset;
#X msg 162 219 0 \, destroy \, reset \, buffer 1 \, border 1 \, dimen
800 600 \, offset 0 0 \, view 5.33 4 4 \, create \, 1;
#X connect 0 0 1 0;
#X connect 1 0 12 0;
#X connect 1 1 2 0;
#X connect 2 0 6 0;
#X connect 3 0 6 0;
#X connect 3 0 11 0;
#X connect 7 0 0 0;
#X connect 8 0 10 0;
#X connect 9 0 10 0;
#X connect 10 0 0 0;
#X connect 12 0 6 0;
#X coords 0 -1 1 1 170 20 1 100 100;
#X restore 112 24 pd GEM;
#N canvas 0 0 340 141 infos 0;
#X text 17 53 http://www.labomedia.net;
#X text 17 18 http://www.yamatierea.org/papatchs;
#X text 18 80 Avec l'aide précieuse de Benjamin Cadon.;
#X text 17 6 Tissé par Olivier Baudu.;
#X text 17 41 Pour le Labomedia.;
#X text 18 108 10/01/11;
#X restore 186 175 pd infos;
