#N canvas 126 581 800 532 10;
#X obj 656 46 loadbang;
#X obj 656 75 s pr;
#N canvas 783 95 800 532 kick 0;
#X obj 369 61 FM -----------;
#X obj 462 -3 envgen 82 56 1 0  ;
#X obj 460 -27 bng 15 250 50 0 empty empty empty 17 7 0 10 -262144
-1 -1;
#X obj 369 -86 r pr;
#X obj 369 93 outlet~;
#X obj 460 -85 inlet;
#X msg 460 -50 0 0 1 20 0 20 0;
#X msg 369 -50 20;
#X msg 396 -29 3;
#X msg 423 -8 3;
#X obj 212 7 bng 15 250 50 0 empty empty empty 17 7 0 10 -262144 -1
-1;
#X obj 212 33 s pr;
#X floatatom 314 -41 5 0 0 0 - - -;
#X connect 0 0 4 0;
#X connect 1 0 0 3;
#X connect 2 0 1 0;
#X connect 3 0 7 0;
#X connect 3 0 8 0;
#X connect 3 0 9 0;
#X connect 3 0 6 0;
#X connect 5 0 2 0;
#X connect 6 0 1 0;
#X connect 7 0 0 0;
#X connect 8 0 0 1;
#X connect 9 0 0 2;
#X connect 10 0 11 0;
#X connect 10 0 6 0;
#X connect 12 0 0 0;
#X restore 100 121 pd kick;
#N canvas 0 0 800 532 hat 0;
#X obj 369 61 FM -----------;
#X obj 462 -3 envgen 82 56 1 0  ;
#X obj 460 -27 bng 15 250 50 0 empty empty empty 17 7 0 10 -262144
-1 -1;
#X msg 460 -50 0 0 1 10 0.2 20 0.8 10 0.4 40 0;
#X msg 369 -50 68;
#X msg 396 -29 39;
#X msg 423 -8 53;
#X obj 369 -86 r pr;
#X obj 369 93 outlet~;
#X obj 460 -85 inlet;
#X connect 0 0 8 0;
#X connect 1 0 0 3;
#X connect 2 0 1 0;
#X connect 3 0 1 0;
#X connect 4 0 0 0;
#X connect 5 0 0 1;
#X connect 6 0 0 2;
#X connect 7 0 4 0;
#X connect 7 0 5 0;
#X connect 7 0 6 0;
#X connect 7 0 3 0;
#X connect 9 0 2 0;
#X restore 149 121 pd hat;
#N canvas 0 0 800 532 snare 0;
#X obj 369 61 FM -----------;
#X obj 462 -3 envgen 82 56 1 0  ;
#X obj 460 -27 bng 15 250 50 0 empty empty empty 17 7 0 10 -262144
-1 -1;
#X obj 369 -86 r pr;
#X obj 369 93 outlet~;
#X obj 460 -85 inlet;
#X msg 396 -29 7;
#X msg 423 -8 6;
#X msg 460 -50 0 0 1 80 0;
#X msg 369 -50 24;
#X connect 0 0 4 0;
#X connect 1 0 0 3;
#X connect 2 0 1 0;
#X connect 3 0 9 0;
#X connect 3 0 6 0;
#X connect 3 0 7 0;
#X connect 3 0 8 0;
#X connect 5 0 2 0;
#X connect 6 0 0 1;
#X connect 7 0 0 2;
#X connect 8 0 1 0;
#X connect 9 0 0 0;
#X restore 196 122 pd snare;
#N canvas 0 0 784 516 (subpatch) 0;
#X obj 387 6 tgl 20 0 empty empty empty 17 7 0 10 -1 -262144 -1 0 1
;
#X obj 363 6 tgl 20 0 empty empty empty 17 7 0 10 -1 -262144 -1 0 1
;
#X obj 339 6 tgl 20 0 empty empty empty 17 7 0 10 -1 -262144 -1 0 1
;
#X obj 315 6 tgl 20 0 empty empty empty 17 7 0 10 -1 -262144 -1 0 1
;
#X obj 283 6 tgl 20 0 empty empty empty 17 7 0 10 -1 -262144 -1 0 1
;
#X obj 259 6 tgl 20 0 empty empty empty 17 7 0 10 -1 -262144 -1 0 1
;
#X obj 235 6 tgl 20 0 empty empty empty 17 7 0 10 -1 -262144 -1 0 1
;
#X obj 211 6 tgl 20 0 empty empty empty 17 7 0 10 -1 -262144 -1 0 1
;
#X obj 182 6 tgl 20 0 empty empty empty 17 7 0 10 -1 -262144 -1 0 1
;
#X obj 158 6 tgl 20 0 empty empty empty 17 7 0 10 -1 -262144 -1 0 1
;
#X obj 134 6 tgl 20 0 empty empty empty 17 7 0 10 -1 -262144 -1 0 1
;
#X obj 110 6 tgl 20 0 empty empty empty 17 7 0 10 -1 -262144 -1 0 1
;
#X obj 78 6 tgl 20 0 empty empty empty 17 7 0 10 -1 -262144 -1 0 1
;
#X obj 54 6 tgl 20 0 empty empty empty 17 7 0 10 -1 -262144 -1 0 1
;
#X obj 30 6 tgl 20 0 empty empty empty 17 7 0 10 -1 -262144 -1 0 1
;
#X obj 6 6 tgl 20 0 empty empty empty 17 7 0 10 -1 -262144 -1 0 1;
#X obj 3 116 tgl 20 0 empty empty empty 17 7 0 10 -83269 -260097 -1
0 1;
#X obj -46 -221 metro 125;
#X obj -46 -107 i;
#X obj -6 -108 + 1;
#X obj -46 -84 % 16;
#X obj 445 328 i;
#X obj 415 328 i;
#X obj 386 328 i;
#X obj 356 328 i;
#X obj 328 328 i;
#X obj 298 328 i;
#X obj 269 328 i;
#X obj 239 328 i;
#X obj 208 328 i;
#X obj 178 328 i;
#X obj 149 328 i;
#X obj 119 328 i;
#X obj 91 328 i;
#X obj 61 328 i;
#X obj 32 328 i;
#X obj 2 328 i;
#X obj -46 -58 sel 0 1 2 3 4 5 6 7 8 9 10 11 12 13 14 15;
#X obj -125 -31 sel 0 1 2 3 4 5 6 7 8 9 10 11 12 13 14 15;
#X obj 208 -67 sel 0 1 2 3 4 5 6 7 8 9 10 11 12 13 14 15;
#X obj 445 259 i;
#X obj 415 259 i;
#X obj 386 259 i;
#X obj 356 259 i;
#X obj 328 259 i;
#X obj 298 259 i;
#X obj 269 259 i;
#X obj 239 259 i;
#X obj 208 259 i;
#X obj 177 259 i;
#X obj 149 259 i;
#X obj 119 259 i;
#X obj 91 259 i;
#X obj 61 259 i;
#X obj 32 259 i;
#X obj 2 259 i;
#X obj 443 183 i;
#X obj 413 183 i;
#X obj 384 183 i;
#X obj 354 183 i;
#X obj 326 183 i;
#X obj 296 183 i;
#X obj 267 183 i;
#X obj 237 183 i;
#X obj 206 183 i;
#X obj 176 183 i;
#X obj 147 183 i;
#X obj 117 183 i;
#X obj 89 183 i;
#X obj 59 183 i;
#X obj 30 183 i;
#X obj 0 183 i;
#X obj 0 214 sel 1;
#X obj -84 231 outlet;
#X obj 387 34 tgl 20 0 empty empty empty 17 7 0 10 -1 -262144 -1 0
1;
#X obj 363 34 tgl 20 0 empty empty empty 17 7 0 10 -1 -262144 -1 0
1;
#X obj 339 34 tgl 20 0 empty empty empty 17 7 0 10 -1 -262144 -1 0
1;
#X obj 315 34 tgl 20 0 empty empty empty 17 7 0 10 -1 -262144 -1 0
1;
#X obj 283 34 tgl 20 0 empty empty empty 17 7 0 10 -1 -262144 -1 0
1;
#X obj 259 34 tgl 20 0 empty empty empty 17 7 0 10 -1 -262144 -1 0
1;
#X obj 235 34 tgl 20 0 empty empty empty 17 7 0 10 -1 -262144 -1 0
1;
#X obj 211 34 tgl 20 0 empty empty empty 17 7 0 10 -1 -262144 -1 0
1;
#X obj 182 34 tgl 20 0 empty empty empty 17 7 0 10 -1 -262144 -1 0
1;
#X obj 158 34 tgl 20 0 empty empty empty 17 7 0 10 -1 -262144 -1 0
1;
#X obj 134 34 tgl 20 0 empty empty empty 17 7 0 10 -1 -262144 -1 0
1;
#X obj 110 34 tgl 20 0 empty empty empty 17 7 0 10 -1 -262144 -1 0
1;
#X obj 78 34 tgl 20 0 empty empty empty 17 7 0 10 -1 -262144 -1 0 1
;
#X obj 54 34 tgl 20 0 empty empty empty 17 7 0 10 -1 -262144 -1 0 1
;
#X obj 30 34 tgl 20 0 empty empty empty 17 7 0 10 -1 -262144 -1 0 1
;
#X obj 6 34 tgl 20 0 empty empty empty 17 7 0 10 -1 -262144 -1 0 1
;
#X obj 2 291 sel 1;
#X obj -85 308 outlet;
#X obj 387 63 tgl 20 0 empty empty empty 17 7 0 10 -1 -262144 -1 0
1;
#X obj 363 63 tgl 20 0 empty empty empty 17 7 0 10 -1 -262144 -1 0
1;
#X obj 339 63 tgl 20 0 empty empty empty 17 7 0 10 -1 -262144 -1 0
1;
#X obj 315 63 tgl 20 0 empty empty empty 17 7 0 10 -1 -262144 -1 0
1;
#X obj 283 63 tgl 20 0 empty empty empty 17 7 0 10 -1 -262144 -1 0
1;
#X obj 259 63 tgl 20 0 empty empty empty 17 7 0 10 -1 -262144 -1 0
1;
#X obj 235 63 tgl 20 0 empty empty empty 17 7 0 10 -1 -262144 -1 0
1;
#X obj 211 63 tgl 20 0 empty empty empty 17 7 0 10 -1 -262144 -1 0
1;
#X obj 182 63 tgl 20 0 empty empty empty 17 7 0 10 -1 -262144 -1 0
1;
#X obj 158 63 tgl 20 0 empty empty empty 17 7 0 10 -1 -262144 -1 0
1;
#X obj 134 63 tgl 20 0 empty empty empty 17 7 0 10 -1 -262144 -1 0
1;
#X obj 110 63 tgl 20 0 empty empty empty 17 7 0 10 -1 -262144 -1 0
1;
#X obj 78 63 tgl 20 0 empty empty empty 17 7 0 10 -1 -262144 -1 0 1
;
#X obj 54 63 tgl 20 0 empty empty empty 17 7 0 10 -1 -262144 -1 0 1
;
#X obj 30 63 tgl 20 0 empty empty empty 17 7 0 10 -1 -262144 -1 0 1
;
#X obj 6 63 tgl 20 0 empty empty empty 17 7 0 10 -1 -262144 -1 0 1
;
#X obj 2 373 sel 1;
#X obj -82 390 outlet;
#X msg 135 -107 0;
#X obj 280 116 bng 20 250 50 0 empty empty empty 17 7 0 10 -83269 -260097
-1;
#X obj 394 93 bng 10 250 50 0 empty empty empty 17 7 0 10 -1 -258113
-1;
#X obj 370 93 bng 10 250 50 0 empty empty empty 17 7 0 10 -1 -258113
-1;
#X obj 345 93 bng 10 250 50 0 empty empty empty 17 7 0 10 -1 -258113
-1;
#X obj 321 93 bng 10 250 50 0 empty empty empty 17 7 0 10 -1 -258113
-1;
#X obj 291 93 bng 10 250 50 0 empty empty empty 17 7 0 10 -1 -258113
-1;
#X obj 267 93 bng 10 250 50 0 empty empty empty 17 7 0 10 -1 -258113
-1;
#X obj 242 93 bng 10 250 50 0 empty empty empty 17 7 0 10 -1 -258113
-1;
#X obj 218 93 bng 10 250 50 0 empty empty empty 17 7 0 10 -1 -258113
-1;
#X obj 186 93 bng 10 250 50 0 empty empty empty 17 7 0 10 -1 -258113
-1;
#X obj 162 93 bng 10 250 50 0 empty empty empty 17 7 0 10 -1 -258113
-1;
#X obj 137 93 bng 10 250 50 0 empty empty empty 17 7 0 10 -1 -258113
-1;
#X obj 113 93 bng 10 250 50 0 empty empty empty 17 7 0 10 -1 -258113
-1;
#X obj 83 93 bng 10 250 50 0 empty empty empty 17 7 0 10 -1 -258113
-1;
#X obj 59 93 bng 10 250 50 0 empty empty empty 17 7 0 10 -1 -258113
-1;
#X obj 34 93 bng 10 250 50 0 empty empty empty 17 7 0 10 -1 -258113
-1;
#X obj 10 93 bng 10 250 50 0 empty empty empty 17 7 0 10 -1 -258113
-1;
#X obj 265 -194 sel 0 1 2 3 4 5 6 7 8 9 10 11 12 13 14 15;
#X obj 497 -264 random 2;
#X obj 499 -165 random 2;
#X obj 499 -187 random 2;
#X obj 498 -210 random 2;
#X obj 497 -241 random 2;
#X obj 504 67 random 2;
#X obj 504 37 random 2;
#X obj 499 9 random 2;
#X obj 499 -21 random 2;
#X obj 504 -50 random 2;
#X obj 504 -80 random 2;
#X obj 499 -108 random 2;
#X obj 499 -138 random 2;
#X obj 509 151 random 2;
#X obj 504 123 random 2;
#X obj 504 93 random 2;
#X obj 59 -205 metro 250;
#X obj 80 116 tgl 20 0 empty empty empty 17 7 0 10 -83269 -260097 -1
0 1;
#X obj 650 -252 random 2;
#X obj 673 -121 random 2;
#X obj 670 -146 random 2;
#X obj 648 -201 random 2;
#X obj 649 -227 random 2;
#X obj 681 56 random 2;
#X obj 584 34 random 2;
#X obj 680 6 random 2;
#X obj 577 -31 random 2;
#X obj 678 -43 random 2;
#X obj 577 -86 random 2;
#X obj 674 -94 random 2;
#X obj 648 -176 random 2;
#X obj 589 148 random 2;
#X obj 584 120 random 2;
#X obj 584 90 random 2;
#X obj 563 -273 random 2;
#X obj 565 -174 random 2;
#X obj 565 -196 random 2;
#X obj 564 -219 random 2;
#X obj 563 -250 random 2;
#X obj 570 58 random 2;
#X obj 678 30 random 2;
#X obj 565 0 random 2;
#X obj 680 -18 random 2;
#X obj 576 -59 random 2;
#X obj 678 -70 random 2;
#X obj 565 -117 random 2;
#X obj 565 -147 random 2;
#X obj 682 138 random 2;
#X obj 676 110 random 2;
#X obj 676 83 random 2;
#X obj 182 116 bng 20 250 50 0 empty empty empty 17 7 0 10 -83269 -260097
-1;
#X msg 60 -247 1;
#X msg 112 -247 0;
#X obj 109 -267 del 5;
#X text 26 118 START;
#X text 104 118 RANDOM PLAY;
#X text 208 118 RANDOMIZE;
#X obj 134 -222 * 2;
#X floatatom 372 117 5 0 0 0 - - -;
#X text 306 117 RESET;
#X text 406 117 TEMP;
#X connect 0 0 56 1;
#X connect 1 0 57 1;
#X connect 2 0 58 1;
#X connect 3 0 59 1;
#X connect 4 0 60 1;
#X connect 5 0 61 1;
#X connect 6 0 62 1;
#X connect 7 0 63 1;
#X connect 8 0 64 1;
#X connect 9 0 65 1;
#X connect 10 0 66 1;
#X connect 11 0 67 1;
#X connect 12 0 68 1;
#X connect 13 0 69 1;
#X connect 14 0 70 1;
#X connect 15 0 71 1;
#X connect 16 0 17 0;
#X connect 17 0 18 0;
#X connect 18 0 19 0;
#X connect 18 0 20 0;
#X connect 19 0 18 1;
#X connect 20 0 37 0;
#X connect 20 0 39 0;
#X connect 20 0 38 0;
#X connect 20 0 128 0;
#X connect 21 0 108 0;
#X connect 22 0 108 0;
#X connect 23 0 108 0;
#X connect 24 0 108 0;
#X connect 25 0 108 0;
#X connect 26 0 108 0;
#X connect 27 0 108 0;
#X connect 28 0 108 0;
#X connect 29 0 108 0;
#X connect 30 0 108 0;
#X connect 31 0 108 0;
#X connect 32 0 108 0;
#X connect 33 0 108 0;
#X connect 34 0 108 0;
#X connect 35 0 108 0;
#X connect 36 0 108 0;
#X connect 37 0 71 0;
#X connect 37 1 70 0;
#X connect 37 2 69 0;
#X connect 37 3 68 0;
#X connect 37 4 67 0;
#X connect 37 5 66 0;
#X connect 37 6 65 0;
#X connect 37 7 64 0;
#X connect 37 8 63 0;
#X connect 37 9 62 0;
#X connect 37 10 61 0;
#X connect 37 11 60 0;
#X connect 37 12 59 0;
#X connect 37 13 58 0;
#X connect 37 14 57 0;
#X connect 37 15 56 0;
#X connect 38 0 36 0;
#X connect 38 1 35 0;
#X connect 38 2 34 0;
#X connect 38 3 33 0;
#X connect 38 4 32 0;
#X connect 38 5 31 0;
#X connect 38 6 30 0;
#X connect 38 7 29 0;
#X connect 38 8 28 0;
#X connect 38 9 27 0;
#X connect 38 10 26 0;
#X connect 38 11 25 0;
#X connect 38 12 24 0;
#X connect 38 13 23 0;
#X connect 38 14 22 0;
#X connect 38 15 21 0;
#X connect 39 0 55 0;
#X connect 39 1 54 0;
#X connect 39 2 53 0;
#X connect 39 3 52 0;
#X connect 39 4 51 0;
#X connect 39 5 50 0;
#X connect 39 6 49 0;
#X connect 39 7 48 0;
#X connect 39 8 47 0;
#X connect 39 9 46 0;
#X connect 39 10 45 0;
#X connect 39 11 44 0;
#X connect 39 12 43 0;
#X connect 39 13 42 0;
#X connect 39 14 41 0;
#X connect 39 15 40 0;
#X connect 40 0 90 0;
#X connect 41 0 90 0;
#X connect 42 0 90 0;
#X connect 43 0 90 0;
#X connect 44 0 90 0;
#X connect 45 0 90 0;
#X connect 46 0 90 0;
#X connect 47 0 90 0;
#X connect 48 0 90 0;
#X connect 49 0 90 0;
#X connect 50 0 90 0;
#X connect 51 0 90 0;
#X connect 52 0 90 0;
#X connect 53 0 90 0;
#X connect 54 0 90 0;
#X connect 55 0 90 0;
#X connect 56 0 72 0;
#X connect 57 0 72 0;
#X connect 58 0 72 0;
#X connect 59 0 72 0;
#X connect 60 0 72 0;
#X connect 61 0 72 0;
#X connect 62 0 72 0;
#X connect 63 0 72 0;
#X connect 64 0 72 0;
#X connect 65 0 72 0;
#X connect 66 0 72 0;
#X connect 67 0 72 0;
#X connect 68 0 72 0;
#X connect 69 0 72 0;
#X connect 70 0 72 0;
#X connect 71 0 72 0;
#X connect 72 0 73 0;
#X connect 74 0 40 1;
#X connect 75 0 41 1;
#X connect 76 0 42 1;
#X connect 77 0 43 1;
#X connect 78 0 44 1;
#X connect 79 0 45 1;
#X connect 80 0 46 1;
#X connect 81 0 47 1;
#X connect 82 0 48 1;
#X connect 83 0 49 1;
#X connect 84 0 50 1;
#X connect 85 0 51 1;
#X connect 86 0 52 1;
#X connect 87 0 53 1;
#X connect 88 0 54 1;
#X connect 89 0 55 1;
#X connect 90 0 91 0;
#X connect 92 0 21 1;
#X connect 93 0 22 1;
#X connect 94 0 23 1;
#X connect 95 0 24 1;
#X connect 96 0 25 1;
#X connect 97 0 26 1;
#X connect 98 0 27 1;
#X connect 99 0 28 1;
#X connect 100 0 29 1;
#X connect 101 0 30 1;
#X connect 102 0 31 1;
#X connect 103 0 32 1;
#X connect 104 0 33 1;
#X connect 105 0 34 1;
#X connect 106 0 35 1;
#X connect 107 0 36 1;
#X connect 108 0 109 0;
#X connect 110 0 15 0;
#X connect 110 0 14 0;
#X connect 110 0 13 0;
#X connect 110 0 12 0;
#X connect 110 0 11 0;
#X connect 110 0 10 0;
#X connect 110 0 9 0;
#X connect 110 0 8 0;
#X connect 110 0 7 0;
#X connect 110 0 6 0;
#X connect 110 0 5 0;
#X connect 110 0 4 0;
#X connect 110 0 3 0;
#X connect 110 0 2 0;
#X connect 110 0 1 0;
#X connect 110 0 0 0;
#X connect 110 0 89 0;
#X connect 110 0 88 0;
#X connect 110 0 87 0;
#X connect 110 0 86 0;
#X connect 110 0 85 0;
#X connect 110 0 84 0;
#X connect 110 0 83 0;
#X connect 110 0 82 0;
#X connect 110 0 81 0;
#X connect 110 0 80 0;
#X connect 110 0 79 0;
#X connect 110 0 78 0;
#X connect 110 0 77 0;
#X connect 110 0 76 0;
#X connect 110 0 75 0;
#X connect 110 0 74 0;
#X connect 110 0 107 0;
#X connect 110 0 106 0;
#X connect 110 0 105 0;
#X connect 110 0 104 0;
#X connect 110 0 103 0;
#X connect 110 0 102 0;
#X connect 110 0 101 0;
#X connect 110 0 100 0;
#X connect 110 0 99 0;
#X connect 110 0 98 0;
#X connect 110 0 97 0;
#X connect 110 0 96 0;
#X connect 110 0 95 0;
#X connect 110 0 94 0;
#X connect 110 0 93 0;
#X connect 110 0 92 0;
#X connect 111 0 110 0;
#X connect 128 0 127 0;
#X connect 128 1 126 0;
#X connect 128 2 125 0;
#X connect 128 3 124 0;
#X connect 128 4 123 0;
#X connect 128 5 122 0;
#X connect 128 6 121 0;
#X connect 128 7 120 0;
#X connect 128 8 119 0;
#X connect 128 9 118 0;
#X connect 128 10 117 0;
#X connect 128 11 116 0;
#X connect 128 12 115 0;
#X connect 128 13 114 0;
#X connect 128 14 113 0;
#X connect 128 15 112 0;
#X connect 129 0 15 0;
#X connect 130 0 11 0;
#X connect 131 0 12 0;
#X connect 132 0 13 0;
#X connect 133 0 14 0;
#X connect 134 0 3 0;
#X connect 135 0 4 0;
#X connect 136 0 5 0;
#X connect 137 0 6 0;
#X connect 138 0 7 0;
#X connect 139 0 8 0;
#X connect 140 0 9 0;
#X connect 141 0 10 0;
#X connect 142 0 0 0;
#X connect 143 0 1 0;
#X connect 144 0 2 0;
#X connect 145 0 129 0;
#X connect 145 0 133 0;
#X connect 145 0 132 0;
#X connect 145 0 131 0;
#X connect 145 0 130 0;
#X connect 145 0 141 0;
#X connect 145 0 140 0;
#X connect 145 0 138 0;
#X connect 145 0 137 0;
#X connect 145 0 136 0;
#X connect 145 0 135 0;
#X connect 145 0 134 0;
#X connect 145 0 144 0;
#X connect 145 0 143 0;
#X connect 145 0 142 0;
#X connect 145 0 163 0;
#X connect 145 0 167 0;
#X connect 145 0 166 0;
#X connect 145 0 165 0;
#X connect 145 0 164 0;
#X connect 145 0 175 0;
#X connect 145 0 174 0;
#X connect 145 0 157 0;
#X connect 145 0 172 0;
#X connect 145 0 155 0;
#X connect 145 0 170 0;
#X connect 145 0 153 0;
#X connect 145 0 168 0;
#X connect 145 0 162 0;
#X connect 145 0 161 0;
#X connect 145 0 160 0;
#X connect 145 0 147 0;
#X connect 145 0 151 0;
#X connect 145 0 150 0;
#X connect 145 0 159 0;
#X connect 145 0 149 0;
#X connect 145 0 148 0;
#X connect 145 0 158 0;
#X connect 145 0 173 0;
#X connect 145 0 156 0;
#X connect 145 0 171 0;
#X connect 145 0 154 0;
#X connect 145 0 169 0;
#X connect 145 0 152 0;
#X connect 145 0 178 0;
#X connect 145 0 177 0;
#X connect 145 0 176 0;
#X connect 146 0 145 0;
#X connect 147 0 107 0;
#X connect 148 0 102 0;
#X connect 149 0 103 0;
#X connect 150 0 105 0;
#X connect 151 0 106 0;
#X connect 152 0 95 0;
#X connect 153 0 78 0;
#X connect 154 0 97 0;
#X connect 155 0 80 0;
#X connect 156 0 99 0;
#X connect 157 0 82 0;
#X connect 158 0 101 0;
#X connect 159 0 104 0;
#X connect 160 0 75 0;
#X connect 161 0 75 0;
#X connect 162 0 76 0;
#X connect 163 0 89 0;
#X connect 164 0 85 0;
#X connect 165 0 86 0;
#X connect 166 0 87 0;
#X connect 167 0 88 0;
#X connect 168 0 77 0;
#X connect 169 0 96 0;
#X connect 170 0 79 0;
#X connect 171 0 98 0;
#X connect 172 0 81 0;
#X connect 173 0 100 0;
#X connect 174 0 83 0;
#X connect 175 0 84 0;
#X connect 176 0 92 0;
#X connect 177 0 93 0;
#X connect 178 0 94 0;
#X connect 179 0 180 0;
#X connect 179 0 182 0;
#X connect 180 0 145 0;
#X connect 181 0 145 0;
#X connect 182 0 181 0;
#X connect 186 0 145 1;
#X connect 187 0 17 1;
#X connect 187 0 186 0;
#X coords 0 1 100 -1 470 140 1 0 0;
#X restore 98 -18 graph;
#X msg 657 93 \; pd dsp 1;
#N canvas 66 82 800 532 (subpatch) 0;
#X obj 238 -76 inlet~;
#X obj 238 -47 *~ 0;
#X obj 297 -76 inlet~;
#X obj 297 -48 *~ 0;
#X obj 349 -77 inlet~;
#X obj 349 -51 *~ 0;
#X obj 238 154 +~;
#X obj 239 -19 +~;
#X obj 239 182 *~ 0;
#X obj 239 207 outlet~;
#X obj 173 14 vsl 10 70 0 1 0 0 empty empty empty 0 -9 0 10 -262144
-1 -1 4830 1;
#X obj 99 14 vsl 10 70 0 1 0 0 empty empty empty 0 -9 0 10 -262144
-1 -1 1380 1;
#X obj 53 14 vsl 10 70 0 1 0 0 empty empty empty 0 -9 0 10 -262144
-1 -1 483 1;
#X obj 11 14 vsl 10 70 0 1 0 0 empty empty empty 0 -9 0 10 -262144
-1 -1 5175 1;
#X text 2 107 Ch 1;
#X text 43 106 Ch 2;
#X text 90 106 Ch 3;
#X text 157 106 Master;
#X msg 83 -162 0.75;
#X msg 177 -168 0.2;
#X msg 220 -169 0.7;
#X obj 130 -210 r pr;
#X msg 124 -164 0.07;
#X connect 0 0 1 0;
#X connect 1 0 7 0;
#X connect 2 0 3 0;
#X connect 3 0 7 1;
#X connect 4 0 5 0;
#X connect 5 0 6 0;
#X connect 6 0 8 0;
#X connect 7 0 6 0;
#X connect 8 0 9 0;
#X connect 10 0 8 1;
#X connect 11 0 5 1;
#X connect 12 0 3 1;
#X connect 13 0 1 1;
#X connect 18 0 13 0;
#X connect 19 0 11 0;
#X connect 20 0 10 0;
#X connect 21 0 18 0;
#X connect 21 0 22 0;
#X connect 21 0 19 0;
#X connect 21 0 20 0;
#X connect 22 0 12 0;
#X coords 0 1 100 -1 200 140 1 0 0;
#X restore 405 133 graph;
#X obj 98 417 dac~;
#N canvas 769 162 800 532 (subpatch) 1;
#X obj 268 -28 inlet~;
#X obj 269 131 outlet~;
#X obj 336 24 delwrite~ ab 375;
#X obj 269 94 +~;
#X obj 269 19 *~ 0;
#X obj 444 -28 delread~ ab 375;
#X obj 445 77 *~ 0;
#X obj 370 -12 *~ 0;
#X floatatom 7 70 5 0 0 0 - - -;
#X obj 13 13 knob 25 25 0 1 0 0 empty empty empty 0 -8 0 8 -262144
-1 -1 0 1;
#X obj 137 -138 * -1;
#X obj 137 -109 + 1;
#X obj 66 12 knob 25 25 0 1 0 0 empty empty empty 0 -8 0 8 -262144
-1 -1 0 1;
#X text 1 45 dry/wet;
#X text 52 46 feedback;
#X text 12 88 ms;
#X obj 13 -80 r pr;
#X msg 13 -55 0.1;
#X connect 0 0 4 0;
#X connect 0 0 2 0;
#X connect 3 0 1 0;
#X connect 4 0 3 0;
#X connect 5 0 6 0;
#X connect 5 0 7 0;
#X connect 6 0 3 1;
#X connect 7 0 2 0;
#X connect 8 0 5 0;
#X connect 9 0 10 0;
#X connect 9 0 6 1;
#X connect 10 0 11 0;
#X connect 11 0 4 1;
#X connect 12 0 7 1;
#X connect 16 0 17 0;
#X connect 17 0 9 0;
#X coords 0 1 100 -1 115 110 1 0 0;
#X restore 99 279 graph;
#X connect 0 0 1 0;
#X connect 0 0 6 0;
#X connect 2 0 7 0;
#X connect 3 0 7 1;
#X connect 4 0 7 2;
#X connect 5 0 2 0;
#X connect 5 1 3 0;
#X connect 5 2 4 0;
#X connect 7 0 9 0;
#X connect 9 0 8 0;
#X connect 9 0 8 1;
