#N canvas 0 0 800 532 10;
#X obj 133 39 mtof;
#X obj 185 39 sig~;
#X obj 220 39 sig~;
#X obj 189 147 *~;
#X obj 149 226 *~;
#X obj 150 107 *~;
#X obj 133 267 +~;
#X obj 150 182 osc~;
#X obj 134 298 osc~;
#X obj 183 329 *~;
#X obj 199 290 line~;
#X obj 183 369 outlet~;
#X obj 119 -6 inlet;
#X obj 172 -8 inlet;
#X obj 222 -8 inlet;
#X obj 274 1 inlet;
#X connect 0 0 5 0;
#X connect 0 0 6 0;
#X connect 1 0 5 1;
#X connect 2 0 3 1;
#X connect 3 0 4 1;
#X connect 4 0 6 1;
#X connect 5 0 3 0;
#X connect 5 0 7 0;
#X connect 6 0 8 0;
#X connect 7 0 4 0;
#X connect 8 0 9 0;
#X connect 9 0 11 0;
#X connect 10 0 9 1;
#X connect 12 0 0 0;
#X connect 13 0 1 0;
#X connect 14 0 2 0;
#X connect 15 0 10 0;
