#N canvas 534 281 631 432 10;
#X msg 29 37 create;
#X msg 53 66 destroy;
#X obj 95 149 tgl 15 0 empty empty empty 0 -6 0 8 -262144 -1 -1 0 1
;
#X obj 443 67 gemhead;
#X obj 443 47 tgl 15 0 empty empty empty 0 -6 0 8 -262144 -1 -1 0 1
;
#X msg 76 98 reset;
#X text 88 35 create the content window;
#X text 122 68 destroy the content window;
#X text 129 97 reset gemwin parameters;
#X text 126 147 turn the global rendering ON/OFF;
#X obj 443 144 rotateXYZ;
#X floatatom 512 104 5 0 0 0 - - -;
#X obj 29 230 gemwin 50;
#X obj 443 220 cube;
#X text 455 338 by Aymeric Mansoux;
#X text 55 274 NOTE: GEM only supports 8 bit and 24 bit color! If you
get a message that says GEM is noly using 8 bits \, you need to reset
your display to 24 bit.;
#X connect 0 0 12 0;
#X connect 1 0 12 0;
#X connect 2 0 12 0;
#X connect 3 0 10 0;
#X connect 4 0 3 0;
#X connect 5 0 12 0;
#X connect 10 0 13 0;
#X connect 11 0 10 3;
#X connect 11 0 10 2;
#X connect 11 0 10 1;
