#N canvas 511 137 631 432 10;
#X msg 17 19 create;
#X msg 34 44 destroy;
#X obj 74 98 tgl 15 0 empty empty empty 0 -6 0 8 -262144 -1 -1 0 1
;
#X obj 170 71 gemhead;
#X obj 170 51 tgl 15 0 empty renderinit empty 0 -6 0 8 -262144 -1 -1
0 1;
#X msg 56 70 reset;
#X obj 170 107 rotateXYZ;
#X floatatom 230 72 5 0 0 0 - - -;
#X obj 287 71 gemhead;
#X obj 287 51 tgl 15 0 empty renderinit empty 0 -6 0 8 -262144 -1 -1
0 1;
#X obj 287 107 rotateXYZ;
#X floatatom 347 72 5 0 0 0 - - -;
#X obj 170 133 cube 1;
#X obj 287 133 rectangle 2 1;
#X obj 17 165 loadbang;
#X obj 399 72 gemhead;
#X obj 399 52 tgl 15 0 empty renderinit empty 0 -6 0 8 -262144 -1 -1
0 1;
#X obj 399 108 rotateXYZ;
#X floatatom 459 73 5 0 0 0 - - -;
#X obj 172 189 gemhead;
#X obj 172 169 tgl 15 0 empty renderinit empty 0 -6 0 8 -262144 -1
-1 0 1;
#X obj 172 225 rotateXYZ;
#X floatatom 232 190 5 0 0 0 - - -;
#X obj 287 190 gemhead;
#X obj 287 170 tgl 15 0 empty renderinit empty 0 -6 0 8 -262144 -1
-1 0 1;
#X obj 287 226 rotateXYZ;
#X floatatom 347 191 5 0 0 0 - - -;
#X obj 398 189 gemhead;
#X obj 398 169 tgl 15 0 empty renderinit empty 0 -6 0 8 -262144 -1
-1 0 1;
#X obj 398 225 rotateXYZ;
#X floatatom 458 190 5 0 0 0 - - -;
#X obj 172 251 circle;
#X obj 399 134 square 2;
#X obj 398 251 primTri;
#X msg 17 189 \; renderinit 0;
#X obj 287 252 disk 2 32 1;
#X obj 171 305 gemhead;
#X obj 171 285 tgl 15 0 empty renderinit empty 0 -6 0 8 -262144 -1
-1 0 1;
#X obj 171 341 rotateXYZ;
#X floatatom 231 306 5 0 0 0 - - -;
#X obj 171 367 sphere;
#X obj 284 304 gemhead;
#X obj 284 284 tgl 15 0 empty renderinit empty 0 -6 0 8 -262144 -1
-1 0 1;
#X obj 284 340 rotateXYZ;
#X floatatom 344 305 5 0 0 0 - - -;
#X obj 284 366 cylinder 1 12;
#X obj 398 304 gemhead;
#X obj 398 284 tgl 15 0 empty renderinit empty 0 -6 0 8 -262144 -1
-1 0 1;
#X obj 398 340 rotateXYZ;
#X floatatom 458 305 5 0 0 0 - - -;
#X obj 398 366 model;
#X obj 506 320 openpanel;
#X obj 506 302 bng 15 250 50 0 empty empty empty 0 -6 0 8 -262144 -1
-1;
#X msg 506 340 open \$1;
#X obj 17 133 gemwin 50;
#X text 169 399 by Aymeric Mansoux;
#X connect 0 0 54 0;
#X connect 1 0 54 0;
#X connect 2 0 54 0;
#X connect 3 0 6 0;
#X connect 4 0 3 0;
#X connect 5 0 54 0;
#X connect 6 0 12 0;
#X connect 7 0 6 3;
#X connect 7 0 6 2;
#X connect 7 0 6 1;
#X connect 8 0 10 0;
#X connect 9 0 8 0;
#X connect 10 0 13 0;
#X connect 11 0 10 3;
#X connect 11 0 10 2;
#X connect 11 0 10 1;
#X connect 14 0 34 0;
#X connect 15 0 17 0;
#X connect 16 0 15 0;
#X connect 17 0 32 0;
#X connect 18 0 17 3;
#X connect 18 0 17 2;
#X connect 18 0 17 1;
#X connect 19 0 21 0;
#X connect 20 0 19 0;
#X connect 21 0 31 0;
#X connect 22 0 21 3;
#X connect 22 0 21 2;
#X connect 22 0 21 1;
#X connect 23 0 25 0;
#X connect 24 0 23 0;
#X connect 25 0 35 0;
#X connect 26 0 25 3;
#X connect 26 0 25 2;
#X connect 26 0 25 1;
#X connect 27 0 29 0;
#X connect 28 0 27 0;
#X connect 29 0 33 0;
#X connect 30 0 29 3;
#X connect 30 0 29 2;
#X connect 30 0 29 1;
#X connect 36 0 38 0;
#X connect 37 0 36 0;
#X connect 38 0 40 0;
#X connect 39 0 38 3;
#X connect 39 0 38 2;
#X connect 39 0 38 1;
#X connect 41 0 43 0;
#X connect 42 0 41 0;
#X connect 43 0 45 0;
#X connect 44 0 43 3;
#X connect 44 0 43 2;
#X connect 44 0 43 1;
#X connect 46 0 48 0;
#X connect 47 0 46 0;
#X connect 48 0 50 0;
#X connect 49 0 48 3;
#X connect 49 0 48 2;
#X connect 51 0 53 0;
#X connect 52 0 51 0;
#X connect 53 0 50 0;
