#N canvas 368 22 883 426 10;
#X msg 17 19 create;
#X msg 34 44 destroy;
#X obj 74 98 tgl 15 0 empty empty empty 0 -6 0 8 -262144 -1 -1 1 1
;
#X obj 187 53 gemhead;
#X obj 187 33 tgl 15 0 empty renderinit empty 0 -6 0 8 -262144 -1 -1
0 1;
#X msg 56 70 reset;
#X obj 187 242 rotateXYZ;
#X floatatom 245 198 5 0 0 0 - - -;
#X obj 17 165 loadbang;
#X msg 17 189 \; renderinit 0;
#X obj 17 133 gemwin 50;
#X obj 187 152 translateXYZ;
#X floatatom 221 107 5 0 0 0 - - -;
#X floatatom 261 107 5 0 0 0 - - -;
#X floatatom 301 107 5 0 0 0 - - -;
#X obj 363 51 gemhead;
#X obj 363 31 tgl 15 0 empty renderinit empty 0 -6 0 8 -262144 -1 -1
0 1;
#X obj 363 152 rotateXYZ;
#X floatatom 421 108 5 0 0 0 - - -;
#X obj 363 240 translateXYZ;
#X floatatom 397 195 5 0 0 0 - - -;
#X floatatom 437 195 5 0 0 0 - - -;
#X floatatom 477 195 5 0 0 0 - - -;
#X obj 187 313 square 1;
#X obj 363 317 square 1;
#X obj 529 46 gemhead;
#X obj 529 26 tgl 15 0 empty renderinit empty 0 -6 0 8 -262144 -1 -1
0 1;
#X obj 529 158 translateXYZ;
#X floatatom 563 113 5 0 0 0 - - -;
#X floatatom 603 113 5 0 0 0 - - -;
#X obj 529 185 square 1;
#X floatatom 645 114 5 0 0 0 - - -;
#X obj 529 261 translateXYZ;
#X floatatom 563 216 5 0 0 0 - - -;
#X floatatom 603 216 5 0 0 0 - - -;
#X obj 529 288 square 1;
#X floatatom 645 217 5 0 0 0 - - -;
#X obj 529 367 translateXYZ;
#X floatatom 563 322 5 0 0 0 - - -;
#X floatatom 603 322 5 0 0 0 - - -;
#X obj 529 394 square 1;
#X floatatom 645 323 5 0 0 0 - - -;
#X obj 529 88 rotateXYZ;
#X floatatom 595 58 5 0 0 0 - - -;
#X obj 729 51 gemhead;
#X obj 729 31 tgl 15 0 empty renderinit empty 0 -6 0 8 -262144 -1 -1
1 1;
#X floatatom 763 105 5 0 0 0 - - -;
#X obj 729 318 square 1;
#X obj 729 150 translate;
#X obj 729 240 rotate;
#X floatatom 760 209 5 0 0 0 - - -;
#X msg 806 124 2 0 -3;
#X msg 804 206 1 -2 3;
#X obj 187 270 color 1 0 0;
#X obj 363 283 color 0 1 0;
#X obj 729 286 color 0 0 1;
#X text 170 387 by Aymeric Mansoux;
#X msg 817 92 1 1 1;
#X msg 815 57 0 0 1;
#X msg 816 27 0 1 0;
#X connect 0 0 10 0;
#X connect 1 0 10 0;
#X connect 2 0 10 0;
#X connect 3 0 11 0;
#X connect 4 0 3 0;
#X connect 5 0 10 0;
#X connect 6 0 53 0;
#X connect 7 0 6 3;
#X connect 7 0 6 2;
#X connect 7 0 6 1;
#X connect 8 0 9 0;
#X connect 11 0 6 0;
#X connect 12 0 11 1;
#X connect 13 0 11 2;
#X connect 14 0 11 3;
#X connect 15 0 17 0;
#X connect 16 0 15 0;
#X connect 17 0 19 0;
#X connect 18 0 17 3;
#X connect 18 0 17 2;
#X connect 18 0 17 1;
#X connect 19 0 54 0;
#X connect 20 0 19 1;
#X connect 21 0 19 2;
#X connect 22 0 19 3;
#X connect 25 0 42 0;
#X connect 26 0 25 0;
#X connect 27 0 30 0;
#X connect 28 0 27 1;
#X connect 29 0 27 2;
#X connect 30 0 32 0;
#X connect 31 0 27 3;
#X connect 32 0 35 0;
#X connect 33 0 32 1;
#X connect 34 0 32 2;
#X connect 35 0 37 0;
#X connect 36 0 32 3;
#X connect 37 0 40 0;
#X connect 38 0 37 1;
#X connect 39 0 37 2;
#X connect 41 0 37 3;
#X connect 42 0 27 0;
#X connect 43 0 42 3;
#X connect 43 0 42 2;
#X connect 44 0 48 0;
#X connect 45 0 44 0;
#X connect 46 0 48 1;
#X connect 48 0 49 0;
#X connect 49 0 55 0;
#X connect 50 0 49 1;
#X connect 51 0 48 2;
#X connect 52 0 49 2;
#X connect 53 0 23 0;
#X connect 54 0 24 0;
#X connect 55 0 47 0;
#X connect 57 0 48 2;
#X connect 58 0 48 2;
#X connect 59 0 48 2;
