#N canvas 739 75 468 555 10;
#X obj 17 177 gemwin;
#X msg 17 80 create \, 1;
#X msg 25 106 0 \, destroy;
#X text 219 73 This is a render-chain.;
#X text 221 87 Always start it with gemhead.;
#X text 219 116 takes the video image from your camera;
#X text 15 17 How do we detect movement? Simply by comparing the current
frame of the video with the previous frame.;
#X obj 157 218 pix_delay 100;
#X obj 111 77 gemhead;
#X obj 111 164 pix_separator;
#X obj 199 163 pix_separator;
#X obj 111 296 pix_texture;
#X obj 111 114 pix_video;
#X floatatom 231 198 5 0 0 0 - - -;
#X msg 35 154 frame \$1;
#X floatatom 35 132 5 0 0 0 - - -;
#X obj 111 327 rectangle 4 3;
#X text 293 162 separators duplicate the;
#X text 293 175 pixel information.;
#X text 16 517 Max Neupert \, GMU - Bauhaus University Weimar 2009
;
#X text 291 219 delay one of the streams;
#X text 290 243 calculate the difference;
#X text 226 300 texture the pixels;
#X text 226 328 on a rectangular shape;
#X msg 32 440 direction \$1;
#X obj 32 422 tgl 15 1 empty empty empty 0 -6 0 8 -262144 -1 -1 1 1
;
#X obj 16 466 pix_compare;
#X obj 109 466 pix_subtract;
#X obj 111 243 pix_diff;
#X text 17 389 Other objects to try:;
#X connect 1 0 0 0;
#X connect 2 0 0 0;
#X connect 7 0 28 1;
#X connect 8 0 12 0;
#X connect 9 0 28 0;
#X connect 10 0 7 0;
#X connect 11 0 16 0;
#X connect 12 0 9 0;
#X connect 12 0 10 0;
#X connect 13 0 7 1;
#X connect 14 0 0 0;
#X connect 15 0 14 0;
#X connect 24 0 26 0;
#X connect 25 0 24 0;
#X connect 28 0 11 0;
