#N canvas 220 105 639 594 10;
#X obj 140 120 gemhead;
#X obj 23 477 pix_texture;
#N canvas 340 107 682 322 gemwin 0;
#X obj 102 122 tgl 15 0 \$0-gemstart \$0-gemstart empty 17 7 0 10 -262144
-1 -1 0 1;
#X obj 102 161 r \$0-gemstart;
#X obj 102 182 select 1 0;
#X msg 102 214 create \, 1;
#X msg 177 215 destroy;
#X obj 102 239 t a;
#X obj 318 54 inlet;
#X obj 318 255 gemwin;
#X obj 318 100 t a a;
#X obj 318 287 outlet;
#X obj 350 128 route create destroy;
#X obj 350 150 t b;
#X msg 350 172 1;
#X obj 390 150 t b;
#X msg 390 172 0;
#X obj 350 195 t f;
#X msg 350 219 set \$1;
#X text 118 122 rendering;
#X connect 1 0 2 0;
#X connect 2 0 3 0;
#X connect 2 1 4 0;
#X connect 3 0 5 0;
#X connect 4 0 5 0;
#X connect 5 0 8 0;
#X connect 6 0 8 0;
#X connect 7 0 9 0;
#X connect 8 0 7 0;
#X connect 8 1 10 0;
#X connect 10 0 11 0;
#X connect 10 1 13 0;
#X connect 11 0 12 0;
#X connect 12 0 15 0;
#X connect 13 0 14 0;
#X connect 14 0 15 0;
#X connect 15 0 16 0;
#X connect 16 0 0 0;
#X coords 0 -1 1 1 85 40 1 100 100;
#X restore 475 31 pd gemwin;
#X obj 23 522 rectangle 4 3;
#X obj 140 174 pix_grey;
#X obj 140 149 pix_video;
#X obj 140 326 pix_blob;
#X obj 23 500 translateXYZ 0 0 -0.1;
#X obj 177 228 hsl 128 15 0 1 0 1 empty empty threshold 8 8 0 10 -262130
-1 -1 900 0;
#X text 356 148 <-- get the video camera;
#X text 356 173 <-- convert to grey for easier tracking;
#X text 356 321 <-- track the (x \, y) coordinates and size;
#X text 380 334 of the "blob" of the difference;
#X text 356 405 <-- render a cursor using the (x \, y) and size;
#X text 6 540 render the video of the;
#X text 6 552 frame difference;
#N canvas 11 53 620 812 cursor 0;
#X obj 17 14 inlet;
#X obj 182 16 inlet;
#X obj 101 346 translateXYZ;
#X text 93 148 0.64;
#X text 67 151 1;
#X obj 29 71 t f f;
#X obj 63 186 -;
#X text 50 173 X-Range;
#X text 240 165 Y-Range;
#X obj 23 231 -;
#X obj 23 271 *;
#X obj 29 95 max 0;
#X obj 71 95 min 10;
#X obj 55 116 f;
#X obj 29 115 f;
#X obj 23 293 - 4;
#X text 248 146 0.64;
#X text 222 149 1;
#X obj 214 59 t f f;
#X obj 218 165 -;
#X obj 182 209 -;
#X obj 182 231 *;
#X obj 214 93 max 0;
#X obj 256 93 min 10;
#X obj 244 130 f;
#X obj 218 129 f;
#X obj 321 27 inlet;
#X obj 321 59 * 10;
#X obj 101 320 gemhead 15;
#X obj 254 509 circle 0.1;
#X obj 101 423 separator;
#X obj 124 463 separator;
#X obj 124 484 rectangle 0.2 0.01;
#X obj 254 423 separator;
#X msg 282 478 draw line;
#X obj 282 457 loadbang;
#X obj 101 366 colorRGB 1 0 0 1;
#X obj 101 442 rectangle 0.01 0.2;
#X msg 353 478 width \$1;
#X obj 353 342 int;
#X obj 353 363 + 1;
#X msg 63 209 8 \$1;
#X obj 63 230 /;
#X obj 17 36 t f f;
#X obj 182 38 t f f;
#X msg 218 187 8 \$1;
#X obj 218 209 /;
#X obj 182 253 * -1;
#X obj 182 275 + 4;
#X obj 321 81 t f f;
#X obj 101 388 t a a a;
#X obj 101 293 > 0.001;
#X connect 0 0 43 0;
#X connect 1 0 44 0;
#X connect 2 0 36 0;
#X connect 5 0 11 0;
#X connect 5 1 12 0;
#X connect 6 0 41 0;
#X connect 9 0 10 0;
#X connect 10 0 15 0;
#X connect 11 0 14 0;
#X connect 12 0 13 0;
#X connect 13 0 6 1;
#X connect 13 0 9 1;
#X connect 13 0 12 1;
#X connect 14 0 6 0;
#X connect 14 0 11 1;
#X connect 15 0 2 1;
#X connect 18 0 22 0;
#X connect 18 1 23 0;
#X connect 19 0 45 0;
#X connect 20 0 21 0;
#X connect 21 0 47 0;
#X connect 22 0 25 0;
#X connect 23 0 24 0;
#X connect 24 0 19 1;
#X connect 24 0 20 1;
#X connect 24 0 23 1;
#X connect 25 0 19 0;
#X connect 25 0 22 1;
#X connect 26 0 27 0;
#X connect 26 0 51 0;
#X connect 27 0 49 0;
#X connect 28 0 2 0;
#X connect 30 0 37 0;
#X connect 31 0 32 0;
#X connect 33 0 29 0;
#X connect 34 0 29 0;
#X connect 35 0 34 0;
#X connect 36 0 50 0;
#X connect 38 0 29 0;
#X connect 39 0 40 0;
#X connect 40 0 38 0;
#X connect 41 0 42 0;
#X connect 42 0 10 1;
#X connect 43 0 9 0;
#X connect 43 1 5 0;
#X connect 44 0 20 0;
#X connect 44 1 18 0;
#X connect 45 0 46 0;
#X connect 46 0 21 1;
#X connect 47 0 48 0;
#X connect 48 0 2 2;
#X connect 49 0 29 1;
#X connect 49 1 39 0;
#X connect 50 0 30 0;
#X connect 50 1 31 0;
#X connect 50 2 33 0;
#X connect 51 0 28 0;
#X restore 155 411 pd cursor;
#X obj 140 259 pix_movement 0.2;
#X text 357 258 <-- pix_movement with threshold;
#X floatatom 224 343 5 0 0 1 X-coord - -;
#X floatatom 224 362 5 0 0 1 Y-coord - -;
#X floatatom 224 382 5 0 0 1 size - -;
#X text 28 12 PIX_BLOB and PIX_MOVEMENT for motion tracking;
#X text 27 50 [pix_blob] will calculate the "center-of-gravity" of
a certain (combination of) channel(s).;
#X text 284 518 See also;
#X obj 342 518 pix_multiblob;
#X text 426 518 for multiple blob detection !;
#X connect 0 0 5 0;
#X connect 1 0 7 0;
#X connect 4 0 17 0;
#X connect 5 0 4 0;
#X connect 6 1 16 0;
#X connect 6 1 19 0;
#X connect 6 2 16 1;
#X connect 6 2 20 0;
#X connect 6 3 16 2;
#X connect 6 3 21 0;
#X connect 7 0 3 0;
#X connect 8 0 17 1;
#X connect 17 0 6 0;
#X connect 17 0 1 0;
