#N canvas 514 23 607 574 10;
#X obj 27 8 cnv 15 400 50 empty empty 8 14 24 0 24 -175655 -66577 0
;
#X text 29 549 Max Neupert \, GMU - Bauhaus University Weimar 2008
;
#X text 75 16 Pure data + Gem;
#X obj 25 159 gemwin;
#X msg 25 103 create \, 1;
#X msg 33 129 0 \, destroy;
#X obj 126 88 gemhead;
#X obj 126 124 pix_video;
#X obj 126 311 pix_texture;
#X text 230 81 This is a render-chain.;
#X text 230 123 takes the video image from your camera;
#X text 17 335 onto an rectangle;
#X obj 126 153 pix_rgba;
#X obj 126 182 pix_movement 0.2;
#X obj 188 217 tgl 15 0 empty empty empty 17 7 0 10 -262144 -1 -1 0
1;
#X text 234 182 compares the frames;
#X text 233 214 enables the alpha channel;
#X obj 126 249 pix_blob 4;
#X obj 126 217 alpha;
#X obj 32 398 loadbang;
#X msg 32 444 \; pd dsp 1;
#X floatatom 190 146 5 0 1 0 - - -;
#X obj 126 335 rectangle 4 3;
#X text 29 479 this switches audio on;
#X text 30 493 when the patch is loaded;
#X text 9 310 textures the video;
#X obj 32 421 del 3000;
#X text 232 94 It always starts with gemhead.;
#X text 230 153 converts the colorspace to rgb + alpha;
#X obj 126 287 mn-flip;
#X floatatom 240 275 5 0 0 0 - - -;
#X obj 233 296 > 0.01;
#X floatatom 241 317 5 0 0 0 - - -;
#X obj 233 336 change;
#X obj 233 357 sel 1;
#X obj 233 450 readsf~ 2;
#X obj 233 475 dac~;
#X msg 233 429 open hahn.aif \, 1;
#X obj 233 384 spigot 1;
#X obj 233 406 t b b;
#X msg 278 360 0;
#X msg 308 360 1;
#X text 232 249 detects the blob(size);
#X text 75 29 Using sound to signal the detected movement;
#X connect 4 0 3 0;
#X connect 5 0 3 0;
#X connect 6 0 7 0;
#X connect 7 0 12 0;
#X connect 8 0 22 0;
#X connect 12 0 13 0;
#X connect 13 0 18 0;
#X connect 14 0 18 0;
#X connect 17 0 29 0;
#X connect 17 3 30 0;
#X connect 17 3 31 0;
#X connect 18 0 17 0;
#X connect 19 0 26 0;
#X connect 21 0 13 1;
#X connect 26 0 20 0;
#X connect 29 0 8 0;
#X connect 31 0 32 0;
#X connect 31 0 33 0;
#X connect 33 0 34 0;
#X connect 34 0 38 0;
#X connect 35 0 36 0;
#X connect 35 1 36 1;
#X connect 35 2 41 0;
#X connect 37 0 35 0;
#X connect 38 0 39 0;
#X connect 39 0 37 0;
#X connect 39 1 40 0;
#X connect 40 0 38 1;
#X connect 41 0 38 1;
