#N canvas 415 51 639 594 10;
#X obj 23 137 gemhead;
#X obj 23 497 pix_texture;
#N canvas 340 107 682 322 gemwin 0;
#X obj 102 122 tgl 15 0 \$0-gemstart \$0-gemstart empty 17 7 0 10 -262144
-1 -1 0 1;
#X obj 102 161 r \$0-gemstart;
#X obj 102 182 select 1 0;
#X msg 102 214 create \, 1;
#X msg 177 215 destroy;
#X obj 102 239 t a;
#X obj 318 54 inlet;
#X obj 318 255 gemwin;
#X obj 318 100 t a a;
#X obj 318 287 outlet;
#X obj 350 128 route create destroy;
#X obj 350 150 t b;
#X msg 350 172 1;
#X obj 390 150 t b;
#X msg 390 172 0;
#X obj 350 195 t f;
#X msg 350 219 set \$1;
#X text 118 122 rendering;
#X connect 1 0 2 0;
#X connect 2 0 3 0;
#X connect 2 1 4 0;
#X connect 3 0 5 0;
#X connect 4 0 5 0;
#X connect 5 0 8 0;
#X connect 6 0 8 0;
#X connect 7 0 9 0;
#X connect 8 0 7 0;
#X connect 8 1 10 0;
#X connect 10 0 11 0;
#X connect 10 1 13 0;
#X connect 11 0 12 0;
#X connect 12 0 15 0;
#X connect 13 0 14 0;
#X connect 14 0 15 0;
#X connect 15 0 16 0;
#X connect 16 0 0 0;
#X coords 0 -1 1 1 85 40 1 100 100;
#X restore 475 31 pd gemwin;
#X obj 23 522 rectangle 4 3;
#X obj 23 191 pix_grey;
#X obj 23 166 pix_video;
#X obj 23 276 pix_fiducialtrack all.trees;
#X floatatom 204 333 5 0 0 0 ID - -;
#X floatatom 204 349 5 0 0 0 x - -;
#X floatatom 204 365 5 0 0 0 y - -;
#X floatatom 204 381 5 0 0 0 angle - -;
#X obj 182 308 unpack 0 0 0 0;
#X obj 23 223 pix_threshold_bernsen 4 4;
#X text 20 18 tracking of FIDUCIAL MARKERS;
#X text 244 270 <-- tracks the markers as descriped in the file all.trees
;
#X text 308 306 <-- get marker ID \, position and angle;
#X obj 315 435 gemhead;
#X obj 315 460 color 1 0 0;
#X obj 315 539 rectangle 0.02 1;
#X obj 315 560 rectangle 1 0.02;
#X obj 315 486 translateXYZ 0 0 0.02;
#X obj 315 514 rotate 0 0 0 1;
#X obj 356 356 expr ($f1*(-8)+4)*(-1) \; $f2*(-6)+3 \; ($f3/6.2832)*360
;
#X text 19 53 These markers (see file fiducials.pdf) should be put
on objects and then their position/angle can be tracked efficiently.
See the reacTIVision project for more information.;
#X text 389 436 <- draw position and angle;
#X text 246 219 <-- image pre-processing: see help patch to get good
results (experiment a little bit with the parameters);
#X connect 0 0 5 0;
#X connect 1 0 3 0;
#X connect 4 0 12 0;
#X connect 5 0 4 0;
#X connect 6 0 1 0;
#X connect 6 1 11 0;
#X connect 11 0 7 0;
#X connect 11 1 8 0;
#X connect 11 1 22 0;
#X connect 11 2 9 0;
#X connect 11 2 22 1;
#X connect 11 3 10 0;
#X connect 11 3 22 2;
#X connect 12 0 6 0;
#X connect 16 0 17 0;
#X connect 17 0 20 0;
#X connect 18 0 19 0;
#X connect 20 0 21 0;
#X connect 21 0 18 0;
#X connect 22 0 20 1;
#X connect 22 1 20 2;
#X connect 22 2 21 1;
