#N canvas 66 22 947 789 10;
#X obj 300 241 cnv 15 160 170 empty empty empty 20 12 0 14 -24198 -66577
0;
#X obj 247 478 delay;
#X obj 317 365 hsl 128 15 0 1000 0 0 empty empty decay -2 -6 0 8 -262144
-1 -1 0 1;
#X obj 317 309 hsl 128 15 0 1000 0 0 empty empty sustain -2 -6 0 8
-262144 -1 -1 3700 1;
#X obj 316 257 hsl 128 15 0 1000 0 0 empty empty attack -2 -6 0 8 -262144
-1 -1 3200 1;
#X msg 32 412 1;
#X obj 32 618 line;
#X floatatom 328 277 5 0 0 0 - - -;
#X floatatom 329 329 5 0 0 0 - - -;
#X floatatom 329 385 5 0 0 0 - - -;
#X obj 32 443 pack 0 0;
#X obj 83 412 f;
#X obj 32 649 print;
#X floatatom 76 649 5 0 0 0 - - -;
#X obj 298 532 f;
#X obj 247 500 t b b;
#X msg 247 532 0;
#X obj 247 563 pack 0 0;
#X obj 32 380 t b b;
#X obj 32 247 bng 25 250 50 0 empty empty empty 0 -6 0 8 -258699 -1
-1;
#X obj 31 119 line;
#X floatatom 31 155 5 0 0 0 - - -;
#X msg 31 48 1 1000;
#X msg 92 48 0 1000;
#X text 29 5 Another way of ordering events over time is to use [line].
;
#X text 163 47 [line] takes a compound message \, with two parts: the
target number \, and the time it takes to get there in ms.;
#X msg 93 89 666;
#X text 164 85 Sending a single number to [line] will cause it to jump
to that number.;
#X text 330 419 Use the sliders to set the attack \, sustain and decay
times.;
#X text 344 478 <---Next \, [delay] holds the start bang for X ms.
;
#X text 104 443 <---First \, tell [line] to go to 1 in X ms.;
#X text 347 565 <---Last \, tell [line] to go to 0 in X ms.;
#X text 80 253 <---The "start bang"!;
#X text 230 643 derek@umatic.nl;
#X text 31 192 Here is a simple "envelope generator" using both [line]
and [delay]. We'll look at this again in the Audio section. It goes
from 0 to 1 \, holds at 1 \, then goes from 1 to 0;
#X obj 232 394 +;
#X obj 262 360 t b f;
#X floatatom 236 423 5 0 0 0 - - -;
#X connect 1 0 15 0;
#X connect 2 0 9 0;
#X connect 2 0 14 1;
#X connect 3 0 8 0;
#X connect 3 0 36 0;
#X connect 4 0 7 0;
#X connect 4 0 11 1;
#X connect 4 0 35 0;
#X connect 5 0 10 0;
#X connect 6 0 12 0;
#X connect 6 0 13 0;
#X connect 10 0 6 0;
#X connect 11 0 10 1;
#X connect 14 0 17 1;
#X connect 15 0 16 0;
#X connect 15 1 14 0;
#X connect 16 0 17 0;
#X connect 17 0 6 0;
#X connect 18 0 5 0;
#X connect 18 1 11 0;
#X connect 19 0 1 0;
#X connect 19 0 18 0;
#X connect 20 0 21 0;
#X connect 22 0 20 0;
#X connect 23 0 20 0;
#X connect 26 0 20 0;
#X connect 35 0 37 0;
#X connect 36 0 35 0;
#X connect 36 1 35 1;
#X connect 37 0 1 1;
