#N canvas 1 51 933 707 12;
#X obj 18 413 cnv 15 450 60 empty empty empty 20 12 0 14 -44926 -66577
0;
#X obj 22 12 cnv 15 200 20 empty empty empty 20 12 0 14 -44926 -66577
0;
#X obj 84 193 + 1;
#X obj 29 14 tgl 15 0 empty empty empty 0 -6 0 8 -258699 -1 -1 0 1
;
#X obj 29 223 mod 16;
#X obj 29 193 f;
#X floatatom 59 14 5 0 0 1 beats_per_minute - -;
#X obj 29 281 + 1;
#X obj 29 425 bng 25 250 50 0 empty empty 1 10 35 0 10 -24198 -1 -1
;
#X obj 56 425 bng 25 250 50 0 empty empty 2 10 35 0 10 -24198 -1 -1
;
#X obj 83 425 bng 25 250 50 0 empty empty 3 10 35 0 10 -24198 -1 -1
;
#X obj 110 425 bng 25 250 50 0 empty empty 4 10 35 0 10 -24198 -1 -1
;
#X obj 137 425 bng 25 250 50 0 empty empty 5 10 35 0 10 -24198 -1 -1
;
#X obj 164 425 bng 25 250 50 0 empty empty 6 10 35 0 10 -24198 -1 -1
;
#X obj 191 425 bng 25 250 50 0 empty empty 7 10 35 0 10 -24198 -1 -1
;
#X obj 218 425 bng 25 250 50 0 empty empty 8 10 35 0 10 -24198 -1 -1
;
#X obj 245 425 bng 25 250 50 0 empty empty 9 10 35 0 10 -24198 -1 -1
;
#X obj 272 425 bng 25 250 50 0 empty empty 10 10 35 0 10 -24198 -1
-1;
#X obj 299 425 bng 25 250 50 0 empty empty 11 10 35 0 10 -24198 -1
-1;
#X obj 326 425 bng 25 250 50 0 empty empty 12 10 35 0 10 -24198 -1
-1;
#X obj 353 425 bng 25 250 50 0 empty empty 13 10 35 0 10 -24198 -1
-1;
#X obj 380 425 bng 25 250 50 0 empty empty 14 10 35 0 10 -24198 -1
-1;
#X obj 407 425 bng 25 250 50 0 empty empty 15 10 35 0 10 -24198 -1
-1;
#X obj 434 425 bng 25 250 50 0 empty empty 16 10 35 0 10 -24198 -1
-1;
#X obj 29 253 hradio 15 1 0 16 empty empty empty 0 -6 0 8 -262144 -1
-1 13;
#X obj 59 81 /;
#X obj 59 35 t b f;
#X obj 59 104 * 1000;
#X obj 59 58 f 3.75;
#X obj 59 133 * 4;
#X text 256 194 Old-Skool 16-step sequencer. Output is bangs \, which
can be used to trigger samples \, etc.;
#X obj 29 165 metro;
#X floatatom 288 138 5 0 0 0 - - -;
#X floatatom 196 165 5 0 0 0 - - -;
#X text 112 134 comment;
#X text 112 104 (3.75/bpm)*1000 = delay between beats in milliseconds
;
#X floatatom 69 286 5 0 0 0 - - -;
#X obj 10 320 select 1 2 3 4 5 6 7 8 9 10 11 12 13 14 15 16;
#X floatatom 476 354 5 0 0 0 - - -;
#X obj 661 317 cnv 15 100 60 empty empty empty 20 12 0 14 -233017 -66577
0;
#X obj 696 341 bng 22 250 50 0 empty empty empty 0 -6 0 8 -45037 -1
-1;
#X obj 71 512 ssampler~;
#X obj 115 630 stereo-out~;
#X obj 194 511 ssampler~;
#X obj 321 510 ssampler~;
#X connect 2 0 5 1;
#X connect 3 0 31 0;
#X connect 4 0 24 0;
#X connect 5 0 2 0;
#X connect 5 0 4 0;
#X connect 6 0 26 0;
#X connect 7 0 37 0;
#X connect 8 0 41 0;
#X connect 10 0 41 0;
#X connect 10 0 43 0;
#X connect 12 0 41 0;
#X connect 13 0 44 0;
#X connect 14 0 41 0;
#X connect 15 0 43 0;
#X connect 16 0 41 0;
#X connect 18 0 41 0;
#X connect 18 0 43 0;
#X connect 19 0 44 0;
#X connect 20 0 41 0;
#X connect 22 0 41 0;
#X connect 22 0 43 0;
#X connect 24 0 7 0;
#X connect 24 0 36 0;
#X connect 25 0 27 0;
#X connect 26 0 28 0;
#X connect 26 1 25 1;
#X connect 27 0 29 0;
#X connect 27 0 32 0;
#X connect 28 0 25 0;
#X connect 29 0 31 1;
#X connect 29 0 33 0;
#X connect 31 0 5 0;
#X connect 37 0 8 0;
#X connect 37 1 9 0;
#X connect 37 2 10 0;
#X connect 37 3 11 0;
#X connect 37 4 12 0;
#X connect 37 5 13 0;
#X connect 37 6 14 0;
#X connect 37 7 15 0;
#X connect 37 8 16 0;
#X connect 37 9 17 0;
#X connect 37 10 18 0;
#X connect 37 11 19 0;
#X connect 37 12 20 0;
#X connect 37 13 21 0;
#X connect 37 14 22 0;
#X connect 37 15 23 0;
#X connect 37 16 38 0;
#X connect 41 0 42 0;
#X connect 41 1 42 1;
#X connect 43 0 42 0;
#X connect 43 1 42 1;
#X connect 44 0 42 0;
#X connect 44 1 42 1;
