#N canvas 427 13 636 684 10;
#X obj 385 -49 pix_texture;
#X msg 478 -127 snap;
#X obj 385 -151 render_trigger;
#X obj 408 -127 gemhead 5;
#X obj 385 161 rotateXYZ;
#X obj 85 -6 pix_texture;
#X obj 85 -63 pix_film;
#X obj 145 -63 f;
#X obj 85 153 translateXYZ;
#X msg 125 -103 open \$1;
#X obj 85 -175 gemhead 4;
#X obj 385 111 translateXYZ;
#X obj 85 244 rotateXYZ;
#X obj 105 224 f;
#X obj 102 184 tgl 15 0 empty empty empty 17 7 0 10 -4034 -1 -1 1 1
;
#X obj 132 224 + 1;
#X obj 116 10 grid grid1 100 0 10 100 0 10 0 0.1 0.1 10 10 123 64;
#N canvas 67 113 450 300 translated 0;
#X obj 119 196 line;
#X msg 119 176 \$1 100;
#X obj 192 196 line;
#X msg 192 176 \$1 100;
#X obj 119 156 inlet;
#X obj 192 156 inlet;
#X obj 119 236 outlet;
#X obj 192 236 outlet;
#X obj 119 216 - 5;
#X obj 192 216 - 5;
#X connect 0 0 8 0;
#X connect 1 0 0 0;
#X connect 2 0 9 0;
#X connect 3 0 2 0;
#X connect 4 0 1 0;
#X connect 5 0 3 0;
#X connect 8 0 6 0;
#X connect 9 0 7 0;
#X restore 125 123 pd translated;
#X obj 425 -25 grid grid1 100 0 10 100 0 10 0 0.1 0.1 10 10 502 38
;
#N canvas 67 113 450 300 translated 0;
#X obj 119 196 line;
#X msg 119 176 \$1 100;
#X obj 192 196 line;
#X msg 192 176 \$1 100;
#X obj 119 156 inlet;
#X obj 192 156 inlet;
#X obj 119 236 outlet;
#X obj 192 236 outlet;
#X obj 119 216 - 5;
#X obj 192 216 - 5;
#X connect 0 0 8 0;
#X connect 1 0 0 0;
#X connect 2 0 9 0;
#X connect 3 0 2 0;
#X connect 4 0 1 0;
#X connect 5 0 3 0;
#X connect 8 0 6 0;
#X connect 9 0 7 0;
#X restore 425 81 pd translated;
#X text 121 181 rotate cube;
#X obj 425 188 hsl 60 20 -5 5 0 0 empty empty empty -2 -8 0 10 -260097
-1 -1 2300 1;
#X text 492 188 rectangle size;
#X obj 439 138 hsl 60 20 0 360 0 0 empty empty empty -2 -8 0 10 -260097
-1 -1 2000 1;
#X text 506 139 rotate;
#X obj 385 281 spigot;
#X obj 418 261 tgl 15 0 empty empty empty 17 7 0 10 -4034 -1 -1 1 1
;
#X text 437 258 also use a sphere;
#X msg 195 -103 auto 1;
#X obj 195 -123 loadbang;
#X text 229 60 source position;
#X text 537 20 feedback position;
#X obj 125 -143 bng 15 250 50 0 empty empty empty 17 7 0 10 -258113
-1 -1;
#X obj 385 -261 cnv 15 110 70 empty empty empty 20 12 0 14 -257985
-66577 0;
#X text 389 -238 Antonio Roberts;
#X text 389 -218 hellocatfood.com;
#X text 389 -258 2012;
#X obj 85 -36 pix_contrast;
#X obj 235 -72 vsl 20 50 -5 5 0 0 empty empty empty 0 -9 0 10 -260097
-1 -1 0 1;
#X obj 265 -72 vsl 20 50 -5 5 0 0 empty empty empty 0 -9 0 10 -260097
-1 -1 0 1;
#X text 144 -145 load video;
#X text 180 -75 contrast;
#X text 290 -45 saturation;
#X obj 422 211 * 4;
#X obj 460 213 * 3;
#X obj 385 231 rectangle 4 3;
#X msg 269 -108 auto 0;
#X obj 296 -164 world_light;
#X obj 292 -185 gemhead 10;
#X obj 47 38 tgl 15 0 empty empty empty 17 7 0 10 -262144 -1 -1 0 1
;
#X obj 385 301 sphere 8;
#X obj 85 294 cube;
#X obj 85 -239 bng 30 250 50 0 empty empty empty 17 7 0 10 -4034 -1
-1;
#X obj 125 -219 bng 15 250 50 0 empty empty empty 17 7 0 10 -258113
-1 -1;
#X obj 125 -239 bng 15 250 50 0 empty empty empty 17 7 0 10 -4032 -1
-1;
#N canvas 220 245 450 300 window 0;
#X obj 30 149 gemwin;
#X msg 320 39 0 \, destroy;
#X obj 30 19 inlet;
#X obj 150 19 inlet;
#X obj 320 19 inlet;
#X msg 151 109 offset 1366 0;
#X msg 260 108 border 0;
#X msg 30 39 FSAA 8 \, create \, 1;
#X obj 332 162 world_light;
#X obj 332 132 gemhead;
#X msg 150 169 lighting \$1;
#X obj 150 149 inlet;
#X msg 249 14 800 600;
#X msg 160 79 dimen 1366 768;
#X connect 1 0 0 0;
#X connect 2 0 7 0;
#X connect 3 0 5 0;
#X connect 3 0 6 0;
#X connect 3 0 13 0;
#X connect 4 0 1 0;
#X connect 5 0 0 0;
#X connect 6 0 0 0;
#X connect 7 0 0 0;
#X connect 9 0 8 0;
#X connect 10 0 0 0;
#X connect 11 0 10 0;
#X connect 12 0 0 0;
#X connect 13 0 0 0;
#X restore 85 -200 pd window;
#X text 145 -241 press this first;
#X text 145 -221 destroy window;
#X text 82 -261 create window;
#X obj 155 -200 tgl 15 0 empty empty empty 17 7 0 10 -257985 -1 -1
0 1;
#X text 175 -201 lighting;
#X obj 385 -79 pix_snap 0 0 1366 768;
#X obj 541 -185 playlist all 200 100 {Helvetica 10 bold} #457782 yellow
black red;
#X msg 532 -227 location /home/hellocatfood/Desktop;
#X obj 125 -123 openpanel;
#X obj 102 204 metro 4;
#X obj 109 271 hsl 60 20 0 3 0 0 empty empty empty -2 -8 0 10 -260097
-1 -1 2400 1;
#X text 176 272 size;
#X obj 60 83 separator;
#X obj 360 33 separator;
#X obj 386 -175 gemhead 0;
#X connect 0 0 69 0;
#X connect 1 0 61 0;
#X connect 2 0 61 0;
#X connect 2 2 1 0;
#X connect 3 0 61 0;
#X connect 4 0 25 0;
#X connect 4 0 45 0;
#X connect 5 0 68 0;
#X connect 6 0 37 0;
#X connect 6 2 7 0;
#X connect 7 0 6 1;
#X connect 8 0 12 0;
#X connect 9 0 6 0;
#X connect 10 0 6 0;
#X connect 11 0 4 0;
#X connect 12 0 51 0;
#X connect 13 0 15 0;
#X connect 13 0 12 1;
#X connect 13 0 12 2;
#X connect 14 0 65 0;
#X connect 15 0 13 1;
#X connect 16 0 17 0;
#X connect 16 1 17 1;
#X connect 17 0 8 1;
#X connect 17 1 8 2;
#X connect 18 0 19 0;
#X connect 18 1 19 1;
#X connect 19 0 11 1;
#X connect 19 1 11 2;
#X connect 21 0 43 0;
#X connect 21 0 44 0;
#X connect 23 0 4 3;
#X connect 25 0 50 0;
#X connect 26 0 25 1;
#X connect 28 0 6 0;
#X connect 29 0 28 0;
#X connect 37 0 5 0;
#X connect 38 0 37 1;
#X connect 39 0 37 2;
#X connect 43 0 45 1;
#X connect 44 0 45 2;
#X connect 46 0 6 0;
#X connect 48 0 47 0;
#X connect 49 0 5 0;
#X connect 52 0 55 0;
#X connect 53 0 55 3;
#X connect 54 0 55 2;
#X connect 59 0 55 1;
#X connect 61 0 0 0;
#X connect 62 0 9 0;
#X connect 63 0 62 0;
#X connect 65 0 13 0;
#X connect 66 0 51 1;
#X connect 68 0 8 0;
#X connect 69 0 11 0;
#X connect 70 0 2 0;
