#N canvas 61 24 856 632 10;
#X obj 385 26 + 32;
#X obj 267 -110 tgl 15 0 empty empty empty 17 7 0 10 -262144 -1 -1
1 1;
#X obj 71 -1 gemhead;
#X obj 553 -53 gemwin;
#X obj 267 -18 t b b;
#X obj 71 231 color;
#X obj 429 134 counter 0 360;
#X obj 71 493 text3d;
#X obj 71 422 rotateXYZ 0 0 0;
#X msg 162 190 1 0 0;
#X msg 204 190 0 0 0;
#X msg 248 191 1 1 1;
#X obj 162 148 sel 0 1 2;
#X obj 385 -1 random 91;
#X obj 238 55 random 3;
#X obj 385 50 sel 36 37 42 43 45 60 61 62 91 92 93 94 95 96;
#X obj 94 279 random 80;
#X obj 94 308 - 40;
#X obj 94 333 / 10;
#X obj 155 277 random 80;
#X obj 155 306 - 40;
#X obj 155 331 / 10;
#X obj 71 362 translateXYZ 0 0 0;
#X obj 633 -96 loadbang;
#X obj 528 449 counter 1 150;
#X obj 528 476 * 2;
#X msg 608 524 3;
#X obj 608 478 sel 40;
#X obj 294 210 t b b;
#X text 203 -111 Start -->;
#X msg 633 -70 dimen 600 600 \, color 1 1 1 \, buffer 1 \, create \,
1;
#X msg 652 275 string \$1;
#X obj 267 -56 metro 1;
#N canvas 0 0 340 141 infos 0;
#X text 17 53 http://www.labomedia.net;
#X text 17 18 http://www.yamatierea.org/papatchs;
#X text 18 80 Avec l'aide précieuse de Benjamin Cadon.;
#X text 17 6 Tissé par Olivier Baudu.;
#X text 17 41 Pour le Labomedia.;
#X text 18 108 03/03/11;
#X restore 69 -93 pd infos;
#X msg 362 330 font champignon.ttf;
#X obj 362 303 loadbang;
#X floatatom 455 199 5 0 0 0 - - -;
#X floatatom 682 473 5 0 0 0 - - -;
#X symbolatom 670 347 10 0 0 0 - - -;
#X msg 557 252 2;
#X obj 529 -95 metro 50;
#X connect 0 0 15 0;
#X connect 1 0 32 0;
#X connect 1 0 40 0;
#X connect 2 0 5 0;
#X connect 4 0 2 0;
#X connect 4 1 6 0;
#X connect 4 1 13 0;
#X connect 4 1 14 0;
#X connect 4 1 28 0;
#X connect 5 0 22 0;
#X connect 6 0 8 3;
#X connect 6 0 36 0;
#X connect 8 0 7 0;
#X connect 9 0 5 1;
#X connect 10 0 5 1;
#X connect 11 0 5 1;
#X connect 12 0 9 0;
#X connect 12 1 10 0;
#X connect 12 2 11 0;
#X connect 13 0 0 0;
#X connect 14 0 12 0;
#X connect 15 14 31 0;
#X connect 16 0 17 0;
#X connect 17 0 18 0;
#X connect 18 0 22 1;
#X connect 19 0 20 0;
#X connect 20 0 21 0;
#X connect 21 0 22 2;
#X connect 22 0 8 0;
#X connect 23 0 30 0;
#X connect 24 0 25 0;
#X connect 24 0 37 0;
#X connect 25 0 27 0;
#X connect 25 0 7 1;
#X connect 26 0 25 1;
#X connect 27 0 26 0;
#X connect 28 0 16 0;
#X connect 28 1 19 0;
#X connect 30 0 3 0;
#X connect 31 0 7 0;
#X connect 32 0 4 0;
#X connect 34 0 7 0;
#X connect 35 0 34 0;
#X connect 39 0 24 1;
#X connect 39 0 6 1;
#X connect 40 0 3 0;
#X connect 40 0 24 0;
