#N canvas 61 24 648 660 10;
#X obj 488 57 gemwin;
#X msg 498 27 create \, 1;
#X msg 405 24 0 \, destroy;
#X obj 510 202 hsl 60 30 1 10 0 0 empty empty empty -2 -8 0 10 -260097
-1 -1 3278 1;
#X obj 33 183 playlist all 200 200 {Helvetica 10 bold} #457782 yellow
black red;
#X obj 33 123 counter;
#X msg 33 145 seek \$1;
#X msg 33 388 open \$1;
#X obj 33 425 pix_film;
#X msg 107 408 auto \$1;
#X obj 107 387 tgl 15 0 empty start empty 17 7 0 10 -260097 -1 -1 0
1;
#X obj 98 123 loadbang;
#X obj 402 481 pix_texture;
#X obj 402 389 pix_chroma_key;
#X msg 402 255 value \$1 \$2 \$3;
#X msg 402 278 range \$1 \$2 \$3;
#X obj 507 288 pack f f f;
#N canvas 267 123 450 300 random 0;
#X obj 311 38 inlet;
#X obj 131 38 inlet;
#X obj 131 197 line;
#X msg 131 176 \$1 300;
#X obj 131 216 outlet;
#X obj 131 111 metro 700;
#X obj 182 90 * 10;
#X obj 221 197 line;
#X msg 221 176 \$1 300;
#X obj 221 216 outlet;
#X obj 221 111 metro 700;
#X obj 272 90 * 10;
#X obj 311 197 line;
#X msg 311 176 \$1 300;
#X obj 311 216 outlet;
#X obj 311 111 metro 700;
#X obj 362 90 * 10;
#X obj 131 156 / 100;
#X obj 221 156 / 100;
#X obj 311 156 / 100;
#X obj 131 135 random 100;
#X obj 221 135 random 100;
#X obj 311 135 random 100;
#X connect 0 0 6 1;
#X connect 0 0 11 1;
#X connect 0 0 16 1;
#X connect 1 0 5 0;
#X connect 1 0 10 0;
#X connect 1 0 15 0;
#X connect 2 0 4 0;
#X connect 3 0 2 0;
#X connect 5 0 20 0;
#X connect 6 0 5 1;
#X connect 7 0 9 0;
#X connect 8 0 7 0;
#X connect 10 0 21 0;
#X connect 11 0 10 1;
#X connect 12 0 14 0;
#X connect 13 0 12 0;
#X connect 15 0 22 0;
#X connect 16 0 15 1;
#X connect 17 0 3 0;
#X connect 18 0 8 0;
#X connect 19 0 13 0;
#X connect 20 0 6 0;
#X connect 20 0 17 0;
#X connect 21 0 11 0;
#X connect 21 0 18 0;
#X connect 22 0 16 0;
#X connect 22 0 19 0;
#X restore 507 267 pd random;
#X obj 743 183 playlist all 200 200 {Helvetica 10 bold} #457782 yellow
black red;
#X obj 743 123 counter;
#X msg 743 145 seek \$1;
#X obj 808 123 loadbang;
#X msg 402 348 direction \$1;
#X obj 424 323 tgl 15 1 empty empty empty 0 -6 0 8 -262144 -1 -1 1
1;
#N canvas 66 24 450 300 bounce 0;
#X obj 195 162 counter;
#X msg 204 138 2;
#X msg 234 138 1;
#X msg 264 138 10;
#X obj 195 96 metro 400;
#X obj 204 117 loadbang;
#X obj 195 77 inlet;
#X obj 195 234 outlet;
#X obj 195 210 line;
#X msg 195 183 \$1 150;
#X floatatom 273 230 5 0 0 0 - - -;
#X connect 0 0 9 0;
#X connect 1 0 0 1;
#X connect 2 0 0 2;
#X connect 3 0 0 4;
#X connect 4 0 0 0;
#X connect 5 0 1 0;
#X connect 5 0 2 0;
#X connect 5 0 3 0;
#X connect 6 0 4 0;
#X connect 8 0 7 0;
#X connect 8 0 10 0;
#X connect 9 0 8 0;
#X restore 507 183 pd bounce;
#X obj 283 9 tgl 30 0 start empty empty 17 7 0 10 -258113 -1 -1 0 1
;
#X text 323 18 start;
#X obj 507 247 tgl 15 0 empty start empty 17 7 0 10 -260097 -1 -1 0
1;
#X obj 507 165 tgl 15 0 empty start empty 17 7 0 10 -260097 -1 -1 0
1;
#X obj 33 406 gemhead;
#X obj 33 506 # *;
#X obj 110 466 hsl 60 15 1 10 0 0 empty empty empty -2 -8 0 10 -260097
-1 -1 1967 1;
#N canvas 0 0 450 300 bounce 0;
#X obj 195 162 counter;
#X msg 204 138 2;
#X msg 264 138 10;
#X obj 204 117 loadbang;
#X obj 195 77 inlet;
#X obj 195 234 outlet;
#X obj 195 96 metro 100;
#X msg 234 138 1;
#X msg 195 186 \$1 100;
#X obj 195 211 line;
#X connect 0 0 8 0;
#X connect 1 0 0 1;
#X connect 2 0 0 4;
#X connect 3 0 1 0;
#X connect 3 0 7 0;
#X connect 3 0 2 0;
#X connect 4 0 6 0;
#X connect 6 0 0 0;
#X connect 7 0 0 2;
#X connect 8 0 9 0;
#X connect 9 0 5 0;
#X restore 107 447 pd bounce;
#X obj 107 429 tgl 15 0 empty start empty 17 7 0 10 -260097 -1 -1 0
1;
#X obj 507 348 pack f f f;
#N canvas 267 123 450 300 random 0;
#X obj 311 38 inlet;
#X obj 131 38 inlet;
#X obj 131 197 line;
#X msg 131 176 \$1 300;
#X obj 131 216 outlet;
#X obj 131 156 / 100;
#X obj 131 111 metro 700;
#X obj 182 90 * 10;
#X obj 221 197 line;
#X msg 221 176 \$1 300;
#X obj 221 216 outlet;
#X obj 221 156 / 100;
#X obj 221 111 metro 700;
#X obj 272 90 * 10;
#X obj 311 197 line;
#X msg 311 176 \$1 300;
#X obj 311 216 outlet;
#X obj 311 156 / 100;
#X obj 311 111 metro 700;
#X obj 362 90 * 10;
#X obj 131 135 random 100;
#X obj 221 135 random 100;
#X obj 311 135 random 100;
#X floatatom 194 256 5 0 0 0 - - -;
#X floatatom 260 254 5 0 0 0 - - -;
#X connect 0 0 7 1;
#X connect 0 0 13 1;
#X connect 0 0 19 1;
#X connect 1 0 6 0;
#X connect 1 0 12 0;
#X connect 1 0 18 0;
#X connect 2 0 4 0;
#X connect 3 0 2 0;
#X connect 5 0 3 0;
#X connect 5 0 23 0;
#X connect 6 0 20 0;
#X connect 7 0 6 1;
#X connect 8 0 10 0;
#X connect 9 0 8 0;
#X connect 11 0 9 0;
#X connect 11 0 24 0;
#X connect 12 0 21 0;
#X connect 13 0 12 1;
#X connect 14 0 16 0;
#X connect 15 0 14 0;
#X connect 17 0 15 0;
#X connect 18 0 22 0;
#X connect 19 0 18 1;
#X connect 20 0 7 0;
#X connect 20 0 5 0;
#X connect 21 0 13 0;
#X connect 21 0 11 0;
#X connect 22 0 19 0;
#X connect 22 0 17 0;
#X restore 507 327 pd random;
#X obj 507 307 tgl 15 0 empty start empty 17 7 0 10 -260097 -1 -1 0
1;
#X obj 33 526 #to_pix \, colorspace rgba;
#X obj 33 485 #from_pix \, colorspace rgba;
#X obj 33 445 pix_rgba;
#X msg 743 388 open \$1;
#X obj 743 425 pix_film;
#X msg 817 408 auto \$1;
#X obj 817 387 tgl 15 0 empty start empty 17 7 0 10 -260097 -1 -1 0
1;
#X obj 743 406 gemhead;
#X obj 743 506 # *;
#X obj 820 466 hsl 60 15 1 10 0 0 empty empty empty -2 -8 0 10 -260097
-1 -1 5900 1;
#N canvas 0 0 450 300 bounce 0;
#X obj 195 162 counter;
#X msg 204 138 2;
#X msg 264 138 10;
#X obj 204 117 loadbang;
#X obj 195 77 inlet;
#X obj 195 234 outlet;
#X msg 234 138 1;
#X msg 195 186 \$1 100;
#X obj 195 211 line;
#X obj 195 96 metro 350;
#X connect 0 0 7 0;
#X connect 1 0 0 1;
#X connect 2 0 0 4;
#X connect 3 0 1 0;
#X connect 3 0 6 0;
#X connect 3 0 2 0;
#X connect 4 0 9 0;
#X connect 6 0 0 2;
#X connect 7 0 8 0;
#X connect 8 0 5 0;
#X connect 9 0 0 0;
#X restore 817 447 pd bounce;
#X obj 817 429 tgl 15 0 empty start empty 17 7 0 10 -260097 -1 -1 0
1;
#X obj 743 526 #to_pix \, colorspace rgba;
#X obj 743 485 #from_pix \, colorspace rgba;
#X obj 743 445 pix_rgba;
#X obj 743 549 pix_buf;
#X msg 98 145 location /home/hellocatfood/Desktop/;
#X msg 533 661 start;
#N canvas 59 24 450 300 filechooser 0;
#X msg 136 98 open /home/hellocatfood/Desktop/movie.mov;
#X msg 136 138 jpeg \$1;
#X msg 188 137 framerate \$1;
#X msg 310 181 symbol jpeg;
#X msg 136 177 compressor \$1;
#X msg 278 138 symbol raw;
#X msg 310 221 symbol divx;
#X msg 310 241 symbol dv;
#X msg 310 201 symbol yuv2;
#X msg 188 118 25;
#X msg 136 118 1000;
#X obj 169 25 loadbang;
#X obj 169 49 t b b b b;
#X obj 113 47 inlet;
#X obj 75 243 outlet;
#X connect 0 0 14 0;
#X connect 1 0 14 0;
#X connect 2 0 14 0;
#X connect 3 0 4 0;
#X connect 4 0 14 0;
#X connect 5 0 4 0;
#X connect 6 0 4 0;
#X connect 7 0 4 0;
#X connect 8 0 4 0;
#X connect 9 0 2 0;
#X connect 10 0 1 0;
#X connect 11 0 12 0;
#X connect 12 1 10 0;
#X connect 12 2 9 0;
#X connect 12 3 5 0;
#X connect 13 0 0 0;
#X restore 583 661 pd filechooser;
#X msg 432 601 stop;
#X obj 432 629 #to_pdp;
#X obj 400 537 #from_pix \, colorspace rgb;
#X obj 583 601 tgl 15 0 empty empty empty 17 7 0 10 -262144 -1 -1 0
1;
#X obj 583 620 sel 1;
#X obj 583 641 bng 15 250 50 0 empty empty empty 17 7 0 10 -262144
-1 -1;
#X obj 533 561 tgl 15 0 empty start empty 17 7 0 10 -262144 -1 -1 0
1;
#X obj 533 620 sel 1;
#X obj 533 641 bng 15 250 50 0 empty empty empty 17 7 0 10 -262144
-1 -1;
#X obj 533 578 t b b;
#X obj 533 601 tgl 15 0 empty empty empty 17 7 0 10 -262144 -1 -1 0
1;
#X msg 808 145 location /home/hellocatfood/Desktop/;
#X obj 402 512 rectangle 4 3;
#X obj 432 658 pdp_rec~a;
#X obj 251 77 pix_image;
#X obj 586 183 somepixeffects;
#X obj 237 183 somepixeffects;
#X connect 1 0 0 0;
#X connect 2 0 0 0;
#X connect 3 0 17 1;
#X connect 3 0 35 1;
#X connect 4 0 7 0;
#X connect 5 0 6 0;
#X connect 6 0 4 0;
#X connect 7 0 8 0;
#X connect 8 0 39 0;
#X connect 9 0 8 0;
#X connect 10 0 9 0;
#X connect 11 0 53 0;
#X connect 12 0 68 0;
#X connect 13 0 12 0;
#X connect 14 0 13 0;
#X connect 15 0 13 0;
#X connect 16 0 14 0;
#X connect 17 0 16 0;
#X connect 17 1 16 1;
#X connect 17 2 16 2;
#X connect 18 0 40 0;
#X connect 19 0 20 0;
#X connect 20 0 18 0;
#X connect 21 0 67 0;
#X connect 22 0 13 0;
#X connect 23 0 22 0;
#X connect 24 0 3 0;
#X connect 27 0 17 0;
#X connect 28 0 24 0;
#X connect 29 0 8 0;
#X connect 29 0 37 0;
#X connect 30 0 37 1;
#X connect 31 0 30 1;
#X connect 32 0 31 0;
#X connect 33 0 32 0;
#X connect 34 0 15 0;
#X connect 35 0 34 0;
#X connect 35 1 34 1;
#X connect 35 2 34 2;
#X connect 36 0 35 0;
#X connect 37 0 72 0;
#X connect 38 0 30 0;
#X connect 39 0 38 0;
#X connect 40 0 41 0;
#X connect 41 0 51 0;
#X connect 41 2 19 0;
#X connect 41 2 23 0;
#X connect 42 0 41 0;
#X connect 43 0 42 0;
#X connect 44 0 41 0;
#X connect 44 0 49 0;
#X connect 45 0 49 1;
#X connect 46 0 45 1;
#X connect 47 0 46 0;
#X connect 48 0 47 0;
#X connect 49 0 52 0;
#X connect 50 0 45 0;
#X connect 51 0 50 0;
#X connect 52 0 71 0;
#X connect 53 0 4 0;
#X connect 54 0 69 0;
#X connect 55 0 69 0;
#X connect 56 0 69 0;
#X connect 57 0 69 0;
#X connect 58 0 57 0;
#X connect 59 0 60 0;
#X connect 60 0 61 0;
#X connect 61 0 55 0;
#X connect 62 0 65 0;
#X connect 63 0 64 0;
#X connect 64 0 54 0;
#X connect 65 0 66 0;
#X connect 65 1 59 0;
#X connect 66 0 63 0;
#X connect 67 0 18 0;
#X connect 68 0 58 0;
#X connect 71 0 13 1;
#X connect 72 0 13 0;
