#N canvas 1622 156 1299 685 12;
#X obj 16 40 gemwin;
#N canvas 313 511 834 348 init 0;
#X obj 45 213 outlet;
#X obj 45 80 loadbang;
#X msg 45 120 fogmode 1 \, fog 0.5 \, color 0.2 0 0.5 \, fogcolor 0.2
0 0.5 \, lighting 1;
#X connect 1 0 2 0;
#X connect 2 0 0 0;
#X restore 16 14 pd init;
#X obj 38 115 gemhead;
#X obj 75 42 tgl 15 0 empty empty empty 0 -6 0 8 -262144 -1 -1 1 1
;
#N canvas 834 83 458 308 light 0;
#X obj 43 35 gemhead;
#X obj 43 75 world_light;
#X obj 126 26 loadbang;
#X msg 126 51 1 1 0;
#X connect 0 0 1 0;
#X connect 2 0 3 0;
#X connect 3 0 1 1;
#X restore 16 69 pd light;
#X msg 86 15 create;
#X floatatom 67 435 5 0 0 0 - - -;
#X obj 38 165 t a b;
#X msg 196 231 0;
#X obj 177 261 i;
#X obj 210 261 + 1;
#X obj 25 318 separator;
#X obj 177 296 +;
#X obj 251 195 f;
#X obj 38 95 bng 15 250 50 0 empty empty empty 0 -6 0 8 -262144 -1
-1;
#X msg 270 160 0;
#X floatatom 622 207 5 0 0 0 - - -;
#X floatatom 553 209 5 0 0 0 - - -;
#X obj 37 463 sphere;
#X obj 37 364 translateXYZ -4 0 1;
#X floatatom 153 500 5 0 0 0 - - -;
#X obj 38 192 repeat 90;
#X obj 284 197 + 0.4;
#X floatatom 475 205 5 0 0 0 - - -;
#X floatatom 117 96 5 0 0 0 - - -;
#X obj 183 384 loadbang;
#X msg 164 425 3;
#X obj 16 265 rotateXYZ 8 1 13;
#X obj 38 141 translateXYZ -3 2 -20;
#X text 504 170 play with this;
#N canvas 834 452 466 316 fmod 0;
#X obj 67 37 inlet;
#X obj 67 211 outlet;
#X obj 67 103 % 23;
#X obj 118 118 i;
#X obj 93 146 -;
#X obj 67 182 +;
#X obj 67 62 t f f f;
#X connect 0 0 6 0;
#X connect 2 0 5 0;
#X connect 3 0 4 1;
#X connect 4 0 5 1;
#X connect 5 0 1 0;
#X connect 6 0 2 0;
#X connect 6 1 4 0;
#X connect 6 2 3 0;
#X restore 178 324 pd fmod 90;
#X obj 38 221 t a b b;
#X obj 729 222 colorRGB;
#X obj 729 83 repeat 10;
#X obj 728 144 f;
#X obj 767 142 + 10;
#X obj 731 174 % 100;
#X obj 731 199 / 100;
#X obj 726 112 metro 1000;
#X obj 530 504 random 100;
#X obj 504 539 / 100;
#X floatatom 500 570 5 0 0 0 - - -;
#X obj 506 477 metro 100;
#X obj 504 449 tgl 15 0 empty empty empty 17 7 0 10 -262144 -1 -1 0
1;
#X obj 353 498 gemhead;
#X obj 433 466 bang;
#X obj 557 362 colorRGB;
#X obj 634 79 bng 15 250 50 0 empty empty empty 17 7 0 10 -262144 -1
-1;
#X connect 1 0 0 0;
#X connect 2 0 28 0;
#X connect 3 0 0 0;
#X connect 5 0 0 0;
#X connect 6 0 18 1;
#X connect 7 0 21 0;
#X connect 7 1 8 0;
#X connect 7 1 13 0;
#X connect 8 0 9 1;
#X connect 9 0 10 0;
#X connect 9 0 12 0;
#X connect 10 0 9 1;
#X connect 11 0 19 0;
#X connect 12 0 30 0;
#X connect 13 0 12 1;
#X connect 13 0 22 0;
#X connect 14 0 2 0;
#X connect 15 0 13 1;
#X connect 16 0 19 1;
#X connect 17 0 27 3;
#X connect 19 0 18 0;
#X connect 20 0 18 2;
#X connect 21 0 31 0;
#X connect 22 0 13 1;
#X connect 23 0 27 1;
#X connect 24 0 28 1;
#X connect 25 0 26 0;
#X connect 26 0 6 0;
#X connect 27 0 11 0;
#X connect 28 0 7 0;
#X connect 30 0 19 3;
#X connect 31 0 32 0;
#X connect 31 1 9 0;
#X connect 32 0 27 0;
#X connect 34 0 35 0;
#X connect 34 0 36 0;
#X connect 35 0 34 1;
#X connect 36 0 37 0;
#X connect 37 0 32 1;
#X connect 38 0 34 0;
#X connect 39 0 40 0;
#X connect 40 0 41 0;
#X connect 43 0 42 0;
#X connect 45 0 39 0;
#X connect 47 0 38 0;
