#N canvas 0 0 450 300 10;
#X obj -48 222 s colorR;
#X obj 106 119 tgl 15 1 empty empty empty 17 7 0 10 -258113 -1 -1 1
1;
#X obj 135 119 tgl 15 1 empty empty empty 17 7 0 10 -4034 -1 -1 0 1
;
#X obj 164 119 tgl 15 1 empty empty empty 17 7 0 10 -4160 -1 -1 0 1
;
#X obj 11 222 s colorV;
#X obj 70 222 s colorB;
#X obj -48 119 inlet;
#X obj -48 195 spigot;
#X obj 11 195 spigot;
#X obj 70 195 spigot;
#X obj 106 8 init \$1;
#X obj 135 35 init \$2;
#X obj 164 62 init \$3;
#X connect 1 0 7 1;
#X connect 2 0 8 1;
#X connect 3 0 9 1;
#X connect 6 0 7 0;
#X connect 6 0 8 0;
#X connect 6 0 9 0;
#X connect 7 0 0 0;
#X connect 8 0 4 0;
#X connect 9 0 5 0;
#X connect 10 0 1 0;
#X connect 11 0 2 0;
#X connect 12 0 3 0;
#X coords 0 -1 1 1 85 40 1 100 100;
